<svg version="1.1" xmlns="http://www.w3.org/2000/svg" viewBox="0 0 2526.806696467533 721.4761904761905" width="2526.806696467533" height="721.4761904761905">
  <!-- svg-source:excalidraw -->
  
  <defs>
    <style>
      @font-face {
        font-family: "Virgil";
        src: url("https://excalidraw.com/Virgil.woff2");
      }
      @font-face {
        font-family: "Cascadia";
        src: url("https://excalidraw.com/Cascadia.woff2");
      }
    </style>
  </defs>
  <g stroke-opacity="0.3" fill-opacity="0.3" stroke-linecap="round" transform="translate(367.5399387733848 131.47619047619048) rotate(0 842.2857142857142 290)"><path d="M28.03 45.56 C28.03 45.56, 28.03 45.56, 28.03 45.56 M28.03 45.56 C28.03 45.56, 28.03 45.56, 28.03 45.56 M15.96 65.55 C25.07 52.82, 37.83 44.34, 47.45 29.32 M15.96 65.55 C27.67 53.12, 38.71 39.47, 47.45 29.32 M17.01 70.44 C33.93 53.33, 49.87 35.21, 58.34 22.89 M17.01 70.44 C33.68 52.75, 49.19 34.64, 58.34 22.89 M10.84 83.63 C27.46 65.68, 39.89 45.79, 69.89 15.7 M10.84 83.63 C27.37 66.18, 41.27 48.24, 69.89 15.7 M9.27 91.53 C23.48 75.04, 38.41 58.86, 77.5 13.04 M9.27 91.53 C32.76 66.01, 55.47 40.09, 77.5 13.04 M7.04 100.19 C27.19 75.02, 48.23 51.21, 85.11 10.38 M7.04 100.19 C26.1 78.67, 43.05 58.84, 85.11 10.38 M2.84 111.12 C23.22 85.93, 46 62.66, 92.72 7.73 M2.84 111.12 C36.66 71.76, 69 34.32, 92.72 7.73 M1.92 118.27 C23.19 96.21, 41.59 70.09, 98.36 7.33 M1.92 118.27 C36.86 78.41, 70.67 38.89, 98.36 7.33 M1.66 124.67 C27.77 91.83, 54.66 62.61, 104.66 6.18 M1.66 124.67 C36.8 83.65, 71.51 44.05, 104.66 6.18 M1.4 131.07 C41.73 82.3, 83.12 34.77, 112.27 3.52 M1.4 131.07 C45.08 82.54, 87.24 34.72, 112.27 3.52 M1.14 137.47 C47.52 84.54, 92.25 32.39, 117.92 3.13 M1.14 137.47 C27.92 108.06, 51.65 77.83, 117.92 3.13 M0.22 144.62 C31.91 109.93, 63.65 73.24, 123.56 2.73 M0.22 144.62 C30 111.31, 58.05 78.25, 123.56 2.73 M3.24 147.24 C48.63 94.81, 94.1 46.79, 129.2 2.34 M3.24 147.24 C28.7 118.43, 55.44 88.3, 129.2 2.34 M2.98 153.64 C48.24 100.91, 93.49 47.52, 134.85 1.94 M2.98 153.64 C42.68 109.02, 82.3 64.3, 134.85 1.94 M2.72 160.04 C46.23 111.33, 89.27 58.71, 140.49 1.55 M2.72 160.04 C56.57 96.02, 110.67 33.01, 140.49 1.55 M3.11 165.68 C54.39 104.17, 106.54 45.94, 146.13 1.15 M3.11 165.68 C49.28 110.23, 95.56 57.69, 146.13 1.15 M2.85 172.08 C57.09 109.19, 112.19 47.51, 151.78 0.76 M2.85 172.08 C52.62 114.2, 103.29 55.39, 151.78 0.76 M3.24 177.72 C36.88 141.29, 70.19 101.52, 156.76 1.12 M3.24 177.72 C58.78 113.65, 114.58 50.43, 156.76 1.12 M2.98 184.12 C58.06 119.22, 114.79 54.25, 162.41 0.73 M2.98 184.12 C49.57 133.72, 93.26 80.38, 162.41 0.73 M2.72 190.52 C65.66 112.8, 131.32 37.43, 167.39 1.09 M2.72 190.52 C66.86 115.75, 132.21 39.78, 167.39 1.09 M3.12 196.16 C50.77 143.66, 96.23 88.75, 173.04 0.69 M3.12 196.16 C54.21 135.39, 106.07 77.69, 173.04 0.69 M2.86 202.56 C48.65 151.95, 93.42 100.93, 178.02 1.05 M2.86 202.56 C56.89 138.99, 112.48 77.18, 178.02 1.05 M3.25 208.2 C55.66 145.34, 112.13 84.12, 183.01 1.41 M3.25 208.2 C74.55 129.28, 142.32 49.75, 183.01 1.41 M2.99 214.6 C55.51 152.4, 108.03 92.15, 188.65 1.02 M2.99 214.6 C64.78 143.13, 128.34 70.82, 188.65 1.02 M2.73 221 C63.01 147.14, 126.65 76.67, 193.64 1.38 M2.73 221 C68.07 145.69, 134.97 67.26, 193.64 1.38 M3.12 226.64 C49.57 173.57, 97.16 118.87, 199.28 0.98 M3.12 226.64 C81.66 138.23, 158.51 49.77, 199.28 0.98 M2.86 233.04 C49.65 175.49, 100.47 119.32, 204.27 1.34 M2.86 233.04 C70.54 154.2, 138.21 77.41, 204.27 1.34 M3.25 238.68 C49.27 185, 94.27 130.39, 209.91 0.95 M3.25 238.68 C78.54 153.06, 153.39 68.02, 209.91 0.95 M2.99 245.08 C53.88 184.2, 106.71 125.81, 214.9 1.31 M2.99 245.08 C63.16 175.6, 125.27 104.15, 214.9 1.31 M2.73 251.48 C48.81 197.91, 92.54 146.21, 220.54 0.91 M2.73 251.48 C87.13 154.46, 171.18 56.83, 220.54 0.91 M3.13 257.12 C78.56 167.59, 155.54 80.36, 225.53 1.27 M3.13 257.12 C66.91 181.95, 131.39 108.42, 225.53 1.27 M2.86 263.52 C70.32 186.02, 139.56 108.09, 231.17 0.88 M2.86 263.52 C47.32 210.52, 93.42 157.23, 231.17 0.88 M3.26 269.16 C56.52 208.53, 112.05 146.68, 236.16 1.24 M3.26 269.16 C57.97 208.44, 111.38 145.92, 236.16 1.24 M3 275.56 C64.74 200.95, 129.06 125.29, 241.8 0.84 M3 275.56 C96.59 166.18, 190.89 58.76, 241.8 0.84 M2.74 281.96 C58.23 218.87, 113.64 154.56, 246.79 1.2 M2.74 281.96 C81.82 188, 163.25 95.59, 246.79 1.2 M3.13 287.6 C65.17 215.31, 127.99 145.58, 252.43 0.81 M3.13 287.6 C83.73 192.91, 165.57 99.06, 252.43 0.81 M2.87 294 C91.45 191.71, 179.65 89.99, 257.42 1.17 M2.87 294 C59.78 226.83, 116.13 161.29, 257.42 1.17 M3.26 299.64 C59.86 235.49, 117.57 168.83, 263.06 0.78 M3.26 299.64 C63.48 229.19, 125.07 158.18, 263.06 0.78 M3 306.04 C56.97 243.23, 112.93 179.43, 268.05 1.14 M3 306.04 C72.42 223.78, 143.33 142.93, 268.05 1.14 M2.74 312.44 C87.04 213.03, 172.22 114.99, 273.69 0.74 M2.74 312.44 C92.64 211.26, 180.18 109.92, 273.69 0.74 M3.14 318.08 C98.36 208.81, 191.98 100.97, 278.68 1.1 M3.14 318.08 C69.04 242.44, 134.98 166.91, 278.68 1.1 M2.87 324.48 C96.29 218.38, 187.41 114.84, 284.32 0.71 M2.87 324.48 C79.77 237, 154.02 150.35, 284.32 0.71 M3.27 330.12 C81.88 240.9, 159.26 150.4, 289.31 1.07 M3.27 330.12 C69.85 252.92, 135.07 176.81, 289.31 1.07 M3.01 336.52 C116.88 204.85, 230.51 73.94, 294.3 1.43 M3.01 336.52 C93.36 232.81, 183.78 129.95, 294.3 1.43 M2.75 342.92 C73.42 263.41, 143.38 183.69, 299.94 1.03 M2.75 342.92 C110.92 218.32, 219.16 93.7, 299.94 1.03 M3.14 348.56 C98.08 237.44, 194.72 126.57, 304.93 1.39 M3.14 348.56 C113.98 222.5, 223.89 96.76, 304.93 1.39 M2.88 354.96 C83.98 259.76, 167.21 164.81, 310.57 1 M2.88 354.96 C89.32 256.29, 174.69 158.67, 310.57 1 M3.27 360.6 C85.66 267.73, 165.28 174.88, 315.56 1.36 M3.27 360.6 C101.09 248.52, 199.78 135.46, 315.56 1.36 M3.01 367 C105.68 250.41, 209.72 132.02, 321.2 0.96 M3.01 367 C76.55 283.45, 148.56 199.8, 321.2 0.96 M2.75 373.4 C72.45 292.94, 143.15 211.35, 326.19 1.32 M2.75 373.4 C108.76 252.03, 212.58 132.06, 326.19 1.32 M3.15 379.04 C113.34 250.95, 225.91 121.86, 331.83 0.93 M3.15 379.04 C130.61 231.63, 258.79 84.12, 331.83 0.93 M2.88 385.44 C124.73 244.82, 246.68 105.77, 336.82 1.29 M2.88 385.44 C106.59 266.36, 210.06 147.54, 336.82 1.29 M3.28 391.08 C130.54 244.73, 259.38 97.07, 342.46 0.89 M3.28 391.08 C126.73 247.64, 251.7 104.07, 342.46 0.89 M3.02 397.48 C111.37 274.56, 219.51 149.01, 347.45 1.25 M3.02 397.48 C97.54 288.19, 191.97 180.23, 347.45 1.25 M2.76 403.87 C104.32 288.92, 205.82 170.6, 353.09 0.86 M2.76 403.87 C99.73 293.36, 196.2 181.89, 353.09 0.86 M3.15 409.52 C89.02 312.19, 173.23 214.58, 358.08 1.22 M3.15 409.52 C138.2 255.79, 273.62 100.75, 358.08 1.22 M2.89 415.92 C92.91 314.35, 179.75 212.29, 363.72 0.83 M2.89 415.92 C94.53 309.41, 187.33 202.44, 363.72 0.83 M3.28 421.56 C139.49 267.65, 274.65 112.1, 368.71 1.19 M3.28 421.56 C101.31 310.58, 198.52 198.9, 368.71 1.19 M3.02 427.96 C80.19 340.6, 156.02 252.62, 374.35 0.79 M3.02 427.96 C138.49 271.16, 275.68 113.96, 374.35 0.79 M1.45 435.86 C108.76 312.02, 217.08 188.21, 379.34 1.15 M1.45 435.86 C130.12 287.51, 258.29 139.83, 379.34 1.15 M1.84 441.51 C96.01 335.48, 188.96 229.44, 384.98 0.76 M1.84 441.51 C112.47 313.11, 224.02 185.02, 384.98 0.76 M2.24 447.15 C88.65 345.72, 175.98 245.84, 389.97 1.12 M2.24 447.15 C108.45 323.35, 216.51 199.29, 389.97 1.12 M2.63 452.79 C97.29 344.37, 189.63 236.5, 395.61 0.72 M2.63 452.79 C88.78 351.45, 176.87 250.28, 395.61 0.72 M3.03 458.44 C155.86 284.46, 305.66 110.05, 400.6 1.08 M3.03 458.44 C132.67 309.92, 262.72 159.88, 400.6 1.08 M3.42 464.08 C153.19 291.67, 302.96 119.83, 406.24 0.69 M3.42 464.08 C159.48 283.91, 315.41 104.71, 406.24 0.69 M3.82 469.72 C165.91 283.78, 328.09 98.96, 411.23 1.05 M3.82 469.72 C90.55 371.67, 174.53 274.43, 411.23 1.05 M4.87 474.61 C98.51 366.39, 193.53 259.3, 416.22 1.41 M4.87 474.61 C137.63 321.22, 270.64 168.46, 416.22 1.41 M5.92 479.5 C121.69 347.31, 234.72 215.77, 421.86 1.01 M5.92 479.5 C92.68 381.22, 178.34 282.3, 421.86 1.01 M6.97 484.39 C133.06 340.61, 258.5 195.17, 426.85 1.37 M6.97 484.39 C171.58 295.6, 336.64 106.73, 426.85 1.37 M8.02 489.28 C122.28 357.04, 236.71 224.37, 432.49 0.98 M8.02 489.28 C127.65 352.63, 248.06 214.21, 432.49 0.98 M9.07 494.16 C129.48 357.1, 249.52 218.25, 437.48 1.34 M9.07 494.16 C125.41 357.45, 243.45 222.21, 437.48 1.34 M10.12 499.05 C180.87 301.56, 351.36 105.24, 443.12 0.94 M10.12 499.05 C169.61 318.59, 327.82 136.18, 443.12 0.94 M11.83 503.19 C173.14 317.95, 335.73 131.22, 448.11 1.3 M11.83 503.19 C130.08 366.19, 249.79 228.94, 448.11 1.3 M13.53 507.32 C151.79 347.78, 288.99 189.79, 453.75 0.91 M13.53 507.32 C126.12 377.75, 237.82 249.09, 453.75 0.91 M14.58 512.21 C183.82 319.15, 353.02 125.23, 458.74 1.27 M14.58 512.21 C108.6 405.67, 202.06 297.86, 458.74 1.27 M16.95 515.59 C125.63 391.13, 234.99 264.78, 464.38 0.87 M16.95 515.59 C158.89 350.91, 301.28 186.95, 464.38 0.87 M19.31 518.97 C113.79 409.73, 210 299.83, 469.37 1.23 M19.31 518.97 C167.68 349.96, 315.67 179.63, 469.37 1.23 M21.02 523.1 C140.55 384.72, 261.68 245.97, 475.01 0.84 M21.02 523.1 C200.18 314.67, 380.59 107.29, 475.01 0.84 M23.38 526.48 C200.83 326.48, 377.61 123.95, 480 1.2 M23.38 526.48 C201.95 322.71, 380.06 118.63, 480 1.2 M25.74 529.86 C120.49 422.6, 212.69 314.77, 485.64 0.81 M25.74 529.86 C163.89 369.39, 302.13 210.15, 485.64 0.81 M27.45 533.99 C175.05 364.67, 322.06 196.58, 490.63 1.17 M27.45 533.99 C202.09 332.66, 376.01 132.32, 490.63 1.17 M30.47 536.62 C189.31 356.88, 346.95 175.21, 496.27 0.77 M30.47 536.62 C176.69 367.61, 322.56 199.52, 496.27 0.77 M33.49 539.24 C141.46 417.85, 248.21 295.1, 501.26 1.13 M33.49 539.24 C216.38 329.45, 399.14 119.1, 501.26 1.13 M36.51 541.86 C185.88 369.7, 334.97 198.48, 506.9 0.74 M36.51 541.86 C168.87 390.52, 300.89 238.82, 506.9 0.74 M38.87 545.24 C157.28 409.4, 277.37 271.47, 511.89 1.1 M38.87 545.24 C207.01 349.45, 376.61 153.84, 511.89 1.1 M41.89 547.87 C150.72 423.47, 259.91 299.85, 517.53 0.7 M41.89 547.87 C198.47 367.51, 354.54 188.5, 517.53 0.7 M44.91 550.49 C198.36 376.02, 350.67 200.41, 522.52 1.06 M44.91 550.49 C201.56 372.56, 356.43 194.47, 522.52 1.06 M47.27 553.87 C198.5 376.34, 350.75 200.96, 527.5 1.42 M47.27 553.87 C212.73 362.54, 377.37 172.66, 527.5 1.42 M50.94 555.74 C180.99 406.02, 310.52 257.7, 533.15 1.03 M50.94 555.74 C220.61 359.78, 388.81 165.94, 533.15 1.03 M53.96 558.36 C196.03 393.79, 336.8 231.2, 538.13 1.39 M53.96 558.36 C197.6 395.72, 338.55 233.28, 538.13 1.39 M57.64 560.23 C224.2 369.35, 388.87 179.98, 543.78 0.99 M57.64 560.23 C163.04 435.09, 270.28 311.68, 543.78 0.99 M61.31 562.1 C162.76 445.91, 263.07 329.79, 548.76 1.35 M61.31 562.1 C207.38 391.63, 355.26 221.52, 548.76 1.35 M64.99 563.97 C204.6 403.72, 342.67 244.93, 554.41 0.96 M64.99 563.97 C232.33 372.08, 398.94 179.39, 554.41 0.96 M68.66 565.84 C250.77 353.66, 434.54 142.12, 559.39 1.32 M68.66 565.84 C257.05 349.77, 443.92 134.19, 559.39 1.32 M72.99 566.96 C194.96 426.4, 317.4 286.35, 565.04 0.92 M72.99 566.96 C191.16 434.6, 308.29 299.92, 565.04 0.92 M76.67 568.83 C205.19 422.34, 334.95 274.46, 570.02 1.28 M76.67 568.83 C226.12 398.65, 373.4 228.7, 570.02 1.28 M80.34 570.7 C223.38 401.94, 368.49 235.85, 575.67 0.89 M80.34 570.7 C207.66 424.73, 333.55 279.44, 575.67 0.89 M84.02 572.57 C274.11 350.24, 466.94 129.05, 580.65 1.25 M84.02 572.57 C232.5 401.47, 381.1 230.61, 580.65 1.25 M88.35 573.68 C229.33 413.77, 368.2 253.16, 586.3 0.86 M88.35 573.68 C214.66 427.03, 342.47 279.79, 586.3 0.86 M92.68 574.79 C209.7 441.88, 324.71 307.77, 591.28 1.22 M92.68 574.79 C289.29 350.23, 486 124.08, 591.28 1.22 M97.01 575.91 C285.65 362.67, 471.4 148.08, 596.93 0.82 M97.01 575.91 C263.95 383.37, 431.01 191.28, 596.93 0.82 M101.34 577.02 C263.1 390.26, 423.92 204.46, 601.91 1.18 M101.34 577.02 C237.62 423.38, 372.84 268.27, 601.91 1.18 M105.67 578.14 C276.71 381.9, 448.94 184.91, 607.56 0.79 M105.67 578.14 C250.57 413.04, 395.1 246.68, 607.56 0.79 M111.32 577.74 C284.36 378.5, 458.93 178.66, 612.54 1.15 M111.32 577.74 C299.8 362.39, 489.06 144.5, 612.54 1.15 M116.3 578.1 C247.01 426.51, 379.15 274.83, 618.19 0.75 M116.3 578.1 C291.12 378.12, 465.81 178.07, 618.19 0.75 M121.29 578.46 C246.06 437.51, 368.57 295.01, 623.17 1.11 M121.29 578.46 C245.2 439.5, 367.65 298.62, 623.17 1.11 M126.28 578.83 C234.52 452.42, 342.58 326.94, 628.82 0.72 M126.28 578.83 C255.77 427.54, 385.82 277.48, 628.82 0.72 M131.26 579.19 C288.22 399.78, 442.96 221.98, 633.8 1.08 M131.26 579.19 C312.16 369.24, 493.42 160.42, 633.8 1.08 M136.25 579.55 C333.9 355.64, 527.81 131.26, 639.45 0.68 M136.25 579.55 C331.9 351.95, 528.95 125.3, 639.45 0.68 M141.24 579.91 C290.4 410.06, 436.06 241.08, 644.43 1.04 M141.24 579.91 C290.12 406.29, 439.18 234.71, 644.43 1.04 M145.57 581.02 C328.53 368.78, 512.49 157.48, 649.42 1.4 M145.57 581.02 C263 445.13, 380.01 310.95, 649.42 1.4 M151.21 580.63 C301.91 408.65, 449.32 237.77, 655.06 1.01 M151.21 580.63 C346.56 358.01, 540.52 135.23, 655.06 1.01 M156.2 580.99 C277.95 439.76, 400.23 299.52, 660.05 1.37 M156.2 580.99 C298.77 414.15, 442.65 248.18, 660.05 1.37 M161.84 580.59 C304.89 420.09, 444.92 259.93, 665.69 0.97 M161.84 580.59 C278.29 448.32, 394.41 314.71, 665.69 0.97 M166.83 580.95 C325.34 394.09, 486.54 209.78, 670.68 1.33 M166.83 580.95 C361.69 358.45, 556.56 135.27, 670.68 1.33 M172.47 580.56 C351.57 375.8, 531.49 169.5, 676.33 0.94 M172.47 580.56 C276.41 457.69, 383.08 335.4, 676.33 0.94 M177.46 580.92 C377.89 350.57, 579.11 120.15, 681.31 1.3 M177.46 580.92 C367.59 360.73, 557.7 142.9, 681.31 1.3 M183.1 580.52 C334.06 410.08, 482.9 238.43, 686.96 0.91 M183.1 580.52 C368.68 365.48, 556.17 150.36, 686.96 0.91 M188.09 580.88 C331.21 416.93, 474.42 250.73, 691.94 1.27 M188.09 580.88 C304.53 449.58, 419.13 317.66, 691.94 1.27 M193.73 580.49 C306.69 451.12, 418.41 322.59, 697.59 0.87 M193.73 580.49 C359.62 389.9, 525.34 198.75, 697.59 0.87 M198.72 580.85 C349.15 406.15, 500.69 233.15, 702.57 1.23 M198.72 580.85 C365.11 388.44, 531.21 197.22, 702.57 1.23 M204.36 580.45 C360.23 402.61, 514.46 223.67, 708.22 0.84 M204.36 580.45 C393.03 365.78, 579.48 151.62, 708.22 0.84 M209.35 580.81 C385.83 376.96, 564 172.7, 713.2 1.2 M209.35 580.81 C408.83 355.16, 605.73 128.99, 713.2 1.2 M214.99 580.42 C361.76 411.42, 506.98 243.41, 718.85 0.8 M214.99 580.42 C394.09 377.24, 571.76 173.38, 718.85 0.8 M219.98 580.78 C351.83 427.39, 488.11 272.85, 723.83 1.16 M219.98 580.78 C390.51 380.03, 562.61 181.7, 723.83 1.16 M225.62 580.38 C403.67 373.67, 581.18 169.71, 729.48 0.77 M225.62 580.38 C324.95 463.1, 427.15 346.18, 729.48 0.77 M230.61 580.74 C369.64 422.24, 505.74 263.25, 734.46 1.13 M230.61 580.74 C348.05 446.42, 465.67 311.28, 734.46 1.13 M236.25 580.35 C356.42 440.76, 477.11 301, 740.11 0.73 M236.25 580.35 C348.51 455.1, 458.16 328.63, 740.11 0.73 M241.24 580.71 C392.67 404.9, 544.19 231.71, 745.09 1.09 M241.24 580.71 C410.83 385.31, 579.01 191.75, 745.09 1.09 M246.88 580.32 C424.24 377.26, 599.68 174.67, 750.74 0.7 M246.88 580.32 C431.32 365.84, 617.41 151.92, 750.74 0.7 M251.87 580.68 C392.52 418.97, 536.47 254.33, 755.72 1.06 M251.87 580.68 C372.73 442.07, 491.38 305.26, 755.72 1.06 M256.86 581.04 C368.67 450.13, 483.19 317.62, 760.71 1.42 M256.86 581.04 C453.99 354.17, 651.3 127.21, 760.71 1.42 M262.5 580.64 C395.01 428.23, 528.57 275.14, 766.35 1.02 M262.5 580.64 C439.94 377.22, 615.74 175.05, 766.35 1.02 M267.49 581 C410.96 418.93, 551.9 254.37, 771.34 1.38 M267.49 581 C418.98 408.2, 567.62 236.44, 771.34 1.38 M273.13 580.61 C419.02 413.57, 566.31 244.93, 776.98 0.99 M273.13 580.61 C378.57 462.2, 482.76 342.59, 776.98 0.99 M278.12 580.97 C416.65 420.66, 555.2 261.3, 781.97 1.35 M278.12 580.97 C409.01 427.94, 540.46 276.94, 781.97 1.35 M283.76 580.57 C441.85 401.66, 599.11 220.72, 787.61 0.95 M283.76 580.57 C463.97 370.93, 645.03 163.42, 787.61 0.95 M288.75 580.93 C398.23 452.75, 509.38 324.83, 792.6 1.31 M288.75 580.93 C455.95 385.63, 625.54 191.64, 792.6 1.31 M294.39 580.54 C433.87 417.77, 574.61 255.82, 798.24 0.92 M294.39 580.54 C435.29 420.33, 575.09 260.06, 798.24 0.92 M299.38 580.9 C445.38 414.48, 588.63 250.35, 803.23 1.28 M299.38 580.9 C471.62 386.96, 642.95 190.63, 803.23 1.28 M305.02 580.5 C436.8 429.04, 567.34 278.75, 808.87 0.89 M305.02 580.5 C433.07 430.35, 562.06 282.44, 808.87 0.89 M310.01 580.86 C459.16 409.2, 608.93 236.66, 813.86 1.25 M310.01 580.86 C493.87 371.52, 676.05 161.86, 813.86 1.25 M315.65 580.47 C471.64 400.48, 628.3 219.94, 819.5 0.85 M315.65 580.47 C470.99 403.51, 625.04 226.52, 819.5 0.85 M320.64 580.83 C439.51 444.57, 559.53 307.23, 824.49 1.21 M320.64 580.83 C452.8 426.83, 585.71 274.11, 824.49 1.21 M326.28 580.43 C429.24 463.56, 530.7 346.29, 830.13 0.82 M326.28 580.43 C456.45 428.19, 587.32 278.13, 830.13 0.82 M331.27 580.79 C501.71 385.35, 669.68 190.6, 835.12 1.18 M331.27 580.79 C522.45 364.06, 712.28 146.2, 835.12 1.18 M336.91 580.4 C492.73 399.8, 650.77 219.83, 840.76 0.78 M336.91 580.4 C475.32 421.9, 613.05 263.13, 840.76 0.78 M341.9 580.76 C535.84 357.2, 728.31 136.33, 845.75 1.14 M341.9 580.76 C444.36 463.45, 545.04 347.57, 845.75 1.14 M347.54 580.36 C504.44 400.35, 661.93 218.86, 851.39 0.75 M347.54 580.36 C508.79 394.52, 668.15 210.89, 851.39 0.75 M352.53 580.72 C465.09 450.8, 574.98 324.47, 856.38 1.11 M352.53 580.72 C507.02 402.08, 661.2 224.67, 856.38 1.11 M358.17 580.33 C507.35 408.63, 656.2 238.17, 862.02 0.71 M358.17 580.33 C504.11 412.01, 648.68 245.7, 862.02 0.71 M363.16 580.69 C489.89 436.46, 613.6 293.64, 867.01 1.07 M363.16 580.69 C480.33 444.47, 599.27 308.07, 867.01 1.07 M368.8 580.3 C488.79 440.53, 608.57 302.46, 872 1.43 M368.8 580.3 C519.9 407.55, 669.06 236.14, 872 1.43 M373.79 580.66 C533.62 399.71, 692.64 217.32, 877.64 1.04 M373.79 580.66 C473.51 466.07, 574.95 349.7, 877.64 1.04 M379.43 580.26 C553.52 383.77, 724.18 186.34, 882.63 1.4 M379.43 580.26 C568.28 360.13, 760.17 139.62, 882.63 1.4 M384.42 580.62 C502.42 447.07, 620.12 310.25, 888.27 1 M384.42 580.62 C578.69 358.22, 772.11 136.01, 888.27 1 M389.4 580.98 C537.54 409.22, 687.8 236.71, 893.26 1.36 M389.4 580.98 C587.48 351.74, 785.35 123.87, 893.26 1.36 M395.05 580.59 C526.03 427.07, 657.96 274.05, 898.9 0.97 M395.05 580.59 C517.25 444.32, 636.42 306.64, 898.9 0.97 M400.03 580.95 C506.91 459.58, 613.86 337.4, 903.89 1.33 M400.03 580.95 C558.43 403.11, 713.87 223.87, 903.89 1.33 M405.68 580.55 C515.43 452.36, 626.13 324.95, 909.53 0.94 M405.68 580.55 C598.09 357.64, 791.75 135.79, 909.53 0.94 M410.66 580.91 C554.48 413.59, 698.26 245.49, 914.52 1.3 M410.66 580.91 C577.71 391.18, 741.94 201.97, 914.52 1.3 M416.31 580.52 C603.73 361.48, 793.85 143.54, 920.16 0.9 M416.31 580.52 C577.21 396.19, 736.84 212.94, 920.16 0.9 M421.29 580.88 C592.87 384, 764.85 188.31, 925.15 1.26 M421.29 580.88 C602.33 373.34, 782.75 165.58, 925.15 1.26 M426.94 580.48 C607.56 373.84, 786.69 165.7, 930.79 0.87 M426.94 580.48 C578.82 406.12, 728.6 233.06, 930.79 0.87 M431.92 580.84 C572.32 420.61, 713.06 258.73, 935.78 1.23 M431.92 580.84 C603.16 383.41, 774.62 185.77, 935.78 1.23 M437.57 580.45 C564.11 438.77, 687.49 297.32, 941.42 0.83 M437.57 580.45 C568.68 426.55, 701.14 274.19, 941.42 0.83 M442.55 580.81 C558.47 445.47, 673.27 311.64, 946.41 1.19 M442.55 580.81 C608.58 389.75, 775.02 198.22, 946.41 1.19 M448.2 580.41 C587.87 423.54, 725.93 263.31, 952.05 0.8 M448.2 580.41 C606.42 398.18, 765.29 215.41, 952.05 0.8 M453.18 580.77 C562.75 452.1, 671.6 325.86, 957.04 1.16 M453.18 580.77 C555.45 460.34, 660.32 340.54, 957.04 1.16 M458.83 580.38 C627.9 386.69, 796.67 193.26, 962.68 0.76 M458.83 580.38 C576.92 445.83, 692.78 312.4, 962.68 0.76 M463.82 580.74 C600.7 423.83, 737.06 267.68, 967.67 1.12 M463.82 580.74 C649.12 371.51, 832.18 160.97, 967.67 1.12 M469.46 580.35 C608.23 423.79, 744.51 266.01, 973.31 0.73 M469.46 580.35 C646.58 376.09, 822.83 172.69, 973.31 0.73 M474.45 580.71 C638.44 393.73, 800.79 205.57, 978.3 1.09 M474.45 580.71 C586.24 452.41, 695.73 326.58, 978.3 1.09 M480.09 580.31 C675.01 358.76, 869.87 135.25, 983.94 0.69 M480.09 580.31 C629.44 409.14, 776.46 240.11, 983.94 0.69 M485.08 580.67 C644.24 398.33, 804.5 213.97, 988.93 1.05 M485.08 580.67 C643.57 399.22, 799.26 219.49, 988.93 1.05 M490.72 580.28 C654.65 389.4, 819.67 199.97, 993.92 1.41 M490.72 580.28 C610.08 443.07, 730.99 304.23, 993.92 1.41 M495.71 580.64 C644.18 408.8, 791.97 238.47, 999.56 1.02 M495.71 580.64 C693.13 349.86, 892.89 120.94, 999.56 1.02 M501.35 580.24 C607.16 461.08, 711.85 339.62, 1004.55 1.38 M501.35 580.24 C626.67 436.42, 752.69 291.89, 1004.55 1.38 M506.34 580.6 C661.81 404.62, 816.09 227.44, 1010.19 0.99 M506.34 580.6 C687 377.61, 865.24 171.94, 1010.19 0.99 M511.98 580.21 C661.25 411.66, 808.03 241.09, 1015.18 1.35 M511.98 580.21 C687.49 379.47, 862.65 177.68, 1015.18 1.35 M516.97 580.57 C669.88 404.53, 820.89 230.57, 1020.82 0.95 M516.97 580.57 C660.11 417.85, 802.94 253.35, 1020.82 0.95 M521.95 580.93 C673.34 408.49, 823.24 234.78, 1025.81 1.31 M521.95 580.93 C636.79 445.13, 753.36 311.49, 1025.81 1.31 M527.6 580.53 C648.09 439.61, 768.91 301.17, 1031.45 0.92 M527.6 580.53 C629.06 461.3, 730.38 344.13, 1031.45 0.92 M532.58 580.89 C682.11 408.39, 830.63 236.24, 1036.44 1.28 M532.58 580.89 C717.75 368.53, 901.32 158.09, 1036.44 1.28 M538.23 580.5 C731.31 355.63, 926.19 131.03, 1042.08 0.88 M538.23 580.5 C714.87 378.53, 892.36 175.18, 1042.08 0.88 M543.21 580.86 C651.02 457.04, 759.93 330.64, 1047.07 1.24 M543.21 580.86 C684.33 416.43, 827.91 251.75, 1047.07 1.24 M548.86 580.46 C650.63 459.88, 755.45 339.66, 1052.71 0.85 M548.86 580.46 C695.56 413.35, 841.22 246.03, 1052.71 0.85 M553.84 580.82 C725.07 383.14, 895.76 187.57, 1057.7 1.21 M553.84 580.82 C706.51 406.52, 857.83 231.99, 1057.7 1.21 M559.49 580.43 C698.56 419.49, 837.08 260.07, 1063.34 0.81 M559.49 580.43 C757.46 352.95, 955.92 124.73, 1063.34 0.81 M564.47 580.79 C668.4 464.19, 770.74 346.66, 1068.33 1.17 M564.47 580.79 C762.52 357.52, 957.34 132.69, 1068.33 1.17 M570.12 580.4 C754.43 368.77, 938.71 158.67, 1073.97 0.78 M570.12 580.4 C754.63 366.66, 940.08 153.58, 1073.97 0.78 M575.1 580.76 C723.97 407, 873.72 235.02, 1078.96 1.14 M575.1 580.76 C723.6 410.23, 872.56 238.72, 1078.96 1.14 M580.75 580.36 C761.37 371.79, 942.55 161.74, 1084.6 0.74 M580.75 580.36 C744.84 388.51, 911.43 197.41, 1084.6 0.74 M585.73 580.72 C775.42 365.58, 963.11 149.86, 1089.59 1.1 M585.73 580.72 C708.79 441.25, 830.57 301.16, 1089.59 1.1 M591.38 580.33 C765.63 379.42, 939.85 178.5, 1095.23 0.71 M591.38 580.33 C755.93 393.38, 919.39 206.25, 1095.23 0.71 M596.36 580.69 C760.52 391.81, 924.22 203.3, 1100.22 1.07 M596.36 580.69 C702.32 454.91, 809.72 330.93, 1100.22 1.07 M602.01 580.29 C760.63 397.31, 918.8 214.45, 1105.2 1.43 M602.01 580.29 C703.86 459.91, 807.88 340.41, 1105.2 1.43 M606.99 580.65 C766.27 397.88, 924.25 215.8, 1110.85 1.03 M606.99 580.65 C741.54 423.12, 877.92 266.42, 1110.85 1.03 M612.64 580.26 C744.56 429, 874.99 279.52, 1115.83 1.39 M612.64 580.26 C794.24 369.91, 977.06 159.66, 1115.83 1.39 M617.62 580.62 C744.53 436.13, 869.73 292.18, 1121.48 1 M617.62 580.62 C739.07 440.73, 861.21 300.25, 1121.48 1 M623.27 580.22 C764.45 417.54, 906.03 254.1, 1126.46 1.36 M623.27 580.22 C819.32 354.33, 1017.02 127.14, 1126.46 1.36 M628.25 580.58 C778.01 408.77, 925.91 236.65, 1132.11 0.97 M628.25 580.58 C743.68 447.01, 858.98 314.98, 1132.11 0.97 M633.9 580.19 C780.27 416.12, 924.06 248.33, 1137.09 1.33 M633.9 580.19 C742.13 456.3, 851.02 329.91, 1137.09 1.33 M638.88 580.55 C826.45 367.06, 1012.68 151.5, 1142.74 0.93 M638.88 580.55 C789.46 406.75, 938.78 234.92, 1142.74 0.93 M644.53 580.15 C787.65 414.25, 930.71 248.47, 1147.72 1.29 M644.53 580.15 C838.29 358.54, 1030.4 137.76, 1147.72 1.29 M649.51 580.51 C775.81 434.27, 902.58 289.24, 1153.37 0.9 M649.51 580.51 C844.28 354.54, 1040 129.96, 1153.37 0.9 M654.5 580.87 C799.72 411.86, 945.68 242.27, 1158.35 1.26 M654.5 580.87 C828.29 380.82, 1002.16 180.44, 1158.35 1.26 M660.14 580.48 C795.42 424.63, 930.53 269.02, 1164 0.86 M660.14 580.48 C765.23 455.99, 872.5 332.29, 1164 0.86 M665.13 580.84 C778.42 453.02, 888.52 324.29, 1168.98 1.22 M665.13 580.84 C865.66 353.92, 1063.44 126.03, 1168.98 1.22 M670.77 580.44 C774.63 462.74, 874.77 346.47, 1174.63 0.83 M670.77 580.44 C847.82 374.93, 1025.71 170.93, 1174.63 0.83 M675.76 580.8 C775.08 466.12, 876.23 349.75, 1179.61 1.19 M675.76 580.8 C842.74 388.21, 1007.95 198.24, 1179.61 1.19 M681.4 580.41 C876.71 352.05, 1074.5 125.34, 1185.26 0.79 M681.4 580.41 C859.76 373.92, 1039.42 167.82, 1185.26 0.79 M686.39 580.77 C818.32 432.77, 948.1 282.91, 1190.24 1.15 M686.39 580.77 C876.11 365.57, 1064.6 149.55, 1190.24 1.15 M692.03 580.38 C809.82 446.26, 925.94 311.14, 1195.89 0.76 M692.03 580.38 C818.01 435.92, 942.23 293.31, 1195.89 0.76 M697.02 580.74 C809.04 448.35, 923.32 317.05, 1200.87 1.12 M697.02 580.74 C836.15 421.2, 974.57 261.99, 1200.87 1.12 M702.66 580.34 C839.77 423.73, 977.15 266.79, 1206.52 0.72 M702.66 580.34 C808.62 456.77, 916.29 333.3, 1206.52 0.72 M707.65 580.7 C831.15 438.23, 953.95 297.6, 1211.5 1.08 M707.65 580.7 C906.23 353.61, 1103.99 125.99, 1211.5 1.08 M713.29 580.31 C868.79 399.57, 1023.85 221.13, 1217.15 0.69 M713.29 580.31 C873.86 392.42, 1035.57 206.39, 1217.15 0.69 M718.28 580.67 C842.27 433.47, 968.63 287.73, 1222.13 1.05 M718.28 580.67 C824.34 455.34, 932.19 331.65, 1222.13 1.05 M723.92 580.27 C877.47 401.44, 1030.3 224.92, 1227.12 1.41 M723.92 580.27 C826.54 465.21, 927.38 348.97, 1227.12 1.41 M728.91 580.63 C880.85 408.62, 1030.69 236.97, 1232.76 1.02 M728.91 580.63 C851.46 439.9, 974.15 299.29, 1232.76 1.02 M734.55 580.24 C870.86 422.88, 1006.59 266.02, 1237.75 1.38 M734.55 580.24 C912.76 375.29, 1090.52 171.04, 1237.75 1.38 M739.54 580.6 C857.44 443.93, 973.61 309.41, 1243.39 0.98 M739.54 580.6 C893.92 402.16, 1047.95 224.29, 1243.39 0.98 M745.18 580.2 C933.6 362.55, 1122.38 145.76, 1248.38 1.34 M745.18 580.2 C873.98 431.98, 1002.1 284.44, 1248.38 1.34 M750.17 580.56 C857.91 457.72, 965.7 332.55, 1254.02 0.95 M750.17 580.56 C873.33 439.19, 998.21 296.32, 1254.02 0.95 M755.81 580.17 C872.41 442.53, 990.03 306.33, 1259.01 1.31 M755.81 580.17 C879.68 436.84, 1002.41 295.42, 1259.01 1.31 M760.8 580.53 C863.64 461.88, 967.14 342.72, 1264.65 0.91 M760.8 580.53 C876.03 448.14, 992.62 313.65, 1264.65 0.91 M766.44 580.13 C882.22 447.58, 997.48 314.54, 1269.64 1.27 M766.44 580.13 C884.19 443.67, 1003.77 306.17, 1269.64 1.27 M771.43 580.49 C905.74 426.34, 1041.83 269.17, 1275.28 0.88 M771.43 580.49 C895.81 436.28, 1020.04 292.59, 1275.28 0.88 M777.07 580.1 C971.23 355.03, 1166.95 130.08, 1280.27 1.24 M777.07 580.1 C885.64 453.72, 995.49 327.07, 1280.27 1.24 M782.06 580.46 C921.54 421.84, 1061.06 260.41, 1285.92 0.84 M782.06 580.46 C984.2 349.44, 1185.44 118.12, 1285.92 0.84 M787.05 580.82 C939.36 409.75, 1088.12 238.06, 1290.9 1.2 M787.05 580.82 C957.63 380.96, 1130.07 183.75, 1290.9 1.2 M792.69 580.43 C895.09 460.26, 998.37 342.57, 1296.55 0.81 M792.69 580.43 C899.61 457.66, 1008.03 333.6, 1296.55 0.81 M797.68 580.79 C997.25 350.43, 1196.94 122.17, 1301.53 1.17 M797.68 580.79 C914.65 448.01, 1029.79 316.17, 1301.53 1.17 M803.32 580.39 C919.78 447.42, 1036.2 312.69, 1307.18 0.77 M803.32 580.39 C976.56 384.3, 1148.57 186.96, 1307.18 0.77 M808.31 580.75 C951.05 417.04, 1091.41 255.03, 1312.16 1.13 M808.31 580.75 C946.33 419.4, 1085.66 259.83, 1312.16 1.13 M813.95 580.36 C937.2 438.73, 1059.2 298.58, 1317.81 0.74 M813.95 580.36 C935.62 440.01, 1058.11 299.39, 1317.81 0.74 M818.94 580.72 C1021.75 351.2, 1222.37 119.48, 1322.79 1.1 M818.94 580.72 C995.26 379.25, 1170.78 176.8, 1322.79 1.1 M824.58 580.32 C989.02 390.02, 1154.8 200.62, 1328.44 0.7 M824.58 580.32 C982.76 398.24, 1140.18 217.27, 1328.44 0.7 M829.57 580.68 C1008.42 373.56, 1187.63 167.74, 1333.42 1.07 M829.57 580.68 C971.56 416.27, 1113.46 253.15, 1333.42 1.07 M835.21 580.29 C975.84 415.78, 1116.8 254.44, 1338.41 1.43 M835.21 580.29 C1012.07 376.25, 1190.36 171.61, 1338.41 1.43 M840.2 580.65 C944.61 459.7, 1051.35 338.98, 1344.05 1.03 M840.2 580.65 C1032.99 358.12, 1225.19 137.11, 1344.05 1.03 M845.84 580.25 C994.96 407.09, 1144.56 234.27, 1349.04 1.39 M845.84 580.25 C996.88 407.3, 1145.75 235.48, 1349.04 1.39 M850.83 580.61 C1038.9 360.62, 1229.46 144.25, 1354.68 1 M850.83 580.61 C1015.06 395.3, 1177.33 208.51, 1354.68 1 M856.47 580.22 C999.09 414.11, 1143.12 248.76, 1359.67 1.36 M856.47 580.22 C1004.17 414.25, 1149.18 246.96, 1359.67 1.36 M861.46 580.58 C1021.26 394.52, 1182.57 208.5, 1365.31 0.96 M861.46 580.58 C986.16 434.72, 1112.94 289.19, 1365.31 0.96 M867.1 580.18 C1041.08 377.61, 1218.88 175.66, 1370.3 1.32 M867.1 580.18 C969 462.57, 1070.37 345.81, 1370.3 1.32 M872.09 580.54 C1008.99 424.81, 1143.25 269.65, 1375.94 0.93 M872.09 580.54 C1015.53 414.46, 1159.52 249.17, 1375.94 0.93 M877.73 580.15 C1031.63 400.63, 1185.5 223.11, 1380.93 1.29 M877.73 580.15 C1037.7 394.86, 1198.85 209.43, 1380.93 1.29 M882.72 580.51 C1029.91 408.72, 1177.82 237.68, 1386.57 0.89 M882.72 580.51 C986.9 459.13, 1093.16 336.7, 1386.57 0.89 M888.36 580.11 C1077.2 366.17, 1263.63 151.77, 1391.56 1.25 M888.36 580.11 C1016.14 429.71, 1146.65 280.42, 1391.56 1.25 M893.35 580.48 C1010.83 447.63, 1127.55 312.49, 1397.2 0.86 M893.35 580.48 C1086.3 355.81, 1280.62 132.53, 1397.2 0.86 M898.99 580.08 C1033.65 427.99, 1165.69 273.77, 1402.19 1.22 M898.99 580.08 C1022.92 441.41, 1145.26 300.24, 1402.19 1.22 M903.98 580.44 C1091.42 367.22, 1278.48 151.98, 1407.83 0.82 M903.98 580.44 C1020.46 442, 1138.72 305.71, 1407.83 0.82 M909.62 580.05 C1068.9 399.24, 1226.42 217.41, 1412.82 1.18 M909.62 580.05 C1023.53 447.92, 1137.36 317.3, 1412.82 1.18 M914.61 580.41 C1091.83 377.24, 1268.38 174.09, 1418.46 0.79 M914.61 580.41 C1096.09 371.49, 1277.31 163.82, 1418.46 0.79 M919.6 580.77 C1096.62 375.56, 1275.32 170.71, 1423.45 1.15 M919.6 580.77 C1108.43 362.12, 1297.08 144.53, 1423.45 1.15 M925.24 580.37 C1055.79 427.86, 1190.5 274.09, 1429.09 0.75 M925.24 580.37 C1040.57 448.33, 1153.96 317.68, 1429.09 0.75 M930.23 580.73 C1038.81 453.92, 1148.17 328.03, 1434.08 1.11 M930.23 580.73 C1124.83 356.54, 1318.18 133.61, 1434.08 1.11 M935.87 580.34 C1119.84 367.84, 1306.86 154.95, 1439.72 0.72 M935.87 580.34 C1070.47 421.66, 1206.89 263.84, 1439.72 0.72 M940.86 580.7 C1064.23 440.43, 1186.89 298.38, 1444.71 1.08 M940.86 580.7 C1124.55 371.81, 1307.46 161.62, 1444.71 1.08 M946.5 580.3 C1129.57 369.22, 1314.94 156.19, 1450.35 0.69 M946.5 580.3 C1052.39 461.43, 1156.88 341.55, 1450.35 0.69 M951.49 580.66 C1146.11 357.42, 1339.64 133.57, 1455.34 1.05 M951.49 580.66 C1125.31 382.33, 1298.31 183.96, 1455.34 1.05 M957.13 580.27 C1116.1 397.43, 1277.46 212.2, 1460.33 1.41 M957.13 580.27 C1114.13 400.28, 1270.11 220.65, 1460.33 1.41 M962.12 580.63 C1107.48 414.72, 1250.4 249.26, 1465.97 1.01 M962.12 580.63 C1151.64 363.1, 1339.77 146.25, 1465.97 1.01 M967.76 580.23 C1138.02 383.01, 1309.18 185.68, 1470.96 1.37 M967.76 580.23 C1132.5 388.74, 1299.64 197.38, 1470.96 1.37 M972.75 580.59 C1074.4 461.67, 1176.88 342.56, 1476.6 0.98 M972.75 580.59 C1090.31 447.46, 1207.21 312.78, 1476.6 0.98 M978.39 580.2 C1127.51 405.34, 1278.71 229.76, 1481.59 1.34 M978.39 580.2 C1173.76 353.22, 1370.16 127.32, 1481.59 1.34 M983.38 580.56 C1131.4 407.9, 1280.39 236.1, 1487.23 0.94 M983.38 580.56 C1136.6 402.27, 1290.81 224.8, 1487.23 0.94 M989.02 580.16 C1152.15 390.39, 1316.43 201.69, 1492.22 1.3 M989.02 580.16 C1125.87 420.73, 1264.92 261.96, 1492.22 1.3 M994.01 580.52 C1160.55 388.66, 1326.65 198.03, 1497.86 0.91 M994.01 580.52 C1149.49 402.29, 1305.44 222.82, 1497.86 0.91 M999.65 580.13 C1147.75 409.68, 1293.91 240.26, 1502.85 1.27 M999.65 580.13 C1175.74 380.39, 1350.88 179.74, 1502.85 1.27 M1004.64 580.49 C1191.61 365.94, 1378.96 150.31, 1508.49 0.87 M1004.64 580.49 C1194.91 364.47, 1384.07 147.32, 1508.49 0.87 M1010.28 580.1 C1177.42 387.27, 1347.41 191.39, 1513.48 1.23 M1010.28 580.1 C1130.55 441.57, 1250.71 303.96, 1513.48 1.23 M1015.27 580.46 C1165.01 409.1, 1314.07 235.79, 1519.12 0.84 M1015.27 580.46 C1196.37 373.73, 1376.54 166.28, 1519.12 0.84 M1020.91 580.06 C1197.29 381.5, 1371.13 180.85, 1524.11 1.2 M1020.91 580.06 C1197.05 378.47, 1372.05 176.64, 1524.11 1.2 M1025.9 580.42 C1170.25 415.82, 1314.16 251.11, 1529.75 0.8 M1025.9 580.42 C1191.21 388.43, 1356.91 197.2, 1529.75 0.8 M1031.54 580.03 C1162.37 428.68, 1294.89 276.33, 1534.74 1.16 M1031.54 580.03 C1203.93 380.72, 1379.11 179.8, 1534.74 1.16 M1036.53 580.39 C1193.95 398.35, 1353.27 214.66, 1540.38 0.77 M1036.53 580.39 C1180.57 414.18, 1323.89 249.22, 1540.38 0.77 M1042.17 579.99 C1239.51 353.67, 1435.23 129.19, 1545.37 1.13 M1042.17 579.99 C1181.12 416.6, 1321.49 255.58, 1545.37 1.13 M1047.16 580.35 C1189.9 416.53, 1330.42 254.65, 1550.36 1.49 M1047.16 580.35 C1164.58 444.47, 1283.9 307.57, 1550.36 1.49 M1052.14 580.71 C1189.8 423.98, 1327.47 266.83, 1555.34 1.85 M1052.14 580.71 C1177.8 432.46, 1305.21 285.67, 1555.34 1.85 M1057.79 580.32 C1192.36 427.71, 1326.65 273.36, 1560.33 2.21 M1057.79 580.32 C1219.03 394.23, 1379.97 207.97, 1560.33 2.21 M1062.77 580.68 C1172.18 451.56, 1284.02 323.2, 1565.32 2.57 M1062.77 580.68 C1241.02 374.8, 1418.4 169.97, 1565.32 2.57 M1068.42 580.28 C1207.52 420.8, 1346.22 260.53, 1570.3 2.93 M1068.42 580.28 C1213.48 413.04, 1360.44 244.44, 1570.3 2.93 M1073.41 580.64 C1276.09 349.12, 1475.91 119.11, 1575.29 3.29 M1073.41 580.64 C1238.8 390.99, 1404.93 199.31, 1575.29 3.29 M1079.05 580.25 C1234.41 399.67, 1389.61 220.4, 1579.62 4.41 M1079.05 580.25 C1191.92 450.22, 1305.26 320.47, 1579.62 4.41 M1084.04 580.61 C1246.19 393.48, 1407.62 208.38, 1583.95 5.52 M1084.04 580.61 C1240.39 403.07, 1395.8 224.62, 1583.95 5.52 M1089.68 580.21 C1227.87 423.68, 1365.24 267.65, 1588.28 6.63 M1089.68 580.21 C1198.04 454.93, 1306.08 330.77, 1588.28 6.63 M1094.67 580.57 C1273.33 373.32, 1454.52 165.82, 1592.61 7.75 M1094.67 580.57 C1237.6 416.27, 1379.6 253.85, 1592.61 7.75 M1100.31 580.18 C1240.89 421.91, 1378.71 261.08, 1596.95 8.86 M1100.31 580.18 C1237.89 419.65, 1376.88 260.14, 1596.95 8.86 M1105.3 580.54 C1224.48 440.77, 1345.96 300.4, 1601.28 9.98 M1105.3 580.54 C1211.21 457.44, 1317.38 335.36, 1601.28 9.98 M1110.94 580.15 C1281.06 387.03, 1451.19 191.73, 1605.61 11.09 M1110.94 580.15 C1237.06 435.73, 1362.18 291.53, 1605.61 11.09 M1115.93 580.51 C1288 380.02, 1460.87 180.87, 1609.28 12.96 M1115.93 580.51 C1282.31 391.21, 1448.25 200.63, 1609.28 12.96 M1121.57 580.11 C1258.32 419.59, 1396.28 260.58, 1612.96 14.83 M1121.57 580.11 C1263.32 414.61, 1406.03 249.94, 1612.96 14.83 M1126.56 580.47 C1231.69 458.51, 1335.56 339.37, 1616.63 16.7 M1126.56 580.47 C1251.23 439.06, 1374.73 296.64, 1616.63 16.7 M1132.2 580.08 C1240.2 454.87, 1349.55 328.93, 1620.96 17.82 M1132.2 580.08 C1315.99 372.28, 1497.19 163.49, 1620.96 17.82 M1137.19 580.44 C1249.38 453.18, 1360.64 325.81, 1624.64 19.69 M1137.19 580.44 C1254.27 446.74, 1370.35 312.96, 1624.64 19.69 M1142.83 580.04 C1288.58 413.68, 1434.16 243.94, 1628.97 20.8 M1142.83 580.04 C1331.16 359.85, 1521.43 141.04, 1628.97 20.8 M1147.82 580.4 C1310.52 396.26, 1471.34 209.6, 1631.99 23.43 M1147.82 580.4 C1311.45 391.98, 1474.94 203.42, 1631.99 23.43 M1153.46 580.01 C1319.44 388.59, 1485.83 197.4, 1635.66 25.3 M1153.46 580.01 C1282.46 430.54, 1411.43 281.84, 1635.66 25.3 M1158.45 580.37 C1317.44 397, 1475.93 213.81, 1638.68 27.92 M1158.45 580.37 C1286.78 433.16, 1414.5 285.87, 1638.68 27.92 M1164.09 579.97 C1352.49 359.94, 1542.64 143.86, 1641.7 30.54 M1164.09 579.97 C1275.23 449.36, 1388.83 318.63, 1641.7 30.54 M1169.08 580.33 C1347.1 374.18, 1527.34 167.13, 1644.72 33.17 M1169.08 580.33 C1316.12 410.65, 1463.87 241.59, 1644.72 33.17 M1174.72 579.94 C1360.4 362.65, 1549.41 145.63, 1647.08 36.55 M1174.72 579.94 C1344.9 384, 1515.28 188.81, 1647.08 36.55 M1179.71 580.3 C1313.24 428.86, 1444.84 277.44, 1650.1 39.17 M1179.71 580.3 C1284.45 460.13, 1389.58 338.91, 1650.1 39.17 M1184.69 580.66 C1325.01 417.89, 1465.36 258.17, 1653.12 41.8 M1184.69 580.66 C1284.5 464.43, 1384.32 350, 1653.12 41.8 M1190.34 580.26 C1283.76 473.82, 1378.63 365.25, 1655.48 45.17 M1190.34 580.26 C1344.65 402.53, 1499.1 224.9, 1655.48 45.17 M1195.32 580.62 C1358.7 391.91, 1523.56 204.82, 1658.5 47.8 M1195.32 580.62 C1378.23 370.11, 1560.2 160.13, 1658.5 47.8 M1200.97 580.23 C1367.44 388.83, 1534.55 196.99, 1660.86 51.18 M1200.97 580.23 C1308.15 458.54, 1415.24 334.7, 1660.86 51.18 M1205.95 580.59 C1304.81 466.3, 1404.69 350.78, 1663.23 54.56 M1205.95 580.59 C1306.21 464.68, 1408.52 346.38, 1663.23 54.56 M1211.6 580.19 C1362.9 406.88, 1514.21 234.35, 1664.93 58.69 M1211.6 580.19 C1343.04 429.39, 1475.98 276.4, 1664.93 58.69 M1216.58 580.56 C1332.42 444.51, 1450.11 310.39, 1667.3 62.07 M1216.58 580.56 C1323.94 456.14, 1432.07 331.83, 1667.3 62.07 M1222.23 580.16 C1376.07 406.04, 1528.83 229.69, 1669.66 65.45 M1222.23 580.16 C1376.01 401.3, 1531.63 221.39, 1669.66 65.45 M1227.21 580.52 C1336.22 459.03, 1443.23 335.74, 1671.37 69.58 M1227.21 580.52 C1361.65 426.7, 1496.3 272.4, 1671.37 69.58 M1232.86 580.13 C1394.87 392.89, 1559.27 204.73, 1673.07 73.72 M1232.86 580.13 C1322.91 477.36, 1413.32 373.39, 1673.07 73.72 M1237.84 580.49 C1341.19 461.63, 1444.33 341.89, 1674.78 77.85 M1237.84 580.49 C1367.62 432.39, 1494.67 286.07, 1674.78 77.85 M1243.49 580.09 C1357.42 452.32, 1468.43 322.52, 1676.49 81.98 M1243.49 580.09 C1391.68 409.58, 1540.55 238.51, 1676.49 81.98 M1248.47 580.45 C1386.54 423.6, 1524.5 263.64, 1677.54 86.87 M1248.47 580.45 C1336.82 476.68, 1426.07 374.38, 1677.54 86.87 M1254.12 580.06 C1420.59 386.85, 1588.67 192.9, 1678.59 91.76 M1254.12 580.06 C1343.2 479.97, 1432.3 377.61, 1678.59 91.76 M1259.1 580.42 C1376.43 445.43, 1494.06 311.38, 1679.64 96.65 M1259.1 580.42 C1373.22 450.99, 1486.77 320.49, 1679.64 96.65 M1264.75 580.02 C1358.26 471.78, 1452.28 362.19, 1680.69 101.54 M1264.75 580.02 C1397.16 427.28, 1530.78 274.09, 1680.69 101.54 M1269.73 580.38 C1389.88 442.38, 1510.57 302.09, 1681.74 106.42 M1269.73 580.38 C1358.61 476.37, 1448.41 372.84, 1681.74 106.42 M1275.38 579.99 C1420.08 413.64, 1565.34 246, 1682.79 111.31 M1275.38 579.99 C1425.92 409.84, 1575.04 238.65, 1682.79 111.31 M1280.36 580.35 C1382.88 460.3, 1487.11 341.3, 1683.18 116.96 M1280.36 580.35 C1369.09 479.38, 1456.9 378.64, 1683.18 116.96 M1286.01 579.95 C1382.34 471.52, 1476.09 362.39, 1683.58 122.6 M1286.01 579.95 C1406.23 439.89, 1527.63 300.69, 1683.58 122.6 M1290.99 580.31 C1395.31 458.98, 1500.14 338.62, 1683.97 128.24 M1290.99 580.31 C1426.51 423.1, 1562.19 267.3, 1683.97 128.24 M1296.64 579.92 C1407.2 454.11, 1518.01 328.76, 1684.37 133.89 M1296.64 579.92 C1398.23 462.53, 1501.07 344.71, 1684.37 133.89 M1301.62 580.28 C1426.27 438.61, 1549.72 296.95, 1684.76 139.53 M1301.62 580.28 C1419 444.95, 1536.09 310.19, 1684.76 139.53 M1307.27 579.88 C1441.76 424.17, 1576.98 269.78, 1685.16 145.17 M1307.27 579.88 C1399.86 470.89, 1493.75 364.18, 1685.16 145.17 M1312.25 580.24 C1396.2 483.52, 1480.39 388, 1684.9 151.57 M1312.25 580.24 C1431.83 444.65, 1550.15 307.39, 1684.9 151.57 M1317.24 580.6 C1418.25 463.09, 1520.26 347.01, 1685.29 157.21 M1317.24 580.6 C1397.26 486.9, 1478.38 394.47, 1685.29 157.21 M1322.88 580.21 C1427.71 459.05, 1532.96 338.42, 1685.03 163.61 M1322.88 580.21 C1406.05 486.58, 1488.94 390.84, 1685.03 163.61 M1327.87 580.57 C1443.1 448.72, 1556.83 317.45, 1684.77 170.01 M1327.87 580.57 C1406.88 488.31, 1486.67 396.59, 1684.77 170.01 M1333.51 580.18 C1412.64 487.49, 1491.35 396.15, 1685.16 175.65 M1333.51 580.18 C1474.45 418, 1614.3 258.12, 1685.16 175.65 M1338.5 580.54 C1446.07 455.28, 1553.77 330.92, 1684.9 182.05 M1338.5 580.54 C1430.27 473.97, 1523.54 366.2, 1684.9 182.05 M1344.14 580.14 C1433.57 480.34, 1520.42 378.89, 1685.3 187.69 M1344.14 580.14 C1414.5 499.81, 1485.09 418.26, 1685.3 187.69 M1349.13 580.5 C1463.91 448.76, 1578.27 315.57, 1685.03 194.09 M1349.13 580.5 C1430.01 487.99, 1509 396.89, 1685.03 194.09 M1354.77 580.11 C1420.88 504.02, 1487.55 427.18, 1684.77 200.49 M1354.77 580.11 C1472.57 442.22, 1592.35 304.85, 1684.77 200.49 M1359.76 580.47 C1438.98 489.66, 1518.03 398.19, 1685.17 206.13 M1359.76 580.47 C1481.07 440.28, 1603.68 300.13, 1685.17 206.13 M1365.4 580.07 C1491.32 434.21, 1616.98 290.13, 1684.91 212.53 M1365.4 580.07 C1486.4 440.15, 1608.95 298.8, 1684.91 212.53 M1370.39 580.43 C1469.36 465.93, 1569.27 351.2, 1685.3 218.17 M1370.39 580.43 C1437.07 505.29, 1503.58 429.74, 1685.3 218.17 M1376.03 580.04 C1488.36 451.23, 1600.82 320.78, 1685.04 224.57 M1376.03 580.04 C1474.63 467.61, 1573.38 353.9, 1685.04 224.57 M1381.02 580.4 C1441.68 509.83, 1502.42 440.28, 1684.78 230.97 M1381.02 580.4 C1451.53 501.4, 1520.75 420.37, 1684.78 230.97 M1386.66 580 C1493.05 459.88, 1596.71 339.38, 1685.17 236.61 M1386.66 580 C1454.27 500.59, 1522.96 421.6, 1685.17 236.61 M1391.65 580.36 C1452.39 512.2, 1511.69 442.59, 1684.91 243.01 M1391.65 580.36 C1506.64 447.22, 1622.98 313.79, 1684.91 243.01 M1397.29 579.97 C1509.33 449.32, 1622.12 320.45, 1685.3 248.65 M1397.29 579.97 C1485.87 478.57, 1573.36 377.96, 1685.3 248.65 M1402.28 580.33 C1512.48 455.59, 1619.16 331.94, 1685.04 255.05 M1402.28 580.33 C1471.76 501.01, 1540.74 422.12, 1685.04 255.05 M1407.92 579.93 C1473.89 501.38, 1541.15 425.78, 1684.78 261.45 M1407.92 579.93 C1503.06 470.56, 1597.34 361.53, 1684.78 261.45 M1412.91 580.29 C1479.4 500.57, 1548.36 424.37, 1685.18 267.09 M1412.91 580.29 C1512.61 464.74, 1612.92 348.53, 1685.18 267.09 M1418.55 579.9 C1483.38 504.66, 1549.74 427.56, 1684.91 273.49 M1418.55 579.9 C1491.52 496.45, 1564.11 413.42, 1684.91 273.49 M1423.54 580.26 C1492.98 500.46, 1562.32 419.69, 1685.31 279.13 M1423.54 580.26 C1516.78 473.05, 1609 366.95, 1685.31 279.13 M1429.19 579.87 C1498.4 501.72, 1567 423.05, 1685.05 285.53 M1429.19 579.87 C1488.28 512.4, 1547.91 442.99, 1685.05 285.53 M1434.17 580.23 C1522.4 476.62, 1613.21 371.21, 1684.79 291.93 M1434.17 580.23 C1493.77 512.87, 1552.4 444.62, 1684.79 291.93 M1439.82 579.83 C1528.12 477.01, 1616.61 373.7, 1685.18 297.57 M1439.82 579.83 C1515.43 495.84, 1589.58 411.01, 1685.18 297.57 M1444.8 580.19 C1496.58 522.06, 1544.02 465.96, 1684.92 303.97 M1444.8 580.19 C1500.35 516.58, 1554.72 454.06, 1684.92 303.97 M1449.79 580.55 C1520.65 500.57, 1591.34 418.66, 1685.31 309.61 M1449.79 580.55 C1533.87 484.71, 1617.47 387.44, 1685.31 309.61 M1455.43 580.16 C1529.52 492.41, 1605.89 405.98, 1685.05 316.01 M1455.43 580.16 C1503.11 523.23, 1552.38 466.49, 1685.05 316.01 M1460.42 580.52 C1514.18 517.09, 1568.25 455.5, 1684.79 322.41 M1460.42 580.52 C1507.52 526.17, 1553.99 473.55, 1684.79 322.41 M1466.06 580.12 C1514.92 524.22, 1562.96 465.73, 1685.19 328.05 M1466.06 580.12 C1519.73 517.22, 1574.33 454.18, 1685.19 328.05 M1471.05 580.48 C1529.66 512.53, 1590.47 443.39, 1684.92 334.45 M1471.05 580.48 C1529.36 512.44, 1588.07 444.1, 1684.92 334.45 M1476.69 580.09 C1525.75 525.95, 1573.21 473.46, 1684.66 340.84 M1476.69 580.09 C1530.47 516.81, 1584.27 455.76, 1684.66 340.84 M1481.68 580.45 C1536.75 515.54, 1594.97 450.99, 1685.06 346.49 M1481.68 580.45 C1546.52 505.26, 1609.94 431.57, 1685.06 346.49 M1487.32 580.05 C1532.96 528.99, 1579.27 476.6, 1684.8 352.89 M1487.32 580.05 C1553.23 503.87, 1619.96 428.62, 1684.8 352.89 M1492.31 580.41 C1537.58 528.29, 1580.93 478.48, 1685.19 358.53 M1492.31 580.41 C1549.16 516.18, 1605.37 451.15, 1685.19 358.53 M1497.95 580.02 C1572.71 497.78, 1642.17 416.45, 1684.93 364.93 M1497.95 580.02 C1544.19 525.5, 1590.15 473.91, 1684.93 364.93 M1502.94 580.38 C1561.26 513.53, 1620.65 446.42, 1684.67 371.32 M1502.94 580.38 C1555.72 521.97, 1607.43 462.01, 1684.67 371.32 M1508.58 579.98 C1579.1 500.83, 1647.57 419.08, 1685.06 376.97 M1508.58 579.98 C1564.44 514.73, 1622.57 447.95, 1685.06 376.97 M1513.57 580.34 C1553.01 531.98, 1597.62 483.44, 1684.8 383.36 M1513.57 580.34 C1551.96 537.23, 1588.89 493.85, 1684.8 383.36 M1519.21 579.95 C1556.14 538.27, 1593.15 495.14, 1685.2 389.01 M1519.21 579.95 C1582.78 508.53, 1644.87 435.73, 1685.2 389.01 M1524.2 580.31 C1573.43 522.34, 1622.09 464.7, 1684.93 395.41 M1524.2 580.31 C1573.99 523.59, 1623.56 467.72, 1684.93 395.41 M1529.84 579.91 C1588.39 512.91, 1646.79 445.6, 1684.67 401.8 M1529.84 579.91 C1590.31 512.53, 1648.02 446.49, 1684.67 401.8 M1534.83 580.27 C1582.6 526.22, 1625.88 475.48, 1685.07 407.45 M1534.83 580.27 C1594.37 510.94, 1653.82 442.65, 1685.07 407.45 M1540.47 579.88 C1572.78 543.71, 1604.29 506.27, 1684.81 413.84 M1540.47 579.88 C1594.99 516.68, 1649.25 454.43, 1684.81 413.84 M1545.46 580.24 C1580.21 542, 1613.62 502.85, 1685.2 419.49 M1545.46 580.24 C1582.45 535.98, 1621.29 492.68, 1685.2 419.49 M1551.1 579.85 C1589.89 533.49, 1628.55 489.83, 1684.94 425.89 M1551.1 579.85 C1601.82 521.43, 1654.77 461.48, 1684.94 425.89 M1556.09 580.21 C1587.78 542.43, 1616.62 507.81, 1684.68 432.28 M1556.09 580.21 C1593.91 534.58, 1633.75 489.22, 1684.68 432.28 M1559.76 582.08 C1607.24 531.66, 1652.62 478.68, 1686.38 436.42 M1559.76 582.08 C1598.34 538.46, 1636.46 494.91, 1686.38 436.42 M1566.06 580.93 C1591.01 549.79, 1617.65 522.15, 1686.12 442.81 M1566.06 580.93 C1591.78 550.29, 1617.56 519.49, 1686.12 442.81 M1572.36 579.78 C1611.81 534.44, 1653.88 488.52, 1685.21 449.97 M1572.36 579.78 C1613.97 532.97, 1654.49 486.14, 1685.21 449.97 M1578.01 579.38 C1619.02 529.97, 1663.58 483.18, 1684.94 456.36 M1578.01 579.38 C1615.03 537.69, 1652.71 495.15, 1684.94 456.36 M1584.31 578.23 C1609.61 548.9, 1638.64 518.46, 1684.68 462.76 M1584.31 578.23 C1615.75 542.13, 1647.94 506.6, 1684.68 462.76 M1590.6 577.08 C1626.65 534.7, 1661.28 493.67, 1683.76 469.91 M1590.6 577.08 C1620.3 542.98, 1649.83 510.03, 1683.76 469.91 M1598.22 574.42 C1618.64 551.84, 1638.32 530.47, 1681.54 478.58 M1598.22 574.42 C1617.93 551.83, 1639.39 527.78, 1681.54 478.58 M1605.17 572.52 C1628.03 541.81, 1654.1 512.51, 1679.96 486.48 M1605.17 572.52 C1620.04 554.04, 1636.25 537.1, 1679.96 486.48 M1614.09 568.35 C1630.45 548.47, 1648.65 530.7, 1677.73 495.15 M1614.09 568.35 C1634.28 543.87, 1654.91 520.84, 1677.73 495.15 M1622.36 564.94 C1644.59 540.13, 1663.09 515.93, 1678.13 500.79 M1622.36 564.94 C1634.95 551.42, 1647.62 535.2, 1678.13 500.79 M1638.5 552.47 C1646.23 540.16, 1656.72 528.49, 1672.62 513.22 M1638.5 552.47 C1649.24 539.93, 1658.42 528.99, 1672.62 513.22" stroke="#be4bdb" stroke-width="0.5" fill="none"></path><path d="M145 0 M145 0 C640.25 -3.41, 1134.48 -3.6, 1539.57 0 M145 0 C662.22 -1.76, 1179.67 -1.66, 1539.57 0 M1539.57 0 C1636.85 -1.72, 1684.92 46.63, 1684.57 145 M1539.57 0 C1637.73 -0.44, 1682.41 49.78, 1684.57 145 M1684.57 145 C1685.16 235.96, 1685.29 329.32, 1684.57 435 M1684.57 145 C1685.27 213.03, 1685.52 282.38, 1684.57 435 M1684.57 435 C1683.52 530.39, 1635.87 578.19, 1539.57 580 M1684.57 435 C1682.56 531.56, 1637.22 579.77, 1539.57 580 M1539.57 580 C1100.78 574.48, 663.59 573.84, 145 580 M1539.57 580 C1113.99 576.78, 688.24 576.84, 145 580 M145 580 C48.57 581.26, 1.28 533.35, 0 435 M145 580 C49.13 581.97, 1.39 533.78, 0 435 M0 435 C-0.69 373.08, -0.51 310.89, 0 145 M0 435 C1.96 328.47, 2.09 221.34, 0 145 M0 145 C-1.44 48.57, 46.69 0.2, 145 0 M0 145 C1.28 48.38, 50.12 -1.67, 145 0" stroke="#000000" stroke-width="1" fill="none"></path></g><g stroke-linecap="round"><g transform="translate(11.206160161215792 334.9784974294056) rotate(0 551.497890699095 -0.07885825262064827)"><path d="M0.17 1.16 C184.18 1.04, 920.29 0.67, 1104.2 0.28 M-1.21 0.72 C182.62 0.2, 918.57 -1.18, 1103.11 -1.32" stroke="#000000" stroke-width="1" fill="none"></path></g><g transform="translate(11.206160161215792 334.9784974294056) rotate(0 551.497890699095 -0.07885825262064827)"><path d="M1076.87 8.53 C1085.22 4.33, 1091.49 1.75, 1101.76 -1.06 M1075.81 8.13 C1081.27 6.66, 1087.23 3.73, 1104.09 -1.62" stroke="#000000" stroke-width="1" fill="none"></path></g><g transform="translate(11.206160161215792 334.9784974294056) rotate(0 551.497890699095 -0.07885825262064827)"><path d="M1076.84 -11.99 C1085.37 -9.86, 1091.65 -6.1, 1101.76 -1.06 M1075.78 -12.39 C1081.21 -9.12, 1087.18 -7.32, 1104.09 -1.62" stroke="#000000" stroke-width="1" fill="none"></path></g></g><g transform="translate(65.28993877338456 307.19047619047626) rotate(0 111.5 12.5)"><text x="0" y="18" font-family="Virgil, Segoe UI Emoji" font-size="20px" fill="#000000" text-anchor="start" style="white-space: pre;" direction="ltr">Prover's Initial Inputs</text></g><g stroke-linecap="round" transform="translate(1133.611367344813 182.54761904761938) rotate(0 136 137)"><path d="M9.41 26.73 C9.41 26.73, 9.41 26.73, 9.41 26.73 M9.41 26.73 C9.41 26.73, 9.41 26.73, 9.41 26.73 M5.22 37.66 C10.68 29.81, 17.43 22.63, 32.11 6.72 M5.22 37.66 C10.65 31.88, 16.99 25.86, 32.11 6.72 M3.64 45.57 C12.34 34.26, 19.83 25.9, 39.73 4.06 M3.64 45.57 C15.22 31.42, 26.83 18.2, 39.73 4.06 M2.72 52.72 C14.52 39.54, 30.41 21.08, 46.02 2.91 M2.72 52.72 C11.8 41.52, 18.94 31.56, 46.02 2.91 M1.81 59.87 C10.71 47.56, 21.76 35.64, 51.67 2.51 M1.81 59.87 C14.41 46.5, 26.87 32.12, 51.67 2.51 M0.23 67.78 C17.95 48.85, 29.85 32.81, 57.31 2.12 M0.23 67.78 C19.18 47.23, 38.03 26.14, 57.31 2.12 M-0.03 74.18 C25.37 44.9, 47.73 20.14, 62.95 1.72 M-0.03 74.18 C21.02 49.25, 41.5 26.74, 62.95 1.72 M0.37 79.82 C23.36 54.76, 48.86 23.47, 69.25 0.58 M0.37 79.82 C26.21 50.39, 50.71 20.89, 69.25 0.58 M0.11 86.22 C18 63.29, 38.3 43.05, 74.24 0.94 M0.11 86.22 C20.85 61.66, 39.76 39.14, 74.24 0.94 M-0.16 92.62 C25.51 58.85, 56.96 26.06, 79.23 1.3 M-0.16 92.62 C17.99 71.9, 36.16 52.15, 79.23 1.3 M0.24 98.26 C23.13 70.9, 48.39 40.36, 84.87 0.9 M0.24 98.26 C23.22 71.07, 45.02 46.38, 84.87 0.9 M-0.02 104.66 C25.86 76.21, 48.54 47.89, 89.86 1.26 M-0.02 104.66 C30.79 70.62, 60.08 35.74, 89.86 1.26 M0.37 110.3 C26.7 78.54, 53.53 48.33, 95.5 0.87 M0.37 110.3 C31.54 73.21, 62.63 37.29, 95.5 0.87 M0.11 116.7 C37.58 71.66, 77.54 30.39, 100.49 1.23 M0.11 116.7 C22.14 94.24, 41.02 70.07, 100.49 1.23 M-0.15 123.09 C19.99 98.29, 41.94 71.3, 106.13 0.83 M-0.15 123.09 C21.76 97.46, 42.22 72.96, 106.13 0.83 M0.24 128.74 C29.38 97.65, 55.22 66.04, 111.12 1.19 M0.24 128.74 C37.84 85.46, 75.61 43.56, 111.12 1.19 M-0.02 135.14 C41.97 87.17, 82.76 40.16, 116.1 1.55 M-0.02 135.14 C29.88 100.48, 60.58 67.55, 116.1 1.55 M0.38 140.78 C42.5 93.13, 87.4 42.76, 121.75 1.16 M0.38 140.78 C36.67 98.22, 71.66 57.57, 121.75 1.16 M0.12 147.18 C26.96 115.41, 51.84 84.86, 126.73 1.52 M0.12 147.18 C46.34 94.45, 92.66 41.7, 126.73 1.52 M-0.15 153.57 C38.37 108.14, 75.01 66.36, 132.38 1.12 M-0.15 153.57 C51.8 93.67, 103.22 34.32, 132.38 1.12 M0.25 159.22 C54.7 95.12, 107.42 32.89, 137.36 1.48 M0.25 159.22 C30.77 124.27, 60.99 89.02, 137.36 1.48 M-0.01 165.62 C48.55 113.25, 92.33 57.53, 143.01 1.09 M-0.01 165.62 C34.29 126, 69.41 87.24, 143.01 1.09 M0.38 171.26 C46.3 117.95, 91.97 66.33, 147.99 1.45 M0.38 171.26 C39.8 125.35, 79.27 80.94, 147.99 1.45 M0.12 177.66 C45.04 126.03, 87.8 75.59, 152.98 1.81 M0.12 177.66 C61.16 106.57, 121.4 36.15, 152.98 1.81 M0.51 183.3 C39.45 140.6, 79.25 93.68, 158.62 1.41 M0.51 183.3 C51.54 125.23, 102.05 65.91, 158.62 1.41 M0.25 189.7 C42.43 143.1, 83.02 98.6, 163.61 1.77 M0.25 189.7 C52.03 131.78, 103.04 72.04, 163.61 1.77 M-0.01 196.09 C59.54 132.36, 117.01 63, 169.25 1.38 M-0.01 196.09 C63.57 125.01, 126.3 52.91, 169.25 1.38 M0.39 201.74 C43.09 156.55, 81.5 107.89, 174.24 1.74 M0.39 201.74 C34.81 161.07, 69.94 120.22, 174.24 1.74 M0.12 208.14 C72.26 125.67, 143.56 45.13, 179.89 1.35 M0.12 208.14 C69.55 130.19, 138.42 51.62, 179.89 1.35 M0.52 213.78 C60.06 144.54, 120.93 74.44, 184.87 1.71 M0.52 213.78 C62.28 142.07, 123.48 71.78, 184.87 1.71 M2.88 217.16 C48.69 164.41, 94.69 112.41, 189.86 2.07 M2.88 217.16 C52.48 158.89, 101.87 102.48, 189.86 2.07 M3.93 222.05 C76.14 141.35, 146.6 59.14, 195.5 1.67 M3.93 222.05 C74.47 143.81, 143.76 63.14, 195.5 1.67 M4.98 226.93 C46.67 176.87, 91.06 128.09, 200.49 2.03 M4.98 226.93 C69.97 151.1, 136.8 76.39, 200.49 2.03 M6.03 231.82 C60.58 172.98, 112.96 112.75, 206.13 1.64 M6.03 231.82 C49.5 182.33, 92.25 133.76, 206.13 1.64 M6.43 237.47 C57.46 182.31, 105.59 123.23, 211.12 2 M6.43 237.47 C56.59 177.12, 108.02 118.96, 211.12 2 M8.14 241.6 C56.38 183.43, 106.81 125.91, 216.76 1.6 M8.14 241.6 C84.66 152.95, 161.48 64.35, 216.76 1.6 M10.5 244.98 C85.76 157.73, 160.55 70.98, 221.09 2.72 M10.5 244.98 C64.23 180.71, 119.98 117.85, 221.09 2.72 M12.21 249.11 C55.41 196.56, 99.33 146.71, 225.42 3.83 M12.21 249.11 C54.67 199.95, 98.58 150.57, 225.42 3.83 M13.91 253.25 C59.81 201.58, 103.18 151.13, 229.76 4.95 M13.91 253.25 C91.69 163.1, 171.2 72.93, 229.76 4.95 M16.93 255.87 C65.74 199.82, 115.62 141.36, 234.09 6.06 M16.93 255.87 C69.42 197.33, 121.27 137.32, 234.09 6.06 M19.29 259.25 C89.97 174.4, 164.86 91.77, 238.42 7.18 M19.29 259.25 C97.89 172.36, 174.99 82.7, 238.42 7.18 M22.31 261.87 C69.22 208.59, 116.06 155.54, 242.09 9.05 M22.31 261.87 C82.22 192.09, 144.53 121.4, 242.09 9.05 M25.99 263.74 C90.33 189.48, 155.87 114.28, 245.77 10.91 M25.99 263.74 C106.74 174.56, 185.43 84.23, 245.77 10.91 M29.66 265.61 C76.34 207.9, 124.99 153.35, 249.44 12.78 M29.66 265.61 C96.32 188.59, 162.98 112.42, 249.44 12.78 M32.68 268.24 C108.43 181.78, 183.83 93.62, 253.12 14.65 M32.68 268.24 C104.75 186.71, 176.74 104.17, 253.12 14.65 M37.01 269.35 C121.13 172.36, 204.83 77.49, 255.48 18.03 M37.01 269.35 C114.7 181.22, 190.19 93.84, 255.48 18.03 M41.34 270.47 C116.47 182.6, 191.75 98.31, 258.5 20.66 M41.34 270.47 C112.34 191.58, 181.65 110.74, 258.5 20.66 M45.02 272.34 C126.48 178.47, 205.84 88.29, 261.52 23.28 M45.02 272.34 C93.73 216.81, 143.44 158.75, 261.52 23.28 M50 272.7 C103.35 209.37, 159.29 145.54, 263.22 27.42 M50 272.7 C97.19 217.42, 145.24 162.13, 263.22 27.42 M54.99 273.06 C119.54 197.42, 183.39 122.21, 265.59 30.79 M54.99 273.06 C101.96 217.9, 149.94 162.96, 265.59 30.79 M59.32 274.17 C115.09 214.76, 167.54 150.5, 267.29 34.93 M59.32 274.17 C112.95 213.55, 165.03 154.2, 267.29 34.93 M63 276.04 C124.11 204.73, 183.84 135.28, 269 39.06 M63 276.04 C106.55 228.74, 148.51 179.21, 269 39.06 M67.98 276.4 C113.72 226.35, 158.43 173.83, 270.05 43.95 M67.98 276.4 C113.49 224.36, 159.68 171.76, 270.05 43.95 M73.63 276.01 C123.73 215.03, 175.3 157.55, 270.45 49.59 M73.63 276.01 C129.65 212.39, 184.72 148.92, 270.45 49.59 M78.61 276.37 C121.57 225.36, 167.38 176.46, 271.5 54.48 M78.61 276.37 C134.74 211.97, 191.76 147.11, 271.5 54.48 M84.26 275.97 C144.14 207.17, 201.36 141.76, 271.89 60.12 M84.26 275.97 C147.98 201.08, 212.35 125.9, 271.89 60.12 M89.24 276.33 C133.93 223.94, 182.56 169.71, 272.29 65.77 M89.24 276.33 C127.09 229.65, 167.84 183.77, 272.29 65.77 M94.23 276.69 C162.27 197.04, 230.9 120.02, 272.02 72.17 M94.23 276.69 C160.33 201.01, 225.66 124.47, 272.02 72.17 M99.87 276.3 C153.81 217.58, 205.36 157.42, 271.76 78.56 M99.87 276.3 C148.2 218.63, 199.02 161.18, 271.76 78.56 M104.86 276.66 C169.35 202.46, 234.7 127.57, 272.16 84.21 M104.86 276.66 C153.42 220.37, 202.53 164.47, 272.16 84.21 M110.5 276.26 C153.41 227.53, 194.76 180.49, 271.9 90.6 M110.5 276.26 C146.81 234.27, 182.75 193.37, 271.9 90.6 M115.49 276.62 C157.63 226.61, 202.81 177.37, 272.29 96.25 M115.49 276.62 C164.04 220.72, 211.91 166.5, 272.29 96.25 M121.14 276.23 C154.58 236.28, 186.97 198.65, 272.03 102.64 M121.14 276.23 C154.75 236.09, 191.93 195.99, 272.03 102.64 M126.12 276.59 C178.5 214.27, 233.56 154.08, 271.77 109.04 M126.12 276.59 C185.88 211.51, 243.73 144.31, 271.77 109.04 M131.77 276.19 C160.76 243.71, 188.11 209.5, 272.16 114.69 M131.77 276.19 C185.53 214.73, 238.44 153.59, 272.16 114.69 M136.75 276.55 C169.07 238.74, 199.78 201.83, 271.9 121.08 M136.75 276.55 C163.75 244.41, 193.5 211.18, 271.9 121.08 M142.4 276.16 C195.62 216.72, 246.74 158.89, 272.29 126.73 M142.4 276.16 C173.08 242.45, 204.51 207.53, 272.29 126.73 M147.38 276.52 C195.38 220.85, 246.54 162.93, 272.03 133.12 M147.38 276.52 C192.26 224.62, 236.69 172.99, 272.03 133.12 M153.03 276.12 C191.27 233.72, 230.65 189.21, 271.77 139.52 M153.03 276.12 C197.42 224.42, 242.48 174.81, 271.77 139.52 M158.01 276.48 C184.32 245.84, 211.5 213.6, 272.17 145.16 M158.01 276.48 C196.79 232.49, 234.38 190.05, 272.17 145.16 M163.66 276.09 C197.45 238.65, 228.82 202.99, 271.91 151.56 M163.66 276.09 C196.99 237.69, 231.28 198.93, 271.91 151.56 M168.64 276.45 C196.51 245.67, 226.04 213.82, 272.3 157.21 M168.64 276.45 C209.8 229.45, 249.31 182.38, 272.3 157.21 M174.29 276.06 C210.23 236.84, 244.6 195.01, 272.04 163.6 M174.29 276.06 C212.93 233.08, 249.6 191.05, 272.04 163.6 M179.27 276.42 C207.98 245.71, 232.14 211.71, 271.78 170 M179.27 276.42 C203.71 250.08, 226.17 222.13, 271.78 170 M184.92 276.02 C211.19 247.8, 236.08 215.62, 272.17 175.64 M184.92 276.02 C205.09 253.27, 224.31 229.61, 272.17 175.64 M189.9 276.38 C213.46 249.53, 231.83 224.93, 271.91 182.04 M189.9 276.38 C209.27 256.02, 227.62 234.02, 271.91 182.04 M195.55 275.99 C217.23 250.86, 238.38 224.69, 272.3 187.69 M195.55 275.99 C222.08 246.99, 247.21 217.33, 272.3 187.69 M200.53 276.35 C225.08 248.74, 251.61 217.05, 272.04 194.08 M200.53 276.35 C219.57 253.16, 238.28 230.91, 272.04 194.08 M206.18 275.95 C220.71 260.67, 234.42 239.85, 271.78 200.48 M206.18 275.95 C224.49 254.58, 242.37 233.97, 271.78 200.48 M213.13 274.05 C230.54 251.58, 252.74 230.51, 272.18 206.12 M213.13 274.05 C232.31 251.01, 252.99 229.82, 272.18 206.12 M219.43 272.9 C239.49 251.35, 258.67 225.31, 271.91 212.52 M219.43 272.9 C234.07 255.52, 247.14 238.62, 271.91 212.52 M225.73 271.75 C245.24 250.61, 262.33 228.58, 274.28 215.9 M225.73 271.75 C235.86 258.68, 245.97 246.9, 274.28 215.9 M232.03 270.6 C247.68 253.09, 262.1 234.32, 272.7 223.81 M232.03 270.6 C242.3 258.91, 252.83 246.67, 272.7 223.81 M236.36 271.71 C245.2 260.67, 254.6 246.69, 271.79 230.96 M236.36 271.71 C247.04 260.43, 257.72 247.57, 271.79 230.96 M250.53 261.51 C251.9 256.45, 257.19 252.19, 266.93 242.64 M250.53 261.51 C256.12 255.46, 262.63 248.26, 266.93 242.64" stroke="#fd7e14" stroke-width="0.5" fill="none"></path><path d="M68 0 M68 0 C102.73 -0.98, 136.09 1.32, 204 0 M68 0 C99.09 0.23, 129.69 -1.09, 204 0 M204 0 C250.8 -0.61, 270.59 21.2, 272 68 M204 0 C248.4 -0.12, 273.36 22.38, 272 68 M272 68 C270.73 113.61, 272.86 161.14, 272 206 M272 68 C270.97 107.7, 271.37 146.67, 272 206 M272 206 C272.95 251.76, 248.13 272.34, 204 274 M272 206 C271.82 250.48, 250.74 275.78, 204 274 M204 274 C162.99 272.13, 118.55 272.24, 68 274 M204 274 C155.08 273.87, 106.87 274.36, 68 274 M68 274 C21.98 273.11, -1.95 250.17, 0 206 M68 274 C21.94 276.08, -1.27 249.23, 0 206 M0 206 C-0.74 160.25, -0.94 115.42, 0 68 M0 206 C1.35 171.01, -0.25 137.69, 0 68 M0 68 C1.48 23.71, 24.23 -1.63, 68 0 M0 68 C1.95 21.74, 24.18 1.29, 68 0" stroke="#000000" stroke-width="1" fill="none"></path></g><g transform="translate(1138.611367344813 274.5476190476194) rotate(0 131 45)"><text x="131" y="32" font-family="Virgil, Segoe UI Emoji" font-size="36px" fill="#000000" text-anchor="middle" style="white-space: pre;" direction="ltr">Prover </text><text x="131" y="77" font-family="Virgil, Segoe UI Emoji" font-size="36px" fill="#000000" text-anchor="middle" style="white-space: pre;" direction="ltr">Runtime</text></g><g stroke-linecap="round" transform="translate(442.63517686862275 512.9047619047616) rotate(0 138 75.71428571428567)"><path d="M5.11 15.04 C5.11 15.04, 5.11 15.04, 5.11 15.04 M5.11 15.04 C5.11 15.04, 5.11 15.04, 5.11 15.04 M2.22 24.46 C7.15 20.3, 11.59 16.27, 21.25 2.57 M2.22 24.46 C7.75 17.55, 15.45 10.74, 21.25 2.57 M2.61 30.1 C6.29 24.05, 11.38 16.55, 27.54 1.42 M2.61 30.1 C11.14 20.41, 20.61 9.17, 27.54 1.42 M2.35 36.5 C10.31 26.46, 20.05 13, 33.19 1.02 M2.35 36.5 C10.7 27.52, 19.96 16.73, 33.19 1.02 M2.09 42.89 C12.34 31.9, 22.48 18.87, 38.83 0.63 M2.09 42.89 C11 32.66, 19.13 24.7, 38.83 0.63 M2.49 48.54 C16.85 31.2, 30.21 17.14, 43.82 0.99 M2.49 48.54 C11.5 37.37, 22.18 26.39, 43.82 0.99 M2.22 54.93 C20.46 32.26, 38.53 14.78, 49.46 0.6 M2.22 54.93 C11.68 42.4, 23.07 32.38, 49.46 0.6 M2.62 60.58 C22.5 35.57, 44.18 13.86, 54.45 0.96 M2.62 60.58 C21.43 38.52, 42.21 17.13, 54.45 0.96 M2.36 66.98 C19.39 51.03, 33.88 34.05, 60.09 0.56 M2.36 66.98 C24.07 41.28, 45.74 16.73, 60.09 0.56 M2.1 73.37 C18.85 49.65, 38.32 29.3, 65.08 0.92 M2.1 73.37 C21.52 51.62, 39.88 30.03, 65.08 0.92 M2.49 79.02 C24.71 53.98, 47.55 26.9, 70.72 0.53 M2.49 79.02 C23.8 54.41, 44.04 31.2, 70.72 0.53 M2.23 85.41 C19.36 66.14, 38.27 41.96, 75.71 0.89 M2.23 85.41 C25.26 57.87, 48.68 32.5, 75.71 0.89 M1.97 91.81 C19.76 67.24, 40.39 48.36, 81.35 0.49 M1.97 91.81 C24.26 67.45, 45.37 41.75, 81.35 0.49 M2.36 97.46 C27.16 67.08, 49.88 37.5, 86.34 0.85 M2.36 97.46 C26.87 66.87, 54.38 37.79, 86.34 0.85 M2.1 103.85 C35.66 65.34, 71.39 24.04, 91.98 0.46 M2.1 103.85 C29.81 71.61, 58.18 41.5, 91.98 0.46 M2.5 109.5 C28.2 82.95, 51.09 51.75, 96.97 0.82 M2.5 109.5 C31.38 78.28, 58.59 45.31, 96.97 0.82 M2.23 115.89 C39.69 73.22, 74.86 32.09, 102.61 0.42 M2.23 115.89 C28.78 84.5, 55.05 53.81, 102.61 0.42 M1.32 123.05 C27.67 95.71, 49.32 66.59, 107.6 0.78 M1.32 123.05 C31.41 89.59, 61.18 53.5, 107.6 0.78 M3.02 127.18 C31.27 94.77, 58.61 62.23, 113.24 0.39 M3.02 127.18 C43.78 80.43, 85.83 32.78, 113.24 0.39 M4.07 132.07 C34.69 96.51, 63.83 61.32, 118.23 0.75 M4.07 132.07 C48.73 81.23, 93.17 30.12, 118.23 0.75 M5.13 136.96 C32.12 104.46, 60.95 73.43, 123.22 1.11 M5.13 136.96 C44.59 93.16, 80.32 49.66, 123.22 1.11 M8.14 139.58 C44.08 93.26, 84.47 52.95, 128.86 0.71 M8.14 139.58 C49.55 94.15, 91.16 46.73, 128.86 0.71 M11.16 142.21 C53.44 93.07, 92.8 46.73, 133.85 1.07 M11.16 142.21 C50.06 95.11, 90.22 48.59, 133.85 1.07 M14.18 144.83 C47.02 103.47, 83.93 66.59, 139.49 0.68 M14.18 144.83 C58.25 95.69, 101.18 43.61, 139.49 0.68 M16.54 148.21 C48.88 110.22, 81.8 70.79, 144.48 1.04 M16.54 148.21 C56.24 102.87, 95.18 58.7, 144.48 1.04 M20.88 149.32 C59.66 101.17, 98.87 55.72, 150.12 0.65 M20.88 149.32 C55.32 110.32, 89.06 71.34, 150.12 0.65 M25.21 150.44 C72.13 95.44, 123.41 39.31, 155.11 1.01 M25.21 150.44 C60.46 108.35, 97.47 64.69, 155.11 1.01 M29.54 151.55 C77.46 94.28, 129.38 39.45, 160.75 0.61 M29.54 151.55 C81.26 92.46, 133.44 32.19, 160.75 0.61 M34.52 151.91 C76.61 104.52, 117.07 60.33, 165.74 0.97 M34.52 151.91 C83.09 97.92, 129.76 43.04, 165.74 0.97 M39.51 152.27 C78.33 110.31, 114.9 68.12, 171.38 0.58 M39.51 152.27 C77.35 107.81, 115.24 63.51, 171.38 0.58 M44.5 152.63 C73.68 120.6, 99.13 89.59, 176.37 0.94 M44.5 152.63 C69.38 121.46, 97.2 92.25, 176.37 0.94 M50.14 152.24 C79.19 118.74, 109.35 84.31, 182.01 0.54 M50.14 152.24 C75.94 121.11, 102.88 89.53, 182.01 0.54 M55.13 152.6 C83.67 118.94, 114.46 88.11, 187 0.9 M55.13 152.6 C95.89 106.29, 137.15 60.25, 187 0.9 M60.12 152.96 C92.23 116.44, 124.43 79.94, 192.64 0.51 M60.12 152.96 C111.05 95.42, 160.03 37.17, 192.64 0.51 M65.76 152.56 C93.79 118.8, 124.85 84.29, 197.63 0.87 M65.76 152.56 C111.85 100.91, 157.15 47.81, 197.63 0.87 M70.75 152.92 C119.49 96.37, 168.77 40.2, 203.27 0.47 M70.75 152.92 C118.18 97.44, 167.7 40.48, 203.27 0.47 M76.39 152.53 C120.37 103.14, 161.72 54.19, 208.26 0.83 M76.39 152.53 C108.11 117.26, 137.46 82.99, 208.26 0.83 M81.38 152.89 C123.33 107.54, 161.79 58.84, 213.9 0.44 M81.38 152.89 C124.14 102.61, 167.47 51.92, 213.9 0.44 M87.02 152.49 C131.15 100.51, 175.49 50.17, 218.89 0.8 M87.02 152.49 C119.51 115.67, 152.23 79.95, 218.89 0.8 M92.01 152.86 C135.73 102.92, 176.02 53.04, 224.53 0.4 M92.01 152.86 C134.29 102.69, 177.01 53.6, 224.53 0.4 M97.65 152.46 C136.89 108.54, 175.22 62.93, 229.52 0.76 M97.65 152.46 C137.44 107.8, 177.23 62.37, 229.52 0.76 M102.64 152.82 C145.88 103.11, 191 50.09, 234.5 1.12 M102.64 152.82 C130.73 119.66, 158.9 86.46, 234.5 1.12 M108.28 152.43 C155.88 96.86, 204.75 39.92, 239.49 1.48 M108.28 152.43 C146.22 110.47, 183.48 66.62, 239.49 1.48 M113.27 152.79 C151.05 109.76, 184.67 68.52, 244.48 1.84 M113.27 152.79 C164.13 92.53, 214.33 33.68, 244.48 1.84 M118.91 152.39 C158.87 100.34, 204.91 53.8, 249.46 2.2 M118.91 152.39 C163.45 102.39, 208.81 50.63, 249.46 2.2 M123.9 152.75 C165.88 103.66, 206.13 57.76, 253.14 4.07 M123.9 152.75 C152.01 121.28, 179.53 89.23, 253.14 4.07 M129.54 152.36 C167.54 111.46, 201.07 70.82, 257.47 5.19 M129.54 152.36 C176.41 97.65, 223.45 44.53, 257.47 5.19 M134.53 152.72 C181.47 96.96, 230.59 42.68, 261.8 6.3 M134.53 152.72 C181.8 97.48, 227.73 44.06, 261.8 6.3 M140.17 152.32 C182.89 101.02, 226.29 50.5, 264.82 8.93 M140.17 152.32 C176.77 111.19, 212.22 71.26, 264.82 8.93 M145.16 152.68 C181.71 107.21, 220.54 60.84, 267.84 11.55 M145.16 152.68 C187.65 105.73, 229.67 56.58, 267.84 11.55 M150.8 152.29 C193.36 100.51, 237.66 50.06, 270.86 14.18 M150.8 152.29 C176.44 121.87, 202.87 92.27, 270.86 14.18 M155.79 152.65 C189.74 111.15, 223.77 71.89, 273.22 17.56 M155.79 152.65 C194.98 107.61, 233.62 64.07, 273.22 17.56 M161.43 152.25 C205.49 101.9, 251.37 49.96, 274.93 21.69 M161.43 152.25 C197.74 110.75, 233.66 70.36, 274.93 21.69 M166.42 152.61 C209.2 101.2, 254.04 52.53, 276.63 25.82 M166.42 152.61 C202.15 111.55, 237.85 71.59, 276.63 25.82 M171.4 152.97 C194.77 127.53, 219.15 103.01, 277.68 30.71 M171.4 152.97 C201.47 117.64, 231.29 84.91, 277.68 30.71 M177.05 152.58 C198.94 127.67, 219.6 105.03, 277.42 37.11 M177.05 152.58 C198.48 128.55, 221.86 101.87, 277.42 37.11 M182.03 152.94 C203.23 128.56, 227.12 105, 277.82 42.75 M182.03 152.94 C209.5 122.21, 237.14 89.7, 277.82 42.75 M187.68 152.54 C211.65 123.32, 237.55 96.91, 277.56 49.15 M187.68 152.54 C217.45 118.56, 246.13 85.57, 277.56 49.15 M192.66 152.9 C226.1 118.39, 256.26 80.51, 277.95 54.79 M192.66 152.9 C215.72 128.2, 236.74 104.27, 277.95 54.79 M198.31 152.51 C216.37 131.33, 235.39 109.18, 277.69 61.19 M198.31 152.51 C217.99 128.67, 237.65 105.74, 277.69 61.19 M203.29 152.87 C229.6 121.34, 256.16 89.22, 278.08 66.83 M203.29 152.87 C229.4 121.03, 255.95 91.68, 278.08 66.83 M208.94 152.48 C226.02 135.35, 243.48 113.38, 277.82 73.23 M208.94 152.48 C224.07 134.33, 239.76 117.75, 277.82 73.23 M213.92 152.84 C234.05 134.56, 250.91 110.52, 278.22 78.87 M213.92 152.84 C234.96 128.86, 255.28 105.61, 278.22 78.87 M219.57 152.44 C231.04 137.15, 243.45 124.38, 277.96 85.27 M219.57 152.44 C239.02 131.24, 258.11 108.46, 277.96 85.27 M224.55 152.8 C234.49 139.69, 246.63 129.15, 277.69 91.67 M224.55 152.8 C243.09 133.28, 258.64 112.7, 277.69 91.67 M230.2 152.41 C246.8 133.36, 259.54 119.64, 278.09 97.31 M230.2 152.41 C245.87 134.49, 261.61 116.19, 278.09 97.31 M235.18 152.77 C249.72 137.16, 264.25 121.36, 277.83 103.71 M235.18 152.77 C248.91 136.01, 262.16 120.58, 277.83 103.71 M240.17 153.13 C251.96 140.16, 260.84 126.18, 278.22 109.35 M240.17 153.13 C248.38 143.19, 256.56 133.12, 278.22 109.35 M246.47 151.98 C256.95 141.75, 264.25 128.77, 277.96 115.75 M246.47 151.98 C256.58 141.34, 264.1 129.85, 277.96 115.75 M252.11 151.58 C260.97 141.8, 270.54 129.58, 276.39 123.66 M252.11 151.58 C258.97 143.91, 264.43 135.93, 276.39 123.66 M261.69 146.66 C263.59 141.62, 267.83 139.73, 273.5 133.08 M261.69 146.66 C265.85 140.62, 270.51 135.77, 273.5 133.08" stroke="#e64980" stroke-width="0.5" fill="none"></path><path d="M37.86 0 M37.86 0 C113.6 2.02, 193.67 1.95, 238.14 0 M37.86 0 C113.23 -0.94, 189.82 -0.64, 238.14 0 M238.14 0 C263.85 -0.82, 277.46 12.81, 276 37.86 M238.14 0 C262.68 -0.19, 278.14 10.69, 276 37.86 M276 37.86 C276.85 61.55, 276.12 83.4, 276 113.57 M276 37.86 C275.4 55.42, 276.91 73.71, 276 113.57 M276 113.57 C274.09 139.64, 265.22 152.76, 238.14 151.43 M276 113.57 C276.4 138.19, 261.78 149.41, 238.14 151.43 M238.14 151.43 C178.06 150.4, 116.1 148.09, 37.86 151.43 M238.14 151.43 C179 152.14, 118.04 151.85, 37.86 151.43 M37.86 151.43 C12.67 152.73, 1.04 139.52, 0 113.57 M37.86 151.43 C13.17 151.73, 0.52 140.09, 0 113.57 M0 113.57 C0.64 95.36, 2.02 78.3, 0 37.86 M0 113.57 C1.3 91.62, -0.22 69.4, 0 37.86 M0 37.86 C1.69 11.05, 12.55 -0.91, 37.86 0 M0 37.86 C0.89 13.04, 13.85 -1.32, 37.86 0" stroke="#000000" stroke-width="1" fill="none"></path></g><g transform="translate(447.63517686862275 543.6190476190471) rotate(0 133 45)"><text x="133" y="32" font-family="Virgil, Segoe UI Emoji" font-size="36px" fill="#000000" text-anchor="middle" style="white-space: pre;" direction="ltr">Vampir Circuit</text><text x="133" y="77" font-family="Virgil, Segoe UI Emoji" font-size="36px" fill="#000000" text-anchor="middle" style="white-space: pre;" direction="ltr">Writer</text></g><g stroke-linecap="round"><g transform="translate(16.2544347770214 594.0700687517711) rotate(0 211.34836746994577 -0.6283921435846196)"><path d="M0.98 -0.31 C71.37 -0.54, 352.59 -1.13, 422.66 -1.17 M0.04 -1.53 C70.29 -1.58, 351.37 0.47, 422.01 0.27" stroke="#000000" stroke-width="1" fill="none"></path></g><g transform="translate(16.2544347770214 594.0700687517711) rotate(0 211.34836746994577 -0.6283921435846196)"><path d="M393.27 11.39 C402.66 5.7, 412.86 3.72, 423.44 0.53 M393.2 9.59 C401.42 7.27, 408.71 5.63, 422.57 0.51" stroke="#000000" stroke-width="1" fill="none"></path></g><g transform="translate(16.2544347770214 594.0700687517711) rotate(0 211.34836746994577 -0.6283921435846196)"><path d="M393.32 -9.13 C402.74 -8.12, 412.91 -3.41, 423.44 0.53 M393.26 -10.93 C401.53 -7.7, 408.8 -3.8, 422.57 0.51" stroke="#000000" stroke-width="1" fill="none"></path></g></g><g transform="translate(73.73041496386082 564.0476190476192) rotate(0 69.5 12.5)"><text x="0" y="18" font-family="Virgil, Segoe UI Emoji" font-size="20px" fill="#000000" text-anchor="start" style="white-space: pre;" direction="ltr">Juvix Function</text></g><g stroke-linecap="round"><g transform="translate(999.4352269645683 593.6957442822919) rotate(0 756.8303470783438 0.8576821513371442)"><path d="M0.86 -0.58 C253.13 -0.61, 1261.82 0.43, 1513.8 0.84 M-0.14 1.73 C251.95 2.37, 1260.32 2.42, 1512.85 2.1" stroke="#000000" stroke-width="1" fill="none"></path></g><g transform="translate(999.4352269645683 593.6957442822919) rotate(0 756.8303470783438 0.8576821513371442)"><path d="M1483.7 12.36 C1492.6 7.13, 1503.28 6.29, 1511.5 3.29 M1485.28 11.96 C1496 7.5, 1505.98 3.91, 1511.92 1.27" stroke="#000000" stroke-width="1" fill="none"></path></g><g transform="translate(999.4352269645683 593.6957442822919) rotate(0 756.8303470783438 0.8576821513371442)"><path d="M1483.69 -8.16 C1492.77 -6.91, 1503.46 -1.27, 1511.5 3.29 M1485.27 -8.56 C1496.05 -4.99, 1506.04 -0.56, 1511.92 1.27" stroke="#000000" stroke-width="1" fill="none"></path></g></g><g transform="translate(2154.444700678146 552.7619047619047) rotate(0 84 12.5)"><text x="0" y="18" font-family="Virgil, Segoe UI Emoji" font-size="20px" fill="#000000" text-anchor="start" style="white-space: pre;" direction="ltr">Vampir Circuit IR</text></g><g stroke-linecap="round"><g transform="translate(1981.253181734803 345.15778460119134) rotate(0 265.6422001391792 0.5245228781831202)"><path d="M-0.03 0.57 C88.76 0.61, 443.9 1.55, 532.79 1.38 M-1.5 -0.17 C87.07 0.04, 442.55 -0.43, 531.55 -0.34" stroke="#000000" stroke-width="1" fill="none"></path></g><g transform="translate(1981.253181734803 345.15778460119134) rotate(0 265.6422001391792 0.5245228781831202)"><path d="M504.32 9.01 C513.15 6.73, 518.75 4.53, 530.63 -1.04 M502.86 8.98 C509.13 7.65, 515.38 6, 530.56 0.38" stroke="#000000" stroke-width="1" fill="none"></path></g><g transform="translate(1981.253181734803 345.15778460119134) rotate(0 265.6422001391792 0.5245228781831202)"><path d="M504.31 -11.51 C513.34 -7.52, 518.95 -3.46, 530.63 -1.04 M502.85 -11.54 C509.22 -8.36, 515.47 -5.5, 530.56 0.38" stroke="#000000" stroke-width="1" fill="none"></path></g></g><g transform="translate(2148.1113673448135 373.76190476190516) rotate(0 118 12.5)"><text x="0" y="18" font-family="Virgil, Segoe UI Emoji" font-size="20px" fill="#000000" text-anchor="start" style="white-space: pre;" direction="ltr">Vampir Public Input Map</text></g><g stroke-linecap="round" transform="translate(1706.016129249575 308.16666666666686) rotate(0 136 60.5)"><path d="M7.4 7.75 C7.4 7.75, 7.4 7.75, 7.4 7.75 M7.4 7.75 C7.4 7.75, 7.4 7.75, 7.4 7.75 M3.2 18.68 C9.13 13.71, 11.6 9.62, 17.63 2.08 M3.2 18.68 C7.11 12.83, 11.5 7.47, 17.63 2.08 M2.94 25.08 C5.84 18.48, 14.23 15.47, 23.27 1.68 M2.94 25.08 C8.74 20.03, 13.08 14.27, 23.27 1.68 M2.68 31.48 C7.38 25.18, 13.94 18.84, 29.57 0.53 M2.68 31.48 C11.68 21.14, 20.3 11.57, 29.57 0.53 M3.07 37.12 C8.78 28.7, 14.31 23.17, 33.25 2.4 M3.07 37.12 C13.55 25.18, 24.49 12.3, 33.25 2.4 M2.81 43.52 C14.23 28.43, 27.01 15.66, 38.24 2.76 M2.81 43.52 C13.61 29.35, 26.19 17.33, 38.24 2.76 M2.55 49.91 C16.75 33.51, 34.12 12.69, 43.88 2.37 M2.55 49.91 C14.82 35.61, 26.22 22.56, 43.88 2.37 M2.94 55.56 C16.57 38.55, 32.82 22.23, 48.87 2.73 M2.94 55.56 C12.84 45.05, 22.04 33.56, 48.87 2.73 M2.68 61.96 C15.73 49.92, 23.68 37.03, 54.51 2.33 M2.68 61.96 C16.32 46.29, 28.32 32.66, 54.51 2.33 M3.07 67.6 C19.71 48.03, 36.65 27.11, 59.5 2.69 M3.07 67.6 C15.3 51.75, 28.92 36.73, 59.5 2.69 M2.81 74 C20.71 54.28, 35.92 35.62, 65.14 2.3 M2.81 74 C20.68 54, 36.85 33.07, 65.14 2.3 M2.55 80.39 C24.05 53.42, 48.35 25.7, 70.13 2.66 M2.55 80.39 C23.82 54.63, 47.01 28.27, 70.13 2.66 M2.95 86.04 C26.93 55, 52.83 28.2, 75.77 2.26 M2.95 86.04 C26.43 58.09, 49.62 31.7, 75.77 2.26 M2.68 92.43 C18.57 73.07, 38.98 53.33, 80.76 2.62 M2.68 92.43 C33.49 57.44, 63.46 22.43, 80.76 2.62 M1.77 99.59 C26.64 73.29, 52.05 40.8, 86.4 2.23 M1.77 99.59 C33.49 64.61, 62.53 28.43, 86.4 2.23 M2.82 104.48 C36.59 64.64, 72.68 24.41, 91.39 2.59 M2.82 104.48 C38 64.51, 73.03 24.55, 91.39 2.59 M4.52 108.61 C25.96 87.31, 44.33 63.3, 97.03 2.2 M4.52 108.61 C30.17 78.3, 57.53 47.8, 97.03 2.2 M6.89 111.99 C29.54 86.63, 48.62 62.23, 102.02 2.56 M6.89 111.99 C32.72 81.31, 59.28 50.87, 102.02 2.56 M9.25 115.37 C39.8 81.85, 68.35 46.62, 107.66 2.16 M9.25 115.37 C29.62 92.54, 49.54 69.6, 107.66 2.16 M12.93 117.24 C32.25 91.85, 52.3 71.64, 112.65 2.52 M12.93 117.24 C38.79 87.36, 67 57.83, 112.65 2.52 M16.6 119.11 C49.17 82.61, 81.65 43.6, 117.63 2.88 M16.6 119.11 C52.03 76.68, 89.37 34.56, 117.63 2.88 M19.62 121.73 C52.73 84.25, 84.27 48.31, 123.28 2.49 M19.62 121.73 C53.66 82.79, 85.6 45.23, 123.28 2.49 M24.61 122.09 C65.31 74.64, 108.8 29.16, 128.26 2.85 M24.61 122.09 C46.45 98, 67.5 72.23, 128.26 2.85 M30.91 120.94 C55.37 94.42, 77.74 68.13, 133.91 2.45 M30.91 120.94 C63.04 83.59, 94.96 46.96, 133.91 2.45 M35.89 121.3 C58.97 98.05, 82.4 71.1, 138.89 2.81 M35.89 121.3 C67.9 83.86, 100.27 45.65, 138.89 2.81 M40.88 121.66 C76.55 77.2, 112.93 36.14, 144.54 2.42 M40.88 121.66 C66.95 91.49, 92.04 60.8, 144.54 2.42 M46.52 121.27 C85 74.66, 126.13 29.57, 149.52 2.78 M46.52 121.27 C75.24 87.68, 104.15 54.34, 149.52 2.78 M51.51 121.63 C89.45 75.21, 130.95 29, 155.17 2.38 M51.51 121.63 C75.47 92.7, 101.38 64.8, 155.17 2.38 M57.15 121.23 C91.96 84.15, 123.57 43.16, 160.15 2.74 M57.15 121.23 C79.17 94.88, 102.27 69.1, 160.15 2.74 M62.14 121.59 C97.22 82.24, 131.2 44.56, 165.8 2.35 M62.14 121.59 C97.62 80.7, 132.67 42.36, 165.8 2.35 M67.78 121.2 C103.99 82, 138.31 39.72, 170.78 2.71 M67.78 121.2 C95.49 88.43, 121.63 55.26, 170.78 2.71 M72.77 121.56 C98.71 92.91, 125.33 60.14, 176.43 2.31 M72.77 121.56 C103.45 87.15, 130.81 54.08, 176.43 2.31 M78.41 121.16 C117.71 76.02, 152.7 35.32, 181.41 2.67 M78.41 121.16 C109.18 86.19, 138.08 51.66, 181.41 2.67 M83.4 121.52 C104.82 94.36, 127.33 67.97, 187.06 2.28 M83.4 121.52 C120.37 77.34, 157.59 35.74, 187.06 2.28 M89.04 121.13 C110.65 98, 131.22 70.28, 192.04 2.64 M89.04 121.13 C124.74 79.24, 162.17 37.74, 192.04 2.64 M94.03 121.49 C124.91 85.21, 158.33 46.27, 197.69 2.24 M94.03 121.49 C132.02 77.1, 168.7 34.25, 197.69 2.24 M99.67 121.09 C133.34 83.46, 164.59 45.98, 202.67 2.6 M99.67 121.09 C125.46 91.37, 150.95 60.33, 202.67 2.6 M104.66 121.45 C142.88 76.47, 179.56 31.86, 208.32 2.21 M104.66 121.45 C129.9 91.45, 153.82 64.98, 208.32 2.21 M110.3 121.06 C131.73 94.65, 153.76 69.67, 213.3 2.57 M110.3 121.06 C132.24 93.94, 154.86 69.47, 213.3 2.57 M115.29 121.42 C145.84 88.55, 176.12 49.49, 218.95 2.18 M115.29 121.42 C156.66 74.93, 197.01 28.18, 218.95 2.18 M120.93 121.03 C142.22 92.03, 168 68.41, 223.93 2.54 M120.93 121.03 C158.23 77.5, 196.91 33.39, 223.93 2.54 M125.92 121.39 C160.01 82.67, 196.03 39.39, 229.58 2.14 M125.92 121.39 C148.41 96.29, 169.6 72.6, 229.58 2.14 M131.56 120.99 C154.44 93.23, 181.79 66.15, 234.56 2.5 M131.56 120.99 C161.21 86.5, 189.5 52.37, 234.56 2.5 M136.55 121.35 C157.92 96.71, 180.45 67.99, 242.18 -0.16 M136.55 121.35 C172.41 79.54, 208.88 37.52, 242.18 -0.16 M142.19 120.96 C168.77 92.8, 192.79 60.11, 246.51 0.96 M142.19 120.96 C165.94 95.5, 189 66.62, 246.51 0.96 M147.18 121.32 C186.44 75.14, 228.74 29, 251.49 1.32 M147.18 121.32 C170.86 93.67, 195.57 66.28, 251.49 1.32 M152.82 120.92 C179.48 90.75, 204.39 62.8, 255.82 2.43 M152.82 120.92 C182.15 84.87, 213.57 50.33, 255.82 2.43 M157.81 121.28 C192.82 78.32, 230.42 36.75, 259.5 4.3 M157.81 121.28 C193.68 78.59, 230.3 35.82, 259.5 4.3 M162.8 121.64 C200.03 78.14, 239.99 33.68, 262.52 6.93 M162.8 121.64 C193.35 83.86, 225.57 46.33, 262.52 6.93 M168.44 121.25 C190.88 96.09, 211.3 72.58, 265.54 9.55 M168.44 121.25 C188.25 98.66, 208.66 74.17, 265.54 9.55 M173.43 121.61 C201.87 87.78, 234.2 52.2, 268.56 12.17 M173.43 121.61 C204.68 84.23, 236.6 48.94, 268.56 12.17 M179.07 121.21 C203.76 89.39, 233.02 58.85, 269.61 17.06 M179.07 121.21 C204.52 89.33, 231.55 59.37, 269.61 17.06 M184.06 121.57 C211.39 91.08, 235.67 60.37, 271.31 21.2 M184.06 121.57 C209.04 93.02, 234.13 62.83, 271.31 21.2 M189.7 121.18 C211.45 97.67, 230.84 69.02, 273.68 24.58 M189.7 121.18 C219.14 87.96, 246.8 55.57, 273.68 24.58 M194.69 121.54 C221.84 92.16, 249.84 59.21, 273.41 30.97 M194.69 121.54 C223.35 86.9, 252.58 52.37, 273.41 30.97 M200.33 121.14 C218.75 98.33, 237.65 75.4, 273.81 36.62 M200.33 121.14 C223.71 94.8, 246.36 68.6, 273.81 36.62 M205.32 121.5 C233.65 90.73, 259.93 58.88, 273.55 43.01 M205.32 121.5 C225.7 98.78, 245.01 74.82, 273.55 43.01 M210.96 121.11 C234.27 92.38, 259.42 65.49, 273.94 48.66 M210.96 121.11 C234.69 95.32, 256.24 68.11, 273.94 48.66 M215.95 121.47 C234.88 99.03, 252.26 79.13, 273.68 55.06 M215.95 121.47 C236.08 98.66, 256.06 73.46, 273.68 55.06 M221.59 121.08 C242.09 98.31, 261.26 76.14, 273.42 61.45 M221.59 121.08 C238.93 101.99, 254.42 84.88, 273.42 61.45 M226.58 121.44 C237.74 107.13, 250.34 94.37, 273.81 67.1 M226.58 121.44 C236.44 109.51, 246.72 99.12, 273.81 67.1 M232.22 121.04 C243.53 107.55, 258.75 87.9, 273.55 73.49 M232.22 121.04 C245.54 104.44, 261.49 87, 273.55 73.49 M237.21 121.4 C249 107.53, 263.45 94.19, 273.95 79.14 M237.21 121.4 C247.74 108.71, 260.68 94.53, 273.95 79.14 M242.19 121.76 C248.02 114.85, 257.23 104.45, 273.69 85.53 M242.19 121.76 C252.74 109.15, 262.97 98.3, 273.69 85.53 M247.84 121.37 C253.53 116.98, 258.18 108.79, 273.42 91.93 M247.84 121.37 C253.08 113.54, 259.69 106.8, 273.42 91.93 M251.51 123.24 C257.83 116.36, 266.85 105.57, 272.51 99.09 M251.51 123.24 C257 115.74, 264.15 108.95, 272.51 99.09" stroke="#fd7e14" stroke-width="0.5" fill="none"></path><path d="M30.25 0 M30.25 0 C101.93 -0.66, 176.28 1.77, 241.75 0 M30.25 0 C74.46 -0.07, 117.81 0.71, 241.75 0 M241.75 0 C261.26 -0.34, 271.2 11.71, 272 30.25 M241.75 0 C259.91 0.08, 272.65 10.32, 272 30.25 M272 30.25 C271.2 48.97, 271.77 64.47, 272 90.75 M272 30.25 C272.06 52.08, 272.29 75.13, 272 90.75 M272 90.75 C272.35 111.9, 260.28 122.06, 241.75 121 M272 90.75 C270.97 110.5, 262.22 121.67, 241.75 121 M241.75 121 C166.37 120.9, 91.28 122.97, 30.25 121 M241.75 121 C199.43 119.69, 156.55 119.1, 30.25 121 M30.25 121 C9.2 122.37, 1.3 112.03, 0 90.75 M30.25 121 C8.02 122.16, -1.79 110.08, 0 90.75 M0 90.75 C1.19 77.19, 1.14 63.85, 0 30.25 M0 90.75 C0.26 72.91, 0.45 54.14, 0 30.25 M0 30.25 C-0.4 8.27, 9.29 -0.07, 30.25 0 M0 30.25 C-1.83 12.02, 10.19 1.94, 30.25 0" stroke="#000000" stroke-width="1" fill="none"></path></g><g transform="translate(1711.016129249575 323.66666666666686) rotate(0 131 45)"><text x="131" y="32" font-family="Virgil, Segoe UI Emoji" font-size="36px" fill="#000000" text-anchor="middle" style="white-space: pre;" direction="ltr">Map</text><text x="131" y="77" font-family="Virgil, Segoe UI Emoji" font-size="36px" fill="#000000" text-anchor="middle" style="white-space: pre;" direction="ltr">Writer</text></g><g stroke-linecap="round" transform="translate(956.8732721067181 567.809523809524) rotate(0 19.28571428571422 20.714285714285666)"><path d="M10.04 2.1 C10.04 2.1, 10.04 2.1, 10.04 2.1 M10.04 2.1 C10.04 2.1, 10.04 2.1, 10.04 2.1 M2.04 14.77 C8.53 9.9, 13.74 6.63, 14.74 1.1 M3.73 15.34 C5.99 12.83, 10.09 9.01, 15.81 1.57 M2.5 20.61 C6.99 15.99, 14.51 11.22, 22.66 1.12 M3.04 22.5 C7.26 17.38, 12.17 12.31, 22.5 0.72 M0.34 30.85 C9.82 22.85, 14.86 14.2, 23.7 4.47 M2.59 29.45 C11.02 18.2, 19.91 8.86, 25.93 4.04 M4.12 33.6 C14.78 22.45, 24.24 9.63, 28.38 6.17 M4.46 31.74 C11.28 26.04, 17.56 17.46, 28.74 4.49 M6.84 34.61 C15.18 28.5, 20.38 19.96, 31.41 6.94 M6.9 36.22 C12.81 29.82, 17.33 25.11, 32.19 6.23 M10.3 38.99 C19.49 28.01, 26.14 20.2, 37 8.12 M11.22 38.83 C20.42 28.22, 28.42 17.14, 36.92 8.66 M13.96 40.46 C24.54 28.23, 30.94 19.9, 37.56 14.34 M14.03 39.01 C19.96 34.85, 24.44 29.52, 36.11 13.17 M19.66 41.78 C24.48 31.16, 32.95 22.75, 37.73 17.41 M18.39 40.22 C23.57 33.69, 28.62 29.52, 38.82 18.16 M23.02 39.93 C28.03 37.09, 29.74 32.82, 41.12 23.6 M22.57 42.17 C29.53 35.36, 35.48 27.35, 39.28 22.34 M32.43 36.6 C35.02 35.38, 35.39 33.81, 38.16 30.98 M32.81 36.89 C33.9 35.79, 35.37 34.45, 37.4 31.08" stroke="#000000" stroke-width="0.5" fill="none"></path><path d="M22.42 0.47 C26.3 1.08, 32.62 4.51, 35.18 8 C37.73 11.49, 37.84 16.86, 37.75 21.39 C37.67 25.93, 37.13 31.93, 34.67 35.23 C32.2 38.53, 27.12 40.75, 22.96 41.19 C18.81 41.64, 13.36 40.05, 9.74 37.89 C6.13 35.74, 2.78 32.27, 1.26 28.27 C-0.26 24.27, -0.76 18.19, 0.65 13.89 C2.06 9.59, 5.48 4.73, 9.72 2.47 C13.95 0.21, 23.07 0.19, 26.05 0.33 C29.03 0.47, 27.9 3, 27.59 3.31 M12.9 2.44 C16.24 0.53, 22.03 -1.3, 25.65 -0.13 C29.26 1.04, 32.28 5.28, 34.59 9.45 C36.9 13.63, 39.76 20.3, 39.49 24.91 C39.23 29.52, 36.42 34.41, 33.01 37.1 C29.6 39.79, 23.44 40.91, 19.03 41.04 C14.63 41.17, 9.59 40.57, 6.58 37.9 C3.56 35.22, 1.64 29.79, 0.94 24.98 C0.23 20.17, 0.27 12.95, 2.33 9.01 C4.4 5.07, 11.61 2.42, 13.33 1.34 C15.06 0.26, 12.89 2, 12.69 2.55" stroke="#000000" stroke-width="1" fill="none"></path></g><g stroke-linecap="round"><g transform="translate(721.2066054400511 590.1730325796221) rotate(0 117.48592602719745 -1.3936885600530786)"><path d="M0.83 0.49 C39.97 0.33, 196.34 -1.03, 235.17 -1.51 M-0.2 -0.3 C38.8 -0.76, 195.08 -3.14, 234.49 -3.28" stroke="#000000" stroke-width="1" fill="none"></path></g></g><g stroke-linecap="round"><g transform="translate(998.9794774766565 579.7079204238916) rotate(0 60.2041327755785 -93.0203602972773)"><path d="M-0.08 0.46 C7.49 -2.84, 35.05 7.84, 46.22 -20.21 C57.39 -48.25, 54.4 -140.13, 66.94 -167.81 C79.48 -195.49, 112.33 -183.38, 121.44 -186.29 M-1.58 -0.34 C5.85 -3.49, 34.47 8.55, 45.8 -19.18 C57.13 -46.91, 53.72 -139.02, 66.42 -166.72 C79.12 -194.42, 112.99 -182.43, 121.99 -185.39" stroke="#000000" stroke-width="1" fill="none"></path></g><g transform="translate(998.9794774766565 579.7079204238916) rotate(0 60.2041327755785 -93.0203602972773)"><path d="M95.84 -173.68 C103.33 -178.23, 114.03 -181.69, 121.32 -184.24 M95.68 -174.37 C105.03 -179.3, 114.03 -181.79, 121.86 -184.76" stroke="#000000" stroke-width="1" fill="none"></path></g><g transform="translate(998.9794774766565 579.7079204238916) rotate(0 60.2041327755785 -93.0203602972773)"><path d="M95.69 -193.32 C103.16 -190.71, 113.92 -187, 121.32 -184.24 M95.53 -194.02 C104.77 -191.98, 113.83 -187.5, 121.86 -184.76" stroke="#000000" stroke-width="1" fill="none"></path></g></g><g stroke-linecap="round"><g transform="translate(1981.1309490900624 400.12300839649777) rotate(0 264.83459709833073 1.8391303653351088)"><path d="M0.36 0.85 C88.75 1.49, 442.31 3.11, 530.59 3.42 M-0.92 0.26 C87.32 0.61, 441.43 1.16, 529.76 1.81" stroke="#000000" stroke-width="1" fill="none"></path></g><g transform="translate(1981.1309490900624 400.12300839649777) rotate(0 264.83459709833073 1.8391303653351088)"><path d="M502.95 12.35 C512.15 8.07, 519.96 3.49, 528.17 0.38 M502.05 11.11 C512.13 8.47, 522.12 3.02, 529.78 2.31" stroke="#000000" stroke-width="1" fill="none"></path></g><g transform="translate(1981.1309490900624 400.12300839649777) rotate(0 264.83459709833073 1.8391303653351088)"><path d="M503.04 -8.17 C512.15 -5.93, 519.93 -4.01, 528.17 0.38 M502.13 -9.41 C512.22 -4.24, 522.18 -1.86, 529.78 2.31" stroke="#000000" stroke-width="1" fill="none"></path></g></g><g transform="translate(2147.3256530590984 316.2619047619045) rotate(0 95.5 12.5)"><text x="0" y="18" font-family="Virgil, Segoe UI Emoji" font-size="20px" fill="#000000" text-anchor="start" style="white-space: pre;" direction="ltr">Vampir Witness Map</text></g><g transform="translate(1135.111367344813 10) rotate(0 132.5 45)"><text x="132.5" y="32" font-family="Virgil, Segoe UI Emoji" font-size="36px" fill="#000000" text-anchor="middle" style="white-space: pre;" direction="ltr">Juvix -&gt; Vampir</text><text x="132.5" y="77" font-family="Virgil, Segoe UI Emoji" font-size="36px" fill="#000000" text-anchor="middle" style="white-space: pre;" direction="ltr">Compiler</text></g><g transform="translate(1449.1113673448133 337.83333333333337) rotate(0 98.5 12.5)"><text x="98.5" y="18" font-family="Virgil, Segoe UI Emoji" font-size="20px" fill="#000000" text-anchor="middle" style="white-space: pre;" direction="ltr">Prover's Full Inputs</text></g><g transform="translate(755.3177165511631 561.1626984126984) rotate(0 84 12.5)"><text x="84" y="18" font-family="Virgil, Segoe UI Emoji" font-size="20px" fill="#000000" text-anchor="middle" style="white-space: pre;" direction="ltr">Vampir Circuit IR</text></g><g stroke-linecap="round"><g transform="translate(1422.1162914555773 367.7750452857541) rotate(0 139.45171741128428 1.2105716652718002)"><path d="M0.55 -0.7 C47.27 -0.3, 233.04 2.64, 279.52 3.12 M-0.61 1.54 C46.06 1.5, 232.31 0.86, 278.89 1.14" stroke="#000000" stroke-width="1" fill="none"></path></g><g transform="translate(1422.1162914555773 367.7750452857541) rotate(0 139.45171741128428 1.2105716652718002)"><path d="M249.52 12.39 C257.75 9.62, 262.93 5.06, 280.21 -0.07 M250.9 11.86 C258.02 8.8, 264.24 7.57, 279.22 0.54" stroke="#000000" stroke-width="1" fill="none"></path></g><g transform="translate(1422.1162914555773 367.7750452857541) rotate(0 139.45171741128428 1.2105716652718002)"><path d="M249.53 -8.13 C257.88 -6.04, 263.06 -5.73, 280.21 -0.07 M250.91 -8.67 C257.85 -7.11, 264.07 -3.74, 279.22 0.54" stroke="#000000" stroke-width="1" fill="none"></path></g></g><g stroke-linecap="round"><g transform="translate(11.620076197793196 256.415566842309) rotate(0 552.2052128341049 -0.041376543043497804)"><path d="M-0.54 1.15 C183.74 1.25, 920.94 0.85, 1104.95 0.71 M1.37 0.71 C185.63 0.42, 920.91 -1.39, 1104.42 -1.25" stroke="#000000" stroke-width="1" fill="none"></path></g><g transform="translate(11.620076197793196 256.415566842309) rotate(0 552.2052128341049 -0.041376543043497804)"><path d="M1078.16 10.34 C1083.46 5.64, 1089.49 4.27, 1104.47 -2.34 M1076.31 8.69 C1083.63 6.16, 1089.23 4.51, 1103.6 -0.58" stroke="#000000" stroke-width="1" fill="none"></path></g><g transform="translate(11.620076197793196 256.415566842309) rotate(0 552.2052128341049 -0.041376543043497804)"><path d="M1078.14 -10.18 C1083.46 -10, 1089.5 -6.49, 1104.47 -2.34 M1076.28 -11.83 C1083.42 -9.45, 1089.03 -6.18, 1103.6 -0.58" stroke="#000000" stroke-width="1" fill="none"></path></g></g><g transform="translate(60.61930385275093 228.93253968253896) rotate(0 142 12.5)"><text x="142" y="18" font-family="Virgil, Segoe UI Emoji" font-size="20px" fill="#000000" text-anchor="middle" style="white-space: pre;" direction="ltr">Target Backend Parameters</text></g><g stroke-linecap="round"><g transform="translate(1424.782388437971 261.3957255724673) rotate(0 546.1656812847592 0.2023041040172302)"><path d="M1.16 -0.08 C183.18 0.34, 910.32 1.36, 1092.02 1.57 M0.31 -1.17 C182.27 -1.02, 909.82 -0.87, 1091.56 -0.24" stroke="#000000" stroke-width="1" fill="none"></path></g><g transform="translate(1424.782388437971 261.3957255724673) rotate(0 546.1656812847592 0.2023041040172302)"><path d="M1063.22 11.52 C1072.59 7.2, 1080.09 4.03, 1089.9 1.25 M1062.62 9.51 C1072.86 7.16, 1082.69 2.84, 1090.66 0.21" stroke="#000000" stroke-width="1" fill="none"></path></g><g transform="translate(1424.782388437971 261.3957255724673) rotate(0 546.1656812847592 0.2023041040172302)"><path d="M1063.25 -9 C1072.44 -7.39, 1079.94 -4.61, 1089.9 1.25 M1062.65 -11.01 C1072.97 -6.03, 1082.79 -3.01, 1090.66 0.21" stroke="#000000" stroke-width="1" fill="none"></path></g></g><g transform="translate(2143.7816160929287 231.91269841269752) rotate(0 142 12.5)"><text x="142" y="18" font-family="Virgil, Segoe UI Emoji" font-size="20px" fill="#000000" text-anchor="middle" style="white-space: pre;" direction="ltr">Target Backend Parameters</text></g></svg>