<svg version="1.1" xmlns="http://www.w3.org/2000/svg" viewBox="0 0 2843.8820584543187 718.1428571428571" width="2843.8820584543187" height="718.1428571428571">
  <!-- svg-source:excalidraw -->
  
  <defs>
    <style>
      @font-face {
        font-family: "Virgil";
        src: url("https://excalidraw.com/Virgil.woff2");
      }
      @font-face {
        font-family: "Cascadia";
        src: url("https://excalidraw.com/Cascadia.woff2");
      }
    </style>
  </defs>
  <g stroke-opacity="0.3" fill-opacity="0.3" stroke-linecap="round" transform="translate(424.88033224455626 128.1428571428571) rotate(0 973.5357142857142 290)"><path d="M28.03 45.56 C28.03 45.56, 28.03 45.56, 28.03 45.56 M28.03 45.56 C28.03 45.56, 28.03 45.56, 28.03 45.56 M15.96 65.55 C25.07 52.82, 37.83 44.34, 47.45 29.32 M15.96 65.55 C27.67 53.12, 38.71 39.47, 47.45 29.32 M17.01 70.44 C33.93 53.33, 49.87 35.21, 58.34 22.89 M17.01 70.44 C33.68 52.75, 49.19 34.64, 58.34 22.89 M13.47 80.61 C29.4 63.48, 41.13 44.39, 69.89 15.7 M13.47 80.61 C29.3 63.93, 42.51 46.78, 69.89 15.7 M5.33 96.06 C20.35 78.63, 36.13 61.47, 77.5 13.04 M5.33 96.06 C30.17 69.02, 54.19 41.6, 77.5 13.04 M4.41 103.21 C25.26 77.22, 47.03 52.57, 85.11 10.38 M4.41 103.21 C24.08 80.99, 41.64 60.47, 85.11 10.38 M3.5 110.37 C23.73 85.36, 46.35 62.26, 92.72 7.73 M3.5 110.37 C37.07 71.29, 69.17 34.12, 92.72 7.73 M2.58 117.52 C23.71 95.62, 41.97 69.65, 98.36 7.33 M2.58 117.52 C37.29 77.93, 70.86 38.67, 98.36 7.33 M1.01 125.43 C27.29 92.38, 54.35 62.96, 104.66 6.18 M1.01 125.43 C36.37 84.14, 71.3 44.29, 104.66 6.18 M2.71 129.56 C42.55 81.35, 83.44 34.38, 112.27 3.52 M2.71 129.56 C45.87 81.6, 87.53 34.36, 112.27 3.52 M3.11 135.2 C48.73 83.15, 92.69 31.88, 117.92 3.13 M3.11 135.2 C29.46 106.29, 52.75 76.56, 117.92 3.13 M2.85 141.6 C33.88 107.67, 64.97 71.72, 123.56 2.73 M2.85 141.6 C32.01 109, 59.45 76.65, 123.56 2.73 M2.58 148 C48.21 95.29, 93.91 47.01, 129.2 2.34 M2.58 148 C28.18 119.03, 55.05 88.75, 129.2 2.34 M2.98 153.64 C48.24 100.91, 93.49 47.52, 134.85 1.94 M2.98 153.64 C42.68 109.02, 82.3 64.3, 134.85 1.94 M2.72 160.04 C46.23 111.33, 89.27 58.71, 140.49 1.55 M2.72 160.04 C56.57 96.02, 110.67 33.01, 140.49 1.55 M2.46 166.44 C53.97 104.65, 106.36 46.15, 146.13 1.15 M2.46 166.44 C48.83 110.74, 95.33 57.95, 146.13 1.15 M2.85 172.08 C57.09 109.19, 112.19 47.51, 151.78 0.76 M2.85 172.08 C52.62 114.2, 103.29 55.39, 151.78 0.76 M2.59 178.48 C36.36 141.88, 69.81 101.96, 156.76 1.12 M2.59 178.48 C58.36 114.13, 114.4 50.64, 156.76 1.12 M2.98 184.12 C58.06 119.22, 114.79 54.25, 162.41 0.73 M2.98 184.12 C49.57 133.72, 93.26 80.38, 162.41 0.73 M2.72 190.52 C65.66 112.8, 131.32 37.43, 167.39 1.09 M2.72 190.52 C66.86 115.75, 132.21 39.78, 167.39 1.09 M2.46 196.92 C50.29 144.21, 95.93 89.1, 173.04 0.69 M2.46 196.92 C53.76 135.92, 105.81 77.99, 173.04 0.69 M2.86 202.56 C48.65 151.95, 93.42 100.93, 178.02 1.05 M2.86 202.56 C56.89 138.99, 112.48 77.18, 178.02 1.05 M2.59 208.96 C55.21 145.87, 111.87 84.42, 183.01 1.41 M2.59 208.96 C74.15 129.74, 142.17 49.92, 183.01 1.41 M2.99 214.6 C55.51 152.4, 108.03 92.15, 188.65 1.02 M2.99 214.6 C64.78 143.13, 128.34 70.82, 188.65 1.02 M2.73 221 C63.01 147.14, 126.65 76.67, 193.64 1.38 M2.73 221 C68.07 145.69, 134.97 67.26, 193.64 1.38 M2.47 227.4 C49.07 174.14, 96.82 119.27, 199.28 0.98 M2.47 227.4 C81.26 138.69, 158.37 49.93, 199.28 0.98 M2.86 233.04 C49.65 175.49, 100.47 119.32, 204.27 1.34 M2.86 233.04 C70.54 154.2, 138.21 77.41, 204.27 1.34 M2.6 239.44 C48.76 185.58, 93.91 130.81, 209.91 0.95 M2.6 239.44 C78.12 153.54, 153.21 68.23, 209.91 0.95 M2.34 245.83 C53.39 184.77, 106.38 126.18, 214.9 1.31 M2.34 245.83 C62.69 176.14, 124.99 104.47, 214.9 1.31 M2.73 251.48 C48.81 197.91, 92.54 146.21, 220.54 0.91 M2.73 251.48 C87.13 154.46, 171.18 56.83, 220.54 0.91 M2.47 257.87 C78.13 168.09, 155.33 80.59, 225.53 1.27 M2.47 257.87 C66.45 182.48, 131.11 108.74, 225.53 1.27 M2.86 263.52 C70.32 186.02, 139.56 108.09, 231.17 0.88 M2.86 263.52 C47.32 210.52, 93.42 157.23, 231.17 0.88 M2.6 269.92 C56.02 209.11, 111.69 147.08, 236.16 1.24 M2.6 269.92 C57.47 209.02, 111.03 146.33, 236.16 1.24 M2.34 276.31 C64.27 201.5, 128.76 125.65, 241.8 0.84 M2.34 276.31 C96.19 166.64, 190.75 58.92, 241.8 0.84 M2.74 281.96 C58.23 218.87, 113.64 154.56, 246.79 1.2 M2.74 281.96 C81.82 188, 163.25 95.59, 246.79 1.2 M2.48 288.35 C64.68 215.88, 127.67 145.95, 252.43 0.81 M2.48 288.35 C83.29 193.42, 165.35 99.32, 252.43 0.81 M2.21 294.75 C91.02 192.2, 179.44 90.22, 257.42 1.17 M2.21 294.75 C59.27 227.42, 115.77 161.71, 257.42 1.17 M2.61 300.4 C59.35 236.08, 117.21 169.25, 263.06 0.78 M2.61 300.4 C62.98 229.77, 124.73 158.58, 263.06 0.78 M2.35 306.79 C56.46 243.83, 112.55 179.87, 268.05 1.14 M2.35 306.79 C71.94 224.34, 143.02 143.28, 268.05 1.14 M2.74 312.44 C87.04 213.03, 172.22 114.99, 273.69 0.74 M2.74 312.44 C92.64 211.26, 180.18 109.92, 273.69 0.74 M2.48 318.83 C97.92 209.31, 191.77 101.21, 278.68 1.1 M2.48 318.83 C68.54 243.02, 134.64 167.31, 278.68 1.1 M2.22 325.23 C95.84 218.89, 187.18 115.1, 284.32 0.71 M2.22 325.23 C79.28 237.56, 153.72 150.7, 284.32 0.71 M2.61 330.87 C81.4 241.45, 158.96 150.75, 289.31 1.07 M2.61 330.87 C69.35 253.5, 134.72 177.22, 289.31 1.07 M2.35 337.27 C116.48 205.31, 230.36 74.1, 294.3 1.43 M2.35 337.27 C92.91 233.33, 183.53 130.24, 294.3 1.43 M2.75 342.92 C73.42 263.41, 143.38 183.69, 299.94 1.03 M2.75 342.92 C110.92 218.32, 219.16 93.7, 299.94 1.03 M2.48 349.31 C97.63 237.95, 194.48 126.85, 304.93 1.39 M2.48 349.31 C113.56 222.98, 223.7 96.97, 304.93 1.39 M2.22 355.71 C83.51 260.31, 166.92 165.15, 310.57 1 M2.22 355.71 C88.84 256.84, 174.4 159.01, 310.57 1 M2.62 361.35 C85.17 268.29, 164.96 175.25, 315.56 1.36 M2.62 361.35 C100.64 249.03, 199.54 135.73, 315.56 1.36 M2.36 367.75 C105.24 250.92, 209.49 132.29, 321.2 0.96 M2.36 367.75 C76.04 284.03, 148.2 200.22, 321.2 0.96 M2.09 374.15 C71.94 293.53, 142.78 211.78, 326.19 1.32 M2.09 374.15 C108.31 252.55, 212.35 132.33, 326.19 1.32 M2.49 379.79 C112.9 251.45, 225.7 122.1, 331.83 0.93 M2.49 379.79 C130.2 232.09, 258.65 84.29, 331.83 0.93 M2.23 386.19 C124.31 245.3, 246.51 105.98, 336.82 1.29 M2.23 386.19 C106.14 266.88, 209.82 147.83, 336.82 1.29 M2.62 391.83 C130.13 245.2, 259.22 97.26, 342.46 0.89 M2.62 391.83 C126.32 248.12, 251.52 104.27, 342.46 0.89 M2.36 398.23 C110.92 275.08, 219.27 149.29, 347.45 1.25 M2.36 398.23 C97.07 288.74, 191.67 180.57, 347.45 1.25 M2.1 404.63 C103.85 289.46, 205.54 170.92, 353.09 0.86 M2.1 404.63 C99.25 293.91, 195.91 182.23, 353.09 0.86 M2.49 410.27 C88.52 312.77, 172.89 214.98, 358.08 1.22 M2.49 410.27 C137.79 256.26, 273.46 100.94, 358.08 1.22 M2.23 416.67 C92.42 314.92, 179.42 212.67, 363.72 0.83 M2.23 416.67 C94.04 309.97, 187.01 202.8, 363.72 0.83 M1.97 423.07 C138.67 268.6, 274.31 112.5, 368.71 1.19 M1.97 423.07 C100.35 311.69, 197.91 199.61, 368.71 1.19 M2.37 428.71 C79.67 341.2, 155.64 253.06, 374.35 0.79 M2.37 428.71 C138.08 271.64, 275.51 114.16, 374.35 0.79 M1.45 435.86 C108.76 312.02, 217.08 188.21, 379.34 1.15 M1.45 435.86 C130.12 287.51, 258.29 139.83, 379.34 1.15 M1.84 441.51 C96.01 335.48, 188.96 229.44, 384.98 0.76 M1.84 441.51 C112.47 313.11, 224.02 185.02, 384.98 0.76 M2.24 447.15 C88.65 345.72, 175.98 245.84, 389.97 1.12 M2.24 447.15 C108.45 323.35, 216.51 199.29, 389.97 1.12 M2.63 452.79 C97.29 344.37, 189.63 236.5, 395.61 0.72 M2.63 452.79 C88.78 351.45, 176.87 250.28, 395.61 0.72 M3.03 458.44 C155.86 284.46, 305.66 110.05, 400.6 1.08 M3.03 458.44 C132.67 309.92, 262.72 159.88, 400.6 1.08 M3.42 464.08 C153.19 291.67, 302.96 119.83, 406.24 0.69 M3.42 464.08 C159.48 283.91, 315.41 104.71, 406.24 0.69 M3.82 469.72 C165.91 283.78, 328.09 98.96, 411.23 1.05 M3.82 469.72 C90.55 371.67, 174.53 274.43, 411.23 1.05 M4.21 475.36 C98 366.98, 193.18 259.71, 416.22 1.41 M4.21 475.36 C137.19 321.73, 270.41 168.73, 416.22 1.41 M5.26 480.25 C121.22 347.86, 234.42 216.11, 421.86 1.01 M5.26 480.25 C92.16 381.82, 177.96 282.74, 421.86 1.01 M6.31 485.14 C132.6 341.14, 258.23 195.47, 426.85 1.37 M6.31 485.14 C171.18 296.06, 336.5 106.89, 426.85 1.37 M7.36 490.03 C121.8 357.59, 236.41 224.72, 432.49 0.98 M7.36 490.03 C127.18 353.18, 247.77 214.54, 432.49 0.98 M9.07 494.16 C129.48 357.1, 249.52 218.25, 437.48 1.34 M9.07 494.16 C125.41 357.45, 243.45 222.21, 437.48 1.34 M10.12 499.05 C180.87 301.56, 351.36 105.24, 443.12 0.94 M10.12 499.05 C169.61 318.59, 327.82 136.18, 443.12 0.94 M11.83 503.19 C173.14 317.95, 335.73 131.22, 448.11 1.3 M11.83 503.19 C130.08 366.19, 249.79 228.94, 448.11 1.3 M13.53 507.32 C151.79 347.78, 288.99 189.79, 453.75 0.91 M13.53 507.32 C126.12 377.75, 237.82 249.09, 453.75 0.91 M15.24 511.45 C184.22 318.68, 353.18 125.05, 458.74 1.27 M15.24 511.45 C109.12 405.08, 202.44 297.42, 458.74 1.27 M16.95 515.59 C125.63 391.13, 234.99 264.78, 464.38 0.87 M16.95 515.59 C158.89 350.91, 301.28 186.95, 464.38 0.87 M19.31 518.97 C113.79 409.73, 210 299.83, 469.37 1.23 M19.31 518.97 C167.68 349.96, 315.67 179.63, 469.37 1.23 M20.36 523.85 C140.07 385.27, 261.37 246.33, 475.01 0.84 M20.36 523.85 C199.78 315.13, 380.45 107.45, 475.01 0.84 M23.38 526.48 C200.83 326.48, 377.61 123.95, 480 1.2 M23.38 526.48 C201.95 322.71, 380.06 118.63, 480 1.2 M25.74 529.86 C120.49 422.6, 212.69 314.77, 485.64 0.81 M25.74 529.86 C163.89 369.39, 302.13 210.15, 485.64 0.81 M28.1 533.24 C175.5 364.16, 322.3 196.3, 490.63 1.17 M28.1 533.24 C202.5 332.19, 376.17 132.14, 490.63 1.17 M30.47 536.62 C189.31 356.88, 346.95 175.21, 496.27 0.77 M30.47 536.62 C176.69 367.61, 322.56 199.52, 496.27 0.77 M32.83 539.99 C140.96 418.44, 247.85 295.51, 501.26 1.13 M32.83 539.99 C215.98 329.91, 399 119.27, 501.26 1.13 M35.85 542.62 C185.43 370.22, 334.73 198.76, 506.9 0.74 M35.85 542.62 C168.4 391.06, 300.6 239.16, 506.9 0.74 M38.21 546 C156.79 409.97, 277.04 271.84, 511.89 1.1 M38.21 546 C206.59 349.93, 376.42 154.05, 511.89 1.1 M41.89 547.87 C150.72 423.47, 259.91 299.85, 517.53 0.7 M41.89 547.87 C198.47 367.51, 354.54 188.5, 517.53 0.7 M44.91 550.49 C198.36 376.02, 350.67 200.41, 522.52 1.06 M44.91 550.49 C201.56 372.56, 356.43 194.47, 522.52 1.06 M47.92 553.12 C198.95 375.83, 350.99 200.69, 527.5 1.42 M47.92 553.12 C213.16 362.04, 377.57 172.43, 527.5 1.42 M50.94 555.74 C180.99 406.02, 310.52 257.7, 533.15 1.03 M50.94 555.74 C220.61 359.78, 388.81 165.94, 533.15 1.03 M54.62 557.61 C196.5 393.26, 337.07 230.88, 538.13 1.39 M54.62 557.61 C198.07 395.19, 338.82 232.97, 538.13 1.39 M57.64 560.23 C224.2 369.35, 388.87 179.98, 543.78 0.99 M57.64 560.23 C163.04 435.09, 270.28 311.68, 543.78 0.99 M61.31 562.1 C162.76 445.91, 263.07 329.79, 548.76 1.35 M61.31 562.1 C207.38 391.63, 355.26 221.52, 548.76 1.35 M64.99 563.97 C204.6 403.72, 342.67 244.93, 554.41 0.96 M64.99 563.97 C232.33 372.08, 398.94 179.39, 554.41 0.96 M68.66 565.84 C250.77 353.66, 434.54 142.12, 559.39 1.32 M68.66 565.84 C257.05 349.77, 443.92 134.19, 559.39 1.32 M72.99 566.96 C194.96 426.4, 317.4 286.35, 565.04 0.92 M72.99 566.96 C191.16 434.6, 308.29 299.92, 565.04 0.92 M76.67 568.83 C205.19 422.34, 334.95 274.46, 570.02 1.28 M76.67 568.83 C226.12 398.65, 373.4 228.7, 570.02 1.28 M81 569.94 C223.84 401.4, 368.77 235.54, 575.67 0.89 M81 569.94 C208.14 424.17, 333.87 279.07, 575.67 0.89 M85.33 571.06 C274.92 349.32, 467.24 128.72, 580.65 1.25 M85.33 571.06 C233.42 400.41, 381.63 230.01, 580.65 1.25 M89 572.93 C229.8 413.22, 368.48 252.83, 586.3 0.86 M89 572.93 C215.15 426.46, 342.79 279.43, 586.3 0.86 M93.34 574.04 C210.21 441.3, 325.06 307.36, 591.28 1.22 M93.34 574.04 C289.69 349.77, 486.14 123.92, 591.28 1.22 M97.01 575.91 C285.65 362.67, 471.4 148.08, 596.93 0.82 M97.01 575.91 C263.95 383.37, 431.01 191.28, 596.93 0.82 M102 576.27 C263.54 389.75, 424.15 204.19, 601.91 1.18 M102 576.27 C238.1 422.83, 373.14 267.92, 601.91 1.18 M106.33 577.38 C277.14 381.4, 449.15 184.67, 607.56 0.79 M106.33 577.38 C251.04 412.5, 395.37 246.36, 607.56 0.79 M111.32 577.74 C284.36 378.5, 458.93 178.66, 612.54 1.15 M111.32 577.74 C299.8 362.39, 489.06 144.5, 612.54 1.15 M115.65 578.86 C246.52 427.06, 378.84 275.19, 618.19 0.75 M115.65 578.86 C290.7 378.61, 465.61 178.3, 618.19 0.75 M120.63 579.22 C245.57 438.08, 368.24 295.39, 623.17 1.11 M120.63 579.22 C244.71 440.08, 367.32 299.01, 623.17 1.11 M124.96 580.33 C233.49 453.6, 341.83 327.79, 628.82 0.72 M124.96 580.33 C254.79 428.65, 385.19 278.2, 628.82 0.72 M129.3 581.45 C286.87 401.35, 442.21 222.84, 633.8 1.08 M129.3 581.45 C310.9 370.69, 492.87 161.04, 633.8 1.08 M134.94 581.05 C333.1 356.57, 527.52 131.6, 639.45 0.68 M134.94 581.05 C331.09 352.87, 528.66 125.62, 639.45 0.68 M139.93 581.41 C289.47 411.12, 435.52 241.71, 644.43 1.04 M139.93 581.41 C289.19 407.35, 438.64 235.32, 644.43 1.04 M145.57 581.02 C328.53 368.78, 512.49 157.48, 649.42 1.4 M145.57 581.02 C263 445.13, 380.01 310.95, 649.42 1.4 M151.21 580.63 C301.91 408.65, 449.32 237.77, 655.06 1.01 M151.21 580.63 C346.56 358.01, 540.52 135.23, 655.06 1.01 M156.2 580.99 C277.95 439.76, 400.23 299.52, 660.05 1.37 M156.2 580.99 C298.77 414.15, 442.65 248.18, 660.05 1.37 M161.84 580.59 C304.89 420.09, 444.92 259.93, 665.69 0.97 M161.84 580.59 C278.29 448.32, 394.41 314.71, 665.69 0.97 M166.83 580.95 C325.34 394.09, 486.54 209.78, 670.68 1.33 M166.83 580.95 C361.69 358.45, 556.56 135.27, 670.68 1.33 M172.47 580.56 C351.57 375.8, 531.49 169.5, 676.33 0.94 M172.47 580.56 C276.41 457.69, 383.08 335.4, 676.33 0.94 M177.46 580.92 C377.89 350.57, 579.11 120.15, 681.31 1.3 M177.46 580.92 C367.59 360.73, 557.7 142.9, 681.31 1.3 M183.1 580.52 C334.06 410.08, 482.9 238.43, 686.96 0.91 M183.1 580.52 C368.68 365.48, 556.17 150.36, 686.96 0.91 M188.09 580.88 C331.21 416.93, 474.42 250.73, 691.94 1.27 M188.09 580.88 C304.53 449.58, 419.13 317.66, 691.94 1.27 M193.73 580.49 C306.69 451.12, 418.41 322.59, 697.59 0.87 M193.73 580.49 C359.62 389.9, 525.34 198.75, 697.59 0.87 M198.72 580.85 C349.15 406.15, 500.69 233.15, 702.57 1.23 M198.72 580.85 C365.11 388.44, 531.21 197.22, 702.57 1.23 M204.36 580.45 C360.23 402.61, 514.46 223.67, 708.22 0.84 M204.36 580.45 C393.03 365.78, 579.48 151.62, 708.22 0.84 M209.35 580.81 C385.83 376.96, 564 172.7, 713.2 1.2 M209.35 580.81 C408.83 355.16, 605.73 128.99, 713.2 1.2 M214.99 580.42 C361.76 411.42, 506.98 243.41, 718.85 0.8 M214.99 580.42 C394.09 377.24, 571.76 173.38, 718.85 0.8 M219.98 580.78 C351.83 427.39, 488.11 272.85, 723.83 1.16 M219.98 580.78 C390.51 380.03, 562.61 181.7, 723.83 1.16 M225.62 580.38 C403.67 373.67, 581.18 169.71, 729.48 0.77 M225.62 580.38 C324.95 463.1, 427.15 346.18, 729.48 0.77 M230.61 580.74 C369.64 422.24, 505.74 263.25, 734.46 1.13 M230.61 580.74 C348.05 446.42, 465.67 311.28, 734.46 1.13 M236.25 580.35 C356.42 440.76, 477.11 301, 740.11 0.73 M236.25 580.35 C348.51 455.1, 458.16 328.63, 740.11 0.73 M241.24 580.71 C392.67 404.9, 544.19 231.71, 745.09 1.09 M241.24 580.71 C410.83 385.31, 579.01 191.75, 745.09 1.09 M246.88 580.32 C424.24 377.26, 599.68 174.67, 750.74 0.7 M246.88 580.32 C431.32 365.84, 617.41 151.92, 750.74 0.7 M251.87 580.68 C392.52 418.97, 536.47 254.33, 755.72 1.06 M251.87 580.68 C372.73 442.07, 491.38 305.26, 755.72 1.06 M256.86 581.04 C368.67 450.13, 483.19 317.62, 760.71 1.42 M256.86 581.04 C453.99 354.17, 651.3 127.21, 760.71 1.42 M262.5 580.64 C395.01 428.23, 528.57 275.14, 766.35 1.02 M262.5 580.64 C439.94 377.22, 615.74 175.05, 766.35 1.02 M267.49 581 C410.96 418.93, 551.9 254.37, 771.34 1.38 M267.49 581 C418.98 408.2, 567.62 236.44, 771.34 1.38 M273.13 580.61 C419.02 413.57, 566.31 244.93, 776.98 0.99 M273.13 580.61 C378.57 462.2, 482.76 342.59, 776.98 0.99 M278.12 580.97 C416.65 420.66, 555.2 261.3, 781.97 1.35 M278.12 580.97 C409.01 427.94, 540.46 276.94, 781.97 1.35 M283.76 580.57 C441.85 401.66, 599.11 220.72, 787.61 0.95 M283.76 580.57 C463.97 370.93, 645.03 163.42, 787.61 0.95 M288.75 580.93 C398.23 452.75, 509.38 324.83, 792.6 1.31 M288.75 580.93 C455.95 385.63, 625.54 191.64, 792.6 1.31 M294.39 580.54 C433.87 417.77, 574.61 255.82, 798.24 0.92 M294.39 580.54 C435.29 420.33, 575.09 260.06, 798.24 0.92 M299.38 580.9 C445.38 414.48, 588.63 250.35, 803.23 1.28 M299.38 580.9 C471.62 386.96, 642.95 190.63, 803.23 1.28 M305.02 580.5 C436.8 429.04, 567.34 278.75, 808.87 0.89 M305.02 580.5 C433.07 430.35, 562.06 282.44, 808.87 0.89 M310.01 580.86 C459.16 409.2, 608.93 236.66, 813.86 1.25 M310.01 580.86 C493.87 371.52, 676.05 161.86, 813.86 1.25 M315.65 580.47 C471.64 400.48, 628.3 219.94, 819.5 0.85 M315.65 580.47 C470.99 403.51, 625.04 226.52, 819.5 0.85 M320.64 580.83 C439.51 444.57, 559.53 307.23, 824.49 1.21 M320.64 580.83 C452.8 426.83, 585.71 274.11, 824.49 1.21 M326.28 580.43 C429.24 463.56, 530.7 346.29, 830.13 0.82 M326.28 580.43 C456.45 428.19, 587.32 278.13, 830.13 0.82 M331.27 580.79 C501.71 385.35, 669.68 190.6, 835.12 1.18 M331.27 580.79 C522.45 364.06, 712.28 146.2, 835.12 1.18 M336.91 580.4 C492.73 399.8, 650.77 219.83, 840.76 0.78 M336.91 580.4 C475.32 421.9, 613.05 263.13, 840.76 0.78 M341.9 580.76 C535.84 357.2, 728.31 136.33, 845.75 1.14 M341.9 580.76 C444.36 463.45, 545.04 347.57, 845.75 1.14 M347.54 580.36 C504.44 400.35, 661.93 218.86, 851.39 0.75 M347.54 580.36 C508.79 394.52, 668.15 210.89, 851.39 0.75 M352.53 580.72 C465.09 450.8, 574.98 324.47, 856.38 1.11 M352.53 580.72 C507.02 402.08, 661.2 224.67, 856.38 1.11 M358.17 580.33 C507.35 408.63, 656.2 238.17, 862.02 0.71 M358.17 580.33 C504.11 412.01, 648.68 245.7, 862.02 0.71 M363.16 580.69 C489.89 436.46, 613.6 293.64, 867.01 1.07 M363.16 580.69 C480.33 444.47, 599.27 308.07, 867.01 1.07 M368.8 580.3 C488.79 440.53, 608.57 302.46, 872 1.43 M368.8 580.3 C519.9 407.55, 669.06 236.14, 872 1.43 M373.79 580.66 C533.62 399.71, 692.64 217.32, 877.64 1.04 M373.79 580.66 C473.51 466.07, 574.95 349.7, 877.64 1.04 M378.77 581.02 C553.09 384.27, 723.98 186.58, 882.63 1.4 M378.77 581.02 C567.87 360.6, 760.01 139.8, 882.63 1.4 M384.42 580.62 C502.42 447.07, 620.12 310.25, 888.27 1 M384.42 580.62 C578.69 358.22, 772.11 136.01, 888.27 1 M389.4 580.98 C537.54 409.22, 687.8 236.71, 893.26 1.36 M389.4 580.98 C587.48 351.74, 785.35 123.87, 893.26 1.36 M395.05 580.59 C526.03 427.07, 657.96 274.05, 898.9 0.97 M395.05 580.59 C517.25 444.32, 636.42 306.64, 898.9 0.97 M400.03 580.95 C506.91 459.58, 613.86 337.4, 903.89 1.33 M400.03 580.95 C558.43 403.11, 713.87 223.87, 903.89 1.33 M405.68 580.55 C515.43 452.36, 626.13 324.95, 909.53 0.94 M405.68 580.55 C598.09 357.64, 791.75 135.79, 909.53 0.94 M410.66 580.91 C554.48 413.59, 698.26 245.49, 914.52 1.3 M410.66 580.91 C577.71 391.18, 741.94 201.97, 914.52 1.3 M416.31 580.52 C603.73 361.48, 793.85 143.54, 920.16 0.9 M416.31 580.52 C577.21 396.19, 736.84 212.94, 920.16 0.9 M421.29 580.88 C592.87 384, 764.85 188.31, 925.15 1.26 M421.29 580.88 C602.33 373.34, 782.75 165.58, 925.15 1.26 M426.94 580.48 C607.56 373.84, 786.69 165.7, 930.79 0.87 M426.94 580.48 C578.82 406.12, 728.6 233.06, 930.79 0.87 M431.92 580.84 C572.32 420.61, 713.06 258.73, 935.78 1.23 M431.92 580.84 C603.16 383.41, 774.62 185.77, 935.78 1.23 M437.57 580.45 C564.11 438.77, 687.49 297.32, 941.42 0.83 M437.57 580.45 C568.68 426.55, 701.14 274.19, 941.42 0.83 M442.55 580.81 C558.47 445.47, 673.27 311.64, 946.41 1.19 M442.55 580.81 C608.58 389.75, 775.02 198.22, 946.41 1.19 M448.2 580.41 C587.87 423.54, 725.93 263.31, 952.05 0.8 M448.2 580.41 C606.42 398.18, 765.29 215.41, 952.05 0.8 M453.18 580.77 C562.75 452.1, 671.6 325.86, 957.04 1.16 M453.18 580.77 C555.45 460.34, 660.32 340.54, 957.04 1.16 M458.83 580.38 C627.9 386.69, 796.67 193.26, 962.68 0.76 M458.83 580.38 C576.92 445.83, 692.78 312.4, 962.68 0.76 M463.82 580.74 C600.7 423.83, 737.06 267.68, 967.67 1.12 M463.82 580.74 C649.12 371.51, 832.18 160.97, 967.67 1.12 M469.46 580.35 C608.23 423.79, 744.51 266.01, 973.31 0.73 M469.46 580.35 C646.58 376.09, 822.83 172.69, 973.31 0.73 M474.45 580.71 C638.44 393.73, 800.79 205.57, 978.3 1.09 M474.45 580.71 C586.24 452.41, 695.73 326.58, 978.3 1.09 M480.09 580.31 C675.01 358.76, 869.87 135.25, 983.94 0.69 M480.09 580.31 C629.44 409.14, 776.46 240.11, 983.94 0.69 M485.08 580.67 C644.24 398.33, 804.5 213.97, 988.93 1.05 M485.08 580.67 C643.57 399.22, 799.26 219.49, 988.93 1.05 M490.72 580.28 C654.65 389.4, 819.67 199.97, 993.92 1.41 M490.72 580.28 C610.08 443.07, 730.99 304.23, 993.92 1.41 M495.71 580.64 C644.18 408.8, 791.97 238.47, 999.56 1.02 M495.71 580.64 C693.13 349.86, 892.89 120.94, 999.56 1.02 M501.35 580.24 C607.16 461.08, 711.85 339.62, 1004.55 1.38 M501.35 580.24 C626.67 436.42, 752.69 291.89, 1004.55 1.38 M506.34 580.6 C661.81 404.62, 816.09 227.44, 1010.19 0.99 M506.34 580.6 C687 377.61, 865.24 171.94, 1010.19 0.99 M511.32 580.96 C660.79 412.19, 807.76 241.41, 1015.18 1.35 M511.32 580.96 C687.06 379.96, 862.45 177.91, 1015.18 1.35 M516.97 580.57 C669.88 404.53, 820.89 230.57, 1020.82 0.95 M516.97 580.57 C660.11 417.85, 802.94 253.35, 1020.82 0.95 M521.95 580.93 C673.34 408.49, 823.24 234.78, 1025.81 1.31 M521.95 580.93 C636.79 445.13, 753.36 311.49, 1025.81 1.31 M527.6 580.53 C648.09 439.61, 768.91 301.17, 1031.45 0.92 M527.6 580.53 C629.06 461.3, 730.38 344.13, 1031.45 0.92 M532.58 580.89 C682.11 408.39, 830.63 236.24, 1036.44 1.28 M532.58 580.89 C717.75 368.53, 901.32 158.09, 1036.44 1.28 M538.23 580.5 C731.31 355.63, 926.19 131.03, 1042.08 0.88 M538.23 580.5 C714.87 378.53, 892.36 175.18, 1042.08 0.88 M543.21 580.86 C651.02 457.04, 759.93 330.64, 1047.07 1.24 M543.21 580.86 C684.33 416.43, 827.91 251.75, 1047.07 1.24 M548.86 580.46 C650.63 459.88, 755.45 339.66, 1052.71 0.85 M548.86 580.46 C695.56 413.35, 841.22 246.03, 1052.71 0.85 M553.84 580.82 C725.07 383.14, 895.76 187.57, 1057.7 1.21 M553.84 580.82 C706.51 406.52, 857.83 231.99, 1057.7 1.21 M559.49 580.43 C698.56 419.49, 837.08 260.07, 1063.34 0.81 M559.49 580.43 C757.46 352.95, 955.92 124.73, 1063.34 0.81 M564.47 580.79 C668.4 464.19, 770.74 346.66, 1068.33 1.17 M564.47 580.79 C762.52 357.52, 957.34 132.69, 1068.33 1.17 M570.12 580.4 C754.43 368.77, 938.71 158.67, 1073.97 0.78 M570.12 580.4 C754.63 366.66, 940.08 153.58, 1073.97 0.78 M575.1 580.76 C723.97 407, 873.72 235.02, 1078.96 1.14 M575.1 580.76 C723.6 410.23, 872.56 238.72, 1078.96 1.14 M580.75 580.36 C761.37 371.79, 942.55 161.74, 1084.6 0.74 M580.75 580.36 C744.84 388.51, 911.43 197.41, 1084.6 0.74 M585.73 580.72 C775.42 365.58, 963.11 149.86, 1089.59 1.1 M585.73 580.72 C708.79 441.25, 830.57 301.16, 1089.59 1.1 M591.38 580.33 C765.63 379.42, 939.85 178.5, 1095.23 0.71 M591.38 580.33 C755.93 393.38, 919.39 206.25, 1095.23 0.71 M596.36 580.69 C760.52 391.81, 924.22 203.3, 1100.22 1.07 M596.36 580.69 C702.32 454.91, 809.72 330.93, 1100.22 1.07 M602.01 580.29 C760.63 397.31, 918.8 214.45, 1105.2 1.43 M602.01 580.29 C703.86 459.91, 807.88 340.41, 1105.2 1.43 M606.99 580.65 C766.27 397.88, 924.25 215.8, 1110.85 1.03 M606.99 580.65 C741.54 423.12, 877.92 266.42, 1110.85 1.03 M612.64 580.26 C744.56 429, 874.99 279.52, 1115.83 1.39 M612.64 580.26 C794.24 369.91, 977.06 159.66, 1115.83 1.39 M617.62 580.62 C744.53 436.13, 869.73 292.18, 1121.48 1 M617.62 580.62 C739.07 440.73, 861.21 300.25, 1121.48 1 M623.27 580.22 C764.45 417.54, 906.03 254.1, 1126.46 1.36 M623.27 580.22 C819.32 354.33, 1017.02 127.14, 1126.46 1.36 M628.25 580.58 C778.01 408.77, 925.91 236.65, 1132.11 0.97 M628.25 580.58 C743.68 447.01, 858.98 314.98, 1132.11 0.97 M633.9 580.19 C780.27 416.12, 924.06 248.33, 1137.09 1.33 M633.9 580.19 C742.13 456.3, 851.02 329.91, 1137.09 1.33 M638.88 580.55 C826.45 367.06, 1012.68 151.5, 1142.74 0.93 M638.88 580.55 C789.46 406.75, 938.78 234.92, 1142.74 0.93 M643.87 580.91 C787.18 414.78, 930.43 248.79, 1147.72 1.29 M643.87 580.91 C837.89 359.01, 1030.25 137.94, 1147.72 1.29 M649.51 580.51 C775.81 434.27, 902.58 289.24, 1153.37 0.9 M649.51 580.51 C844.28 354.54, 1040 129.96, 1153.37 0.9 M654.5 580.87 C799.72 411.86, 945.68 242.27, 1158.35 1.26 M654.5 580.87 C828.29 380.82, 1002.16 180.44, 1158.35 1.26 M660.14 580.48 C795.42 424.63, 930.53 269.02, 1164 0.86 M660.14 580.48 C765.23 455.99, 872.5 332.29, 1164 0.86 M665.13 580.84 C778.42 453.02, 888.52 324.29, 1168.98 1.22 M665.13 580.84 C865.66 353.92, 1063.44 126.03, 1168.98 1.22 M670.77 580.44 C774.63 462.74, 874.77 346.47, 1174.63 0.83 M670.77 580.44 C847.82 374.93, 1025.71 170.93, 1174.63 0.83 M675.76 580.8 C775.08 466.12, 876.23 349.75, 1179.61 1.19 M675.76 580.8 C842.74 388.21, 1007.95 198.24, 1179.61 1.19 M681.4 580.41 C876.71 352.05, 1074.5 125.34, 1185.26 0.79 M681.4 580.41 C859.76 373.92, 1039.42 167.82, 1185.26 0.79 M686.39 580.77 C818.32 432.77, 948.1 282.91, 1190.24 1.15 M686.39 580.77 C876.11 365.57, 1064.6 149.55, 1190.24 1.15 M692.03 580.38 C809.82 446.26, 925.94 311.14, 1195.89 0.76 M692.03 580.38 C818.01 435.92, 942.23 293.31, 1195.89 0.76 M697.02 580.74 C809.04 448.35, 923.32 317.05, 1200.87 1.12 M697.02 580.74 C836.15 421.2, 974.57 261.99, 1200.87 1.12 M702.66 580.34 C839.77 423.73, 977.15 266.79, 1206.52 0.72 M702.66 580.34 C808.62 456.77, 916.29 333.3, 1206.52 0.72 M707.65 580.7 C831.15 438.23, 953.95 297.6, 1211.5 1.08 M707.65 580.7 C906.23 353.61, 1103.99 125.99, 1211.5 1.08 M713.29 580.31 C868.79 399.57, 1023.85 221.13, 1217.15 0.69 M713.29 580.31 C873.86 392.42, 1035.57 206.39, 1217.15 0.69 M718.28 580.67 C842.27 433.47, 968.63 287.73, 1222.13 1.05 M718.28 580.67 C824.34 455.34, 932.19 331.65, 1222.13 1.05 M723.92 580.27 C877.47 401.44, 1030.3 224.92, 1227.12 1.41 M723.92 580.27 C826.54 465.21, 927.38 348.97, 1227.12 1.41 M728.91 580.63 C880.85 408.62, 1030.69 236.97, 1232.76 1.02 M728.91 580.63 C851.46 439.9, 974.15 299.29, 1232.76 1.02 M734.55 580.24 C870.86 422.88, 1006.59 266.02, 1237.75 1.38 M734.55 580.24 C912.76 375.29, 1090.52 171.04, 1237.75 1.38 M739.54 580.6 C857.44 443.93, 973.61 309.41, 1243.39 0.98 M739.54 580.6 C893.92 402.16, 1047.95 224.29, 1243.39 0.98 M745.18 580.2 C933.6 362.55, 1122.38 145.76, 1248.38 1.34 M745.18 580.2 C873.98 431.98, 1002.1 284.44, 1248.38 1.34 M750.17 580.56 C857.91 457.72, 965.7 332.55, 1254.02 0.95 M750.17 580.56 C873.33 439.19, 998.21 296.32, 1254.02 0.95 M755.81 580.17 C872.41 442.53, 990.03 306.33, 1259.01 1.31 M755.81 580.17 C879.68 436.84, 1002.41 295.42, 1259.01 1.31 M760.8 580.53 C863.64 461.88, 967.14 342.72, 1264.65 0.91 M760.8 580.53 C876.03 448.14, 992.62 313.65, 1264.65 0.91 M766.44 580.13 C882.22 447.58, 997.48 314.54, 1269.64 1.27 M766.44 580.13 C884.19 443.67, 1003.77 306.17, 1269.64 1.27 M771.43 580.49 C905.74 426.34, 1041.83 269.17, 1275.28 0.88 M771.43 580.49 C895.81 436.28, 1020.04 292.59, 1275.28 0.88 M776.42 580.85 C970.83 355.5, 1166.8 130.24, 1280.27 1.24 M776.42 580.85 C885.12 454.31, 995.12 327.5, 1280.27 1.24 M782.06 580.46 C921.54 421.84, 1061.06 260.41, 1285.92 0.84 M782.06 580.46 C984.2 349.44, 1185.44 118.12, 1285.92 0.84 M787.05 580.82 C939.36 409.75, 1088.12 238.06, 1290.9 1.2 M787.05 580.82 C957.63 380.96, 1130.07 183.75, 1290.9 1.2 M792.69 580.43 C895.09 460.26, 998.37 342.57, 1296.55 0.81 M792.69 580.43 C899.61 457.66, 1008.03 333.6, 1296.55 0.81 M797.68 580.79 C997.25 350.43, 1196.94 122.17, 1301.53 1.17 M797.68 580.79 C914.65 448.01, 1029.79 316.17, 1301.53 1.17 M803.32 580.39 C919.78 447.42, 1036.2 312.69, 1307.18 0.77 M803.32 580.39 C976.56 384.3, 1148.57 186.96, 1307.18 0.77 M808.31 580.75 C951.05 417.04, 1091.41 255.03, 1312.16 1.13 M808.31 580.75 C946.33 419.4, 1085.66 259.83, 1312.16 1.13 M813.95 580.36 C937.2 438.73, 1059.2 298.58, 1317.81 0.74 M813.95 580.36 C935.62 440.01, 1058.11 299.39, 1317.81 0.74 M818.94 580.72 C1021.75 351.2, 1222.37 119.48, 1322.79 1.1 M818.94 580.72 C995.26 379.25, 1170.78 176.8, 1322.79 1.1 M824.58 580.32 C989.02 390.02, 1154.8 200.62, 1328.44 0.7 M824.58 580.32 C982.76 398.24, 1140.18 217.27, 1328.44 0.7 M829.57 580.68 C1008.42 373.56, 1187.63 167.74, 1333.42 1.07 M829.57 580.68 C971.56 416.27, 1113.46 253.15, 1333.42 1.07 M835.21 580.29 C975.84 415.78, 1116.8 254.44, 1338.41 1.43 M835.21 580.29 C1012.07 376.25, 1190.36 171.61, 1338.41 1.43 M840.2 580.65 C944.61 459.7, 1051.35 338.98, 1344.05 1.03 M840.2 580.65 C1032.99 358.12, 1225.19 137.11, 1344.05 1.03 M845.84 580.25 C994.96 407.09, 1144.56 234.27, 1349.04 1.39 M845.84 580.25 C996.88 407.3, 1145.75 235.48, 1349.04 1.39 M850.83 580.61 C1038.9 360.62, 1229.46 144.25, 1354.68 1 M850.83 580.61 C1015.06 395.3, 1177.33 208.51, 1354.68 1 M856.47 580.22 C999.09 414.11, 1143.12 248.76, 1359.67 1.36 M856.47 580.22 C1004.17 414.25, 1149.18 246.96, 1359.67 1.36 M861.46 580.58 C1021.26 394.52, 1182.57 208.5, 1365.31 0.96 M861.46 580.58 C986.16 434.72, 1112.94 289.19, 1365.31 0.96 M867.1 580.18 C1041.08 377.61, 1218.88 175.66, 1370.3 1.32 M867.1 580.18 C969 462.57, 1070.37 345.81, 1370.3 1.32 M872.09 580.54 C1008.99 424.81, 1143.25 269.65, 1375.94 0.93 M872.09 580.54 C1015.53 414.46, 1159.52 249.17, 1375.94 0.93 M877.73 580.15 C1031.63 400.63, 1185.5 223.11, 1380.93 1.29 M877.73 580.15 C1037.7 394.86, 1198.85 209.43, 1380.93 1.29 M882.72 580.51 C1029.91 408.72, 1177.82 237.68, 1386.57 0.89 M882.72 580.51 C986.9 459.13, 1093.16 336.7, 1386.57 0.89 M888.36 580.11 C1077.2 366.17, 1263.63 151.77, 1391.56 1.25 M888.36 580.11 C1016.14 429.71, 1146.65 280.42, 1391.56 1.25 M893.35 580.48 C1010.83 447.63, 1127.55 312.49, 1397.2 0.86 M893.35 580.48 C1086.3 355.81, 1280.62 132.53, 1397.2 0.86 M898.34 580.84 C1033.17 428.54, 1165.38 274.13, 1402.19 1.22 M898.34 580.84 C1022.42 441.99, 1144.92 300.63, 1402.19 1.22 M903.98 580.44 C1091.42 367.22, 1278.48 151.98, 1407.83 0.82 M903.98 580.44 C1020.46 442, 1138.72 305.71, 1407.83 0.82 M908.97 580.8 C1068.45 399.76, 1226.18 217.69, 1412.82 1.18 M908.97 580.8 C1023.02 448.5, 1137 317.71, 1412.82 1.18 M914.61 580.41 C1091.83 377.24, 1268.38 174.09, 1418.46 0.79 M914.61 580.41 C1096.09 371.49, 1277.31 163.82, 1418.46 0.79 M919.6 580.77 C1096.62 375.56, 1275.32 170.71, 1423.45 1.15 M919.6 580.77 C1108.43 362.12, 1297.08 144.53, 1423.45 1.15 M925.24 580.37 C1055.79 427.86, 1190.5 274.09, 1429.09 0.75 M925.24 580.37 C1040.57 448.33, 1153.96 317.68, 1429.09 0.75 M930.23 580.73 C1038.81 453.92, 1148.17 328.03, 1434.08 1.11 M930.23 580.73 C1124.83 356.54, 1318.18 133.61, 1434.08 1.11 M935.87 580.34 C1119.84 367.84, 1306.86 154.95, 1439.72 0.72 M935.87 580.34 C1070.47 421.66, 1206.89 263.84, 1439.72 0.72 M940.86 580.7 C1064.23 440.43, 1186.89 298.38, 1444.71 1.08 M940.86 580.7 C1124.55 371.81, 1307.46 161.62, 1444.71 1.08 M946.5 580.3 C1129.57 369.22, 1314.94 156.19, 1450.35 0.69 M946.5 580.3 C1052.39 461.43, 1156.88 341.55, 1450.35 0.69 M951.49 580.66 C1146.11 357.42, 1339.64 133.57, 1455.34 1.05 M951.49 580.66 C1125.31 382.33, 1298.31 183.96, 1455.34 1.05 M957.13 580.27 C1116.1 397.43, 1277.46 212.2, 1460.33 1.41 M957.13 580.27 C1114.13 400.28, 1270.11 220.65, 1460.33 1.41 M962.12 580.63 C1107.48 414.72, 1250.4 249.26, 1465.97 1.01 M962.12 580.63 C1151.64 363.1, 1339.77 146.25, 1465.97 1.01 M967.76 580.23 C1138.02 383.01, 1309.18 185.68, 1470.96 1.37 M967.76 580.23 C1132.5 388.74, 1299.64 197.38, 1470.96 1.37 M972.75 580.59 C1074.4 461.67, 1176.88 342.56, 1476.6 0.98 M972.75 580.59 C1090.31 447.46, 1207.21 312.78, 1476.6 0.98 M978.39 580.2 C1127.51 405.34, 1278.71 229.76, 1481.59 1.34 M978.39 580.2 C1173.76 353.22, 1370.16 127.32, 1481.59 1.34 M983.38 580.56 C1131.4 407.9, 1280.39 236.1, 1487.23 0.94 M983.38 580.56 C1136.6 402.27, 1290.81 224.8, 1487.23 0.94 M989.02 580.16 C1152.15 390.39, 1316.43 201.69, 1492.22 1.3 M989.02 580.16 C1125.87 420.73, 1264.92 261.96, 1492.22 1.3 M994.01 580.52 C1160.55 388.66, 1326.65 198.03, 1497.86 0.91 M994.01 580.52 C1149.49 402.29, 1305.44 222.82, 1497.86 0.91 M999.65 580.13 C1147.75 409.68, 1293.91 240.26, 1502.85 1.27 M999.65 580.13 C1175.74 380.39, 1350.88 179.74, 1502.85 1.27 M1004.64 580.49 C1191.61 365.94, 1378.96 150.31, 1508.49 0.87 M1004.64 580.49 C1194.91 364.47, 1384.07 147.32, 1508.49 0.87 M1010.28 580.1 C1177.42 387.27, 1347.41 191.39, 1513.48 1.23 M1010.28 580.1 C1130.55 441.57, 1250.71 303.96, 1513.48 1.23 M1015.27 580.46 C1165.01 409.1, 1314.07 235.79, 1519.12 0.84 M1015.27 580.46 C1196.37 373.73, 1376.54 166.28, 1519.12 0.84 M1020.91 580.06 C1197.29 381.5, 1371.13 180.85, 1524.11 1.2 M1020.91 580.06 C1197.05 378.47, 1372.05 176.64, 1524.11 1.2 M1025.9 580.42 C1170.25 415.82, 1314.16 251.11, 1529.75 0.8 M1025.9 580.42 C1191.21 388.43, 1356.91 197.2, 1529.75 0.8 M1030.88 580.78 C1161.89 429.24, 1294.58 276.69, 1534.74 1.16 M1030.88 580.78 C1203.49 381.21, 1378.9 180.03, 1534.74 1.16 M1036.53 580.39 C1193.95 398.35, 1353.27 214.66, 1540.38 0.77 M1036.53 580.39 C1180.57 414.18, 1323.89 249.22, 1540.38 0.77 M1041.51 580.75 C1239.12 354.13, 1435.09 129.36, 1545.37 1.13 M1041.51 580.75 C1180.65 417.14, 1321.2 255.91, 1545.37 1.13 M1047.16 580.35 C1190.09 416.32, 1330.79 254.23, 1551.01 0.74 M1047.16 580.35 C1164.74 444.29, 1284.21 307.22, 1551.01 0.74 M1052.14 580.71 C1189.98 423.78, 1327.83 266.42, 1556 1.1 M1052.14 580.71 C1177.96 432.26, 1305.54 285.29, 1556 1.1 M1057.79 580.32 C1192.71 427.31, 1327.35 272.56, 1561.64 0.7 M1057.79 580.32 C1219.45 393.74, 1380.81 207, 1561.64 0.7 M1062.77 580.68 C1172.46 451.22, 1284.59 322.53, 1566.63 1.06 M1062.77 580.68 C1241.49 374.26, 1419.32 168.89, 1566.63 1.06 M1068.42 580.28 C1207.88 420.38, 1346.95 259.7, 1571.62 1.42 M1068.42 580.28 C1213.86 412.61, 1361.2 243.56, 1571.62 1.42 M1073.41 580.64 C1276.88 348.21, 1477.48 117.3, 1577.26 1.03 M1073.41 580.64 C1239.45 390.24, 1406.23 197.81, 1577.26 1.03 M1079.05 580.25 C1235.23 398.73, 1391.24 218.52, 1582.25 1.39 M1079.05 580.25 C1192.51 449.53, 1306.45 319.11, 1582.25 1.39 M1084.04 580.61 C1247.46 392.01, 1410.17 205.44, 1587.89 0.99 M1084.04 580.61 C1241.63 401.68, 1398.26 221.82, 1587.89 0.99 M1089.68 580.21 C1229.15 422.24, 1367.78 264.76, 1592.88 1.35 M1089.68 580.21 C1199.04 453.78, 1308.07 328.47, 1592.88 1.35 M1094.67 580.57 C1275.46 370.87, 1458.79 160.9, 1598.52 0.96 M1094.67 580.57 C1239.3 414.33, 1382.98 249.98, 1598.52 0.96 M1100.31 580.18 C1242.74 419.81, 1382.39 256.87, 1603.51 1.32 M1100.31 580.18 C1239.71 417.53, 1380.53 255.91, 1603.51 1.32 M1105.3 580.54 C1226.37 438.55, 1349.78 295.97, 1609.15 0.92 M1105.3 580.54 C1212.89 455.49, 1320.74 331.47, 1609.15 0.92 M1110.94 580.15 C1284.01 383.7, 1457.05 185.04, 1614.14 1.28 M1110.94 580.15 C1239.24 433.23, 1366.51 286.55, 1614.14 1.28 M1115.93 580.51 C1291.66 375.76, 1468.2 172.38, 1619.78 0.89 M1115.93 580.51 C1285.85 387.19, 1455.32 192.55, 1619.78 0.89 M1121.57 580.11 C1261.59 415.72, 1402.88 252.88, 1624.77 1.25 M1121.57 580.11 C1266.73 410.62, 1412.87 242, 1624.77 1.25 M1126.56 580.47 C1234.63 455.1, 1341.45 332.57, 1630.41 0.85 M1126.56 580.47 C1254.72 435.08, 1381.7 288.67, 1630.41 0.85 M1132.2 580.08 C1243.38 451.17, 1355.97 321.5, 1635.4 1.21 M1132.2 580.08 C1321.42 366.13, 1507.97 151.17, 1635.4 1.21 M1137.19 580.44 C1253.17 448.9, 1368.14 317.25, 1641.04 0.82 M1137.19 580.44 C1258.21 442.24, 1378.19 303.97, 1641.04 0.82 M1142.83 580.04 C1293.67 407.82, 1444.39 232.17, 1646.03 1.18 M1142.83 580.04 C1337.77 352.14, 1534.72 125.65, 1646.03 1.18 M1147.82 580.4 C1317.11 388.75, 1484.48 194.56, 1651.67 0.78 M1147.82 580.4 C1318.1 384.32, 1488.25 188.1, 1651.67 0.78 M1153.46 580.01 C1326.64 380.23, 1500.26 180.7, 1656.66 1.15 M1153.46 580.01 C1288.09 424.02, 1422.67 268.86, 1656.66 1.15 M1158.45 580.37 C1325.25 387.99, 1491.58 195.79, 1662.3 0.75 M1158.45 580.37 C1293.09 425.93, 1427.11 271.39, 1662.3 0.75 M1163.43 580.73 C1362.21 348.65, 1562.74 120.62, 1667.29 1.11 M1163.43 580.73 C1280.69 442.94, 1400.54 305.02, 1667.29 1.11 M1169.08 580.33 C1357.66 361.98, 1548.57 142.65, 1672.93 0.72 M1169.08 580.33 C1324.84 400.61, 1481.34 221.48, 1672.93 0.72 M1174.06 580.69 C1372.17 348.9, 1573.69 117.47, 1677.92 1.08 M1174.06 580.69 C1355.61 371.72, 1537.34 163.48, 1677.92 1.08 M1179.71 580.3 C1322.76 418.09, 1463.75 255.86, 1683.56 0.68 M1179.71 580.3 C1291.91 451.57, 1404.52 321.74, 1683.56 0.68 M1184.69 580.66 C1335.59 405.64, 1486.54 233.72, 1688.55 1.04 M1184.69 580.66 C1292.05 455.66, 1399.41 332.56, 1688.55 1.04 M1190.34 580.26 C1291.41 465.1, 1394 347.65, 1693.53 1.4 M1190.34 580.26 C1357.25 387.99, 1524.35 195.8, 1693.53 1.4 M1195.32 580.62 C1373.09 375.4, 1552.34 171.76, 1699.18 1.01 M1195.32 580.62 C1394.27 351.63, 1592.27 123.19, 1699.18 1.01 M1200.97 580.23 C1383.18 370.79, 1565.99 160.89, 1704.16 1.37 M1200.97 580.23 C1318.23 447.07, 1435.44 311.59, 1704.16 1.37 M1205.95 580.59 C1314.89 454.69, 1425.01 327.39, 1709.81 0.97 M1205.95 580.59 C1316.43 452.85, 1429.17 322.56, 1709.81 0.97 M1211.6 580.19 C1379.53 387.89, 1547.44 196.25, 1714.79 1.33 M1211.6 580.19 C1357.53 412.76, 1505.09 242.95, 1714.79 1.33 M1216.58 580.56 C1346.17 428.49, 1477.67 278.49, 1720.44 0.94 M1216.58 580.56 C1336.62 441.5, 1457.51 302.51, 1720.44 0.94 M1222.23 580.16 C1395.25 384.24, 1567.09 185.94, 1725.42 1.3 M1222.23 580.16 C1395.18 378.96, 1570.23 176.71, 1725.42 1.3 M1227.21 580.52 C1350.84 442.7, 1472.25 302.84, 1731.07 0.9 M1227.21 580.52 C1379.71 406.03, 1532.44 230.93, 1731.07 0.9 M1232.86 580.13 C1418.09 366.02, 1605.9 150.93, 1736.05 1.26 M1232.86 580.13 C1335.78 462.68, 1439.15 343.8, 1736.05 1.26 M1237.84 580.49 C1356.96 443.37, 1475.91 305.44, 1741.7 0.87 M1237.84 580.49 C1387.45 409.76, 1534.03 240.98, 1741.7 0.87 M1243.49 580.09 C1375.83 431.49, 1505.02 280.77, 1746.68 1.23 M1243.49 580.09 C1415.71 381.88, 1588.7 183.07, 1746.68 1.23 M1248.47 580.45 C1410.58 396.16, 1572.59 208.54, 1752.33 0.83 M1248.47 580.45 C1352.25 458.59, 1457.01 338.46, 1752.33 0.83 M1254.12 580.06 C1451.42 350.95, 1650.65 121.16, 1757.31 1.19 M1254.12 580.06 C1359.76 461.36, 1465.31 340.07, 1757.31 1.19 M1259.1 580.42 C1399.75 418.71, 1540.61 257.94, 1762.96 0.8 M1259.1 580.42 C1395.89 425.38, 1531.88 269.07, 1762.96 0.8 M1264.75 580.02 C1377.8 449.09, 1491.71 316.61, 1767.94 1.16 M1264.75 580.02 C1424.97 395.32, 1586.53 209.99, 1767.94 1.16 M1269.73 580.38 C1416.52 411.54, 1564.25 240.15, 1773.59 0.77 M1269.73 580.38 C1378.39 453.24, 1488.31 326.56, 1773.59 0.77 M1275.38 579.99 C1454.23 374.46, 1633.69 167.47, 1778.57 1.13 M1275.38 579.99 C1461.26 369.81, 1645.41 158.32, 1778.57 1.13 M1280.36 580.35 C1408.72 430.38, 1539.09 281.31, 1784.22 0.73 M1280.36 580.35 C1391.33 454.03, 1501.1 328.02, 1784.22 0.73 M1285.35 580.71 C1407.28 443.18, 1526.39 304.87, 1789.2 1.09 M1285.35 580.71 C1437.74 403.11, 1591.48 226.7, 1789.2 1.09 M1290.99 580.31 C1424.54 424.95, 1559.06 270.43, 1794.85 0.7 M1290.99 580.31 C1464.67 378.82, 1638.68 178.93, 1794.85 0.7 M1295.98 580.67 C1439.82 417.31, 1583.51 254.13, 1799.83 1.06 M1295.98 580.67 C1427.93 428.17, 1561.54 274.97, 1799.83 1.06 M1301.62 580.28 C1465.04 394.41, 1626.92 208.55, 1804.17 2.17 M1301.62 580.28 C1455.64 402.69, 1609.22 225.96, 1804.17 2.17 M1306.61 580.64 C1485.86 373.29, 1665.64 167.63, 1809.81 1.78 M1306.61 580.64 C1429.98 435.61, 1554.8 293.3, 1809.81 1.78 M1312.25 580.24 C1425.32 450.07, 1538.81 320.84, 1814.8 2.14 M1312.25 580.24 C1473.41 397.29, 1633.21 212.33, 1814.8 2.14 M1317.24 580.6 C1455.35 420.13, 1594.65 261.14, 1820.44 1.74 M1317.24 580.6 C1426.78 452.62, 1537.63 326, 1820.44 1.74 M1322.88 580.21 C1468.4 412.02, 1614.2 244.72, 1825.43 2.1 M1322.88 580.21 C1438.28 450.14, 1553.3 317.45, 1825.43 2.1 M1327.87 580.57 C1490.16 394.78, 1650.31 210.13, 1830.41 2.46 M1327.87 580.57 C1439 450.61, 1551.4 321.37, 1830.41 2.46 M1333.51 580.18 C1446.04 448.24, 1558.56 318.01, 1834.74 3.58 M1333.51 580.18 C1534.46 349.15, 1733.69 120.96, 1834.74 3.58 M1338.5 580.54 C1494.01 399.14, 1650.13 219.07, 1839.73 3.94 M1338.5 580.54 C1471.24 426.23, 1606.2 270.51, 1839.73 3.94 M1344.14 580.14 C1474.86 433.67, 1602.34 285.47, 1844.06 5.05 M1344.14 580.14 C1447.37 462.32, 1550.78 343.03, 1844.06 5.05 M1349.13 580.5 C1519.66 384.26, 1690.15 186.51, 1849.05 5.41 M1349.13 580.5 C1469.46 442.92, 1587.22 307.23, 1849.05 5.41 M1354.77 580.11 C1454.61 464.97, 1555.41 348.88, 1853.38 6.53 M1354.77 580.11 C1532.89 371.75, 1713.58 164.32, 1853.38 6.53 M1359.76 580.47 C1480.53 441.74, 1601.8 301.69, 1857.05 8.4 M1359.76 580.47 C1545.31 366.4, 1732.59 151.84, 1857.05 8.4 M1365.4 580.07 C1561.1 353.83, 1756.27 129.77, 1861.39 9.51 M1365.4 580.07 C1553.47 362.67, 1743.79 143.37, 1861.39 9.51 M1370.39 580.43 C1526.16 400.49, 1683.07 220.17, 1865.72 10.63 M1370.39 580.43 C1475.35 462.25, 1579.75 343.06, 1865.72 10.63 M1376.03 580.04 C1555.25 374.07, 1734.63 166.74, 1869.39 12.5 M1376.03 580.04 C1533.35 400.37, 1690.89 219.04, 1869.39 12.5 M1381.02 580.4 C1479.25 466.22, 1578.15 352.73, 1873.72 13.61 M1381.02 580.4 C1495.19 451.77, 1607.84 320.97, 1873.72 13.61 M1386.66 580 C1560.94 381.75, 1732.07 183.83, 1878.71 13.97 M1386.66 580 C1498.45 449, 1611.75 318.69, 1878.71 13.97 M1391.65 580.36 C1492.78 465.82, 1592.67 349.77, 1882.38 15.84 M1391.65 580.36 C1584.31 357.42, 1778.88 133.93, 1882.38 15.84 M1397.29 579.97 C1587.65 358.92, 1779.09 139.39, 1886.06 17.71 M1397.29 579.97 C1547.03 408.14, 1695.23 237.68, 1886.06 17.71 M1402.28 580.33 C1591.15 365.36, 1776.6 151.3, 1889.73 19.58 M1402.28 580.33 C1521.94 443.92, 1640.46 307.93, 1889.73 19.58 M1407.92 579.93 C1523.88 443.59, 1641.01 310.2, 1892.75 22.2 M1407.92 579.93 C1574.19 388.6, 1739.34 198.18, 1892.75 22.2 M1412.91 580.29 C1531.9 440.12, 1652.77 303.39, 1895.77 24.83 M1412.91 580.29 C1590.18 375.05, 1768.72 169.05, 1895.77 24.83 M1417.9 580.65 C1535.44 444.06, 1654.5 306.55, 1898.79 27.45 M1417.9 580.65 C1549.28 430.28, 1679.46 280.86, 1898.79 27.45 M1423.54 580.26 C1550.19 433.43, 1677.68 286.07, 1902.47 29.32 M1423.54 580.26 C1593.79 384.65, 1762.92 190.08, 1902.47 29.32 M1428.53 580.62 C1557.03 434.67, 1684.35 288.37, 1905.48 31.95 M1428.53 580.62 C1539.1 453.68, 1650.72 324.72, 1905.48 31.95 M1434.17 580.23 C1603.22 383.2, 1774.61 185.41, 1908.5 34.57 M1434.17 580.23 C1546.14 452.39, 1657.26 324.01, 1908.5 34.57 M1439.16 580.59 C1610.01 383, 1780.46 185.93, 1911.52 37.19 M1439.16 580.59 C1583.66 418.06, 1726.24 254.34, 1911.52 37.19 M1444.8 580.19 C1543.68 467.6, 1638.89 357.1, 1913.88 40.57 M1444.8 580.19 C1552.38 456.97, 1658.62 334.78, 1913.88 40.57 M1449.79 580.55 C1589.34 421.18, 1728.36 260.89, 1916.9 43.2 M1449.79 580.55 C1616.36 389.51, 1782.75 197.4, 1916.9 43.2 M1455.43 580.16 C1607.34 403.59, 1761.48 227.14, 1919.27 46.58 M1455.43 580.16 C1552.63 465.27, 1651.81 351.14, 1919.27 46.58 M1460.42 580.52 C1571.32 451.22, 1683.22 322.86, 1921.63 49.96 M1460.42 580.52 C1556.47 470.07, 1651.74 360.97, 1921.63 49.96 M1466.06 580.12 C1568.22 461.96, 1670.85 342, 1923.99 53.33 M1466.06 580.12 C1579.39 448.86, 1693.6 317.34, 1923.99 53.33 M1471.05 580.48 C1597.12 434.79, 1724.3 288.96, 1927.01 55.96 M1471.05 580.48 C1596.19 435.22, 1722.2 289.8, 1927.01 55.96 M1476.69 580.09 C1581.64 462.63, 1684.6 345.38, 1929.37 59.34 M1476.69 580.09 C1593.72 443.84, 1710.86 309.56, 1929.37 59.34 M1481.68 580.45 C1605.14 436.65, 1730.9 293.34, 1931.74 62.72 M1481.68 580.45 C1624.34 415.38, 1766.03 251.98, 1931.74 62.72 M1487.32 580.05 C1590.08 463.44, 1693.32 345.16, 1933.44 66.85 M1487.32 580.05 C1636.52 408.12, 1786.65 236.24, 1933.44 66.85 M1492.31 580.41 C1594.29 462.94, 1695.12 346.99, 1935.15 70.98 M1492.31 580.41 C1621.85 432.31, 1750.44 284.19, 1935.15 70.98 M1497.95 580.02 C1669.57 386.6, 1837.32 192.88, 1936.86 75.12 M1497.95 580.02 C1606.23 454.2, 1714.29 330.56, 1936.86 75.12 M1502.94 580.38 C1642.5 419.5, 1782.77 258.75, 1938.56 79.25 M1502.94 580.38 C1628.98 438.18, 1753.88 294.25, 1938.56 79.25 M1508.58 579.98 C1679.37 384.3, 1849.31 187.28, 1939.61 84.14 M1508.58 579.98 C1646.85 419.72, 1787.25 258.25, 1939.61 84.14 M1513.57 580.34 C1616.89 459.11, 1723.85 337.47, 1941.32 88.27 M1513.57 580.34 C1607.65 473.02, 1699.87 366.49, 1941.32 88.27 M1519.21 579.95 C1613.28 471.75, 1707.17 363.46, 1943.03 92.41 M1519.21 579.95 C1679.65 396.28, 1839.21 212.04, 1943.03 92.41 M1524.2 580.31 C1652.57 430.86, 1781.3 281.97, 1944.08 97.3 M1524.2 580.31 C1652.9 432.98, 1780.55 286.7, 1944.08 97.3 M1529.84 579.91 C1686.11 400.42, 1841.89 221.14, 1945.13 102.18 M1529.84 579.91 C1688.91 399.67, 1845.87 219.29, 1945.13 102.18 M1534.83 580.27 C1661.73 436, 1785.53 293.13, 1945.52 107.83 M1534.83 580.27 C1697.99 391.21, 1861.38 203.31, 1945.52 107.83 M1540.47 579.88 C1632.23 475.89, 1723.02 370.9, 1946.57 112.72 M1540.47 579.88 C1693.57 403.35, 1846.59 227.4, 1946.57 112.72 M1545.46 580.24 C1644.77 467.23, 1743.04 353.86, 1946.97 118.36 M1545.46 580.24 C1653.23 454.92, 1762.2 330.19, 1946.97 118.36 M1550.45 580.6 C1666.37 445.17, 1782.71 311.7, 1947.36 124 M1550.45 580.6 C1703.22 405.18, 1857.47 228.17, 1947.36 124 M1556.09 580.21 C1651.59 468.65, 1746.48 358.92, 1947.76 129.64 M1556.09 580.21 C1675.09 441.45, 1795.8 302.78, 1947.76 129.64 M1561.08 580.57 C1701.75 421.91, 1841.05 261.35, 1948.15 135.29 M1561.08 580.57 C1677.25 447.25, 1792.44 314.87, 1948.15 135.29 M1566.72 580.17 C1648.95 484.2, 1732.77 388.98, 1948.55 140.93 M1566.72 580.17 C1649.74 483.36, 1733.84 386.15, 1948.55 140.93 M1571.71 580.53 C1706.27 426.1, 1841.19 271.88, 1948.94 146.57 M1571.71 580.53 C1709.8 424.03, 1846.63 266.54, 1948.94 146.57 M1577.35 580.14 C1722.65 412.49, 1868.79 246.17, 1948.68 152.97 M1577.35 580.14 C1704.78 434.63, 1831.33 289.37, 1948.68 152.97 M1582.34 580.5 C1678.95 469.37, 1777.88 356.75, 1949.07 158.61 M1582.34 580.5 C1697.98 448.61, 1813.16 316.71, 1949.07 158.61 M1587.98 580.1 C1726.82 420.24, 1865.54 260.18, 1948.81 165.01 M1587.98 580.1 C1701.39 449.45, 1814.42 319.83, 1948.81 165.01 M1592.97 580.46 C1678.8 483.88, 1763.21 387.28, 1949.21 170.66 M1592.97 580.46 C1679.83 480.28, 1767.54 379.63, 1949.21 170.66 M1598.61 580.07 C1714.93 443.32, 1833.28 307.45, 1948.95 177.05 M1598.61 580.07 C1672.02 495.3, 1746.45 410.37, 1948.95 177.05 M1603.6 580.43 C1692.53 476.93, 1783.24 373.85, 1948.68 183.45 M1603.6 580.43 C1715.26 451.08, 1827.9 321.78, 1948.68 183.45 M1609.24 580.03 C1738.32 432.12, 1866.21 283.84, 1949.08 189.09 M1609.24 580.03 C1685.93 492.38, 1763.31 402.71, 1949.08 189.09 M1614.23 580.39 C1709.13 467.17, 1806.5 355.31, 1948.82 195.49 M1614.23 580.39 C1714.23 465.26, 1813.02 351.47, 1948.82 195.49 M1619.87 580 C1738.79 444.98, 1855.19 310.41, 1949.21 201.13 M1619.87 580 C1740.98 438.88, 1863.3 298.45, 1949.21 201.13 M1624.86 580.36 C1732.66 457.36, 1840.39 332.75, 1948.95 207.53 M1624.86 580.36 C1742.29 445, 1859.58 309.69, 1948.95 207.53 M1630.5 579.96 C1729.24 467.07, 1827.16 354.56, 1948.69 213.93 M1630.5 579.96 C1749.92 443.91, 1868.32 307.74, 1948.69 213.93 M1635.49 580.32 C1742.57 455.66, 1849.69 332.92, 1949.08 219.57 M1635.49 580.32 C1732.48 469.77, 1828.73 359.42, 1949.08 219.57 M1641.13 579.93 C1762.66 442.26, 1882.88 303.93, 1948.82 225.97 M1641.13 579.93 C1758.44 442.29, 1877.5 305.64, 1948.82 225.97 M1646.12 580.29 C1749.94 459.53, 1851.85 341.28, 1949.22 231.61 M1646.12 580.29 C1759.09 449.17, 1872.25 318.92, 1949.22 231.61 M1651.76 579.9 C1756.67 456.84, 1862.84 335.59, 1948.96 238.01 M1651.76 579.9 C1735.39 483.7, 1818.74 387.52, 1948.96 238.01 M1656.75 580.26 C1743.87 480.95, 1829.98 382.86, 1948.69 244.41 M1656.75 580.26 C1771.14 451.46, 1883.89 321.91, 1948.69 244.41 M1662.39 579.86 C1738.86 491.68, 1814.84 405.64, 1949.09 250.05 M1662.39 579.86 C1763.55 464.45, 1863.7 348.35, 1949.09 250.05 M1667.38 580.22 C1733.7 506.18, 1798.63 430.07, 1948.83 256.45 M1667.38 580.22 C1731.94 505.31, 1798.58 428.62, 1948.83 256.45 M1672.37 580.58 C1778.73 458.94, 1882.25 337.18, 1949.22 262.09 M1672.37 580.58 C1731.71 514.24, 1789.73 448.1, 1949.22 262.09 M1678.01 580.19 C1765.76 477.1, 1854.7 375.28, 1948.96 268.49 M1678.01 580.19 C1778.77 462.31, 1880.58 344.93, 1948.96 268.49 M1683 580.55 C1757.66 497.96, 1829.37 415.84, 1948.7 274.89 M1683 580.55 C1758.96 491.96, 1835.26 403.69, 1948.7 274.89 M1688.64 580.15 C1745.39 513.88, 1802.3 449.21, 1949.09 280.53 M1688.64 580.15 C1780.12 475.17, 1869.65 371.92, 1949.09 280.53 M1693.63 580.51 C1775.69 488.56, 1855.12 396.81, 1948.83 286.93 M1693.63 580.51 C1779.67 481.92, 1865.42 382.08, 1948.83 286.93 M1699.27 580.12 C1772.97 496.92, 1843.81 412.52, 1949.23 292.57 M1699.27 580.12 C1760.46 509.8, 1819.87 439.86, 1949.23 292.57 M1704.26 580.48 C1798.61 471.59, 1892.18 364.1, 1948.97 298.97 M1704.26 580.48 C1784.93 486.92, 1867.37 391.9, 1948.97 298.97 M1709.9 580.08 C1803.09 472.18, 1895.29 366.2, 1948.7 305.37 M1709.9 580.08 C1764.27 516.79, 1820.37 452.81, 1948.7 305.37 M1714.89 580.44 C1800.21 480.67, 1887.32 383.26, 1949.1 311.01 M1714.89 580.44 C1802.51 477.36, 1891.2 376.4, 1949.1 311.01 M1720.53 580.05 C1790.5 498.73, 1862.41 418.92, 1948.84 317.41 M1720.53 580.05 C1781.15 511.2, 1842.7 441.25, 1948.84 317.41 M1725.52 580.41 C1783.23 514.17, 1838.8 449.84, 1949.23 323.05 M1725.52 580.41 C1810.31 485.37, 1893.07 389.59, 1949.23 323.05 M1731.16 580.01 C1800.55 504.75, 1867.14 428.13, 1948.97 329.45 M1731.16 580.01 C1808.32 491.23, 1884.8 403.37, 1948.97 329.45 M1736.15 580.37 C1782.96 526.91, 1828.32 471.04, 1948.71 335.85 M1736.15 580.37 C1811.88 491.76, 1888.15 404.38, 1948.71 335.85 M1741.79 579.98 C1823.08 487.08, 1901.88 393.83, 1949.1 341.49 M1741.79 579.98 C1798.56 514.76, 1853.9 450.66, 1949.1 341.49 M1746.78 580.34 C1826.73 491.03, 1905.14 400.84, 1948.84 347.89 M1746.78 580.34 C1824.42 489.2, 1902.24 398.72, 1948.84 347.89 M1752.42 579.95 C1793.48 530.06, 1836.11 480.18, 1949.24 353.53 M1752.42 579.95 C1804.03 520.47, 1857.44 458.04, 1949.24 353.53 M1757.41 580.31 C1802.27 527.06, 1848.4 472.96, 1948.97 359.93 M1757.41 580.31 C1803.76 528.72, 1848.99 476.49, 1948.97 359.93 M1763.05 579.91 C1800.66 538.16, 1838.13 494.33, 1948.71 366.33 M1763.05 579.91 C1834.43 498.91, 1904.11 416.53, 1948.71 366.33 M1768.04 580.27 C1837.94 499.09, 1909.52 416.73, 1949.11 371.97 M1768.04 580.27 C1822.74 516.66, 1878.76 453.31, 1949.11 371.97 M1773.68 579.88 C1814.37 534.83, 1851.83 487.03, 1948.85 378.37 M1773.68 579.88 C1825.69 518.65, 1878.69 458.85, 1948.85 378.37 M1778.67 580.24 C1821.72 530.04, 1863.52 482.17, 1949.24 384.01 M1778.67 580.24 C1829.23 520.88, 1880.04 462.84, 1949.24 384.01 M1784.31 579.84 C1833.53 520.88, 1886.79 461.2, 1948.98 390.41 M1784.31 579.84 C1828.58 528.79, 1873.56 476.97, 1948.98 390.41 M1789.3 580.2 C1842.28 521.1, 1896.07 456.92, 1948.72 396.81 M1789.3 580.2 C1846.23 514.21, 1903.5 447.85, 1948.72 396.81 M1794.94 579.81 C1845.64 521.13, 1897.76 462.21, 1949.11 402.45 M1794.94 579.81 C1835.2 535.25, 1873.59 490.24, 1949.11 402.45 M1799.93 580.17 C1853.93 519.69, 1908.19 456.18, 1948.85 408.85 M1799.93 580.17 C1850.41 520.54, 1900.84 460.33, 1948.85 408.85 M1804.91 580.53 C1854.93 526.02, 1901.81 470.12, 1948.59 415.25 M1804.91 580.53 C1852.98 526.8, 1900.32 470.72, 1948.59 415.25 M1810.56 580.13 C1860.25 524.66, 1912.68 466.33, 1948.98 420.89 M1810.56 580.13 C1855.16 527, 1901.85 473.97, 1948.98 420.89 M1815.54 580.49 C1868.69 519.56, 1921.14 459.72, 1948.72 427.29 M1815.54 580.49 C1853.03 536.11, 1891.1 491.36, 1948.72 427.29 M1820.53 580.85 C1867.03 528.26, 1912.49 475.31, 1947.15 435.19 M1820.53 580.85 C1860.34 534.84, 1899.14 488.22, 1947.15 435.19 M1826.83 579.7 C1870.61 529.33, 1915.15 476.19, 1946.89 441.59 M1826.83 579.7 C1858.92 541.92, 1892.21 504.91, 1946.89 441.59 M1833.13 578.55 C1865.82 542.18, 1901.74 501.22, 1946.63 447.99 M1833.13 578.55 C1870.16 537.16, 1903.68 496.1, 1946.63 447.99 M1838.77 578.16 C1876.58 534.48, 1915.65 488.65, 1947.02 453.63 M1838.77 578.16 C1869.67 542.22, 1901.23 506.18, 1947.02 453.63 M1845.07 577.01 C1874.07 541.01, 1905.37 505.58, 1946.1 460.79 M1845.07 577.01 C1873.24 547.67, 1899.67 516.39, 1946.1 460.79 M1852.03 575.11 C1871.82 551.27, 1891.64 528.8, 1945.19 467.94 M1852.03 575.11 C1882.12 540.18, 1913.65 505.85, 1945.19 467.94 M1858.98 573.2 C1879.41 551.24, 1898.33 526.93, 1944.27 475.09 M1858.98 573.2 C1886.47 540.83, 1912.68 510.33, 1944.27 475.09 M1865.94 571.3 C1884.79 550.14, 1901.29 529.39, 1943.35 482.24 M1865.94 571.3 C1883.01 548.9, 1902.09 528.5, 1943.35 482.24 M1874.86 567.13 C1896.28 540.08, 1921.34 515.62, 1945.06 486.38 M1874.86 567.13 C1901.44 536.55, 1926.57 507.03, 1945.06 486.38 M1883.78 562.96 C1899.23 545.47, 1915.5 525.14, 1938.89 499.57 M1883.78 562.96 C1898.75 545.8, 1913.04 530.36, 1938.89 499.57 M1891.39 560.3 C1905.07 541.97, 1919.92 529.55, 1933.38 512 M1891.39 560.3 C1904.34 546.1, 1917.53 530.77, 1933.38 512" stroke="#be4bdb" stroke-width="0.5" fill="none"></path><path d="M145 0 M145 0 C653.7 5.9, 1160.83 5.5, 1802.07 0 M145 0 C611.96 5.63, 1078.76 5.56, 1802.07 0 M1802.07 0 C1897.32 -0.68, 1947.55 47.38, 1947.07 145 M1802.07 0 C1900.57 -0.8, 1948.57 49.26, 1947.07 145 M1947.07 145 C1948.07 224.07, 1945.24 305.6, 1947.07 435 M1947.07 145 C1949.02 248.31, 1948.95 353.37, 1947.07 435 M1947.07 435 C1946.4 532.64, 1899.83 578.16, 1802.07 580 M1947.07 435 C1948.57 533.76, 1897.88 577.71, 1802.07 580 M1802.07 580 C1244.3 585.69, 687.47 586.13, 145 580 M1802.07 580 C1311.33 583.56, 820.86 583.45, 145 580 M145 580 C48.97 581.37, 1.95 530.12, 0 435 M145 580 C49.25 579.01, -0.29 532.28, 0 435 M0 435 C2.42 351.45, 0.86 268.45, 0 145 M0 435 C-2.28 366.66, -2.11 298.92, 0 145 M0 145 C-0.4 49.9, 47.49 -1.03, 145 0 M0 145 C1.94 49.34, 46.4 -1.05, 145 0" stroke="#000000" stroke-width="1" fill="none"></path></g><g stroke-linecap="round"><g transform="translate(623.4168106542979 350.4828327145508) rotate(0 405.3127621881396 2.3098999830770026)"><path d="M0.17 1.16 C135.45 1.65, 676.65 3.68, 811.83 3.9 M-1.21 0.72 C133.89 0.8, 674.93 1.83, 810.74 2.3" stroke="#000000" stroke-width="1" fill="none"></path></g><g transform="translate(623.4168106542979 350.4828327145508) rotate(0 405.3127621881396 2.3098999830770026)"><path d="M784.46 12.04 C792.82 7.87, 799.11 5.33, 809.39 2.56 M783.4 11.64 C788.87 10.2, 794.84 7.29, 811.72 1.99" stroke="#000000" stroke-width="1" fill="none"></path></g><g transform="translate(623.4168106542979 350.4828327145508) rotate(0 405.3127621881396 2.3098999830770026)"><path d="M784.51 -8.49 C793.03 -6.32, 799.3 -2.53, 809.39 2.56 M783.45 -8.88 C788.87 -5.59, 794.83 -3.76, 811.72 1.99" stroke="#000000" stroke-width="1" fill="none"></path></g></g><g transform="translate(108.96366557788951 205.52380952380963) rotate(0 111.5 12.5)"><text x="0" y="18" font-family="Virgil, Segoe UI Emoji" font-size="20px" fill="#000000" text-anchor="start" style="white-space: pre;" direction="ltr">Prover's Initial Inputs</text></g><g stroke-linecap="round" transform="translate(1450.9517608159845 177.5476190476195) rotate(0 136 137)"><path d="M9.41 26.73 C9.41 26.73, 9.41 26.73, 9.41 26.73 M9.41 26.73 C9.41 26.73, 9.41 26.73, 9.41 26.73 M5.22 37.66 C10.68 29.81, 17.43 22.63, 32.11 6.72 M5.22 37.66 C10.65 31.88, 16.99 25.86, 32.11 6.72 M3.64 45.57 C12.34 34.26, 19.83 25.9, 39.73 4.06 M3.64 45.57 C15.22 31.42, 26.83 18.2, 39.73 4.06 M2.72 52.72 C14.52 39.54, 30.41 21.08, 46.02 2.91 M2.72 52.72 C11.8 41.52, 18.94 31.56, 46.02 2.91 M1.81 59.87 C10.71 47.56, 21.76 35.64, 51.67 2.51 M1.81 59.87 C14.41 46.5, 26.87 32.12, 51.67 2.51 M0.23 67.78 C17.95 48.85, 29.85 32.81, 57.31 2.12 M0.23 67.78 C19.18 47.23, 38.03 26.14, 57.31 2.12 M-0.03 74.18 C25.37 44.9, 47.73 20.14, 62.95 1.72 M-0.03 74.18 C21.02 49.25, 41.5 26.74, 62.95 1.72 M0.37 79.82 C23.36 54.76, 48.86 23.47, 69.25 0.58 M0.37 79.82 C26.21 50.39, 50.71 20.89, 69.25 0.58 M0.11 86.22 C18 63.29, 38.3 43.05, 74.24 0.94 M0.11 86.22 C20.85 61.66, 39.76 39.14, 74.24 0.94 M-0.16 92.62 C25.51 58.85, 56.96 26.06, 79.23 1.3 M-0.16 92.62 C17.99 71.9, 36.16 52.15, 79.23 1.3 M0.24 98.26 C23.13 70.9, 48.39 40.36, 84.87 0.9 M0.24 98.26 C23.22 71.07, 45.02 46.38, 84.87 0.9 M-0.02 104.66 C25.86 76.21, 48.54 47.89, 89.86 1.26 M-0.02 104.66 C30.79 70.62, 60.08 35.74, 89.86 1.26 M0.37 110.3 C26.7 78.54, 53.53 48.33, 95.5 0.87 M0.37 110.3 C31.54 73.21, 62.63 37.29, 95.5 0.87 M0.11 116.7 C37.58 71.66, 77.54 30.39, 100.49 1.23 M0.11 116.7 C22.14 94.24, 41.02 70.07, 100.49 1.23 M-0.15 123.09 C19.99 98.29, 41.94 71.3, 106.13 0.83 M-0.15 123.09 C21.76 97.46, 42.22 72.96, 106.13 0.83 M0.24 128.74 C29.38 97.65, 55.22 66.04, 111.12 1.19 M0.24 128.74 C37.84 85.46, 75.61 43.56, 111.12 1.19 M-0.02 135.14 C41.97 87.17, 82.76 40.16, 116.1 1.55 M-0.02 135.14 C29.88 100.48, 60.58 67.55, 116.1 1.55 M0.38 140.78 C42.5 93.13, 87.4 42.76, 121.75 1.16 M0.38 140.78 C36.67 98.22, 71.66 57.57, 121.75 1.16 M0.12 147.18 C26.96 115.41, 51.84 84.86, 126.73 1.52 M0.12 147.18 C46.34 94.45, 92.66 41.7, 126.73 1.52 M-0.15 153.57 C38.37 108.14, 75.01 66.36, 132.38 1.12 M-0.15 153.57 C51.8 93.67, 103.22 34.32, 132.38 1.12 M0.25 159.22 C54.7 95.12, 107.42 32.89, 137.36 1.48 M0.25 159.22 C30.77 124.27, 60.99 89.02, 137.36 1.48 M-0.01 165.62 C48.55 113.25, 92.33 57.53, 143.01 1.09 M-0.01 165.62 C34.29 126, 69.41 87.24, 143.01 1.09 M0.38 171.26 C46.3 117.95, 91.97 66.33, 147.99 1.45 M0.38 171.26 C39.8 125.35, 79.27 80.94, 147.99 1.45 M0.12 177.66 C45.04 126.03, 87.8 75.59, 152.98 1.81 M0.12 177.66 C61.16 106.57, 121.4 36.15, 152.98 1.81 M0.51 183.3 C39.45 140.6, 79.25 93.68, 158.62 1.41 M0.51 183.3 C51.54 125.23, 102.05 65.91, 158.62 1.41 M0.25 189.7 C42.43 143.1, 83.02 98.6, 163.61 1.77 M0.25 189.7 C52.03 131.78, 103.04 72.04, 163.61 1.77 M-0.01 196.09 C59.54 132.36, 117.01 63, 169.25 1.38 M-0.01 196.09 C63.57 125.01, 126.3 52.91, 169.25 1.38 M0.39 201.74 C43.09 156.55, 81.5 107.89, 174.24 1.74 M0.39 201.74 C34.81 161.07, 69.94 120.22, 174.24 1.74 M0.12 208.14 C72.26 125.67, 143.56 45.13, 179.89 1.35 M0.12 208.14 C69.55 130.19, 138.42 51.62, 179.89 1.35 M0.52 213.78 C60.06 144.54, 120.93 74.44, 184.87 1.71 M0.52 213.78 C62.28 142.07, 123.48 71.78, 184.87 1.71 M2.88 217.16 C48.69 164.41, 94.69 112.41, 189.86 2.07 M2.88 217.16 C52.48 158.89, 101.87 102.48, 189.86 2.07 M3.93 222.05 C76.14 141.35, 146.6 59.14, 195.5 1.67 M3.93 222.05 C74.47 143.81, 143.76 63.14, 195.5 1.67 M4.98 226.93 C46.67 176.87, 91.06 128.09, 200.49 2.03 M4.98 226.93 C69.97 151.1, 136.8 76.39, 200.49 2.03 M6.03 231.82 C60.58 172.98, 112.96 112.75, 206.13 1.64 M6.03 231.82 C49.5 182.33, 92.25 133.76, 206.13 1.64 M6.43 237.47 C57.46 182.31, 105.59 123.23, 211.12 2 M6.43 237.47 C56.59 177.12, 108.02 118.96, 211.12 2 M8.14 241.6 C56.38 183.43, 106.81 125.91, 216.76 1.6 M8.14 241.6 C84.66 152.95, 161.48 64.35, 216.76 1.6 M10.5 244.98 C85.76 157.73, 160.55 70.98, 221.09 2.72 M10.5 244.98 C64.23 180.71, 119.98 117.85, 221.09 2.72 M12.21 249.11 C55.41 196.56, 99.33 146.71, 225.42 3.83 M12.21 249.11 C54.67 199.95, 98.58 150.57, 225.42 3.83 M13.91 253.25 C59.81 201.58, 103.18 151.13, 229.76 4.95 M13.91 253.25 C91.69 163.1, 171.2 72.93, 229.76 4.95 M16.93 255.87 C65.74 199.82, 115.62 141.36, 234.09 6.06 M16.93 255.87 C69.42 197.33, 121.27 137.32, 234.09 6.06 M19.29 259.25 C89.97 174.4, 164.86 91.77, 238.42 7.18 M19.29 259.25 C97.89 172.36, 174.99 82.7, 238.42 7.18 M22.31 261.87 C69.22 208.59, 116.06 155.54, 242.09 9.05 M22.31 261.87 C82.22 192.09, 144.53 121.4, 242.09 9.05 M25.99 263.74 C90.33 189.48, 155.87 114.28, 245.77 10.91 M25.99 263.74 C106.74 174.56, 185.43 84.23, 245.77 10.91 M29.66 265.61 C76.34 207.9, 124.99 153.35, 249.44 12.78 M29.66 265.61 C96.32 188.59, 162.98 112.42, 249.44 12.78 M32.68 268.24 C108.43 181.78, 183.83 93.62, 253.12 14.65 M32.68 268.24 C104.75 186.71, 176.74 104.17, 253.12 14.65 M37.01 269.35 C121.13 172.36, 204.83 77.49, 255.48 18.03 M37.01 269.35 C114.7 181.22, 190.19 93.84, 255.48 18.03 M41.34 270.47 C116.47 182.6, 191.75 98.31, 258.5 20.66 M41.34 270.47 C112.34 191.58, 181.65 110.74, 258.5 20.66 M45.02 272.34 C126.48 178.47, 205.84 88.29, 261.52 23.28 M45.02 272.34 C93.73 216.81, 143.44 158.75, 261.52 23.28 M50 272.7 C103.35 209.37, 159.29 145.54, 263.22 27.42 M50 272.7 C97.19 217.42, 145.24 162.13, 263.22 27.42 M54.99 273.06 C119.54 197.42, 183.39 122.21, 265.59 30.79 M54.99 273.06 C101.96 217.9, 149.94 162.96, 265.59 30.79 M59.32 274.17 C115.09 214.76, 167.54 150.5, 267.29 34.93 M59.32 274.17 C112.95 213.55, 165.03 154.2, 267.29 34.93 M63 276.04 C124.11 204.73, 183.84 135.28, 269 39.06 M63 276.04 C106.55 228.74, 148.51 179.21, 269 39.06 M67.98 276.4 C113.72 226.35, 158.43 173.83, 270.05 43.95 M67.98 276.4 C113.49 224.36, 159.68 171.76, 270.05 43.95 M73.63 276.01 C123.73 215.03, 175.3 157.55, 270.45 49.59 M73.63 276.01 C129.65 212.39, 184.72 148.92, 270.45 49.59 M78.61 276.37 C121.57 225.36, 167.38 176.46, 271.5 54.48 M78.61 276.37 C134.74 211.97, 191.76 147.11, 271.5 54.48 M84.26 275.97 C144.14 207.17, 201.36 141.76, 271.89 60.12 M84.26 275.97 C147.98 201.08, 212.35 125.9, 271.89 60.12 M89.24 276.33 C133.93 223.94, 182.56 169.71, 272.29 65.77 M89.24 276.33 C127.09 229.65, 167.84 183.77, 272.29 65.77 M94.23 276.69 C162.27 197.04, 230.9 120.02, 272.02 72.17 M94.23 276.69 C160.33 201.01, 225.66 124.47, 272.02 72.17 M99.87 276.3 C153.81 217.58, 205.36 157.42, 271.76 78.56 M99.87 276.3 C148.2 218.63, 199.02 161.18, 271.76 78.56 M104.86 276.66 C169.35 202.46, 234.7 127.57, 272.16 84.21 M104.86 276.66 C153.42 220.37, 202.53 164.47, 272.16 84.21 M110.5 276.26 C153.41 227.53, 194.76 180.49, 271.9 90.6 M110.5 276.26 C146.81 234.27, 182.75 193.37, 271.9 90.6 M115.49 276.62 C157.63 226.61, 202.81 177.37, 272.29 96.25 M115.49 276.62 C164.04 220.72, 211.91 166.5, 272.29 96.25 M121.14 276.23 C154.58 236.28, 186.97 198.65, 272.03 102.64 M121.14 276.23 C154.75 236.09, 191.93 195.99, 272.03 102.64 M126.12 276.59 C178.5 214.27, 233.56 154.08, 271.77 109.04 M126.12 276.59 C185.88 211.51, 243.73 144.31, 271.77 109.04 M131.77 276.19 C160.76 243.71, 188.11 209.5, 272.16 114.69 M131.77 276.19 C185.53 214.73, 238.44 153.59, 272.16 114.69 M136.75 276.55 C169.07 238.74, 199.78 201.83, 271.9 121.08 M136.75 276.55 C163.75 244.41, 193.5 211.18, 271.9 121.08 M142.4 276.16 C195.62 216.72, 246.74 158.89, 272.29 126.73 M142.4 276.16 C173.08 242.45, 204.51 207.53, 272.29 126.73 M147.38 276.52 C195.38 220.85, 246.54 162.93, 272.03 133.12 M147.38 276.52 C192.26 224.62, 236.69 172.99, 272.03 133.12 M153.03 276.12 C191.27 233.72, 230.65 189.21, 271.77 139.52 M153.03 276.12 C197.42 224.42, 242.48 174.81, 271.77 139.52 M158.01 276.48 C184.32 245.84, 211.5 213.6, 272.17 145.16 M158.01 276.48 C196.79 232.49, 234.38 190.05, 272.17 145.16 M163.66 276.09 C197.45 238.65, 228.82 202.99, 271.91 151.56 M163.66 276.09 C196.99 237.69, 231.28 198.93, 271.91 151.56 M168.64 276.45 C196.51 245.67, 226.04 213.82, 272.3 157.21 M168.64 276.45 C209.8 229.45, 249.31 182.38, 272.3 157.21 M174.29 276.06 C210.23 236.84, 244.6 195.01, 272.04 163.6 M174.29 276.06 C212.93 233.08, 249.6 191.05, 272.04 163.6 M179.27 276.42 C207.98 245.71, 232.14 211.71, 271.78 170 M179.27 276.42 C203.71 250.08, 226.17 222.13, 271.78 170 M184.92 276.02 C211.19 247.8, 236.08 215.62, 272.17 175.64 M184.92 276.02 C205.09 253.27, 224.31 229.61, 272.17 175.64 M189.9 276.38 C213.46 249.53, 231.83 224.93, 271.91 182.04 M189.9 276.38 C209.27 256.02, 227.62 234.02, 271.91 182.04 M195.55 275.99 C217.23 250.86, 238.38 224.69, 272.3 187.69 M195.55 275.99 C222.08 246.99, 247.21 217.33, 272.3 187.69 M200.53 276.35 C225.08 248.74, 251.61 217.05, 272.04 194.08 M200.53 276.35 C219.57 253.16, 238.28 230.91, 272.04 194.08 M206.18 275.95 C220.71 260.67, 234.42 239.85, 271.78 200.48 M206.18 275.95 C224.49 254.58, 242.37 233.97, 271.78 200.48 M213.13 274.05 C230.54 251.58, 252.74 230.51, 272.18 206.12 M213.13 274.05 C232.31 251.01, 252.99 229.82, 272.18 206.12 M219.43 272.9 C239.49 251.35, 258.67 225.31, 271.91 212.52 M219.43 272.9 C234.07 255.52, 247.14 238.62, 271.91 212.52 M225.73 271.75 C245.24 250.61, 262.33 228.58, 274.28 215.9 M225.73 271.75 C235.86 258.68, 245.97 246.9, 274.28 215.9 M232.03 270.6 C247.68 253.09, 262.1 234.32, 272.7 223.81 M232.03 270.6 C242.3 258.91, 252.83 246.67, 272.7 223.81 M236.36 271.71 C245.2 260.67, 254.6 246.69, 271.79 230.96 M236.36 271.71 C247.04 260.43, 257.72 247.57, 271.79 230.96 M250.53 261.51 C251.9 256.45, 257.19 252.19, 266.93 242.64 M250.53 261.51 C256.12 255.46, 262.63 248.26, 266.93 242.64" stroke="#fd7e14" stroke-width="0.5" fill="none"></path><path d="M68 0 M68 0 C102.73 -0.98, 136.09 1.32, 204 0 M68 0 C99.09 0.23, 129.69 -1.09, 204 0 M204 0 C250.8 -0.61, 270.59 21.2, 272 68 M204 0 C248.4 -0.12, 273.36 22.38, 272 68 M272 68 C270.73 113.61, 272.86 161.14, 272 206 M272 68 C270.97 107.7, 271.37 146.67, 272 206 M272 206 C272.95 251.76, 248.13 272.34, 204 274 M272 206 C271.82 250.48, 250.74 275.78, 204 274 M204 274 C162.99 272.13, 118.55 272.24, 68 274 M204 274 C155.08 273.87, 106.87 274.36, 68 274 M68 274 C21.98 273.11, -1.95 250.17, 0 206 M68 274 C21.94 276.08, -1.27 249.23, 0 206 M0 206 C-0.74 160.25, -0.94 115.42, 0 68 M0 206 C1.35 171.01, -0.25 137.69, 0 68 M0 68 C1.48 23.71, 24.23 -1.63, 68 0 M0 68 C1.95 21.74, 24.18 1.29, 68 0" stroke="#000000" stroke-width="1" fill="none"></path></g><g transform="translate(1455.9517608159845 269.5476190476195) rotate(0 131 45)"><text x="131" y="32" font-family="Virgil, Segoe UI Emoji" font-size="36px" fill="#000000" text-anchor="middle" style="white-space: pre;" direction="ltr">Prover </text><text x="131" y="77" font-family="Virgil, Segoe UI Emoji" font-size="36px" fill="#000000" text-anchor="middle" style="white-space: pre;" direction="ltr">Runtime</text></g><g stroke-linecap="round" transform="translate(759.9755703397941 509.5714285714282) rotate(0 138 75.71428571428567)"><path d="M5.11 15.04 C5.11 15.04, 5.11 15.04, 5.11 15.04 M5.11 15.04 C5.11 15.04, 5.11 15.04, 5.11 15.04 M2.22 24.46 C7.15 20.3, 11.59 16.27, 21.25 2.57 M2.22 24.46 C7.75 17.55, 15.45 10.74, 21.25 2.57 M2.61 30.1 C6.29 24.05, 11.38 16.55, 27.54 1.42 M2.61 30.1 C11.14 20.41, 20.61 9.17, 27.54 1.42 M2.35 36.5 C10.31 26.46, 20.05 13, 33.19 1.02 M2.35 36.5 C10.7 27.52, 19.96 16.73, 33.19 1.02 M2.09 42.89 C12.34 31.9, 22.48 18.87, 38.83 0.63 M2.09 42.89 C11 32.66, 19.13 24.7, 38.83 0.63 M2.49 48.54 C16.85 31.2, 30.21 17.14, 43.82 0.99 M2.49 48.54 C11.5 37.37, 22.18 26.39, 43.82 0.99 M2.22 54.93 C20.46 32.26, 38.53 14.78, 49.46 0.6 M2.22 54.93 C11.68 42.4, 23.07 32.38, 49.46 0.6 M2.62 60.58 C22.5 35.57, 44.18 13.86, 54.45 0.96 M2.62 60.58 C21.43 38.52, 42.21 17.13, 54.45 0.96 M2.36 66.98 C19.39 51.03, 33.88 34.05, 60.09 0.56 M2.36 66.98 C24.07 41.28, 45.74 16.73, 60.09 0.56 M2.1 73.37 C18.85 49.65, 38.32 29.3, 65.08 0.92 M2.1 73.37 C21.52 51.62, 39.88 30.03, 65.08 0.92 M2.49 79.02 C24.71 53.98, 47.55 26.9, 70.72 0.53 M2.49 79.02 C23.8 54.41, 44.04 31.2, 70.72 0.53 M2.23 85.41 C19.36 66.14, 38.27 41.96, 75.71 0.89 M2.23 85.41 C25.26 57.87, 48.68 32.5, 75.71 0.89 M1.97 91.81 C19.76 67.24, 40.39 48.36, 81.35 0.49 M1.97 91.81 C24.26 67.45, 45.37 41.75, 81.35 0.49 M2.36 97.46 C27.16 67.08, 49.88 37.5, 86.34 0.85 M2.36 97.46 C26.87 66.87, 54.38 37.79, 86.34 0.85 M2.1 103.85 C35.66 65.34, 71.39 24.04, 91.98 0.46 M2.1 103.85 C29.81 71.61, 58.18 41.5, 91.98 0.46 M2.5 109.5 C28.2 82.95, 51.09 51.75, 96.97 0.82 M2.5 109.5 C31.38 78.28, 58.59 45.31, 96.97 0.82 M2.23 115.89 C39.69 73.22, 74.86 32.09, 102.61 0.42 M2.23 115.89 C28.78 84.5, 55.05 53.81, 102.61 0.42 M1.32 123.05 C27.67 95.71, 49.32 66.59, 107.6 0.78 M1.32 123.05 C31.41 89.59, 61.18 53.5, 107.6 0.78 M3.02 127.18 C31.27 94.77, 58.61 62.23, 113.24 0.39 M3.02 127.18 C43.78 80.43, 85.83 32.78, 113.24 0.39 M4.07 132.07 C34.69 96.51, 63.83 61.32, 118.23 0.75 M4.07 132.07 C48.73 81.23, 93.17 30.12, 118.23 0.75 M5.13 136.96 C32.12 104.46, 60.95 73.43, 123.22 1.11 M5.13 136.96 C44.59 93.16, 80.32 49.66, 123.22 1.11 M8.14 139.58 C44.08 93.26, 84.47 52.95, 128.86 0.71 M8.14 139.58 C49.55 94.15, 91.16 46.73, 128.86 0.71 M11.16 142.21 C53.44 93.07, 92.8 46.73, 133.85 1.07 M11.16 142.21 C50.06 95.11, 90.22 48.59, 133.85 1.07 M14.18 144.83 C47.02 103.47, 83.93 66.59, 139.49 0.68 M14.18 144.83 C58.25 95.69, 101.18 43.61, 139.49 0.68 M16.54 148.21 C48.88 110.22, 81.8 70.79, 144.48 1.04 M16.54 148.21 C56.24 102.87, 95.18 58.7, 144.48 1.04 M20.88 149.32 C59.66 101.17, 98.87 55.72, 150.12 0.65 M20.88 149.32 C55.32 110.32, 89.06 71.34, 150.12 0.65 M25.21 150.44 C72.13 95.44, 123.41 39.31, 155.11 1.01 M25.21 150.44 C60.46 108.35, 97.47 64.69, 155.11 1.01 M29.54 151.55 C77.46 94.28, 129.38 39.45, 160.75 0.61 M29.54 151.55 C81.26 92.46, 133.44 32.19, 160.75 0.61 M34.52 151.91 C76.61 104.52, 117.07 60.33, 165.74 0.97 M34.52 151.91 C83.09 97.92, 129.76 43.04, 165.74 0.97 M39.51 152.27 C78.33 110.31, 114.9 68.12, 171.38 0.58 M39.51 152.27 C77.35 107.81, 115.24 63.51, 171.38 0.58 M44.5 152.63 C73.68 120.6, 99.13 89.59, 176.37 0.94 M44.5 152.63 C69.38 121.46, 97.2 92.25, 176.37 0.94 M50.14 152.24 C79.19 118.74, 109.35 84.31, 182.01 0.54 M50.14 152.24 C75.94 121.11, 102.88 89.53, 182.01 0.54 M55.13 152.6 C83.67 118.94, 114.46 88.11, 187 0.9 M55.13 152.6 C95.89 106.29, 137.15 60.25, 187 0.9 M60.12 152.96 C92.23 116.44, 124.43 79.94, 192.64 0.51 M60.12 152.96 C111.05 95.42, 160.03 37.17, 192.64 0.51 M65.76 152.56 C93.79 118.8, 124.85 84.29, 197.63 0.87 M65.76 152.56 C111.85 100.91, 157.15 47.81, 197.63 0.87 M70.75 152.92 C119.49 96.37, 168.77 40.2, 203.27 0.47 M70.75 152.92 C118.18 97.44, 167.7 40.48, 203.27 0.47 M76.39 152.53 C120.37 103.14, 161.72 54.19, 208.26 0.83 M76.39 152.53 C108.11 117.26, 137.46 82.99, 208.26 0.83 M81.38 152.89 C123.33 107.54, 161.79 58.84, 213.9 0.44 M81.38 152.89 C124.14 102.61, 167.47 51.92, 213.9 0.44 M87.02 152.49 C131.15 100.51, 175.49 50.17, 218.89 0.8 M87.02 152.49 C119.51 115.67, 152.23 79.95, 218.89 0.8 M92.01 152.86 C135.73 102.92, 176.02 53.04, 224.53 0.4 M92.01 152.86 C134.29 102.69, 177.01 53.6, 224.53 0.4 M97.65 152.46 C136.89 108.54, 175.22 62.93, 229.52 0.76 M97.65 152.46 C137.44 107.8, 177.23 62.37, 229.52 0.76 M102.64 152.82 C145.88 103.11, 191 50.09, 234.5 1.12 M102.64 152.82 C130.73 119.66, 158.9 86.46, 234.5 1.12 M108.28 152.43 C155.88 96.86, 204.75 39.92, 239.49 1.48 M108.28 152.43 C146.22 110.47, 183.48 66.62, 239.49 1.48 M113.27 152.79 C151.05 109.76, 184.67 68.52, 244.48 1.84 M113.27 152.79 C164.13 92.53, 214.33 33.68, 244.48 1.84 M118.91 152.39 C158.87 100.34, 204.91 53.8, 249.46 2.2 M118.91 152.39 C163.45 102.39, 208.81 50.63, 249.46 2.2 M123.9 152.75 C165.88 103.66, 206.13 57.76, 253.14 4.07 M123.9 152.75 C152.01 121.28, 179.53 89.23, 253.14 4.07 M129.54 152.36 C167.54 111.46, 201.07 70.82, 257.47 5.19 M129.54 152.36 C176.41 97.65, 223.45 44.53, 257.47 5.19 M134.53 152.72 C181.47 96.96, 230.59 42.68, 261.8 6.3 M134.53 152.72 C181.8 97.48, 227.73 44.06, 261.8 6.3 M140.17 152.32 C182.89 101.02, 226.29 50.5, 264.82 8.93 M140.17 152.32 C176.77 111.19, 212.22 71.26, 264.82 8.93 M145.16 152.68 C181.71 107.21, 220.54 60.84, 267.84 11.55 M145.16 152.68 C187.65 105.73, 229.67 56.58, 267.84 11.55 M150.8 152.29 C193.36 100.51, 237.66 50.06, 270.86 14.18 M150.8 152.29 C176.44 121.87, 202.87 92.27, 270.86 14.18 M155.79 152.65 C189.74 111.15, 223.77 71.89, 273.22 17.56 M155.79 152.65 C194.98 107.61, 233.62 64.07, 273.22 17.56 M161.43 152.25 C205.49 101.9, 251.37 49.96, 274.93 21.69 M161.43 152.25 C197.74 110.75, 233.66 70.36, 274.93 21.69 M166.42 152.61 C209.2 101.2, 254.04 52.53, 276.63 25.82 M166.42 152.61 C202.15 111.55, 237.85 71.59, 276.63 25.82 M171.4 152.97 C194.77 127.53, 219.15 103.01, 277.68 30.71 M171.4 152.97 C201.47 117.64, 231.29 84.91, 277.68 30.71 M177.05 152.58 C198.94 127.67, 219.6 105.03, 277.42 37.11 M177.05 152.58 C198.48 128.55, 221.86 101.87, 277.42 37.11 M182.03 152.94 C203.23 128.56, 227.12 105, 277.82 42.75 M182.03 152.94 C209.5 122.21, 237.14 89.7, 277.82 42.75 M187.68 152.54 C211.65 123.32, 237.55 96.91, 277.56 49.15 M187.68 152.54 C217.45 118.56, 246.13 85.57, 277.56 49.15 M192.66 152.9 C226.1 118.39, 256.26 80.51, 277.95 54.79 M192.66 152.9 C215.72 128.2, 236.74 104.27, 277.95 54.79 M198.31 152.51 C216.37 131.33, 235.39 109.18, 277.69 61.19 M198.31 152.51 C217.99 128.67, 237.65 105.74, 277.69 61.19 M203.29 152.87 C229.6 121.34, 256.16 89.22, 278.08 66.83 M203.29 152.87 C229.4 121.03, 255.95 91.68, 278.08 66.83 M208.94 152.48 C226.02 135.35, 243.48 113.38, 277.82 73.23 M208.94 152.48 C224.07 134.33, 239.76 117.75, 277.82 73.23 M213.92 152.84 C234.05 134.56, 250.91 110.52, 278.22 78.87 M213.92 152.84 C234.96 128.86, 255.28 105.61, 278.22 78.87 M219.57 152.44 C231.04 137.15, 243.45 124.38, 277.96 85.27 M219.57 152.44 C239.02 131.24, 258.11 108.46, 277.96 85.27 M224.55 152.8 C234.49 139.69, 246.63 129.15, 277.69 91.67 M224.55 152.8 C243.09 133.28, 258.64 112.7, 277.69 91.67 M230.2 152.41 C246.8 133.36, 259.54 119.64, 278.09 97.31 M230.2 152.41 C245.87 134.49, 261.61 116.19, 278.09 97.31 M235.18 152.77 C249.72 137.16, 264.25 121.36, 277.83 103.71 M235.18 152.77 C248.91 136.01, 262.16 120.58, 277.83 103.71 M240.17 153.13 C251.96 140.16, 260.84 126.18, 278.22 109.35 M240.17 153.13 C248.38 143.19, 256.56 133.12, 278.22 109.35 M246.47 151.98 C256.95 141.75, 264.25 128.77, 277.96 115.75 M246.47 151.98 C256.58 141.34, 264.1 129.85, 277.96 115.75 M252.11 151.58 C260.97 141.8, 270.54 129.58, 276.39 123.66 M252.11 151.58 C258.97 143.91, 264.43 135.93, 276.39 123.66 M261.69 146.66 C263.59 141.62, 267.83 139.73, 273.5 133.08 M261.69 146.66 C265.85 140.62, 270.51 135.77, 273.5 133.08" stroke="#e64980" stroke-width="0.5" fill="none"></path><path d="M37.86 0 M37.86 0 C113.6 2.02, 193.67 1.95, 238.14 0 M37.86 0 C113.23 -0.94, 189.82 -0.64, 238.14 0 M238.14 0 C263.85 -0.82, 277.46 12.81, 276 37.86 M238.14 0 C262.68 -0.19, 278.14 10.69, 276 37.86 M276 37.86 C276.85 61.55, 276.12 83.4, 276 113.57 M276 37.86 C275.4 55.42, 276.91 73.71, 276 113.57 M276 113.57 C274.09 139.64, 265.22 152.76, 238.14 151.43 M276 113.57 C276.4 138.19, 261.78 149.41, 238.14 151.43 M238.14 151.43 C178.06 150.4, 116.1 148.09, 37.86 151.43 M238.14 151.43 C179 152.14, 118.04 151.85, 37.86 151.43 M37.86 151.43 C12.67 152.73, 1.04 139.52, 0 113.57 M37.86 151.43 C13.17 151.73, 0.52 140.09, 0 113.57 M0 113.57 C0.64 95.36, 2.02 78.3, 0 37.86 M0 113.57 C1.3 91.62, -0.22 69.4, 0 37.86 M0 37.86 C1.69 11.05, 12.55 -0.91, 37.86 0 M0 37.86 C0.89 13.04, 13.85 -1.32, 37.86 0" stroke="#000000" stroke-width="1" fill="none"></path></g><g transform="translate(764.9755703397941 540.2857142857138) rotate(0 133 45)"><text x="133" y="32" font-family="Virgil, Segoe UI Emoji" font-size="36px" fill="#000000" text-anchor="middle" style="white-space: pre;" direction="ltr">Vampir Circuit</text><text x="133" y="77" font-family="Virgil, Segoe UI Emoji" font-size="36px" fill="#000000" text-anchor="middle" style="white-space: pre;" direction="ltr">Writer</text></g><g stroke-linecap="round"><g transform="translate(9.96424365641542 612.1871724094246) rotate(0 373.1636597658345 -1.261694634433752)"><path d="M0.98 -0.31 C125.31 -0.72, 622.29 -1.99, 746.29 -2.21 M0.04 -1.53 C124.23 -1.76, 621.06 -0.4, 745.64 -0.77" stroke="#000000" stroke-width="1" fill="none"></path></g><g transform="translate(9.96424365641542 612.1871724094246) rotate(0 373.1636597658345 -1.261694634433752)"><path d="M716.92 10.43 C726.31 4.71, 736.5 2.71, 747.07 -0.51 M716.85 8.62 C725.07 6.29, 732.35 4.62, 746.2 -0.53" stroke="#000000" stroke-width="1" fill="none"></path></g><g transform="translate(9.96424365641542 612.1871724094246) rotate(0 373.1636597658345 -1.261694634433752)"><path d="M716.93 -10.09 C726.35 -9.11, 736.53 -4.43, 747.07 -0.51 M716.86 -11.9 C725.14 -8.68, 732.42 -4.8, 746.2 -0.53" stroke="#000000" stroke-width="1" fill="none"></path></g></g><g transform="translate(127.40414176836543 575.7142857142856) rotate(0 69 25)"><text x="0" y="18" font-family="Virgil, Segoe UI Emoji" font-size="20px" fill="#000000" text-anchor="start" style="white-space: pre;" direction="ltr">Juvix Function</text><text x="0" y="43" font-family="Virgil, Segoe UI Emoji" font-size="20px" fill="#000000" text-anchor="start" style="white-space: pre;" direction="ltr"></text></g><g stroke-linecap="round"><g transform="translate(1316.7756204357397 590.3624109489585) rotate(0 756.8303470783438 0.8576821513371442)"><path d="M0.86 -0.58 C253.13 -0.61, 1261.82 0.43, 1513.8 0.84 M-0.14 1.73 C251.95 2.37, 1260.32 2.42, 1512.85 2.1" stroke="#000000" stroke-width="1" fill="none"></path></g><g transform="translate(1316.7756204357397 590.3624109489585) rotate(0 756.8303470783438 0.8576821513371442)"><path d="M1483.7 12.36 C1492.6 7.13, 1503.28 6.29, 1511.5 3.29 M1485.28 11.96 C1496 7.5, 1505.98 3.91, 1511.92 1.27" stroke="#000000" stroke-width="1" fill="none"></path></g><g transform="translate(1316.7756204357397 590.3624109489585) rotate(0 756.8303470783438 0.8576821513371442)"><path d="M1483.69 -8.16 C1492.77 -6.91, 1503.46 -1.27, 1511.5 3.29 M1485.27 -8.56 C1496.05 -4.99, 1506.04 -0.56, 1511.92 1.27" stroke="#000000" stroke-width="1" fill="none"></path></g></g><g transform="translate(2471.7850941493175 549.4285714285713) rotate(0 84 12.5)"><text x="0" y="18" font-family="Virgil, Segoe UI Emoji" font-size="20px" fill="#000000" text-anchor="start" style="white-space: pre;" direction="ltr">Vampir Circuit IR</text></g><g stroke-linecap="round"><g transform="translate(2301.0935752059745 246.82445126785797) rotate(0 265.6422001391792 0.5245228781831202)"><path d="M-0.03 0.57 C88.76 0.61, 443.9 1.55, 532.79 1.38 M-1.5 -0.17 C87.07 0.04, 442.55 -0.43, 531.55 -0.34" stroke="#000000" stroke-width="1" fill="none"></path></g><g transform="translate(2301.0935752059745 246.82445126785797) rotate(0 265.6422001391792 0.5245228781831202)"><path d="M504.32 9.01 C513.15 6.73, 518.75 4.53, 530.63 -1.04 M502.86 8.98 C509.13 7.65, 515.38 6, 530.56 0.38" stroke="#000000" stroke-width="1" fill="none"></path></g><g transform="translate(2301.0935752059745 246.82445126785797) rotate(0 265.6422001391792 0.5245228781831202)"><path d="M504.31 -11.51 C513.34 -7.52, 518.95 -3.46, 530.63 -1.04 M502.85 -11.54 C509.22 -8.36, 515.47 -5.5, 530.56 0.38" stroke="#000000" stroke-width="1" fill="none"></path></g></g><g transform="translate(2467.951760815985 275.4285714285718) rotate(0 118 12.5)"><text x="0" y="18" font-family="Virgil, Segoe UI Emoji" font-size="20px" fill="#000000" text-anchor="start" style="white-space: pre;" direction="ltr">Vampir Public Input Map</text></g><g stroke-linecap="round" transform="translate(2025.8565227207464 209.83333333333348) rotate(0 136 60.5)"><path d="M7.4 7.75 C7.4 7.75, 7.4 7.75, 7.4 7.75 M7.4 7.75 C7.4 7.75, 7.4 7.75, 7.4 7.75 M3.2 18.68 C9.13 13.71, 11.6 9.62, 17.63 2.08 M3.2 18.68 C7.11 12.83, 11.5 7.47, 17.63 2.08 M2.94 25.08 C5.84 18.48, 14.23 15.47, 23.27 1.68 M2.94 25.08 C8.74 20.03, 13.08 14.27, 23.27 1.68 M2.68 31.48 C7.38 25.18, 13.94 18.84, 29.57 0.53 M2.68 31.48 C11.68 21.14, 20.3 11.57, 29.57 0.53 M3.07 37.12 C8.78 28.7, 14.31 23.17, 33.25 2.4 M3.07 37.12 C13.55 25.18, 24.49 12.3, 33.25 2.4 M2.81 43.52 C14.23 28.43, 27.01 15.66, 38.24 2.76 M2.81 43.52 C13.61 29.35, 26.19 17.33, 38.24 2.76 M2.55 49.91 C16.75 33.51, 34.12 12.69, 43.88 2.37 M2.55 49.91 C14.82 35.61, 26.22 22.56, 43.88 2.37 M2.94 55.56 C16.57 38.55, 32.82 22.23, 48.87 2.73 M2.94 55.56 C12.84 45.05, 22.04 33.56, 48.87 2.73 M2.68 61.96 C15.73 49.92, 23.68 37.03, 54.51 2.33 M2.68 61.96 C16.32 46.29, 28.32 32.66, 54.51 2.33 M3.07 67.6 C19.71 48.03, 36.65 27.11, 59.5 2.69 M3.07 67.6 C15.3 51.75, 28.92 36.73, 59.5 2.69 M2.81 74 C20.71 54.28, 35.92 35.62, 65.14 2.3 M2.81 74 C20.68 54, 36.85 33.07, 65.14 2.3 M2.55 80.39 C24.05 53.42, 48.35 25.7, 70.13 2.66 M2.55 80.39 C23.82 54.63, 47.01 28.27, 70.13 2.66 M2.95 86.04 C26.93 55, 52.83 28.2, 75.77 2.26 M2.95 86.04 C26.43 58.09, 49.62 31.7, 75.77 2.26 M2.68 92.43 C18.57 73.07, 38.98 53.33, 80.76 2.62 M2.68 92.43 C33.49 57.44, 63.46 22.43, 80.76 2.62 M1.77 99.59 C26.64 73.29, 52.05 40.8, 86.4 2.23 M1.77 99.59 C33.49 64.61, 62.53 28.43, 86.4 2.23 M2.82 104.48 C36.59 64.64, 72.68 24.41, 91.39 2.59 M2.82 104.48 C38 64.51, 73.03 24.55, 91.39 2.59 M4.52 108.61 C25.96 87.31, 44.33 63.3, 97.03 2.2 M4.52 108.61 C30.17 78.3, 57.53 47.8, 97.03 2.2 M6.89 111.99 C29.54 86.63, 48.62 62.23, 102.02 2.56 M6.89 111.99 C32.72 81.31, 59.28 50.87, 102.02 2.56 M9.25 115.37 C39.8 81.85, 68.35 46.62, 107.66 2.16 M9.25 115.37 C29.62 92.54, 49.54 69.6, 107.66 2.16 M12.93 117.24 C32.25 91.85, 52.3 71.64, 112.65 2.52 M12.93 117.24 C38.79 87.36, 67 57.83, 112.65 2.52 M16.6 119.11 C49.17 82.61, 81.65 43.6, 117.63 2.88 M16.6 119.11 C52.03 76.68, 89.37 34.56, 117.63 2.88 M19.62 121.73 C52.73 84.25, 84.27 48.31, 123.28 2.49 M19.62 121.73 C53.66 82.79, 85.6 45.23, 123.28 2.49 M24.61 122.09 C65.31 74.64, 108.8 29.16, 128.26 2.85 M24.61 122.09 C46.45 98, 67.5 72.23, 128.26 2.85 M30.91 120.94 C55.37 94.42, 77.74 68.13, 133.91 2.45 M30.91 120.94 C63.04 83.59, 94.96 46.96, 133.91 2.45 M35.89 121.3 C58.97 98.05, 82.4 71.1, 138.89 2.81 M35.89 121.3 C67.9 83.86, 100.27 45.65, 138.89 2.81 M40.88 121.66 C76.55 77.2, 112.93 36.14, 144.54 2.42 M40.88 121.66 C66.95 91.49, 92.04 60.8, 144.54 2.42 M46.52 121.27 C85 74.66, 126.13 29.57, 149.52 2.78 M46.52 121.27 C75.24 87.68, 104.15 54.34, 149.52 2.78 M51.51 121.63 C89.45 75.21, 130.95 29, 155.17 2.38 M51.51 121.63 C75.47 92.7, 101.38 64.8, 155.17 2.38 M57.15 121.23 C91.96 84.15, 123.57 43.16, 160.15 2.74 M57.15 121.23 C79.17 94.88, 102.27 69.1, 160.15 2.74 M62.14 121.59 C97.22 82.24, 131.2 44.56, 165.8 2.35 M62.14 121.59 C97.62 80.7, 132.67 42.36, 165.8 2.35 M67.78 121.2 C103.99 82, 138.31 39.72, 170.78 2.71 M67.78 121.2 C95.49 88.43, 121.63 55.26, 170.78 2.71 M72.77 121.56 C98.71 92.91, 125.33 60.14, 176.43 2.31 M72.77 121.56 C103.45 87.15, 130.81 54.08, 176.43 2.31 M78.41 121.16 C117.71 76.02, 152.7 35.32, 181.41 2.67 M78.41 121.16 C109.18 86.19, 138.08 51.66, 181.41 2.67 M83.4 121.52 C104.82 94.36, 127.33 67.97, 187.06 2.28 M83.4 121.52 C120.37 77.34, 157.59 35.74, 187.06 2.28 M89.04 121.13 C110.65 98, 131.22 70.28, 192.04 2.64 M89.04 121.13 C124.74 79.24, 162.17 37.74, 192.04 2.64 M94.03 121.49 C124.91 85.21, 158.33 46.27, 197.69 2.24 M94.03 121.49 C132.02 77.1, 168.7 34.25, 197.69 2.24 M99.67 121.09 C133.34 83.46, 164.59 45.98, 202.67 2.6 M99.67 121.09 C125.46 91.37, 150.95 60.33, 202.67 2.6 M104.66 121.45 C142.88 76.47, 179.56 31.86, 208.32 2.21 M104.66 121.45 C129.9 91.45, 153.82 64.98, 208.32 2.21 M110.3 121.06 C131.73 94.65, 153.76 69.67, 213.3 2.57 M110.3 121.06 C132.24 93.94, 154.86 69.47, 213.3 2.57 M115.29 121.42 C145.84 88.55, 176.12 49.49, 218.95 2.18 M115.29 121.42 C156.66 74.93, 197.01 28.18, 218.95 2.18 M120.93 121.03 C142.22 92.03, 168 68.41, 223.93 2.54 M120.93 121.03 C158.23 77.5, 196.91 33.39, 223.93 2.54 M125.92 121.39 C160.01 82.67, 196.03 39.39, 229.58 2.14 M125.92 121.39 C148.41 96.29, 169.6 72.6, 229.58 2.14 M131.56 120.99 C154.44 93.23, 181.79 66.15, 234.56 2.5 M131.56 120.99 C161.21 86.5, 189.5 52.37, 234.56 2.5 M136.55 121.35 C157.92 96.71, 180.45 67.99, 242.18 -0.16 M136.55 121.35 C172.41 79.54, 208.88 37.52, 242.18 -0.16 M142.19 120.96 C168.77 92.8, 192.79 60.11, 246.51 0.96 M142.19 120.96 C165.94 95.5, 189 66.62, 246.51 0.96 M147.18 121.32 C186.44 75.14, 228.74 29, 251.49 1.32 M147.18 121.32 C170.86 93.67, 195.57 66.28, 251.49 1.32 M152.82 120.92 C179.48 90.75, 204.39 62.8, 255.82 2.43 M152.82 120.92 C182.15 84.87, 213.57 50.33, 255.82 2.43 M157.81 121.28 C192.82 78.32, 230.42 36.75, 259.5 4.3 M157.81 121.28 C193.68 78.59, 230.3 35.82, 259.5 4.3 M162.8 121.64 C200.03 78.14, 239.99 33.68, 262.52 6.93 M162.8 121.64 C193.35 83.86, 225.57 46.33, 262.52 6.93 M168.44 121.25 C190.88 96.09, 211.3 72.58, 265.54 9.55 M168.44 121.25 C188.25 98.66, 208.66 74.17, 265.54 9.55 M173.43 121.61 C201.87 87.78, 234.2 52.2, 268.56 12.17 M173.43 121.61 C204.68 84.23, 236.6 48.94, 268.56 12.17 M179.07 121.21 C203.76 89.39, 233.02 58.85, 269.61 17.06 M179.07 121.21 C204.52 89.33, 231.55 59.37, 269.61 17.06 M184.06 121.57 C211.39 91.08, 235.67 60.37, 271.31 21.2 M184.06 121.57 C209.04 93.02, 234.13 62.83, 271.31 21.2 M189.7 121.18 C211.45 97.67, 230.84 69.02, 273.68 24.58 M189.7 121.18 C219.14 87.96, 246.8 55.57, 273.68 24.58 M194.69 121.54 C221.84 92.16, 249.84 59.21, 273.41 30.97 M194.69 121.54 C223.35 86.9, 252.58 52.37, 273.41 30.97 M200.33 121.14 C218.75 98.33, 237.65 75.4, 273.81 36.62 M200.33 121.14 C223.71 94.8, 246.36 68.6, 273.81 36.62 M205.32 121.5 C233.65 90.73, 259.93 58.88, 273.55 43.01 M205.32 121.5 C225.7 98.78, 245.01 74.82, 273.55 43.01 M210.96 121.11 C234.27 92.38, 259.42 65.49, 273.94 48.66 M210.96 121.11 C234.69 95.32, 256.24 68.11, 273.94 48.66 M215.95 121.47 C234.88 99.03, 252.26 79.13, 273.68 55.06 M215.95 121.47 C236.08 98.66, 256.06 73.46, 273.68 55.06 M221.59 121.08 C242.09 98.31, 261.26 76.14, 273.42 61.45 M221.59 121.08 C238.93 101.99, 254.42 84.88, 273.42 61.45 M226.58 121.44 C237.74 107.13, 250.34 94.37, 273.81 67.1 M226.58 121.44 C236.44 109.51, 246.72 99.12, 273.81 67.1 M232.22 121.04 C243.53 107.55, 258.75 87.9, 273.55 73.49 M232.22 121.04 C245.54 104.44, 261.49 87, 273.55 73.49 M237.21 121.4 C249 107.53, 263.45 94.19, 273.95 79.14 M237.21 121.4 C247.74 108.71, 260.68 94.53, 273.95 79.14 M242.19 121.76 C248.02 114.85, 257.23 104.45, 273.69 85.53 M242.19 121.76 C252.74 109.15, 262.97 98.3, 273.69 85.53 M247.84 121.37 C253.53 116.98, 258.18 108.79, 273.42 91.93 M247.84 121.37 C253.08 113.54, 259.69 106.8, 273.42 91.93 M251.51 123.24 C257.83 116.36, 266.85 105.57, 272.51 99.09 M251.51 123.24 C257 115.74, 264.15 108.95, 272.51 99.09" stroke="#fd7e14" stroke-width="0.5" fill="none"></path><path d="M30.25 0 M30.25 0 C101.93 -0.66, 176.28 1.77, 241.75 0 M30.25 0 C74.46 -0.07, 117.81 0.71, 241.75 0 M241.75 0 C261.26 -0.34, 271.2 11.71, 272 30.25 M241.75 0 C259.91 0.08, 272.65 10.32, 272 30.25 M272 30.25 C271.2 48.97, 271.77 64.47, 272 90.75 M272 30.25 C272.06 52.08, 272.29 75.13, 272 90.75 M272 90.75 C272.35 111.9, 260.28 122.06, 241.75 121 M272 90.75 C270.97 110.5, 262.22 121.67, 241.75 121 M241.75 121 C166.37 120.9, 91.28 122.97, 30.25 121 M241.75 121 C199.43 119.69, 156.55 119.1, 30.25 121 M30.25 121 C9.2 122.37, 1.3 112.03, 0 90.75 M30.25 121 C8.02 122.16, -1.79 110.08, 0 90.75 M0 90.75 C1.19 77.19, 1.14 63.85, 0 30.25 M0 90.75 C0.26 72.91, 0.45 54.14, 0 30.25 M0 30.25 C-0.4 8.27, 9.29 -0.07, 30.25 0 M0 30.25 C-1.83 12.02, 10.19 1.94, 30.25 0" stroke="#000000" stroke-width="1" fill="none"></path></g><g transform="translate(2030.8565227207464 225.33333333333348) rotate(0 131 45)"><text x="131" y="32" font-family="Virgil, Segoe UI Emoji" font-size="36px" fill="#000000" text-anchor="middle" style="white-space: pre;" direction="ltr">Map</text><text x="131" y="77" font-family="Virgil, Segoe UI Emoji" font-size="36px" fill="#000000" text-anchor="middle" style="white-space: pre;" direction="ltr">Writer</text></g><g stroke-linecap="round" transform="translate(1274.2136655778895 564.4761904761906) rotate(0 19.28571428571422 20.714285714285666)"><path d="M10.04 2.1 C10.04 2.1, 10.04 2.1, 10.04 2.1 M10.04 2.1 C10.04 2.1, 10.04 2.1, 10.04 2.1 M2.04 14.77 C8.53 9.9, 13.74 6.63, 14.74 1.1 M3.73 15.34 C5.99 12.83, 10.09 9.01, 15.81 1.57 M2.5 20.61 C6.99 15.99, 14.51 11.22, 22.66 1.12 M3.04 22.5 C7.26 17.38, 12.17 12.31, 22.5 0.72 M0.34 30.85 C9.82 22.85, 14.86 14.2, 23.7 4.47 M2.59 29.45 C11.02 18.2, 19.91 8.86, 25.93 4.04 M4.12 33.6 C14.78 22.45, 24.24 9.63, 28.38 6.17 M4.46 31.74 C11.28 26.04, 17.56 17.46, 28.74 4.49 M6.84 34.61 C15.18 28.5, 20.38 19.96, 31.41 6.94 M6.9 36.22 C12.81 29.82, 17.33 25.11, 32.19 6.23 M10.3 38.99 C19.49 28.01, 26.14 20.2, 37 8.12 M11.22 38.83 C20.42 28.22, 28.42 17.14, 36.92 8.66 M13.96 40.46 C24.54 28.23, 30.94 19.9, 37.56 14.34 M14.03 39.01 C19.96 34.85, 24.44 29.52, 36.11 13.17 M19.66 41.78 C24.48 31.16, 32.95 22.75, 37.73 17.41 M18.39 40.22 C23.57 33.69, 28.62 29.52, 38.82 18.16 M23.02 39.93 C28.03 37.09, 29.74 32.82, 41.12 23.6 M22.57 42.17 C29.53 35.36, 35.48 27.35, 39.28 22.34 M32.43 36.6 C35.02 35.38, 35.39 33.81, 38.16 30.98 M32.81 36.89 C33.9 35.79, 35.37 34.45, 37.4 31.08" stroke="#000000" stroke-width="0.5" fill="none"></path><path d="M22.42 0.47 C26.3 1.08, 32.62 4.51, 35.18 8 C37.73 11.49, 37.84 16.86, 37.75 21.39 C37.67 25.93, 37.13 31.93, 34.67 35.23 C32.2 38.53, 27.12 40.75, 22.96 41.19 C18.81 41.64, 13.36 40.05, 9.74 37.89 C6.13 35.74, 2.78 32.27, 1.26 28.27 C-0.26 24.27, -0.76 18.19, 0.65 13.89 C2.06 9.59, 5.48 4.73, 9.72 2.47 C13.95 0.21, 23.07 0.19, 26.05 0.33 C29.03 0.47, 27.9 3, 27.59 3.31 M12.9 2.44 C16.24 0.53, 22.03 -1.3, 25.65 -0.13 C29.26 1.04, 32.28 5.28, 34.59 9.45 C36.9 13.63, 39.76 20.3, 39.49 24.91 C39.23 29.52, 36.42 34.41, 33.01 37.1 C29.6 39.79, 23.44 40.91, 19.03 41.04 C14.63 41.17, 9.59 40.57, 6.58 37.9 C3.56 35.22, 1.64 29.79, 0.94 24.98 C0.23 20.17, 0.27 12.95, 2.33 9.01 C4.4 5.07, 11.61 2.42, 13.33 1.34 C15.06 0.26, 12.89 2, 12.69 2.55" stroke="#000000" stroke-width="1" fill="none"></path></g><g stroke-linecap="round"><g transform="translate(1038.5469989112225 586.8396992462888) rotate(0 117.48592602719742 -1.3936885600530786)"><path d="M0.83 0.49 C39.97 0.33, 196.34 -1.03, 235.17 -1.51 M-0.2 -0.3 C38.8 -0.76, 195.08 -3.14, 234.49 -3.28" stroke="#000000" stroke-width="1" fill="none"></path></g></g><g stroke-linecap="round"><g transform="translate(1322.1532042811612 578.0412537572251) rotate(0 57.72339085681483 -88.14500431136491)"><path d="M-0.08 0.46 C7.18 -2.67, 33.65 7.37, 44.36 -19.18 C55.08 -45.72, 52.19 -132.57, 64.21 -158.82 C76.23 -185.07, 107.75 -173.89, 116.47 -176.69 M-1.58 -0.34 C5.54 -3.31, 33.07 8.09, 43.94 -18.14 C54.82 -44.38, 51.51 -131.46, 63.69 -157.73 C75.87 -184.01, 108.4 -172.94, 117.03 -175.8" stroke="#000000" stroke-width="1" fill="none"></path></g><g transform="translate(1322.1532042811612 578.0412537572251) rotate(0 57.72339085681483 -88.14500431136491)"><path d="M92.04 -164.29 C99.1 -168.77, 109.38 -172.15, 116.36 -174.64 M91.87 -164.98 C100.81 -169.83, 109.4 -172.25, 116.9 -175.16" stroke="#000000" stroke-width="1" fill="none"></path></g><g transform="translate(1322.1532042811612 578.0412537572251) rotate(0 57.72339085681483 -88.14500431136491)"><path d="M91.75 -183.14 C98.85 -180.74, 109.24 -177.25, 116.36 -174.64 M91.59 -183.84 C100.47 -182, 109.17 -177.72, 116.9 -175.16" stroke="#000000" stroke-width="1" fill="none"></path></g></g><g stroke-linecap="round"><g transform="translate(2300.971342561234 301.7896750631644) rotate(0 264.83459709833085 1.8391303653351088)"><path d="M0.36 0.85 C88.75 1.49, 442.31 3.11, 530.59 3.42 M-0.92 0.26 C87.32 0.61, 441.43 1.16, 529.76 1.81" stroke="#000000" stroke-width="1" fill="none"></path></g><g transform="translate(2300.971342561234 301.7896750631644) rotate(0 264.83459709833085 1.8391303653351088)"><path d="M502.95 12.35 C512.15 8.07, 519.96 3.49, 528.17 0.38 M502.05 11.11 C512.13 8.47, 522.12 3.02, 529.78 2.31" stroke="#000000" stroke-width="1" fill="none"></path></g><g transform="translate(2300.971342561234 301.7896750631644) rotate(0 264.83459709833085 1.8391303653351088)"><path d="M503.04 -8.17 C512.15 -5.93, 519.93 -4.01, 528.17 0.38 M502.13 -9.41 C512.22 -4.24, 522.18 -1.86, 529.78 2.31" stroke="#000000" stroke-width="1" fill="none"></path></g></g><g transform="translate(2467.16604653027 217.9285714285711) rotate(0 95.5 12.5)"><text x="0" y="18" font-family="Virgil, Segoe UI Emoji" font-size="20px" fill="#000000" text-anchor="start" style="white-space: pre;" direction="ltr">Vampir Witness Map</text></g><g transform="translate(1452.4517608159845 10) rotate(0 132.5 45)"><text x="132.5" y="32" font-family="Virgil, Segoe UI Emoji" font-size="36px" fill="#000000" text-anchor="middle" style="white-space: pre;" direction="ltr">Juvix -&gt; Vampir</text><text x="132.5" y="77" font-family="Virgil, Segoe UI Emoji" font-size="36px" fill="#000000" text-anchor="middle" style="white-space: pre;" direction="ltr">Compiler</text></g><g transform="translate(1768.951760815985 213.5) rotate(0 98.5 12.5)"><text x="98.5" y="18" font-family="Virgil, Segoe UI Emoji" font-size="20px" fill="#000000" text-anchor="middle" style="white-space: pre;" direction="ltr">Prover's Full Inputs</text></g><g transform="translate(1072.6581100223345 557.8293650793651) rotate(0 84 12.5)"><text x="84" y="18" font-family="Virgil, Segoe UI Emoji" font-size="20px" fill="#000000" text-anchor="middle" style="white-space: pre;" direction="ltr">Vampir Circuit IR</text></g><g stroke-linecap="round"><g transform="translate(1741.956684926749 242.46773198491996) rotate(0 139.45171741128422 1.5399387035365635)"><path d="M0.55 -0.7 C47.27 -0.19, 233.04 3.18, 279.52 3.78 M-0.61 1.54 C46.06 1.61, 232.31 1.41, 278.89 1.8" stroke="#000000" stroke-width="1" fill="none"></path></g><g transform="translate(1741.956684926749 242.46773198491996) rotate(0 139.45171741128422 1.5399387035365635)"><path d="M249.5 12.98 C257.73 10.23, 262.92 5.69, 280.21 0.59 M250.88 12.45 C258 9.41, 264.23 8.19, 279.22 1.2" stroke="#000000" stroke-width="1" fill="none"></path></g><g transform="translate(1741.956684926749 242.46773198491996) rotate(0 139.45171741128422 1.5399387035365635)"><path d="M249.56 -7.54 C257.9 -5.43, 263.07 -5.1, 280.21 0.59 M250.94 -8.07 C257.87 -6.51, 264.08 -3.12, 279.22 1.2" stroke="#000000" stroke-width="1" fill="none"></path></g></g><g stroke-linecap="round"><g transform="translate(36.41701196157442 231.31857341048772) rotate(0 699.9769416878 2.7172117559058506)"><path d="M-0.54 1.15 C233 1.92, 1167.23 4.19, 1400.5 4.72 M1.37 0.71 C234.89 1.09, 1167.19 1.95, 1399.96 2.77" stroke="#000000" stroke-width="1" fill="none"></path></g><g transform="translate(36.41701196157442 231.31857341048772) rotate(0 699.9769416878 2.7172117559058506)"><path d="M1373.67 14.27 C1378.97 9.59, 1385.02 8.24, 1400.01 1.67 M1371.82 12.62 C1379.15 10.11, 1384.75 8.48, 1399.15 3.43" stroke="#000000" stroke-width="1" fill="none"></path></g><g transform="translate(36.41701196157442 231.31857341048772) rotate(0 699.9769416878 2.7172117559058506)"><path d="M1373.71 -6.25 C1379.03 -6.05, 1385.06 -2.52, 1400.01 1.67 M1371.86 -7.9 C1378.99 -5.5, 1384.58 -2.21, 1399.15 3.43" stroke="#000000" stroke-width="1" fill="none"></path></g></g><g transform="translate(76.2930306572556 321.0158730158721) rotate(0 142 12.5)"><text x="142" y="18" font-family="Virgil, Segoe UI Emoji" font-size="20px" fill="#000000" text-anchor="middle" style="white-space: pre;" direction="ltr">Target Backend Parameters</text></g><g stroke-linecap="round"><g transform="translate(1737.1227819091423 359.03225650176955) rotate(0 546.1656812847592 0.967371972699425)"><path d="M1.16 -0.08 C183.18 0.6, 910.32 2.64, 1092.02 3.11 M0.31 -1.17 C182.27 -0.76, 909.82 0.41, 1091.56 1.29" stroke="#000000" stroke-width="1" fill="none"></path></g><g transform="translate(1737.1227819091423 359.03225650176955) rotate(0 546.1656812847592 0.967371972699425)"><path d="M1063.2 13.01 C1072.58 8.7, 1080.08 5.55, 1089.9 2.78 M1062.6 11 C1072.85 8.66, 1082.68 4.36, 1090.66 1.74" stroke="#000000" stroke-width="1" fill="none"></path></g><g transform="translate(1737.1227819091423 359.03225650176955) rotate(0 546.1656812847592 0.967371972699425)"><path d="M1063.27 -7.51 C1072.45 -5.88, 1079.95 -3.1, 1089.9 2.78 M1062.66 -9.52 C1072.98 -4.53, 1082.79 -1.49, 1090.66 1.74" stroke="#000000" stroke-width="1" fill="none"></path></g></g><g transform="translate(2451.1220095641 376.07936507936415) rotate(0 142 12.5)"><text x="142" y="18" font-family="Virgil, Segoe UI Emoji" font-size="20px" fill="#000000" text-anchor="middle" style="white-space: pre;" direction="ltr">Target Backend Parameters</text></g><g stroke-linecap="round" transform="translate(585.856522720747 337.23809523809564) rotate(0 16.25 16.25)"><path d="M9.01 1.21 C9.01 1.21, 9.01 1.21, 9.01 1.21 M9.01 1.21 C9.01 1.21, 9.01 1.21, 9.01 1.21 M4.68 11.85 C9.21 8.05, 12.15 3.61, 15.06 0.13 M4.79 12.49 C8.79 8.23, 11.13 4.32, 14.79 0.85 M2.01 22.05 C7.2 12.73, 15.62 5.9, 21.86 1.85 M2.11 22.04 C5.66 16.25, 8.92 13.82, 20.06 -0.55 M3.5 26.69 C13.23 15.52, 16.63 7.16, 23.3 0.51 M4.46 25.31 C8.61 19.03, 13.1 12.88, 23.78 2.77 M4.48 27.22 C13.63 19.74, 22.04 11.3, 28.34 4.06 M6.08 29.37 C11.74 21.18, 18.74 15.33, 27.94 4.17 M8.48 30.58 C16.64 22.86, 25.39 15.19, 28.19 6.3 M10.13 31.16 C15.85 24.71, 20.79 18.28, 29.07 8.32 M13.67 29.84 C19.65 26.46, 20.62 23.85, 30.71 13.58 M14.38 31.75 C17.98 25.92, 23.44 22.03, 32.62 12.53 M20.93 31.87 C26.55 26.68, 31.34 19.37, 34.54 14.99 M19.35 32.29 C25.02 25.6, 29.45 18.83, 34.37 16.22" stroke="#000000" stroke-width="0.5" fill="none"></path><path d="M8.81 1.44 C11.93 -0.33, 17.54 -0.85, 20.89 0.03 C24.25 0.92, 26.92 3.89, 28.95 6.73 C30.98 9.56, 33.19 13.65, 33.1 17.04 C33.01 20.43, 31.02 24.67, 28.42 27.09 C25.81 29.51, 21.19 31.31, 17.46 31.57 C13.73 31.83, 8.8 30.46, 6.05 28.63 C3.29 26.8, 1.56 23.7, 0.94 20.57 C0.31 17.45, 0.52 13.25, 2.29 9.87 C4.06 6.49, 10.05 1.88, 11.55 0.28 C13.05 -1.32, 11.34 -0.23, 11.29 0.27 M23.45 3.05 C26.88 4.4, 30.59 7.4, 32.2 10.18 C33.82 12.96, 34.18 16.24, 33.11 19.74 C32.05 23.24, 29.07 29.26, 25.82 31.2 C22.57 33.14, 17.42 32.23, 13.61 31.4 C9.8 30.57, 5.12 28.39, 2.95 26.24 C0.79 24.09, 0.53 21.78, 0.61 18.49 C0.7 15.21, 1.56 9.39, 3.46 6.5 C5.36 3.61, 8.73 1.85, 12 1.16 C15.26 0.48, 21.12 2.05, 23.05 2.39 C24.98 2.74, 23.44 3.26, 23.56 3.23" stroke="#000000" stroke-width="1" fill="none"></path></g><g stroke-linecap="round"><g transform="translate(625.0707856179977 363.7900069153809) rotate(0 63.153636019955556 98.76285324346998)"><path d="M-0.42 0.94 C5.98 4.47, 26.88 -7.79, 37.6 21.61 C48.32 51.02, 49.08 148.14, 63.87 177.35 C78.66 206.56, 116 193.91, 126.37 196.89 M1.55 0.39 C7.95 3.98, 26.88 -6.64, 37.1 22.53 C47.33 51.71, 47.97 146.75, 62.91 175.44 C77.84 204.12, 116.45 191.38, 126.73 194.64" stroke="#000000" stroke-width="1" fill="none"></path></g><g transform="translate(625.0707856179977 363.7900069153809) rotate(0 63.153636019955556 98.76285324346998)"><path d="M100 206.03 C102.91 201.78, 112.72 200.51, 127.71 194.57 M98.2 203.63 C105.09 203.23, 109.34 199.79, 127.61 195.58" stroke="#000000" stroke-width="1" fill="none"></path></g><g transform="translate(625.0707856179977 363.7900069153809) rotate(0 63.153636019955556 98.76285324346998)"><path d="M100.22 185.51 C103.15 185.96, 112.92 189.39, 127.71 194.57 M98.42 183.11 C105.16 187, 109.37 187.84, 127.61 195.58" stroke="#000000" stroke-width="1" fill="none"></path></g></g><g stroke-linecap="round"><g transform="translate(28.507090923498367 351.6140084867807) rotate(0 275.632203160374 0.11199703750048684)"><path d="M0.22 -0.85 C92.38 -1.21, 460.29 -1.25, 552.38 -1.09 M-1.12 1.33 C90.99 1.66, 459.53 0.85, 551.82 0.34" stroke="#000000" stroke-width="1" fill="none"></path></g></g><g transform="translate(111.58024635430058 254.9595205755295) rotate(0 64.5 12.5)"><text x="0" y="18" font-family="Virgil, Segoe UI Emoji" font-size="20px" fill="#000000" text-anchor="start" style="white-space: pre;" direction="ltr">Public Inputs</text></g><g stroke-linecap="round"><g transform="translate(39.03359273798549 280.7542844622076) rotate(0 700.0626305500045 2.340837834012291)"><path d="M-0.26 0.15 C233.11 1.09, 1167.07 4.91, 1400.38 5.5 M1.81 -0.82 C235.06 -0.17, 1166.95 3.04, 1399.79 3.95" stroke="#000000" stroke-width="1" fill="none"></path></g><g transform="translate(39.03359273798549 280.7542844622076) rotate(0 700.0626305500045 2.340837834012291)"><path d="M1371.81 15.22 C1382.25 10.87, 1388.12 8.07, 1399.14 3.32 M1371.28 14.77 C1378.3 11.4, 1384.54 9.13, 1400.04 2.96" stroke="#000000" stroke-width="1" fill="none"></path></g><g transform="translate(39.03359273798549 280.7542844622076) rotate(0 700.0626305500045 2.340837834012291)"><path d="M1371.88 -5.3 C1382.28 -3.21, 1388.13 0.43, 1399.14 3.32 M1371.35 -5.75 C1378.39 -4.19, 1384.61 -1.53, 1400.04 2.96" stroke="#000000" stroke-width="1" fill="none"></path></g></g><g transform="translate(1806.4322935360851 262.81445462937563) rotate(0 64.5 12.5)"><text x="64.5" y="18" font-family="Virgil, Segoe UI Emoji" font-size="20px" fill="#000000" text-anchor="middle" style="white-space: pre;" direction="ltr">Public Inputs</text></g><g stroke-linecap="round"><g transform="translate(1741.4372176468491 289.7821866142958) rotate(0 139.44138096306926 2.2274587787906057)"><path d="M0.2 0.57 C46.73 1.12, 233.7 2.9, 280.03 3.24 M-1.15 -0.18 C45.24 0.57, 232.7 4.03, 279.67 4.63" stroke="#000000" stroke-width="1" fill="none"></path></g><g transform="translate(1741.4372176468491 289.7821866142958) rotate(0 139.44138096306926 2.2274587787906057)"><path d="M252.27 16.31 C261.48 9.53, 271.06 8.87, 280.84 5.86 M251.68 15.15 C260.24 12.05, 269.59 8.48, 279.58 4.29" stroke="#000000" stroke-width="1" fill="none"></path></g><g transform="translate(1741.4372176468491 289.7821866142958) rotate(0 139.44138096306926 2.2274587787906057)"><path d="M252.6 -4.21 C261.67 -3.31, 271.12 3.72, 280.84 5.86 M252.01 -5.37 C260.32 -1.62, 269.56 1.66, 279.58 4.29" stroke="#000000" stroke-width="1" fill="none"></path></g></g></svg>