<svg version="1.1" xmlns="http://www.w3.org/2000/svg" viewBox="0 0 2736.84991672991 734.7499999999999" width="2736.84991672991" height="734.7499999999999">
  <!-- svg-source:excalidraw -->
  
  <defs>
    <style>
      @font-face {
        font-family: "Virgil";
        src: url("https://excalidraw.com/Virgil.woff2");
      }
      @font-face {
        font-family: "Cascadia";
        src: url("https://excalidraw.com/Cascadia.woff2");
      }
    </style>
  </defs>
  <g stroke-linecap="round" transform="translate(382.277584082964 68.74999999999989) rotate(0 168 328)"><path d="M15.76 26.95 C15.76 26.95, 15.76 26.95, 15.76 26.95 M15.76 26.95 C15.76 26.95, 15.76 26.95, 15.76 26.95 M8.93 40.89 C16.45 32.59, 20.36 29.22, 28.62 18.25 M8.93 40.89 C14.68 34.67, 21.8 27.63, 28.62 18.25 M6.71 49.55 C13.64 41.66, 20 31.78, 38.85 12.57 M6.71 49.55 C15.41 39.78, 22.01 30.74, 38.85 12.57 M4.48 58.22 C21.07 40.47, 37 21.92, 49.09 6.9 M4.48 58.22 C20.3 38.46, 38 20.22, 49.09 6.9 M2.9 66.12 C18.9 47.76, 32.97 32.39, 56.04 4.99 M2.9 66.12 C14.62 51.95, 24.24 39.86, 56.04 4.99 M2.64 72.52 C18.01 53.42, 36.11 34.15, 64.31 1.58 M2.64 72.52 C19.54 53.14, 37.47 34.59, 64.31 1.58 M2.38 78.92 C23.54 53.78, 45.2 28.97, 69.95 1.18 M2.38 78.92 C22.99 55.35, 43.85 31, 69.95 1.18 M2.12 85.32 C29.38 55.63, 56.83 23.01, 75.6 0.79 M2.12 85.32 C27.54 56.06, 53.71 26.52, 75.6 0.79 M1.86 91.71 C30.2 60.68, 59.93 25.96, 81.24 0.39 M1.86 91.71 C24.33 66.14, 45.64 41, 81.24 0.39 M1.59 98.11 C29.06 64.22, 59.2 31.12, 85.57 1.51 M1.59 98.11 C28.4 66.87, 55.58 35.1, 85.57 1.51 M1.99 103.76 C22.3 79.4, 44.21 58.29, 91.21 1.11 M1.99 103.76 C29.95 72.62, 56.2 40.71, 91.21 1.11 M1.73 110.15 C29.36 79.16, 56.95 44.43, 96.2 1.48 M1.73 110.15 C36.15 72.99, 69.02 33.43, 96.2 1.48 M2.12 115.8 C29.11 84.04, 57.64 53.63, 101.84 1.08 M2.12 115.8 C30.36 82.58, 60.32 50.34, 101.84 1.08 M1.86 122.19 C36.85 80.13, 77.68 36.88, 106.83 1.44 M1.86 122.19 C42.79 74.89, 85.46 26.71, 106.83 1.44 M1.6 128.59 C44.06 81.98, 83 31.87, 111.82 1.8 M1.6 128.59 C40.55 83.53, 80.97 37.28, 111.82 1.8 M1.99 134.23 C29.68 103.42, 59.56 69.47, 117.46 1.41 M1.99 134.23 C32.13 99.1, 63.44 63.46, 117.46 1.41 M1.73 140.63 C29.7 107.82, 58.93 73.7, 122.45 1.77 M1.73 140.63 C42.56 92.8, 84.13 45.06, 122.45 1.77 M2.13 146.28 C36.63 103.9, 69.62 66.64, 128.09 1.37 M2.13 146.28 C47.45 94.06, 91.7 43.76, 128.09 1.37 M1.87 152.67 C32.36 118.1, 62.22 79.82, 133.08 1.73 M1.87 152.67 C44.11 106.38, 84.31 57.94, 133.08 1.73 M1.6 159.07 C56.15 95.82, 109.49 32.62, 138.72 1.34 M1.6 159.07 C43.35 110.17, 87.6 58.88, 138.72 1.34 M2 164.71 C54.29 105.97, 104.79 44.97, 143.71 1.7 M2 164.71 C36.33 124.22, 72.53 85.01, 143.71 1.7 M1.74 171.11 C50.21 113.66, 99.72 60.81, 149.35 1.3 M1.74 171.11 C59.86 105.23, 115.92 39.12, 149.35 1.3 M2.13 176.76 C52.47 114.91, 106.41 56.39, 154.34 1.66 M2.13 176.76 C52.14 116.99, 104.32 57.19, 154.34 1.66 M1.87 183.15 C39.13 142.55, 72.75 101.04, 159.98 1.27 M1.87 183.15 C41.41 136.35, 81.85 90.4, 159.98 1.27 M1.61 189.55 C43.43 141.26, 85.37 90.59, 164.97 1.63 M1.61 189.55 C56.13 130.33, 108.6 68.59, 164.97 1.63 M2 195.19 C40.45 152.22, 76.73 110.57, 170.61 1.23 M2 195.19 C33.97 155.19, 68.78 115.62, 170.61 1.23 M1.74 201.59 C59.41 136.91, 117.28 71.65, 175.6 1.59 M1.74 201.59 C59.53 135.29, 118.1 68.49, 175.6 1.59 M2.14 207.23 C51.14 152.99, 100.48 95.42, 181.24 1.2 M2.14 207.23 C65.68 132.18, 130.98 58.02, 181.24 1.2 M1.88 213.63 C67.04 138.38, 134.54 62.17, 186.23 1.56 M1.88 213.63 C45.79 163.03, 88.63 112.56, 186.23 1.56 M1.61 220.03 C63.18 149.25, 124.42 77.13, 191.87 1.16 M1.61 220.03 C49.78 164.66, 96.53 111.15, 191.87 1.16 M2.01 225.67 C54.37 163.21, 109.17 102.08, 196.86 1.52 M2.01 225.67 C62.06 155.23, 123.82 84.24, 196.86 1.52 M1.75 232.07 C71.04 153.32, 141.11 71.05, 202.5 1.13 M1.75 232.07 C47.83 176.19, 95.18 123.03, 202.5 1.13 M2.14 237.71 C41.52 191.84, 83.09 144.4, 207.49 1.49 M2.14 237.71 C78.55 151.8, 154.88 64.29, 207.49 1.49 M1.88 244.11 C62.44 174.25, 122.88 104.08, 213.13 1.1 M1.88 244.11 C61.09 175.28, 119.81 108.36, 213.13 1.1 M1.62 250.51 C80.42 159.36, 157.36 68.3, 218.12 1.46 M1.62 250.51 C50.96 195.73, 99.8 139.04, 218.12 1.46 M2.01 256.15 C79.49 167.71, 152.47 82.92, 223.76 1.06 M2.01 256.15 C91.37 152.34, 179.03 51.03, 223.76 1.06 M1.75 262.55 C90.86 158.34, 182.42 55.69, 228.75 1.42 M1.75 262.55 C52.63 203.3, 104.35 144.12, 228.75 1.42 M2.15 268.19 C61.2 202.86, 118.52 135.98, 233.74 1.78 M2.15 268.19 C92.58 164.41, 182.44 60.47, 233.74 1.78 M1.89 274.59 C60.44 209.87, 116.98 143.82, 239.38 1.39 M1.89 274.59 C82.03 183.78, 162.08 91.35, 239.38 1.39 M1.62 280.99 C55.1 220.93, 107.34 161.95, 244.37 1.75 M1.62 280.99 C76.25 193.66, 151.41 108.15, 244.37 1.75 M2.02 286.63 C59.77 219.65, 115.88 153.42, 250.01 1.35 M2.02 286.63 C61.27 218.94, 120.72 150.48, 250.01 1.35 M1.76 293.03 C52.19 234.7, 101.5 176.49, 254.34 2.47 M1.76 293.03 C100.06 180.81, 199.18 66.93, 254.34 2.47 M2.15 298.67 C58.23 231.89, 115.07 167.48, 259.33 2.83 M2.15 298.67 C64.09 226.41, 126.69 155.3, 259.33 2.83 M1.89 305.07 C57.85 240.52, 115.27 176.48, 264.31 3.19 M1.89 305.07 C90.12 202.15, 178.18 100.01, 264.31 3.19 M1.63 311.47 C70.82 230.82, 140.29 150.72, 269.3 3.55 M1.63 311.47 C99.92 196.94, 198.39 83.54, 269.3 3.55 M2.02 317.11 C63.45 246.82, 124.55 175.97, 274.29 3.91 M2.02 317.11 C61.38 248.47, 122 179.15, 274.29 3.91 M1.76 323.51 C84.99 224.65, 170.52 128.71, 278.62 5.02 M1.76 323.51 C73.57 239.34, 146.45 155.74, 278.62 5.02 M2.16 329.15 C72.58 245.31, 144.5 163.57, 283.61 5.38 M2.16 329.15 C111.85 203.24, 219.74 77.93, 283.61 5.38 M1.89 335.55 C92.35 231.19, 182.27 127.83, 287.28 7.25 M1.89 335.55 C85.13 240.84, 168.62 143.31, 287.28 7.25 M1.63 341.95 C82.3 251.08, 162.12 159.41, 291.61 8.37 M1.63 341.95 C101.25 228.65, 200.57 113.26, 291.61 8.37 M2.03 347.59 C108.98 225.75, 216.19 102.7, 296.6 8.73 M2.03 347.59 C75.06 265.25, 147.9 182.27, 296.6 8.73 M1.77 353.99 C95.84 245.22, 190.15 136.19, 300.27 10.6 M1.77 353.99 C85.43 256.82, 169.18 160.6, 300.27 10.6 M2.16 359.63 C95.27 252.79, 188.45 144.27, 303.95 12.47 M2.16 359.63 C71.01 282.41, 138.33 205.42, 303.95 12.47 M1.9 366.03 C116.14 234.2, 230.42 102.49, 306.97 15.09 M1.9 366.03 C107.69 245.04, 213.45 122.69, 306.97 15.09 M1.64 372.43 C105.88 250.77, 210.64 132.04, 310.64 16.96 M1.64 372.43 C110.61 246.53, 219.96 120.39, 310.64 16.96 M2.03 378.07 C88.8 280.68, 174.74 180.66, 313 20.34 M2.03 378.07 C117.16 243, 233.3 109.79, 313 20.34 M1.77 384.47 C70.83 303.47, 140.78 221.52, 316.02 22.96 M1.77 384.47 C93.68 279.4, 183.96 174.71, 316.02 22.96 M2.17 390.11 C72.61 307.32, 143.55 226.68, 318.39 26.34 M2.17 390.11 C111.97 262, 222.46 135.06, 318.39 26.34 M1.9 396.51 C83.34 302.55, 164.47 209.54, 321.41 28.97 M1.9 396.51 C94.07 290.32, 186.51 184.44, 321.41 28.97 M1.64 402.91 C86.2 304.18, 170.96 205.95, 323.77 32.34 M1.64 402.91 C111.69 276.87, 220.44 150.26, 323.77 32.34 M2.04 408.55 C104.22 289.7, 206.26 172.47, 326.79 34.97 M2.04 408.55 C114.31 279.85, 227.06 150.91, 326.79 34.97 M1.78 414.95 C70.38 338.1, 136.22 260.21, 328.49 39.1 M1.78 414.95 C127.18 271.73, 252.12 127.84, 328.49 39.1 M2.17 420.59 C71.98 343.71, 138.83 265.54, 330.2 43.24 M2.17 420.59 C90.14 318.83, 177.58 218.12, 330.2 43.24 M1.91 426.99 C101.23 310.79, 200.36 196.98, 331.25 48.12 M1.91 426.99 C126.13 281.77, 251.57 137.71, 331.25 48.12 M1.65 433.39 C106.97 311.05, 213.15 190.09, 332.3 53.01 M1.65 433.39 C126.23 288.65, 251.56 143.94, 332.3 53.01 M2.04 439.03 C125.42 298.85, 247.3 156.96, 334.01 57.15 M2.04 439.03 C71.12 357.64, 142.1 276.66, 334.01 57.15 M1.78 445.43 C123.72 307.4, 246.46 167.54, 335.06 62.04 M1.78 445.43 C78.47 355.41, 155.83 265.71, 335.06 62.04 M2.18 451.07 C94.17 344.67, 185.69 240.04, 336.77 66.17 M2.18 451.07 C77.56 364.8, 151.42 278.86, 336.77 66.17 M1.91 457.47 C83.79 362.39, 166.28 266.59, 337.16 71.81 M1.91 457.47 C100.46 342.47, 199.11 228.16, 337.16 71.81 M1.65 463.87 C82.19 370.46, 163.62 277.93, 337.56 77.46 M1.65 463.87 C111.45 337.48, 221.1 210.9, 337.56 77.46 M2.05 469.51 C127.41 323.89, 253.89 178.51, 336.64 84.61 M2.05 469.51 C86.83 371.29, 172.91 272.2, 336.64 84.61 M1.79 475.91 C119.78 342.23, 235.14 207.66, 336.38 91.01 M1.79 475.91 C105.45 355.97, 210.73 235.23, 336.38 91.01 M2.18 481.55 C124.89 337.18, 250.92 193.47, 336.77 96.65 M2.18 481.55 C112.84 355.3, 222.12 229.17, 336.77 96.65 M1.92 487.95 C77.91 401.12, 152.91 313.75, 336.51 103.05 M1.92 487.95 C114.64 357.69, 228.43 226.41, 336.51 103.05 M1.66 494.35 C122.91 355.18, 244.55 216.41, 336.9 108.69 M1.66 494.35 C113.23 363.65, 225.83 234.67, 336.9 108.69 M2.05 499.99 C124.93 361.43, 244.87 221.96, 336.64 115.09 M2.05 499.99 C79.09 408.62, 157.88 318.58, 336.64 115.09 M1.79 506.39 C90.74 405.77, 178.05 303.72, 336.38 121.48 M1.79 506.39 C78.46 416.85, 155.43 328.37, 336.38 121.48 M2.19 512.03 C136.01 358.57, 267.66 206.13, 336.78 127.13 M2.19 512.03 C134.06 359.8, 265.37 209.17, 336.78 127.13 M1.92 518.43 C106.52 396.61, 211.28 276.26, 336.51 133.53 M1.92 518.43 C130.11 370.96, 258.76 222.77, 336.51 133.53 M1.66 524.83 C79.71 435.68, 156.29 346.86, 336.91 139.17 M1.66 524.83 C97.34 414.65, 192.31 305.4, 336.91 139.17 M2.06 530.47 C118.08 395.92, 235.42 261.11, 336.65 145.57 M2.06 530.47 C96.93 420.05, 193.44 308.6, 336.65 145.57 M1.8 536.87 C107.31 416.92, 209.88 298.15, 336.39 151.96 M1.8 536.87 C116.43 403.33, 231.46 270.82, 336.39 151.96 M1.53 543.26 C104.84 423.48, 208.26 304.48, 336.78 157.61 M1.53 543.26 C87.07 446.32, 171.5 349.1, 336.78 157.61 M1.93 548.91 C115.79 415.48, 230.77 284.46, 336.52 164.01 M1.93 548.91 C97.27 438.24, 192.04 328.17, 336.52 164.01 M1.67 555.3 C116.61 423.04, 230.33 292.47, 336.91 169.65 M1.67 555.3 C105.88 436.22, 209.18 318.19, 336.91 169.65 M2.06 560.95 C133.6 409.92, 264.04 260.2, 336.65 176.05 M2.06 560.95 C132.56 412.9, 261.09 264.9, 336.65 176.05 M1.8 567.35 C98.03 456.18, 194.87 344.3, 336.39 182.44 M1.8 567.35 C105.06 449.88, 207.7 332.2, 336.39 182.44 M1.54 573.74 C124.34 431.69, 246.1 291.75, 336.79 188.09 M1.54 573.74 C131.8 421.65, 263.46 269.99, 336.79 188.09 M1.93 579.39 C76.29 496.95, 147.88 414.26, 336.52 194.48 M1.93 579.39 C74.85 493.83, 148.65 409.09, 336.52 194.48 M2.33 585.03 C117.22 455.69, 230.74 323.16, 336.26 200.88 M2.33 585.03 C79.03 497.75, 155.35 410.19, 336.26 200.88 M1.41 592.18 C96.97 485.9, 189.51 377.41, 336.66 206.53 M1.41 592.18 C81.62 498.1, 163.16 404.34, 336.66 206.53 M2.46 597.07 C83 505.54, 163.25 413.82, 336.4 212.92 M2.46 597.07 C96.24 489.72, 191.23 380.8, 336.4 212.92 M3.51 601.96 C84.7 508.52, 163.81 416.9, 336.79 218.57 M3.51 601.96 C96.89 492.49, 191.72 383.11, 336.79 218.57 M5.22 606.09 C118.3 477.6, 230.28 348.57, 336.53 224.96 M5.22 606.09 C109.32 485.77, 213.56 366.35, 336.53 224.96 M6.93 610.23 C128.75 470.57, 251.6 330.58, 336.27 231.36 M6.93 610.23 C98.1 503.17, 191.13 397.04, 336.27 231.36 M8.63 614.36 C132.21 474.07, 255.08 332.24, 336.66 237.01 M8.63 614.36 C125.79 480.61, 241.84 347.04, 336.66 237.01 M11 617.74 C120.94 489.61, 232.26 361.73, 336.4 243.4 M11 617.74 C101.89 511.39, 194.27 405.85, 336.4 243.4 M12.7 621.87 C88.84 532.82, 165.16 444.94, 336.79 249.05 M12.7 621.87 C77.55 546.1, 143.23 470.65, 336.79 249.05 M15.06 625.25 C121.17 501.45, 229.27 378.85, 336.53 255.44 M15.06 625.25 C131.43 490.64, 248.29 356.1, 336.53 255.44 M16.77 629.39 C100.22 533.81, 184.73 436.29, 336.27 261.84 M16.77 629.39 C122.32 505.54, 228.71 382.38, 336.27 261.84 M19.13 632.76 C122.86 512.22, 227.94 390.68, 336.67 267.48 M19.13 632.76 C119.89 514.66, 221.5 397.9, 336.67 267.48 M22.15 635.39 C134.16 503.61, 246.91 374.75, 336.41 273.88 M22.15 635.39 C144.63 495.49, 266.48 355.92, 336.41 273.88 M25.17 638.01 C92.5 560.39, 161.17 481.68, 336.8 279.53 M25.17 638.01 C138.01 507.5, 251.83 376.89, 336.8 279.53 M27.53 641.39 C112.39 545, 197.17 449.65, 336.54 285.92 M27.53 641.39 C110.51 543.3, 194.68 446.82, 336.54 285.92 M31.21 643.26 C121.34 541.39, 210.25 438.64, 336.28 292.32 M31.21 643.26 C102.16 563.32, 171.99 482.17, 336.28 292.32 M34.88 645.13 C128.32 537, 221.55 429.66, 336.67 297.96 M34.88 645.13 C117.66 549.53, 200.47 453.62, 336.67 297.96 M38.56 647 C140.46 528.96, 243.35 409.91, 336.41 304.36 M38.56 647 C120.43 551.98, 202.77 457, 336.41 304.36 M42.23 648.87 C109.38 566.86, 179.2 486.96, 336.8 310 M42.23 648.87 C145.1 530.66, 247.36 413.3, 336.8 310 M45.91 650.74 C157.7 523.97, 268.47 396.49, 336.54 316.4 M45.91 650.74 C152.69 526.62, 260.24 402.31, 336.54 316.4 M49.58 652.61 C152.44 532, 258.06 410.5, 336.28 322.8 M49.58 652.61 C109.27 584.26, 170.02 515.42, 336.28 322.8 M53.91 653.72 C139 553.59, 225.63 453.85, 336.68 328.44 M53.91 653.72 C115.95 581.73, 177.8 511.19, 336.68 328.44 M58.25 654.84 C134.38 567.76, 211.93 481.91, 336.41 334.84 M58.25 654.84 C130.65 571.08, 202.15 489.05, 336.41 334.84 M62.58 655.95 C128.23 580.9, 191.9 507.18, 336.81 340.48 M62.58 655.95 C122.28 584.02, 184.1 513.45, 336.81 340.48 M66.91 657.07 C144.14 570.07, 220.06 482.58, 336.55 346.88 M66.91 657.07 C135.64 580.47, 203.84 501.9, 336.55 346.88 M71.89 657.43 C171.75 541.83, 272.41 427.7, 336.29 353.28 M71.89 657.43 C133.87 585.98, 195.07 514.7, 336.29 353.28 M76.88 657.79 C172.64 546.8, 269.74 436.31, 336.68 358.92 M76.88 657.79 C137.31 589.5, 196.03 520.37, 336.68 358.92 M81.87 658.15 C174 552.97, 263.32 449.39, 336.42 365.32 M81.87 658.15 C181.92 540.57, 282.98 423.92, 336.42 365.32 M86.86 658.51 C158.17 577.87, 228.35 495.66, 336.16 371.72 M86.86 658.51 C185.58 544.89, 283.05 432.26, 336.16 371.72 M91.84 658.87 C166.49 575.8, 238.95 490.41, 336.55 377.36 M91.84 658.87 C162.39 576.52, 234.58 494.12, 336.55 377.36 M97.49 658.47 C192.95 549.18, 288.65 438.58, 336.29 383.76 M97.49 658.47 C148.98 597.61, 200.86 538.45, 336.29 383.76 M102.47 658.83 C182.52 570.57, 259.32 480.16, 336.69 389.4 M102.47 658.83 C156.48 598.31, 207.71 538.74, 336.69 389.4 M108.12 658.44 C169.4 587.27, 230.98 516.01, 336.42 395.8 M108.12 658.44 C187 569.88, 265.45 479.29, 336.42 395.8 M113.1 658.8 C181.45 580.99, 248.34 504.48, 336.16 402.2 M113.1 658.8 C177.99 581.98, 243.51 506.14, 336.16 402.2 M118.75 658.4 C182.45 584.71, 245.27 511.68, 336.56 407.84 M118.75 658.4 C184.27 585.86, 246.37 512.28, 336.56 407.84 M123.73 658.76 C170.81 603.68, 218.07 549.05, 336.3 414.24 M123.73 658.76 C199.58 572.89, 274.25 486.45, 336.3 414.24 M129.38 658.37 C174.59 605.69, 217.77 554.92, 336.69 419.88 M129.38 658.37 C200.99 575.63, 272 494.86, 336.69 419.88 M134.36 658.73 C189.23 597.42, 243.02 535.29, 336.43 426.28 M134.36 658.73 C186.12 598.34, 236.48 539.25, 336.43 426.28 M140.01 658.34 C190.12 597.33, 241.24 538.32, 336.17 432.68 M140.01 658.34 C189.55 601.12, 240.08 544.28, 336.17 432.68 M144.99 658.7 C214.35 576.95, 284.81 496.63, 336.56 438.32 M144.99 658.7 C217.17 574.8, 290.62 491.17, 336.56 438.32 M150.64 658.3 C223.57 575.75, 295.5 491.88, 336.3 444.72 M150.64 658.3 C217.38 582.79, 283.25 506.87, 336.3 444.72 M155.62 658.66 C224.92 581.12, 292.86 499.99, 336.7 450.36 M155.62 658.66 C212.4 593.25, 270.19 526.64, 336.7 450.36 M161.27 658.27 C197.9 616.88, 237.32 574.87, 336.43 456.76 M161.27 658.27 C203.13 611.47, 245.17 562.71, 336.43 456.76 M166.25 658.63 C226.46 590.4, 286.53 519.87, 336.17 463.16 M166.25 658.63 C199.7 619.66, 234.65 580.39, 336.17 463.16 M171.9 658.23 C220.59 601.57, 271.31 543.48, 336.57 468.8 M171.9 658.23 C215 607.9, 258.82 557.45, 336.57 468.8 M176.88 658.59 C219.62 609.5, 262.74 556.61, 336.31 475.2 M176.88 658.59 C235.05 593.52, 291.78 528.18, 336.31 475.2 M182.53 658.2 C225.92 605.28, 270.78 557.44, 336.7 480.84 M182.53 658.2 C227.32 608.7, 271.4 557.4, 336.7 480.84 M187.51 658.56 C231.97 608.66, 272.46 560.17, 336.44 487.24 M187.51 658.56 C227.46 615.37, 264.9 570.93, 336.44 487.24 M193.16 658.16 C245.15 599.81, 297.48 541.1, 336.18 493.64 M193.16 658.16 C233.6 608.91, 276.03 560.86, 336.18 493.64 M198.14 658.52 C236.93 613.64, 274.12 571.95, 336.57 499.28 M198.14 658.52 C249.69 600.91, 300.88 542.14, 336.57 499.28 M203.79 658.13 C246.92 605.32, 293.25 552.2, 336.31 505.68 M203.79 658.13 C255.57 600.4, 303.81 543.16, 336.31 505.68 M208.77 658.49 C248.1 613.12, 286.64 567.03, 336.71 511.32 M208.77 658.49 C246.96 613.25, 284.92 569.96, 336.71 511.32 M213.76 658.85 C241.81 623.49, 269.47 592.28, 336.44 517.72 M213.76 658.85 C260.53 604.58, 305.63 551.88, 336.44 517.72 M219.4 658.45 C266.18 608.92, 311.62 554.9, 336.18 524.12 M219.4 658.45 C249.39 622.98, 278.5 588.27, 336.18 524.12 M224.39 658.81 C255.75 621.75, 288.44 584.83, 336.58 529.76 M224.39 658.81 C247.78 631.95, 271.61 606.09, 336.58 529.76 M230.03 658.42 C259.34 625.09, 289.79 591.51, 336.32 536.16 M230.03 658.42 C251.4 633.38, 273.63 609.47, 336.32 536.16 M235.02 658.78 C263.49 625.06, 293.35 590.85, 336.05 542.55 M235.02 658.78 C272.62 615.99, 309.58 571.88, 336.05 542.55 M240.66 658.39 C265.17 630.15, 291.06 600.77, 336.45 548.2 M240.66 658.39 C268.17 625.42, 294.6 594.67, 336.45 548.2 M245.65 658.75 C271.9 625.89, 302.34 595.29, 336.19 554.6 M245.65 658.75 C265.03 635.41, 283.83 613.55, 336.19 554.6 M252.61 656.84 C275.87 631.34, 296.87 607.32, 336.58 560.24 M252.61 656.84 C285.21 617.84, 317.54 579.84, 336.58 560.24 M258.25 656.45 C284.06 623.52, 313.5 595.25, 336.32 566.64 M258.25 656.45 C280.39 631.83, 300.29 608.05, 336.32 566.64 M263.89 656.05 C281.54 633.67, 302.5 611.72, 336.06 573.03 M263.89 656.05 C279.95 637.81, 294.07 620.91, 336.06 573.03 M269.54 655.66 C287.86 632.7, 308.39 613.84, 336.45 578.68 M269.54 655.66 C292.07 628.87, 315.78 604.13, 336.45 578.68 M273.87 656.77 C290.32 634.8, 309.06 615.25, 337.5 583.57 M273.87 656.77 C299.82 628.87, 324.95 598.41, 337.5 583.57 M280.82 654.87 C299.07 636.05, 315.82 615.07, 336.59 590.72 M280.82 654.87 C302.54 630.52, 324.34 604.24, 336.59 590.72 M289.09 651.46 C296.85 638.96, 309.66 629.69, 333.04 600.89 M289.09 651.46 C305.71 633.22, 319.51 616.43, 333.04 600.89 M299.32 645.78 C308.92 634.26, 317.37 624.13, 328.85 611.82 M299.32 645.78 C307.45 636.22, 315.5 627.11, 328.85 611.82" stroke="#be4bdb" stroke-width="0.5" fill="none"></path><path d="M84 0 M84 0 C146.49 0.57, 209.33 1.1, 252 0 M84 0 C127.16 0.92, 170.65 0.26, 252 0 M252 0 C309.02 -1.66, 335.74 28.73, 336 84 M252 0 C309.52 0.34, 335.02 29.57, 336 84 M336 84 C334.55 190.34, 335.6 296.6, 336 572 M336 84 C336.9 198.66, 336.47 312.65, 336 572 M336 572 C336.54 629.39, 308.39 656.97, 252 656 M336 572 C338.18 627.17, 307.36 658.23, 252 656 M252 656 C209.84 656.82, 167.83 655.39, 84 656 M252 656 C194.78 655.2, 136.79 655.65, 84 656 M84 656 C27.17 657.26, -0.25 626.91, 0 572 M84 656 C26.13 657.57, -0.31 627.11, 0 572 M0 572 C2.07 470.8, 1.93 369.82, 0 84 M0 572 C0.01 429.34, 0.3 285.92, 0 84 M0 84 C0.23 28.25, 28.74 -0.71, 84 0 M0 84 C1.97 28.33, 29.67 0.56, 84 0" stroke="#000000" stroke-width="1" fill="none"></path></g><g transform="translate(387.277584082964 351.7499999999999) rotate(0 163 45)"><text x="163" y="32" font-family="Virgil, Segoe UI Emoji" font-size="36px" fill="#000000" text-anchor="middle" style="white-space: pre;" direction="ltr">Juvix -&gt; Vampir</text><text x="163" y="77" font-family="Virgil, Segoe UI Emoji" font-size="36px" fill="#000000" text-anchor="middle" style="white-space: pre;" direction="ltr">Compiler</text></g><g stroke-linecap="round" transform="translate(1159.6109174162978 47.666666666666515) rotate(0 239.5 338.5)"><path d="M22.63 38.22 C22.63 38.22, 22.63 38.22, 22.63 38.22 M22.63 38.22 C22.63 38.22, 22.63 38.22, 22.63 38.22 M11.87 56.7 C17.14 48.61, 23.36 42.41, 40.08 24.24 M11.87 56.7 C21.8 45.31, 32.17 32.71, 40.08 24.24 M7.67 67.62 C20.23 52.34, 31.94 37, 50.97 17.81 M7.67 67.62 C22.07 51.37, 38.11 33.4, 50.97 17.81 M6.1 75.53 C18.8 60.31, 29.44 46.61, 59.24 14.4 M6.1 75.53 C27.64 51.51, 47.18 28.67, 59.24 14.4 M3.87 84.19 C24.35 62.7, 40.97 39.96, 66.85 11.74 M3.87 84.19 C18.32 67.54, 33.66 49.98, 66.85 11.74 M2.3 92.1 C27.03 65.43, 53.94 35.77, 74.46 9.08 M2.3 92.1 C26.07 66.73, 49.24 39.77, 74.46 9.08 M2.04 98.5 C26.11 72.45, 49.28 45.51, 82.08 6.42 M2.04 98.5 C34.85 60.49, 65.81 24.79, 82.08 6.42 M1.12 105.65 C24.56 80.65, 45.35 52.71, 88.37 5.27 M1.12 105.65 C23.24 82.14, 43.58 57.4, 88.37 5.27 M0.86 112.05 C35.17 74.44, 68.52 32.43, 94.67 4.12 M0.86 112.05 C27.11 81.94, 52.92 52.18, 94.67 4.12 M0.6 118.44 C29.6 84.99, 58.02 53.74, 100.32 3.73 M0.6 118.44 C29.98 81.83, 62.38 47.28, 100.32 3.73 M2.96 121.82 C32.54 86.29, 65.52 47.91, 105.96 3.33 M2.96 121.82 C34.85 84.86, 64.97 49.5, 105.96 3.33 M2.7 128.22 C27.98 98.88, 49.19 75.26, 111.6 2.94 M2.7 128.22 C38.59 85.77, 74.66 44.9, 111.6 2.94 M2.44 134.62 C49.37 84.39, 91.33 32.77, 117.25 2.54 M2.44 134.62 C45.83 84.71, 87.87 36.47, 117.25 2.54 M2.83 140.26 C35.07 104.68, 70.07 64.92, 122.89 2.15 M2.83 140.26 C28.09 110.86, 56.01 81.76, 122.89 2.15 M2.57 146.66 C34.29 108.58, 64.64 72.06, 127.88 2.51 M2.57 146.66 C43 100.37, 85.3 53.48, 127.88 2.51 M2.96 152.3 C51.4 95.66, 100.45 38.67, 133.52 2.12 M2.96 152.3 C43.89 104.76, 83.76 59.36, 133.52 2.12 M2.7 158.7 C53.3 99.34, 106.29 39.24, 138.51 2.48 M2.7 158.7 C46.54 108.02, 89.38 58.11, 138.51 2.48 M2.44 165.1 C38.45 126.13, 69.99 85.65, 143.49 2.84 M2.44 165.1 C37.62 124.12, 73.23 82.67, 143.49 2.84 M2.84 170.74 C59.67 105.8, 116.38 40.46, 149.14 2.44 M2.84 170.74 C40.95 128.49, 78.15 85.15, 149.14 2.44 M2.57 177.14 C45.62 128.03, 89.01 79.21, 154.12 2.8 M2.57 177.14 C54 119.94, 103.07 62.67, 154.12 2.8 M2.97 182.78 C62.76 114.06, 124.32 44.44, 159.77 2.41 M2.97 182.78 C50.03 130.19, 96.58 75.74, 159.77 2.41 M2.71 189.18 C59.18 122.99, 115.07 59.7, 164.75 2.77 M2.71 189.18 C56.78 125.71, 110.69 61.42, 164.75 2.77 M2.45 195.58 C35.41 155.43, 70.87 115.74, 170.4 2.37 M2.45 195.58 C68.25 119.41, 135.29 42.19, 170.4 2.37 M2.84 201.22 C64.65 130.98, 125.51 61.13, 175.38 2.73 M2.84 201.22 C55.26 142.47, 105.48 82.76, 175.38 2.73 M2.58 207.62 C63.34 135.65, 128.56 61.5, 181.03 2.34 M2.58 207.62 C69.78 132.68, 135.49 58.34, 181.03 2.34 M2.97 213.26 C52.5 159.45, 99.66 104.66, 186.01 2.7 M2.97 213.26 C66.43 140.51, 129.26 68.14, 186.01 2.7 M2.71 219.66 C54.1 158.56, 108.68 99.34, 191.66 2.3 M2.71 219.66 C77.63 132.12, 152.11 46.35, 191.66 2.3 M2.45 226.06 C61.58 160.09, 117.89 94.38, 196.64 2.66 M2.45 226.06 C46.13 172.17, 92.41 121.56, 196.64 2.66 M2.85 231.7 C59.11 162.03, 119.28 96.69, 202.29 2.27 M2.85 231.7 C69.77 156.24, 137.12 79.16, 202.29 2.27 M2.58 238.1 C67.08 164.9, 131.29 90.95, 207.27 2.63 M2.58 238.1 C53.09 179.89, 102.83 122.42, 207.27 2.63 M2.98 243.74 C57.96 180.01, 112.3 117.01, 212.92 2.23 M2.98 243.74 C48.39 192.64, 92.4 142.44, 212.92 2.23 M2.72 250.14 C61.89 184.03, 118.68 117.85, 217.9 2.59 M2.72 250.14 C63.38 180.65, 124.06 111.49, 217.9 2.59 M2.46 256.54 C67.01 180.87, 134.73 103.39, 223.55 2.2 M2.46 256.54 C72.4 173.51, 143.59 91.84, 223.55 2.2 M2.85 262.18 C75.56 179.66, 147.38 97.67, 228.53 2.56 M2.85 262.18 C82.22 169.67, 161.75 79.54, 228.53 2.56 M2.59 268.58 C69.68 194.85, 133.86 118.55, 234.18 2.17 M2.59 268.58 C78.77 179.8, 156.79 90.84, 234.18 2.17 M2.98 274.22 C77.97 187.27, 155.61 99.72, 239.16 2.53 M2.98 274.22 C75.78 192.52, 148.2 110.02, 239.16 2.53 M2.72 280.62 C82.48 186.43, 162.48 92.08, 244.81 2.13 M2.72 280.62 C94.91 172.98, 187.88 66.34, 244.81 2.13 M2.46 287.02 C87.63 186.43, 174.91 86.25, 249.79 2.49 M2.46 287.02 C76.08 203.01, 149.01 118.95, 249.79 2.49 M2.85 292.66 C89.55 194.83, 175.2 94.67, 254.78 2.85 M2.85 292.66 C96.52 183.72, 192.51 73.5, 254.78 2.85 M2.59 299.06 C99.4 186.99, 197.63 76.03, 260.42 2.46 M2.59 299.06 C79.22 209.86, 157.88 120.22, 260.42 2.46 M2.99 304.7 C64.58 231.23, 126.05 160.15, 265.41 2.82 M2.99 304.7 C80.36 215.63, 158.14 127.23, 265.41 2.82 M2.73 311.1 C105.99 194, 204.54 78.12, 271.05 2.42 M2.73 311.1 C66.01 239.54, 128.22 167.88, 271.05 2.42 M2.47 317.5 C91.35 216.35, 177.02 117.71, 276.04 2.78 M2.47 317.5 C80.09 229.41, 156.86 140.49, 276.04 2.78 M2.86 323.14 C67.21 251.58, 131.04 177.86, 281.68 2.39 M2.86 323.14 C114.91 194.09, 226.46 66.13, 281.68 2.39 M2.6 329.54 C94.12 222.83, 186.94 115.96, 286.67 2.75 M2.6 329.54 C104.91 212.76, 205.66 96.42, 286.67 2.75 M2.99 335.18 C67.43 260.69, 132.92 186.59, 292.31 2.35 M2.99 335.18 C72.79 254.02, 143.46 172.35, 292.31 2.35 M2.73 341.58 C111.61 216.81, 218.76 95.04, 297.3 2.71 M2.73 341.58 C91.98 237.94, 183.2 134.25, 297.3 2.71 M2.47 347.98 C107.84 226.33, 212.98 105.91, 302.94 2.32 M2.47 347.98 C74.07 267.58, 143.57 187.42, 302.94 2.32 M2.86 353.62 C118.41 218.03, 236.76 81.41, 307.93 2.68 M2.86 353.62 C122.89 215.38, 242.43 77.73, 307.93 2.68 M2.6 360.02 C64.96 286.93, 126.97 214, 313.58 2.28 M2.6 360.02 C108.03 237.14, 215.15 114.56, 313.58 2.28 M3 365.66 C97.19 256.38, 192.8 146.21, 318.56 2.64 M3 365.66 C79.43 277.91, 156.56 189.82, 318.56 2.64 M2.74 372.06 C94.07 267.34, 186.38 162.16, 324.21 2.25 M2.74 372.06 C123.26 232.34, 244.41 93.73, 324.21 2.25 M2.47 378.45 C94.92 270.5, 185.87 165.1, 329.19 2.61 M2.47 378.45 C119.17 243.38, 236.6 109.43, 329.19 2.61 M2.87 384.1 C102.61 270.68, 202.57 154.94, 334.84 2.21 M2.87 384.1 C88.2 284.9, 172.77 187.84, 334.84 2.21 M2.61 390.5 C84.95 297.18, 165.89 202.46, 339.82 2.58 M2.61 390.5 C72.7 309.66, 141.64 229.97, 339.82 2.58 M3 396.14 C89.43 295.48, 176.94 195.08, 345.47 2.18 M3 396.14 C112.09 268.4, 223.06 141.47, 345.47 2.18 M2.74 402.54 C125.55 260.28, 249.92 117.79, 350.45 2.54 M2.74 402.54 C116.1 272.85, 229.85 143.11, 350.45 2.54 M2.48 408.93 C132.55 258.24, 262.35 108.57, 356.1 2.15 M2.48 408.93 C88.31 310.38, 173.16 212.08, 356.1 2.15 M2.87 414.58 C129.95 269.45, 257.52 122.18, 361.74 1.75 M2.87 414.58 C87.02 321.31, 169.33 226.02, 361.74 1.75 M2.61 420.98 C132.31 270.58, 261.79 120.96, 366.73 2.11 M2.61 420.98 C108.63 297.81, 215.92 174.67, 366.73 2.11 M3.01 426.62 C84.47 331.1, 165.64 236.39, 371.71 2.47 M3.01 426.62 C111.79 301.13, 220.88 175.03, 371.71 2.47 M2.75 433.02 C130.91 282.93, 259.83 134.26, 376.7 2.83 M2.75 433.02 C108.52 312.84, 214.44 191.7, 376.7 2.83 M2.48 439.41 C115.24 309.4, 227.54 180.63, 381.69 3.19 M2.48 439.41 C107.35 318.42, 213.32 195.91, 381.69 3.19 M2.88 445.06 C143.56 285.26, 282.83 125.84, 387.99 2.04 M2.88 445.06 C91.83 340.95, 180.66 238.42, 387.99 2.04 M2.62 451.45 C148.72 285.93, 293.93 120.48, 392.32 3.16 M2.62 451.45 C156.9 273.94, 312.63 94.79, 392.32 3.16 M3.01 457.1 C96.45 348.08, 189.82 238.82, 396.65 4.27 M3.01 457.1 C114.65 326.92, 226.7 197.65, 396.65 4.27 M2.75 463.5 C160.57 282.62, 317.03 103.25, 400.98 5.39 M2.75 463.5 C101.39 351.72, 199.63 238.86, 400.98 5.39 M2.49 469.89 C126.48 325.94, 253.09 180.63, 405.31 6.5 M2.49 469.89 C86.3 372.07, 169.85 275.52, 405.31 6.5 M2.88 475.54 C149.92 305.98, 298.85 134.44, 409.64 7.62 M2.88 475.54 C118.82 342.16, 233.55 209.9, 409.64 7.62 M2.62 481.93 C136.98 325.42, 273.01 169.92, 413.32 9.49 M2.62 481.93 C118.08 346.34, 234.74 213.06, 413.32 9.49 M3.02 487.58 C102.8 371, 205.23 254.02, 417.65 10.6 M3.02 487.58 C143.9 324.96, 285.58 163.14, 417.65 10.6 M2.76 493.98 C143.87 332.45, 283.74 170.31, 421.32 12.47 M2.76 493.98 C92.71 389.78, 183.41 285.66, 421.32 12.47 M2.49 500.37 C104.46 381.29, 207.63 261.68, 425 14.34 M2.49 500.37 C138.8 344.62, 275.12 187.78, 425 14.34 M2.89 506.02 C165.36 320.89, 325.81 135.14, 428.67 16.21 M2.89 506.02 C101.27 389.95, 200.88 276.07, 428.67 16.21 M2.63 512.41 C143.67 348.22, 286.07 184.43, 432.35 18.08 M2.63 512.41 C131.35 363.61, 261.31 214.47, 432.35 18.08 M3.02 518.06 C98.93 408.46, 194.2 299.1, 435.36 20.7 M3.02 518.06 C165.34 329.8, 329.41 141.59, 435.36 20.7 M2.76 524.45 C143.78 358.87, 285.41 196.38, 439.04 22.57 M2.76 524.45 C97.31 413.56, 193.99 302.67, 439.04 22.57 M2.5 530.85 C98.21 420.24, 195.94 309.22, 442.71 24.44 M2.5 530.85 C97.8 421.51, 193.7 312.24, 442.71 24.44 M2.89 536.5 C93.33 431.61, 184.13 328.14, 445.73 27.07 M2.89 536.5 C177.53 334.81, 351.83 134.1, 445.73 27.07 M2.63 542.89 C111.2 419.14, 219.65 295.12, 448.75 29.69 M2.63 542.89 C152.42 368.86, 303.2 196.92, 448.75 29.69 M3.03 548.54 C179.92 344.06, 357.55 139.58, 451.11 33.07 M3.03 548.54 C95.72 442.53, 187.25 337.57, 451.11 33.07 M0.14 557.95 C161.93 370.36, 325.2 183.04, 454.13 35.69 M0.14 557.95 C112.01 431.04, 221.25 304.36, 454.13 35.69 M0.54 563.6 C133.5 411.33, 266.3 259.61, 457.15 38.32 M0.54 563.6 C94.81 454.44, 187.56 346.83, 457.15 38.32 M0.93 569.24 C158.15 388.82, 315.76 206.72, 458.86 42.45 M0.93 569.24 C121.01 431.36, 240.74 293.17, 458.86 42.45 M1.32 574.88 C151.28 406.58, 298.46 235.13, 461.22 45.83 M1.32 574.88 C100.75 457.43, 202.4 340.84, 461.22 45.83 M1.72 580.53 C177.36 378.71, 352.9 177.34, 463.58 49.21 M1.72 580.53 C113.97 452.41, 225.27 324.55, 463.58 49.21 M2.11 586.17 C134.96 432.69, 269.51 278.91, 465.29 53.34 M2.11 586.17 C116.88 456.08, 231.43 323.89, 465.29 53.34 M3.16 591.06 C164.77 406.05, 327.82 218.55, 467.65 56.72 M3.16 591.06 C119.75 458.68, 234.74 326.41, 467.65 56.72 M4.22 595.95 C116.2 466.28, 228.59 337.46, 469.36 60.86 M4.22 595.95 C165.63 410.02, 327.99 223.26, 469.36 60.86 M5.92 600.08 C164.54 418.09, 324.58 233.42, 470.41 65.74 M5.92 600.08 C130.01 456.67, 255.54 312.07, 470.41 65.74 M7.63 604.21 C185.24 399.18, 363.62 195.8, 472.12 69.88 M7.63 604.21 C175.57 412.26, 343.86 219.42, 472.12 69.88 M9.34 608.35 C174.02 418.46, 338.9 229.42, 473.17 74.77 M9.34 608.35 C157.97 440.97, 304.25 272.77, 473.17 74.77 M10.39 613.23 C180.58 415.04, 351.68 218.19, 474.88 78.9 M10.39 613.23 C192.01 405.17, 372.57 197.21, 474.88 78.9 M12.09 617.37 C188 412.07, 366.13 207.92, 477.89 81.52 M12.09 617.37 C155.29 450.51, 301.32 283.38, 477.89 81.52 M13.14 622.26 C114.98 506.11, 217.3 387.64, 478.95 86.41 M13.14 622.26 C159.06 458.03, 303.12 292.73, 478.95 86.41 M15.51 625.64 C167.53 452.23, 319.4 277.6, 478.68 92.81 M15.51 625.64 C113.28 515, 210.9 402.92, 478.68 92.81 M17.87 629.01 C199.52 417.34, 383.87 206.33, 479.08 98.45 M17.87 629.01 C141.16 485.97, 264.35 343.45, 479.08 98.45 M20.23 632.39 C160.64 470.85, 299.15 312.1, 479.47 104.1 M20.23 632.39 C146.37 487.53, 272.98 342.27, 479.47 104.1 M21.94 636.53 C172.33 462.96, 322.26 291.15, 479.87 109.74 M21.94 636.53 C195.78 435.5, 369.58 234.76, 479.87 109.74 M24.3 639.91 C167.39 474.52, 310.39 307.59, 480.26 115.38 M24.3 639.91 C204.37 431.83, 386.47 222.9, 480.26 115.38 M26.66 643.28 C156.73 491.81, 288.14 341.21, 480.66 121.03 M26.66 643.28 C134.65 520.86, 241.16 398.65, 480.66 121.03 M29.68 645.91 C204.97 443.57, 380.01 243.65, 480.4 127.42 M29.68 645.91 C205.92 444.83, 381.77 242.22, 480.4 127.42 M32.7 648.53 C173.29 489.91, 313.28 329.56, 480.79 133.07 M32.7 648.53 C205.42 449.06, 379.16 249.14, 480.79 133.07 M35.72 651.16 C140.41 529.6, 247.17 405.94, 480.53 139.46 M35.72 651.16 C161.48 509.33, 286.31 365.93, 480.53 139.46 M38.08 654.54 C160.99 509.93, 286.39 365.41, 480.27 145.86 M38.08 654.54 C154.99 517.5, 272.9 381.36, 480.27 145.86 M41.76 656.41 C215.63 455.6, 391.47 254.26, 480.66 151.51 M41.76 656.41 C137.2 548.04, 231.68 439.34, 480.66 151.51 M45.43 658.28 C154.37 536.68, 260.56 415.71, 480.4 157.9 M45.43 658.28 C162.22 524.14, 279.66 388.75, 480.4 157.9 M48.45 660.9 C175.99 512.35, 303.68 365.75, 480.79 163.55 M48.45 660.9 C208.76 477.31, 368.75 293.34, 480.79 163.55 M52.13 662.77 C178.63 515.68, 303.98 372.17, 480.53 169.94 M52.13 662.77 C165.34 531.24, 279.01 401.66, 480.53 169.94 M55.8 664.64 C210.61 484.53, 366.63 304.64, 480.27 176.34 M55.8 664.64 C154.06 551.58, 252.04 438.85, 480.27 176.34 M58.82 667.26 C176.26 529.54, 294.96 393.21, 480.67 181.98 M58.82 667.26 C182.17 525.26, 304.13 384.61, 480.67 181.98 M62.5 669.13 C211.89 499.11, 361.21 329.59, 480.41 188.38 M62.5 669.13 C193.12 517.81, 324.13 366.19, 480.41 188.38 M67.48 669.49 C194.66 521.1, 324 372.19, 480.8 194.03 M67.48 669.49 C174.4 547.42, 279.45 426.6, 480.8 194.03 M71.81 670.61 C154.14 573.27, 237.67 477.4, 480.54 200.42 M71.81 670.61 C172.29 555.24, 273.31 439.28, 480.54 200.42 M76.14 671.72 C178.46 556.92, 278.28 442.01, 480.28 206.82 M76.14 671.72 C170.65 561.07, 266.28 450.62, 480.28 206.82 M80.48 672.84 C224.82 504.92, 370.35 337.99, 480.67 212.46 M80.48 672.84 C193.27 542.06, 306.83 411.6, 480.67 212.46 M84.81 673.95 C165.54 579.39, 245.07 487.08, 480.41 218.86 M84.81 673.95 C237.98 497.38, 391.17 321.77, 480.41 218.86 M89.79 674.31 C203.8 543.22, 317.06 413.1, 480.15 225.26 M89.79 674.31 C244.85 495.45, 399.42 318.79, 480.15 225.26 M93.47 676.18 C188.14 566.24, 285.09 456.21, 480.54 230.9 M93.47 676.18 C181.27 576.64, 267.8 476.81, 480.54 230.9 M98.46 676.54 C227.7 524.47, 358.43 375.15, 480.28 237.3 M98.46 676.54 C239.44 513.11, 381.93 349.64, 480.28 237.3 M103.44 676.9 C219.29 545.2, 335.48 413.22, 480.68 242.94 M103.44 676.9 C229.37 530.23, 356.85 383.6, 480.68 242.94 M108.43 677.26 C213.15 557.72, 318.24 437.01, 480.41 249.34 M108.43 677.26 C230.64 534.89, 353.26 393.43, 480.41 249.34 M113.42 677.62 C207.79 569.27, 301.7 461.46, 480.15 255.74 M113.42 677.62 C218.77 554.6, 324.17 432.17, 480.15 255.74 M118.4 677.98 C259.14 517.57, 398.47 356.99, 480.55 261.38 M118.4 677.98 C191.67 596.12, 264.33 511.94, 480.55 261.38 M122.73 679.1 C207.36 583.89, 289.98 488.02, 480.29 267.78 M122.73 679.1 C234.43 551.96, 344.7 424.58, 480.29 267.78 M127.72 679.46 C240.58 551.31, 352.97 421.69, 480.68 273.42 M127.72 679.46 C210.14 584.64, 293.36 488.41, 480.68 273.42 M133.36 679.06 C247.3 548.61, 361.06 418.51, 480.42 279.82 M133.36 679.06 C270.45 519.75, 407.6 361.06, 480.42 279.82 M138.35 679.42 C229.49 574.95, 320.15 471.25, 480.16 286.22 M138.35 679.42 C244.39 557.17, 351.91 434.35, 480.16 286.22 M143.99 679.03 C238.86 570.96, 331.85 462.17, 480.55 291.86 M143.99 679.03 C220.36 590.66, 296.52 503.35, 480.55 291.86 M148.98 679.39 C216.84 600.97, 283.46 523.52, 480.29 298.26 M148.98 679.39 C222.83 595.43, 296.1 510.78, 480.29 298.26 M153.97 679.75 C279.47 534.96, 406.2 389.61, 480.69 303.9 M153.97 679.75 C230.94 590.95, 308.5 502.76, 480.69 303.9 M159.61 679.35 C232.7 596.65, 304.64 513.33, 480.42 310.3 M159.61 679.35 C280.46 540.8, 401.37 401.76, 480.42 310.3 M164.6 679.71 C228.55 603.92, 292.83 530.87, 480.16 316.7 M164.6 679.71 C271.35 556.23, 378.46 433.33, 480.16 316.7 M170.24 679.32 C237.19 600.46, 306.29 520.88, 480.56 322.34 M170.24 679.32 C266.82 566.56, 365.33 454.53, 480.56 322.34 M175.23 679.68 C246.12 595.71, 318.64 514.13, 480.3 328.74 M175.23 679.68 C243.21 602.69, 309.28 525.41, 480.3 328.74 M180.87 679.28 C297.36 543.11, 414.65 409.08, 480.03 335.14 M180.87 679.28 C298.16 544.6, 415.13 409.28, 480.03 335.14 M185.86 679.64 C259.91 595.9, 334.5 511.91, 480.43 340.78 M185.86 679.64 C252.97 603.72, 319.3 526.41, 480.43 340.78 M191.5 679.25 C288.1 569.09, 385.45 458.13, 480.17 347.18 M191.5 679.25 C272.91 587.55, 353.1 495.7, 480.17 347.18 M196.49 679.61 C297.69 562.48, 397.75 445.65, 480.56 352.82 M196.49 679.61 C278.54 587.53, 359.08 494.92, 480.56 352.82 M202.13 679.22 C299.69 564.03, 399.69 451.37, 480.3 359.22 M202.13 679.22 C277.18 593.57, 353.38 505.73, 480.3 359.22 M207.12 679.58 C295.9 575.45, 386.32 472.35, 480.04 365.62 M207.12 679.58 C313.52 557.31, 419.18 436.56, 480.04 365.62 M212.76 679.18 C309.78 564.74, 408.52 452.28, 480.43 371.26 M212.76 679.18 C315.9 559.95, 421.11 439.19, 480.43 371.26 M217.75 679.54 C295.06 588.73, 373.17 500.02, 480.17 377.66 M217.75 679.54 C294.95 591.78, 372.42 502.35, 480.17 377.66 M223.39 679.15 C324.26 561.54, 426.06 446.98, 480.57 383.3 M223.39 679.15 C291.49 601.01, 360.73 521.8, 480.57 383.3 M228.38 679.51 C287.21 613.11, 347.88 545.13, 480.31 389.7 M228.38 679.51 C288.57 609.53, 350.65 539.31, 480.31 389.7 M234.02 679.11 C293.26 611.82, 349.63 543.46, 480.04 396.1 M234.02 679.11 C299.47 605.36, 362.79 532.55, 480.04 396.1 M239.01 679.47 C308.29 601.41, 374.74 522.67, 480.44 401.74 M239.01 679.47 C297.02 614.55, 355.57 547.56, 480.44 401.74 M244.65 679.08 C300.19 611.91, 357.76 547.89, 480.18 408.14 M244.65 679.08 C326.63 585.64, 407.76 492.72, 480.18 408.14 M249.64 679.44 C301.93 619.37, 354.24 559.58, 480.57 413.78 M249.64 679.44 C331.9 585.24, 414.14 491.07, 480.57 413.78 M255.28 679.04 C329.58 595.74, 401.76 511.23, 480.31 420.18 M255.28 679.04 C304.74 622.46, 352.82 566.68, 480.31 420.18 M260.27 679.4 C307.18 625.53, 356.56 571.24, 480.05 426.58 M260.27 679.4 C311.99 620.6, 362.79 560.79, 480.05 426.58 M265.91 679.01 C335.57 599.31, 404.57 516.9, 480.44 432.22 M265.91 679.01 C351.99 580.77, 437.13 483.12, 480.44 432.22 M270.9 679.37 C321.39 620.31, 375.39 559.55, 480.18 438.62 M270.9 679.37 C353.6 583.64, 435.2 490.07, 480.18 438.62 M275.89 679.73 C333.77 614.84, 394 546.96, 479.92 445.01 M275.89 679.73 C339.93 605.01, 404.97 529.51, 479.92 445.01 M281.53 679.33 C338.14 615.75, 393.05 552.49, 480.32 450.66 M281.53 679.33 C342.78 606.85, 405.42 534.44, 480.32 450.66 M286.52 679.69 C352.76 600.08, 419.98 522.71, 480.05 457.06 M286.52 679.69 C336 623.08, 383.2 568.1, 480.05 457.06 M292.16 679.3 C349.55 613.36, 411 542.54, 480.45 462.7 M292.16 679.3 C357.08 601.62, 424.96 524.08, 480.45 462.7 M297.15 679.66 C344.35 626.5, 390.71 572.77, 480.19 469.1 M297.15 679.66 C360.91 603.72, 425.65 529.44, 480.19 469.1 M302.79 679.27 C360.56 613.71, 416.49 546.54, 479.93 475.49 M302.79 679.27 C343.93 628.6, 388.54 578.64, 479.93 475.49 M307.78 679.63 C354.12 626.95, 399.49 572.5, 480.32 481.14 M307.78 679.63 C350.75 632.62, 391.3 584.22, 480.32 481.14 M313.42 679.23 C367.53 616.47, 419.75 556.54, 480.06 487.53 M313.42 679.23 C374.99 609.22, 437.87 536.8, 480.06 487.53 M318.41 679.59 C358.58 635.46, 398.19 588.3, 480.45 493.18 M318.41 679.59 C354.79 639.31, 390.91 597.61, 480.45 493.18 M324.05 679.2 C367.27 632.26, 410.09 582.36, 480.19 499.58 M324.05 679.2 C374.14 621.78, 423.61 565.93, 480.19 499.58 M329.04 679.56 C381.96 618.49, 434.25 560.39, 479.93 505.97 M329.04 679.56 C366.4 637.12, 404 593.62, 479.93 505.97 M334.68 679.16 C364.88 643.85, 396.54 609.22, 480.33 511.62 M334.68 679.16 C378.28 630.09, 421.02 580.13, 480.33 511.62 M339.67 679.52 C386.41 626.04, 433.44 571.04, 480.06 518.01 M339.67 679.52 C390.45 622.87, 440 564.64, 480.06 518.01 M345.31 679.13 C390.58 626.58, 435.49 576.41, 480.46 523.66 M345.31 679.13 C391.43 628.46, 437.07 575.6, 480.46 523.66 M350.3 679.49 C387.38 634.11, 422.61 593.95, 480.2 530.05 M350.3 679.49 C384.6 642.04, 416.05 602.73, 480.2 530.05 M355.94 679.09 C386.13 644.4, 418.46 610.05, 479.94 536.45 M355.94 679.09 C392.53 636.79, 430.52 594.93, 479.94 536.45 M361.58 678.7 C395.45 642.26, 428.35 600.59, 480.33 542.1 M361.58 678.7 C399.5 636.64, 437.66 592.86, 480.33 542.1 M367.23 678.3 C410.21 631.37, 450.07 583.14, 480.07 548.49 M367.23 678.3 C393.63 646.3, 421.99 615.3, 480.07 548.49 M372.87 677.91 C405.47 639.22, 435.19 603.15, 479.81 554.89 M372.87 677.91 C414.29 629.69, 456.75 582.51, 479.81 554.89 M378.51 677.51 C412.67 638.02, 444.12 601.6, 480.2 560.53 M378.51 677.51 C407.33 644.51, 436.3 611.62, 480.2 560.53 M384.16 677.12 C414.7 643.34, 446.59 606.79, 479.94 566.93 M384.16 677.12 C422.43 633.51, 458.36 590.85, 479.94 566.93 M389.8 676.73 C420.84 639.81, 452.48 605.62, 479.68 573.33 M389.8 676.73 C416.63 643.34, 444.86 613.09, 479.68 573.33 M396.1 675.58 C417.85 650.26, 438.02 628.66, 478.76 580.48 M396.1 675.58 C421.55 646.65, 445.27 619.17, 478.76 580.48 M402.4 674.43 C422.89 652.63, 442.38 630.77, 477.84 587.63 M402.4 674.43 C423.58 650.54, 444.9 626.38, 477.84 587.63 M409.35 672.52 C433.23 645.36, 458.12 616.9, 476.93 594.79 M409.35 672.52 C434.86 642.08, 459.92 613.29, 476.93 594.79 M416.96 669.86 C434.63 648.73, 450.8 630.23, 477.32 600.43 M416.96 669.86 C436.23 648.84, 454.27 626.41, 477.32 600.43 M424.57 667.21 C438.33 653.35, 451.05 634.84, 473.12 611.36 M424.57 667.21 C441.43 648.52, 457.21 629.42, 473.12 611.36 M441.37 653.98 C448.44 644.78, 455.96 638.08, 467.61 623.79 M441.37 653.98 C448.16 647.83, 453.49 639.93, 467.61 623.79" stroke="#fa5252" stroke-width="0.5" fill="none"></path><path d="M119.75 0 M119.75 0 C211.14 1.07, 304.45 -0.72, 359.25 0 M119.75 0 C169 0.69, 219.5 0.48, 359.25 0 M359.25 0 C439.04 -1.97, 478.24 41.3, 479 119.75 M359.25 0 C440.36 1.99, 478.03 41.73, 479 119.75 M479 119.75 C480.49 249.55, 480.34 380.23, 479 557.25 M479 119.75 C478.37 281.33, 478.54 442.6, 479 557.25 M479 557.25 C480.97 635.58, 440.32 678.86, 359.25 677 M479 557.25 C480.1 635.75, 440.78 676.38, 359.25 677 M359.25 677 C285.94 676.39, 212 677.39, 119.75 677 M359.25 677 C291.44 675.6, 223.43 675.81, 119.75 677 M119.75 677 C40.05 675.13, 1.01 636.84, 0 557.25 M119.75 677 C41.12 677.99, 0.75 635.61, 0 557.25 M0 557.25 C-0.24 445.92, -0.65 334.45, 0 119.75 M0 557.25 C-1.92 462.87, -1.33 368.5, 0 119.75 M0 119.75 C-1.22 39.27, 38.17 0.15, 119.75 0 M0 119.75 C0.99 37.76, 38.06 -0.62, 119.75 0" stroke="#000000" stroke-width="1" fill="none"></path></g><g transform="translate(1164.6109174162978 341.1666666666665) rotate(0 234.5 45)"><text x="234.5" y="32" font-family="Virgil, Segoe UI Emoji" font-size="36px" fill="#000000" text-anchor="middle" style="white-space: pre;" direction="ltr">Vampir -&gt; Proof System</text><text x="234.5" y="77" font-family="Virgil, Segoe UI Emoji" font-size="36px" fill="#000000" text-anchor="middle" style="white-space: pre;" direction="ltr">Compiler</text></g><g stroke-linecap="round" transform="translate(2150.944250749631 10) rotate(0 182.5 348.3333333333334)"><path d="M17.68 28.62 C17.68 28.62, 17.68 28.62, 17.68 28.62 M17.68 28.62 C17.68 28.62, 17.68 28.62, 17.68 28.62 M9.55 44.08 C18.2 35.74, 24.63 28.74, 31.2 19.17 M9.55 44.08 C17.37 34.16, 25.53 25.4, 31.2 19.17 M7.32 52.74 C15.05 42.35, 25.51 33.07, 40.78 14.25 M7.32 52.74 C15.45 44.36, 21.01 36.68, 40.78 14.25 M4.43 62.15 C22.43 38.55, 44.05 16.74, 52.33 7.06 M4.43 62.15 C21.23 41.41, 40.47 21.32, 52.33 7.06 M2.2 70.82 C21.38 47.77, 41.92 23.74, 59.28 5.16 M2.2 70.82 C17.49 54.17, 31.15 37.19, 59.28 5.16 M1.94 77.21 C25.53 49.47, 50.48 17.24, 65.58 4.01 M1.94 77.21 C15.96 61.23, 31.49 44.62, 65.58 4.01 M1.68 83.61 C22.06 63.4, 38.81 37.72, 71.88 2.86 M1.68 83.61 C28.39 54.07, 53.36 22.11, 71.88 2.86 M0.11 91.52 C24.87 59.23, 51.38 30.03, 77.52 2.46 M0.11 91.52 C28.74 58.89, 56.82 27.32, 77.52 2.46 M0.5 97.16 C32.22 63.02, 64.36 27.19, 83.17 2.07 M0.5 97.16 C24.62 68.51, 49.4 39.67, 83.17 2.07 M0.24 103.56 C23.3 76.56, 48.58 48.01, 88.81 1.67 M0.24 103.56 C22.05 76.73, 46.02 50.34, 88.81 1.67 M-0.02 109.96 C26.09 80.71, 52.78 49.83, 93.8 2.03 M-0.02 109.96 C32.99 72.11, 64.34 35.13, 93.8 2.03 M0.37 115.6 C35.18 79.23, 66.64 39.73, 98.78 2.39 M0.37 115.6 C36.83 73.3, 74.12 31.03, 98.78 2.39 M0.11 122 C42.82 74.76, 84.45 24.65, 104.43 2 M0.11 122 C35.27 79.06, 73.17 37.82, 104.43 2 M0.51 127.64 C33.24 91.36, 62.22 55.76, 109.41 2.36 M0.51 127.64 C43.03 78.7, 84.33 30.52, 109.41 2.36 M0.25 134.04 C43.71 82.5, 88.12 33.48, 115.06 1.97 M0.25 134.04 C40.87 88.32, 80.28 41.63, 115.06 1.97 M-0.02 140.44 C28.62 109.77, 55.4 78.03, 120.04 2.33 M-0.02 140.44 C42.2 90.94, 84.11 40.81, 120.04 2.33 M0.38 146.08 C35.62 105.47, 71.27 64.37, 125.69 1.93 M0.38 146.08 C36.57 104.89, 72.27 65.27, 125.69 1.93 M0.12 152.48 C36.89 110.68, 69.93 71.78, 130.67 2.29 M0.12 152.48 C51.88 92.19, 103.13 32.51, 130.67 2.29 M0.51 158.12 C56.83 94.51, 108.46 33.4, 136.32 1.9 M0.51 158.12 C40.09 113.31, 79.6 66.43, 136.32 1.9 M0.25 164.52 C34.72 123.86, 69.42 82.36, 141.3 2.26 M0.25 164.52 C49.09 107.34, 100.41 49.38, 141.3 2.26 M-0.01 170.92 C30.76 135.5, 62.82 99.72, 146.95 1.86 M-0.01 170.92 C33.19 131.05, 68.9 90.39, 146.95 1.86 M0.38 176.56 C30.92 139.97, 64.31 104.14, 151.93 2.22 M0.38 176.56 C53.51 116.11, 106.58 56.46, 151.93 2.22 M0.12 182.96 C43.44 131.67, 88.61 79.25, 157.58 1.83 M0.12 182.96 C57.97 117.46, 114.57 51.73, 157.58 1.83 M0.52 188.6 C52.24 127.07, 106.7 64.8, 162.56 2.19 M0.52 188.6 C42.4 142.88, 83.15 95.64, 162.56 2.19 M0.26 195 C53.55 134.11, 105.57 74.08, 168.21 1.79 M0.26 195 C38.14 149.49, 78.68 103, 168.21 1.79 M-0.01 201.4 C68.26 122.5, 134.39 44.43, 173.19 2.15 M-0.01 201.4 C66.6 123, 134.4 44.54, 173.19 2.15 M0.39 207.04 C54.34 144.48, 111.09 81.39, 178.18 2.51 M0.39 207.04 C38.05 162.55, 75.03 118.63, 178.18 2.51 M0.13 213.44 C60.23 144.29, 119.47 75.44, 183.82 2.12 M0.13 213.44 C45.03 164.06, 88.79 113.12, 183.82 2.12 M0.52 219.08 C44.14 171.22, 83.97 123.66, 188.81 2.48 M0.52 219.08 C70.6 137.46, 139.97 57, 188.81 2.48 M0.26 225.48 C48.21 171.19, 94.4 117.09, 194.45 2.08 M0.26 225.48 C65.04 150.41, 129.38 76.04, 194.45 2.08 M0 231.88 C57.12 166.56, 113.09 100.66, 199.44 2.44 M0 231.88 C76.06 144.75, 152.85 55.59, 199.44 2.44 M0.39 237.52 C42.81 187.75, 84.67 137.05, 205.08 2.05 M0.39 237.52 C73.31 152.08, 147.36 67.5, 205.08 2.05 M0.13 243.92 C62.45 175.61, 124.02 103.02, 210.07 2.41 M0.13 243.92 C45.76 190.38, 93.33 136.7, 210.07 2.41 M-0.13 250.31 C64.96 179.12, 130.23 103.92, 215.71 2.02 M-0.13 250.31 C58.96 184.13, 116.41 117.52, 215.71 2.02 M0.26 255.96 C72.5 174.01, 141.4 91.51, 220.7 2.38 M0.26 255.96 C60.48 184.45, 120.91 114.39, 220.7 2.38 M0 262.36 C67.3 183, 134.65 104.8, 226.34 1.98 M0 262.36 C77.84 170.74, 156.66 79.66, 226.34 1.98 M0.4 268 C49.42 211.01, 100.77 152.15, 231.33 2.34 M0.4 268 C55.58 205.1, 108.63 144.74, 231.33 2.34 M0.14 274.4 C52.96 211.02, 110.08 149.55, 236.97 1.95 M0.14 274.4 C86.54 176.04, 171.32 78.21, 236.97 1.95 M-0.12 280.79 C70.46 200.95, 139.16 120.44, 241.96 2.31 M-0.12 280.79 C93.64 176.38, 185.38 70.27, 241.96 2.31 M0.27 286.44 C58.32 221.04, 114.49 156.61, 247.6 1.91 M0.27 286.44 C50.59 228.58, 99.93 170.5, 247.6 1.91 M0.01 292.84 C54.78 229.7, 108.39 168.05, 252.59 2.27 M0.01 292.84 C79.8 200.52, 160.02 108.01, 252.59 2.27 M0.4 298.48 C62.27 226.32, 123.7 155.94, 258.23 1.88 M0.4 298.48 C63.46 225.15, 126.63 153.22, 258.23 1.88 M0.14 304.88 C91.72 200.96, 184.07 93.81, 263.22 2.24 M0.14 304.88 C64.76 228.14, 130.47 153.21, 263.22 2.24 M-0.12 311.27 C93.1 201.36, 186.39 95.37, 268.86 1.84 M-0.12 311.27 C106.47 189.71, 213.17 66.63, 268.86 1.84 M0.27 316.92 C62.05 248.89, 122.06 179.63, 275.16 0.69 M0.27 316.92 C75.51 227.83, 152.11 139.64, 275.16 0.69 M0.01 323.31 C66.11 245.67, 133.26 168.83, 279.49 1.81 M0.01 323.31 C66.26 246.36, 131.56 170.67, 279.49 1.81 M0.41 328.96 C59.45 262.22, 120 192.2, 284.48 2.17 M0.41 328.96 C92.17 223.85, 181.93 120.64, 284.48 2.17 M0.15 335.36 C99.09 222.51, 198.74 107.7, 289.47 2.53 M0.15 335.36 C85.03 239.06, 167.99 142.99, 289.47 2.53 M-0.12 341.75 C85 243.67, 170.86 143.03, 294.46 2.89 M-0.12 341.75 C111.56 212.52, 223.62 82.87, 294.46 2.89 M0.28 347.4 C84.13 250, 167.46 152.63, 299.44 3.25 M0.28 347.4 C97.96 232.92, 197.47 118.86, 299.44 3.25 M0.02 353.79 C92 250.59, 182.15 146.01, 305.09 2.85 M0.02 353.79 C90.77 251.06, 180.39 147.71, 305.09 2.85 M0.41 359.44 C66.75 281.31, 133.92 204.57, 308.76 4.72 M0.41 359.44 C93.67 250.95, 187.17 144.03, 308.76 4.72 M0.15 365.83 C71.37 285.97, 141.94 203.09, 313.09 5.84 M0.15 365.83 C118.58 228.86, 237.07 92.22, 313.09 5.84 M-0.11 372.23 C104.19 252.25, 207.98 132.39, 317.42 6.95 M-0.11 372.23 C124.49 230.8, 248.59 88.42, 317.42 6.95 M0.28 377.88 C114.68 245, 228.36 113.08, 321.1 8.82 M0.28 377.88 C118.01 243.09, 235.09 107.64, 321.1 8.82 M0.02 384.27 C99.89 270.56, 198.73 155.79, 324.12 11.45 M0.02 384.27 C110.18 258.51, 219.96 132.02, 324.12 11.45 M0.42 389.92 C108.31 264.84, 216.9 138.85, 327.79 13.32 M0.42 389.92 C93.03 283.09, 186.92 174.51, 327.79 13.32 M0.16 396.31 C91.64 290.56, 183.54 185.21, 331.47 15.19 M0.16 396.31 C116.47 262.84, 233 128.87, 331.47 15.19 M-0.11 402.71 C89.48 298.42, 179.42 193.02, 335.14 17.06 M-0.11 402.71 C127.74 252.71, 256.72 103.91, 335.14 17.06 M0.29 408.36 C91.93 305.43, 183.42 199.92, 338.16 19.68 M0.29 408.36 C129.98 259.95, 257.9 112.32, 338.16 19.68 M0.03 414.75 C84.94 316.55, 172.39 217.07, 341.18 22.3 M0.03 414.75 C70.17 335.22, 139.52 255.31, 341.18 22.3 M0.42 420.4 C119.46 285.69, 239.27 148.11, 344.2 24.93 M0.42 420.4 C81.45 327.42, 161.23 235.68, 344.2 24.93 M0.16 426.79 C82.66 333.61, 164.4 240.19, 346.56 28.31 M0.16 426.79 C100.45 310.91, 201.29 196.19, 346.56 28.31 M-0.1 433.19 C101.03 320.07, 199.33 204.97, 349.58 30.93 M-0.1 433.19 C96.03 321.71, 191.89 211.56, 349.58 30.93 M0.29 438.83 C121 299.65, 243.03 159.45, 351.94 34.31 M0.29 438.83 C104.82 318.48, 209.05 198.28, 351.94 34.31 M0.03 445.23 C98.91 330.29, 199.19 216.44, 353.65 38.44 M0.03 445.23 C114.29 313.47, 227.8 183.51, 353.65 38.44 M0.43 450.88 C133.78 296.2, 269.59 140.86, 356.01 41.82 M0.43 450.88 C101.12 334.93, 202.55 217.93, 356.01 41.82 M0.17 457.27 C93.03 349.04, 186.12 242.14, 357.72 45.96 M0.17 457.27 C125.18 313.05, 249.45 170.25, 357.72 45.96 M-0.1 463.67 C110.42 338.16, 218.4 212.84, 359.42 50.09 M-0.1 463.67 C79.25 373, 157.01 283.08, 359.42 50.09 M0.3 469.31 C128.33 319.93, 256.83 172.44, 361.79 53.47 M0.3 469.31 C137.5 309.46, 275.87 150.07, 361.79 53.47 M0.04 475.71 C128.01 327.48, 257.05 180.25, 362.84 58.36 M0.04 475.71 C93.32 367.11, 186.56 259.28, 362.84 58.36 M0.43 481.36 C83 384.11, 166.57 288.14, 363.89 63.25 M0.43 481.36 C75.36 394.17, 149.97 307.78, 363.89 63.25 M0.17 487.75 C122.92 345.75, 244.28 204.43, 364.94 68.13 M0.17 487.75 C101.34 370.79, 203.9 253.24, 364.94 68.13 M-0.09 494.15 C132.71 341.21, 265.35 189.5, 366.65 72.27 M-0.09 494.15 C92.84 385.27, 186.97 277.29, 366.65 72.27 M0.3 499.79 C122.27 360.61, 243.96 221.32, 367.04 77.91 M0.3 499.79 C134.31 345.13, 267.15 191.58, 367.04 77.91 M0.04 506.19 C128.51 359.83, 257.13 212.37, 367.44 83.55 M0.04 506.19 C120.23 369.35, 240.06 231.54, 367.44 83.55 M0.44 511.83 C141.52 349.35, 282.28 186.69, 365.86 91.46 M0.44 511.83 C105.56 390.87, 210.29 269.95, 365.86 91.46 M0.18 518.23 C78.34 426.91, 157.27 336.51, 365.6 97.86 M0.18 518.23 C94.84 409.95, 188.78 302.09, 365.6 97.86 M-0.09 524.63 C81.13 430.99, 159.38 339.66, 365.34 104.26 M-0.09 524.63 C85.78 425.53, 172.05 325.92, 365.34 104.26 M0.31 530.27 C108.23 404.72, 218.42 278.26, 365.73 109.9 M0.31 530.27 C92.34 421.72, 185.72 313.91, 365.73 109.9 M0.05 536.67 C113.82 402.43, 229.12 270.51, 365.47 116.3 M0.05 536.67 C112.65 408.07, 224.24 280.34, 365.47 116.3 M0.44 542.31 C134.52 386.96, 268.26 232.94, 365.87 121.94 M0.44 542.31 C139.12 385.47, 275.51 228.4, 365.87 121.94 M0.18 548.71 C85.96 449.71, 172.16 351.74, 365.61 128.34 M0.18 548.71 C142.22 387.01, 282.73 224.59, 365.61 128.34 M-0.08 555.11 C108.16 433.41, 214.13 310.17, 365.34 134.74 M-0.08 555.11 C83.83 458.51, 165.9 363.68, 365.34 134.74 M0.31 560.75 C113.46 431.48, 226.96 301.06, 365.74 140.38 M0.31 560.75 C103.4 443.13, 206.83 324.99, 365.74 140.38 M0.05 567.15 C138.33 406.88, 277.19 247.11, 365.48 146.78 M0.05 567.15 C101.43 452.39, 201.5 337.07, 365.48 146.78 M0.45 572.79 C122.09 430.13, 245.52 288.59, 365.87 152.42 M0.45 572.79 C145.64 407.44, 289.96 240.87, 365.87 152.42 M0.18 579.19 C92.73 472.47, 185.9 363.72, 365.61 158.82 M0.18 579.19 C122.39 436.17, 245.63 294.03, 365.61 158.82 M-0.08 585.59 C104.96 466.13, 209.78 345.69, 365.35 165.22 M-0.08 585.59 C84.96 486.88, 171.12 387.28, 365.35 165.22 M0.32 591.23 C130.6 441.75, 262.11 290.81, 365.74 170.86 M0.32 591.23 C107.47 466.72, 214.85 343.46, 365.74 170.86 M0.06 597.63 C144.18 430.46, 289.86 263.48, 365.48 177.26 M0.06 597.63 C118.85 462.86, 235.34 328.38, 365.48 177.26 M0.45 603.27 C89.95 499.96, 181.94 394.43, 365.22 183.65 M0.45 603.27 C136.53 450.12, 270.82 294.85, 365.22 183.65 M2.16 607.41 C105.43 489.69, 207.61 371.94, 365.61 189.3 M2.16 607.41 C97.88 496.59, 195.25 385.29, 365.61 189.3 M2.55 613.05 C116.53 483.86, 229.28 353.54, 365.35 195.7 M2.55 613.05 C92.98 508.31, 182.79 404.22, 365.35 195.7 M2.95 618.69 C82.86 527.51, 161.94 435.72, 365.75 201.34 M2.95 618.69 C111.02 496.32, 219.12 371.5, 365.75 201.34 M3.34 624.34 C96.15 517.89, 187.97 411.95, 365.49 207.74 M3.34 624.34 C136.48 470.03, 270.97 314.99, 365.49 207.74 M4.39 629.22 C98.99 520.51, 192.77 411.1, 365.22 214.13 M4.39 629.22 C127.32 487.75, 250.42 345.68, 365.22 214.13 M5.44 634.11 C146.86 472.42, 288.57 309.75, 365.62 219.78 M5.44 634.11 C88.98 538.82, 171.33 442.97, 365.62 219.78 M6.49 639 C124.83 502.82, 241.31 367.57, 365.36 226.18 M6.49 639 C126.79 500.87, 246.61 363.31, 365.36 226.18 M6.23 645.4 C141.01 489.52, 275.3 334.44, 365.75 231.82 M6.23 645.4 C102.76 532.98, 200.34 421.16, 365.75 231.82 M7.94 649.53 C117.67 522.44, 228.55 394.99, 365.49 238.22 M7.94 649.53 C117.72 522.81, 228.55 395.37, 365.49 238.22 M9.65 653.67 C103.85 545.38, 198.9 436.32, 365.23 244.61 M9.65 653.67 C80.17 570.66, 151.79 488.67, 365.23 244.61 M11.35 657.8 C144.17 507.07, 276.12 357.14, 365.62 250.26 M11.35 657.8 C123.2 530.89, 234.46 403.68, 365.62 250.26 M13.72 661.18 C100.09 559.98, 188.64 458.77, 365.36 256.65 M13.72 661.18 C110.84 550.54, 206.6 440.77, 365.36 256.65 M15.42 665.31 C101.62 567.11, 186.98 469.49, 365.76 262.3 M15.42 665.31 C117.49 547.75, 219.24 430.71, 365.76 262.3 M17.78 668.69 C133.46 536.03, 248.19 404.19, 365.5 268.7 M17.78 668.69 C86.17 589.27, 155.99 508.91, 365.5 268.7 M20.8 671.32 C134.73 540.14, 247.35 409.75, 365.23 275.09 M20.8 671.32 C156.3 516.07, 292.1 360.34, 365.23 275.09 M23.82 673.94 C102.83 584.27, 181.64 492.24, 365.63 280.74 M23.82 673.94 C110.12 577.04, 195.9 478.32, 365.63 280.74 M26.84 676.56 C93.84 599.15, 162.23 521.35, 365.37 287.13 M26.84 676.56 C121.46 566.55, 215.58 458.05, 365.37 287.13 M29.2 679.94 C130.8 564.22, 231.6 447.31, 365.76 292.78 M29.2 679.94 C144.14 547.42, 260.43 414.22, 365.76 292.78 M32.88 681.81 C132.85 564.65, 233.04 449.46, 365.5 299.17 M32.88 681.81 C100.87 603.72, 169.89 523.35, 365.5 299.17 M36.55 683.68 C103.62 606.1, 170.73 528.48, 365.24 305.57 M36.55 683.68 C154.86 548.86, 272.08 413.39, 365.24 305.57 M40.23 685.55 C121.73 593.15, 200.56 500.71, 365.63 311.22 M40.23 685.55 C152.21 556.38, 264.66 426.07, 365.63 311.22 M43.9 687.42 C114.64 605.47, 188.2 522.32, 365.37 317.61 M43.9 687.42 C116.24 604.05, 187.76 521.02, 365.37 317.61 M47.58 689.29 C147.64 573.2, 247.67 458.41, 365.11 324.01 M47.58 689.29 C133.18 592.35, 217.81 495.19, 365.11 324.01 M51.25 691.16 C168.62 557.07, 286.02 422.86, 365.51 329.65 M51.25 691.16 C122.64 609.94, 192.84 529.38, 365.51 329.65 M55.58 692.28 C168.01 562.11, 281.35 432.37, 365.24 336.05 M55.58 692.28 C129.16 606.08, 203.86 520.09, 365.24 336.05 M59.92 693.39 C143.31 596.95, 227.77 500.99, 365.64 341.7 M59.92 693.39 C151.8 587.39, 242.94 481.38, 365.64 341.7 M64.9 693.75 C161.04 582.92, 256.36 473.81, 365.38 348.09 M64.9 693.75 C171.65 572.23, 276.57 450.71, 365.38 348.09 M69.23 694.86 C149.82 601.65, 231.03 508.17, 365.12 354.49 M69.23 694.86 C170.77 575.86, 272.92 457.39, 365.12 354.49 M72.25 697.49 C151.97 603.95, 230.78 513.09, 365.51 360.13 M72.25 697.49 C184.21 569.6, 295.74 440.56, 365.51 360.13 M77.24 697.85 C175.51 584.72, 273.04 473.19, 365.25 366.53 M77.24 697.85 C168.84 592.75, 259.59 487.59, 365.25 366.53 M82.23 698.21 C193.29 571.24, 303.03 445.05, 365.64 372.17 M82.23 698.21 C171.83 594.5, 262.31 490.69, 365.64 372.17 M87.21 698.57 C188.32 583.38, 287.02 468.81, 365.38 378.57 M87.21 698.57 C171.19 601.6, 256.89 503.52, 365.38 378.57 M92.86 698.17 C148.24 634.15, 206.05 568.86, 365.12 384.97 M92.86 698.17 C162.51 616.12, 234.49 533.9, 365.12 384.97 M98.5 697.78 C164.3 623.25, 228.23 550.81, 365.52 390.61 M98.5 697.78 C173.18 612.46, 248.22 524.85, 365.52 390.61 M103.49 698.14 C188.55 598.22, 275.41 498.21, 365.25 397.01 M103.49 698.14 C184.26 606.78, 264.49 514.43, 365.25 397.01 M109.13 697.75 C162.99 632.83, 218.52 568.95, 365.65 402.65 M109.13 697.75 C200.98 592.78, 292.59 488.37, 365.65 402.65 M114.12 698.11 C196.82 603.46, 281.5 506.87, 365.39 409.05 M114.12 698.11 C177.42 624.85, 241.68 550.89, 365.39 409.05 M119.1 698.47 C198.29 606.89, 279.68 515.12, 365.13 415.45 M119.1 698.47 C191.63 615.35, 263.51 532.97, 365.13 415.45 M124.75 698.07 C188.16 624.04, 252.5 551.02, 365.52 421.09 M124.75 698.07 C200.86 609.63, 277.43 521.16, 365.52 421.09 M129.73 698.43 C211.23 603.73, 293.42 508.11, 365.26 427.49 M129.73 698.43 C179.77 638.85, 230.93 580.69, 365.26 427.49 M135.38 698.04 C213.76 608.13, 290.27 519.75, 365.65 433.13 M135.38 698.04 C182.56 642.48, 231.59 586.71, 365.65 433.13 M140.36 698.4 C199.39 630.02, 257.87 560.83, 365.39 439.53 M140.36 698.4 C211.81 617.96, 281.17 536.64, 365.39 439.53 M146.01 698 C199.68 638.43, 254.42 575.3, 365.13 445.93 M146.01 698 C201.47 635.43, 254.29 574.8, 365.13 445.93 M150.99 698.36 C236.9 601.95, 317.6 505.54, 365.53 451.57 M150.99 698.36 C216.14 624.85, 280.45 551.39, 365.53 451.57 M156.64 697.97 C205.22 641.61, 252.99 583.41, 365.26 457.97 M156.64 697.97 C207.91 639.25, 259.36 580.42, 365.26 457.97 M161.62 698.33 C214.81 642.12, 262.9 583.3, 365.66 463.61 M161.62 698.33 C237.6 610.78, 313.78 523.45, 365.66 463.61 M167.27 697.93 C214.19 643.35, 264.03 589, 365.4 470.01 M167.27 697.93 C214.43 644.35, 262.24 589.04, 365.4 470.01 M172.25 698.29 C230.05 630.41, 285.58 567.33, 365.14 476.41 M172.25 698.29 C225.77 637.61, 279.07 577.29, 365.14 476.41 M177.9 697.9 C246.84 619.28, 315.61 542.45, 365.53 482.05 M177.9 697.9 C244.18 621.55, 311.21 545.8, 365.53 482.05 M182.88 698.26 C255.45 615.39, 329.62 530.12, 365.27 488.45 M182.88 698.26 C255.45 614.51, 328.85 529.85, 365.27 488.45 M188.53 697.86 C250.28 625.61, 314.86 551.67, 365.01 494.85 M188.53 697.86 C248.64 631.86, 306.81 564.6, 365.01 494.85 M193.51 698.22 C252.95 628.38, 313.85 560.15, 365.4 500.49 M193.51 698.22 C245.54 639.35, 296.56 580.46, 365.4 500.49 M199.16 697.83 C263.05 622.58, 327.51 551.31, 365.14 506.89 M199.16 697.83 C231.92 657.85, 267.61 616.63, 365.14 506.89 M204.14 698.19 C262.08 629.62, 321.52 564.52, 365.53 512.53 M204.14 698.19 C266.66 629.15, 327.14 558.08, 365.53 512.53 M209.79 697.8 C244.53 657.21, 283.12 615.97, 365.27 518.93 M209.79 697.8 C247.09 656.42, 283.71 614.36, 365.27 518.93 M214.77 698.16 C269 634.29, 322.5 572.49, 365.01 525.33 M214.77 698.16 C273.51 630.2, 333.04 562.84, 365.01 525.33 M220.42 697.76 C264.83 647.22, 306.96 601.67, 365.41 530.97 M220.42 697.76 C270.84 636.86, 323.62 577.4, 365.41 530.97 M225.4 698.12 C269.49 649.81, 310.13 600.67, 365.14 537.37 M225.4 698.12 C276.1 639.44, 328.14 579.04, 365.14 537.37 M230.39 698.48 C257.93 666.23, 285.19 633.67, 365.54 543.01 M230.39 698.48 C275.7 645.8, 320.65 593.83, 365.54 543.01 M236.03 698.09 C268.11 660.42, 301.18 622.6, 365.28 549.41 M236.03 698.09 C270.02 657.33, 304.09 618.75, 365.28 549.41 M241.02 698.45 C290.05 641.6, 340.34 584.59, 365.02 555.81 M241.02 698.45 C267.68 666.18, 295.23 634.22, 365.02 555.81 M246.66 698.05 C286.03 655.43, 322.22 608.7, 365.41 561.45 M246.66 698.05 C282.44 655.93, 321.07 611.49, 365.41 561.45 M251.65 698.41 C289.75 653.47, 331.71 605.92, 365.15 567.85 M251.65 698.41 C283.32 661.41, 316.46 625.04, 365.15 567.85 M257.29 698.02 C287.27 659.03, 320.75 622.2, 365.54 573.49 M257.29 698.02 C290.89 661.61, 321.8 625.01, 365.54 573.49 M262.28 698.38 C296.04 659.98, 330.14 617.94, 365.28 579.89 M262.28 698.38 C291.99 664.2, 322.6 628.88, 365.28 579.89 M267.92 697.98 C290.84 670.33, 313.74 646.66, 365.02 586.29 M267.92 697.98 C289.77 673.09, 313.26 647.01, 365.02 586.29 M274.22 696.83 C297.82 667.63, 323.74 640.35, 365.42 591.93 M274.22 696.83 C294.96 674.1, 313.89 650.85, 365.42 591.93 M279.87 696.44 C302.3 672.15, 326.88 645.76, 365.15 598.33 M279.87 696.44 C308.13 663.59, 334.68 632.3, 365.15 598.33 M285.51 696.04 C308.16 671.78, 327.59 648.22, 365.55 603.97 M285.51 696.04 C312.08 664.09, 341.21 633.44, 365.55 603.97 M291.15 695.65 C320.15 663.36, 347.82 629.3, 365.29 610.37 M291.15 695.65 C307.53 678.14, 322.59 660, 365.29 610.37 M296.14 696.01 C318.19 671.98, 337.51 652.27, 365.03 616.77 M296.14 696.01 C320.29 667.98, 343.85 640.79, 365.03 616.77 M302.44 694.86 C319.48 675.56, 336.53 654.58, 364.11 623.92 M302.44 694.86 C320.67 674.7, 336.8 654.62, 364.11 623.92 M309.39 692.96 C325.19 673.64, 339.13 657.66, 363.19 631.07 M309.39 692.96 C320.98 679.92, 332.08 666.17, 363.19 631.07 M315.04 692.56 C328.84 680.08, 337.9 664.25, 362.93 637.47 M315.04 692.56 C324.23 679.85, 335.07 669.67, 362.93 637.47 M325.27 686.88 C335.45 678.11, 342.97 664.5, 358.73 648.39 M325.27 686.88 C338.25 673.87, 348.6 660.21, 358.73 648.39 M336.82 679.7 C340.93 673.2, 349.72 665.99, 352.57 661.58 M336.82 679.7 C343.63 673, 348.96 664.76, 352.57 661.58" stroke="#228be6" stroke-width="0.5" fill="none"></path><path d="M91.25 0 M91.25 0 C130.89 -2.84, 168.76 0.45, 273.75 0 M91.25 0 C136.67 -0.12, 180.3 -0.66, 273.75 0 M273.75 0 C332.92 1.96, 366.02 31.57, 365 91.25 M273.75 0 C336.58 -1.94, 365.62 29.91, 365 91.25 M365 91.25 C364.06 199.75, 364.36 307.42, 365 605.42 M365 91.25 C364.66 296.02, 364.69 500.77, 365 605.42 M365 605.42 C364.32 664.37, 334.99 697.13, 273.75 696.67 M365 605.42 C364.04 666.33, 333.2 696.81, 273.75 696.67 M273.75 696.67 C234.34 696.91, 195.76 695.34, 91.25 696.67 M273.75 696.67 C213.96 697.49, 155.51 696.91, 91.25 696.67 M91.25 696.67 C32.03 698.05, -0.15 667.65, 0 605.42 M91.25 696.67 C31.03 694.65, 1.95 665.67, 0 605.42 M0 605.42 C1.65 496.21, 2.08 388.56, 0 91.25 M0 605.42 C0.77 465.01, 1.1 324.7, 0 91.25 M0 91.25 C-1.69 31.39, 32.17 0.35, 91.25 0 M0 91.25 C0.11 29.09, 30.33 1.96, 91.25 0" stroke="#000000" stroke-width="1" fill="none"></path></g><g stroke-linecap="round" transform="translate(2207.1109174162975 203.6666666666667) rotate(0 132.5 74)"><path d="M9.19 9.32 C9.19 9.32, 9.19 9.32, 9.19 9.32 M9.19 9.32 C9.19 9.32, 9.19 9.32, 9.19 9.32 M8.28 16.47 C13.32 10.35, 18.88 5.21, 20.08 2.88 M8.28 16.47 C12 12.49, 16.14 7.65, 20.08 2.88 M2.11 29.66 C10.22 19.63, 16.76 10.37, 23.76 4.75 M2.11 29.66 C6.23 24.57, 12.03 19.15, 23.76 4.75 M1.85 36.06 C9.06 28.53, 14.12 21.19, 30.06 3.6 M1.85 36.06 C13 23.27, 23.53 12.69, 30.06 3.6 M2.24 41.7 C11.26 29.23, 25.61 17.88, 37.67 0.95 M2.24 41.7 C14.68 26.74, 27.19 12.92, 37.67 0.95 M1.98 48.1 C12.87 36.54, 19.94 27.49, 43.31 0.55 M1.98 48.1 C16.83 30.24, 33.63 10.38, 43.31 0.55 M2.38 53.74 C20.92 31.38, 37.27 11.99, 48.3 0.91 M2.38 53.74 C11.85 42.46, 19.77 31.56, 48.3 0.91 M2.11 60.14 C18.76 40.1, 38.73 20.1, 53.94 0.52 M2.11 60.14 C16.97 42.07, 32.51 23.99, 53.94 0.52 M1.85 66.54 C15.19 49.09, 30.19 34.79, 58.93 0.88 M1.85 66.54 C17.36 47.7, 34.42 29.29, 58.93 0.88 M2.25 72.18 C26.32 43.16, 50.52 18.95, 64.57 0.48 M2.25 72.18 C20.41 50.57, 36.31 31.32, 64.57 0.48 M1.99 78.58 C24.74 49.01, 51.64 23.72, 69.56 0.84 M1.99 78.58 C21.92 56.25, 42.86 31.22, 69.56 0.84 M2.38 84.22 C21.31 60.78, 38.34 42.31, 75.2 0.45 M2.38 84.22 C20.91 64.27, 37.58 43.07, 75.2 0.45 M2.12 90.62 C18.99 71.51, 34 52.37, 80.19 0.81 M2.12 90.62 C21.62 67.45, 41.43 45, 80.19 0.81 M1.86 97.02 C26.29 65.3, 54.94 35.96, 85.83 0.41 M1.86 97.02 C30.89 62.74, 61.13 28.7, 85.83 0.41 M2.25 102.66 C29.64 69.14, 61.23 38.35, 90.82 0.77 M2.25 102.66 C34.71 64.75, 66.48 27.76, 90.82 0.77 M1.99 109.06 C26.19 81.48, 46.38 54.76, 96.46 0.38 M1.99 109.06 C34.99 72.05, 68.29 33.08, 96.46 0.38 M2.39 114.7 C27.5 90.77, 50.06 61.87, 101.45 0.74 M2.39 114.7 C37.84 73.29, 72.23 32.91, 101.45 0.74 M2.12 121.1 C31.49 85.42, 64.45 48.96, 106.44 1.1 M2.12 121.1 C25.13 93.48, 46.88 66.79, 106.44 1.1 M3.83 125.23 C36.23 88.34, 65.46 51.62, 112.08 0.7 M3.83 125.23 C40.29 80.89, 77.1 38.1, 112.08 0.7 M4.88 130.12 C35.52 93.8, 68.94 58.89, 117.07 1.06 M4.88 130.12 C38.24 91.34, 70.96 54.22, 117.07 1.06 M6.59 134.25 C38.58 97.92, 69.34 59.48, 122.71 0.67 M6.59 134.25 C49.86 86.04, 91.68 38.92, 122.71 0.67 M8.95 137.63 C37.15 104.48, 62.56 73.56, 127.7 1.03 M8.95 137.63 C54.05 87.42, 98.72 38.02, 127.7 1.03 M11.97 140.26 C60.87 86.37, 109.52 30.35, 133.34 0.63 M11.97 140.26 C40.5 106.48, 68.69 71.75, 133.34 0.63 M14.99 142.88 C50.81 102.09, 84.16 61.91, 138.33 0.99 M14.99 142.88 C64.28 86.38, 112.59 31.58, 138.33 0.99 M18.66 144.75 C48.28 110.7, 79.89 75.15, 143.97 0.6 M18.66 144.75 C55.67 100.83, 95.11 55.89, 143.97 0.6 M22.99 145.86 C50.55 114.14, 75.52 83.23, 148.96 0.96 M22.99 145.86 C67.8 94.14, 114.14 40.58, 148.96 0.96 M27.32 146.98 C64.9 103.52, 99.64 62.17, 154.6 0.57 M27.32 146.98 C68.15 98.36, 110.56 50.81, 154.6 0.57 M30.34 149.6 C66.66 104.88, 104.43 66.08, 159.59 0.93 M30.34 149.6 C60.14 113.51, 92.6 77.22, 159.59 0.93 M37.3 147.7 C79.37 96.02, 125.03 49.29, 165.23 0.53 M37.3 147.7 C81 98.37, 123.36 48.08, 165.23 0.53 M42.29 148.06 C69.68 114.67, 97 84.35, 170.22 0.89 M42.29 148.06 C72.3 112.45, 103.02 75.96, 170.22 0.89 M47.93 147.67 C89.62 100.39, 130.41 53.39, 175.86 0.5 M47.93 147.67 C97.42 92.34, 144.46 36.78, 175.86 0.5 M52.92 148.03 C82.19 111.45, 113.45 79.05, 180.85 0.86 M52.92 148.03 C94.42 98.99, 136.64 50.44, 180.85 0.86 M57.9 148.39 C96.78 102.6, 136.44 58.7, 186.49 0.46 M57.9 148.39 C86.96 115.83, 115.08 83.78, 186.49 0.46 M63.55 147.99 C109.65 92.6, 160.99 36.18, 191.48 0.82 M63.55 147.99 C104.7 98.15, 145.71 51.53, 191.48 0.82 M68.53 148.35 C95.43 115.31, 124.8 83.21, 197.12 0.43 M68.53 148.35 C95.67 116.57, 125.15 84.41, 197.12 0.43 M74.18 147.96 C100.19 114.96, 129.54 86.45, 202.11 0.79 M74.18 147.96 C99.99 116.97, 126.73 87.44, 202.11 0.79 M79.16 148.32 C131.2 89.86, 181.45 31.06, 207.75 0.39 M79.16 148.32 C110.35 113.01, 141.95 77.58, 207.75 0.39 M84.81 147.92 C126.05 96.03, 172.64 50.01, 212.74 0.75 M84.81 147.92 C134.86 89.19, 185.58 30.68, 212.74 0.75 M89.79 148.28 C116.8 116.45, 144.56 86.18, 217.72 1.11 M89.79 148.28 C134.51 95.46, 180.79 42.86, 217.72 1.11 M95.44 147.89 C129.31 111.36, 156.56 74.99, 223.37 0.72 M95.44 147.89 C132.85 104.9, 170.88 62.46, 223.37 0.72 M100.42 148.25 C128.72 116.83, 152.09 85.35, 229.01 0.32 M100.42 148.25 C144.19 98.05, 187.96 46.71, 229.01 0.32 M106.07 147.85 C139.42 111.11, 172.68 70.57, 233.34 1.44 M106.07 147.85 C148.75 102.5, 188.75 53.81, 233.34 1.44 M111.05 148.21 C136.8 114.25, 165.41 83.01, 238.33 1.8 M111.05 148.21 C159.76 92.43, 207.74 37.96, 238.33 1.8 M116.7 147.82 C147.6 112.39, 178.02 78.28, 242.66 2.91 M116.7 147.82 C151.97 106.46, 189.09 65, 242.66 2.91 M121.68 148.18 C153.15 115.17, 183.83 77.8, 246.33 4.78 M121.68 148.18 C164.82 99.9, 208.71 49.49, 246.33 4.78 M127.33 147.78 C159.58 112.45, 189.02 78.63, 250.67 5.9 M127.33 147.78 C156.65 113.19, 186.57 79.37, 250.67 5.9 M132.31 148.14 C174.98 99.48, 217.25 50.95, 253.68 8.52 M132.31 148.14 C173.16 101.52, 215.27 52.37, 253.68 8.52 M137.96 147.75 C167.96 110.35, 199.71 72.8, 256.7 11.15 M137.96 147.75 C183.13 94.7, 229.67 43.44, 256.7 11.15 M142.94 148.11 C184.47 100.63, 229.17 52.96, 259.72 13.77 M142.94 148.11 C184.49 99.77, 226.43 52.32, 259.72 13.77 M148.59 147.71 C186.26 106.01, 221.11 66.29, 262.74 16.4 M148.59 147.71 C189.94 98.42, 231.17 50.96, 262.74 16.4 M153.57 148.07 C196.6 98.66, 238.04 49.74, 263.79 21.28 M153.57 148.07 C194.44 99.34, 237.11 51.22, 263.79 21.28 M159.22 147.68 C189.27 109.26, 224.12 73.43, 265.5 25.42 M159.22 147.68 C182.54 121.87, 206.1 93.82, 265.5 25.42 M164.2 148.04 C196.31 111.48, 227.72 77.46, 266.55 30.31 M164.2 148.04 C197.98 109.99, 231.66 71.35, 266.55 30.31 M169.85 147.65 C189.51 125.85, 212.3 100.71, 266.94 35.95 M169.85 147.65 C207.12 102.85, 246.95 58.35, 266.94 35.95 M174.83 148.01 C200.7 120.52, 224.27 89.4, 266.68 42.35 M174.83 148.01 C204 114.67, 231.71 83.51, 266.68 42.35 M179.82 148.37 C202.74 119.65, 227.17 93.47, 266.42 48.74 M179.82 148.37 C208.02 114.82, 236.04 83.41, 266.42 48.74 M185.46 147.97 C217.18 113.36, 246.26 75.87, 266.82 54.39 M185.46 147.97 C211.05 119.12, 235.45 88.02, 266.82 54.39 M190.45 148.33 C218.49 112.69, 249.27 80.04, 266.55 60.79 M190.45 148.33 C211.65 123.25, 234.19 98.02, 266.55 60.79 M196.09 147.94 C212.5 128.63, 229.09 111.19, 266.95 66.43 M196.09 147.94 C223.72 115.21, 251.39 85.2, 266.95 66.43 M201.08 148.3 C227.62 118.32, 252.44 88.14, 266.69 72.83 M201.08 148.3 C221.78 125.6, 243.08 101.96, 266.69 72.83 M206.72 147.9 C230.9 120.16, 254.61 92.59, 267.08 78.47 M206.72 147.9 C220.11 132.17, 234.49 114.56, 267.08 78.47 M211.71 148.26 C226.09 132.72, 244.79 112.21, 266.82 84.87 M211.71 148.26 C226.05 130.45, 242.36 111.35, 266.82 84.87 M217.35 147.87 C228.94 133.16, 242.26 115.33, 267.21 90.51 M217.35 147.87 C236.34 124.84, 257.04 102.21, 267.21 90.51 M222.34 148.23 C231.75 136.46, 241.44 125.32, 266.95 96.91 M222.34 148.23 C234.69 135.16, 245.44 124.27, 266.95 96.91 M227.98 147.83 C237.11 136.93, 248.64 122.2, 267.35 102.55 M227.98 147.83 C240.32 133.87, 251.37 121.53, 267.35 102.55 M231 150.46 C243.81 136.23, 258.21 120.08, 265.12 111.21 M231 150.46 C241.29 137.64, 250.71 127.67, 265.12 111.21 M237.3 149.31 C243.54 138.92, 252.66 134.36, 264.86 117.61 M237.3 149.31 C247.45 137.47, 257.18 125.76, 264.86 117.61 M244.91 146.65 C250.77 140.33, 253.63 137, 266.56 121.74 M244.91 146.65 C251.25 139.36, 257.47 132.5, 266.56 121.74" stroke="#228be6" stroke-width="0.5" fill="none"></path><path d="M37 0 M37 0 C93.65 -1.57, 147.56 -1.67, 228 0 M37 0 C105.03 1.02, 173.83 2.83, 228 0 M228 0 C252.95 1.1, 265.61 14.24, 265 37 M228 0 C254.05 0.47, 263.07 12.62, 265 37 M265 37 C266.72 63.58, 265.9 91.29, 265 111 M265 37 C264.53 53.75, 264.61 68.17, 265 111 M265 111 C265.76 137.1, 251.88 147.32, 228 148 M265 111 C264.58 134.96, 251.46 148.94, 228 148 M228 148 C185.56 147.51, 143.43 145.06, 37 148 M228 148 C183.06 146.86, 137.23 147.4, 37 148 M37 148 C13.57 147.09, 1.92 134.64, 0 111 M37 148 C12.23 149.46, 0.57 135.73, 0 111 M0 111 C0.3 94.88, 1.29 79.32, 0 37 M0 111 C0.31 88.11, 0.49 67.99, 0 37 M0 37 C1.24 10.4, 11.39 -1.47, 37 0 M0 37 C1.99 12.17, 12.98 0.36, 37 0" stroke="#000000" stroke-width="1" fill="none"></path></g><g transform="translate(2212.1109174162975 260.16666666666674) rotate(0 127.5 17.5)"><text x="127.5" y="25" font-family="Virgil, Segoe UI Emoji" font-size="28px" fill="#000000" text-anchor="middle" style="white-space: pre;" direction="ltr">Prover</text></g><g stroke-linecap="round" transform="translate(2199.7775840829645 499.6666666666668) rotate(0 132.5 74)"><path d="M9.19 9.32 C9.19 9.32, 9.19 9.32, 9.19 9.32 M9.19 9.32 C9.19 9.32, 9.19 9.32, 9.19 9.32 M8.28 16.47 C10.17 11.41, 16.02 8.06, 20.08 2.88 M8.28 16.47 C11.95 12.16, 14.77 7.14, 20.08 2.88 M2.11 29.66 C7.21 22.91, 11.76 16.59, 23.76 4.75 M2.11 29.66 C10.33 19.87, 19.51 9.93, 23.76 4.75 M1.85 36.06 C12.09 23.68, 24.58 13.08, 30.06 3.6 M1.85 36.06 C12.34 23.99, 23.34 12.1, 30.06 3.6 M2.24 41.7 C11.12 32.1, 22.96 21.62, 37.67 0.95 M2.24 41.7 C13.97 27.23, 26.42 13.86, 37.67 0.95 M1.98 48.1 C12.53 32.83, 23.91 21.68, 43.31 0.55 M1.98 48.1 C16.97 31.82, 30.4 16.04, 43.31 0.55 M2.38 53.74 C13.74 43.63, 20.53 32.67, 48.3 0.91 M2.38 53.74 C19.4 32.86, 37.47 12.61, 48.3 0.91 M2.11 60.14 C19.29 41.7, 35.61 18.37, 53.94 0.52 M2.11 60.14 C21.9 35.36, 42.57 12.44, 53.94 0.52 M1.85 66.54 C22.57 40.36, 43.69 19.34, 58.93 0.88 M1.85 66.54 C21.63 41.78, 42.81 18.44, 58.93 0.88 M2.25 72.18 C18.91 53.48, 37.37 33.59, 64.57 0.48 M2.25 72.18 C20.95 49.54, 41.36 27.93, 64.57 0.48 M1.99 78.58 C29.24 46.76, 54.73 18.71, 69.56 0.84 M1.99 78.58 C19.6 58.16, 38.6 36.55, 69.56 0.84 M2.38 84.22 C25.15 55.24, 49.84 30.15, 75.2 0.45 M2.38 84.22 C18.7 66.21, 36.16 48.19, 75.2 0.45 M2.12 90.62 C34.84 56.08, 65.71 17.11, 80.19 0.81 M2.12 90.62 C27.84 60.05, 52.32 30.97, 80.19 0.81 M1.86 97.02 C31.92 61.27, 62.43 28.87, 85.83 0.41 M1.86 97.02 C19.5 75.73, 38.78 54.74, 85.83 0.41 M2.25 102.66 C25.58 76.98, 47.53 53.2, 90.82 0.77 M2.25 102.66 C38.6 62.14, 74.13 21.64, 90.82 0.77 M1.99 109.06 C30.41 74.3, 59.51 40.91, 96.46 0.38 M1.99 109.06 C40.36 66.48, 77.04 23.03, 96.46 0.38 M2.39 114.7 C26.1 84.39, 51.85 55.65, 101.45 0.74 M2.39 114.7 C37.55 74.38, 73.74 33.63, 101.45 0.74 M2.12 121.1 C36.94 79.57, 77.59 33.9, 106.44 1.1 M2.12 121.1 C41.17 77.39, 80.05 33.53, 106.44 1.1 M3.83 125.23 C35.3 88.66, 71.72 50.76, 112.08 0.7 M3.83 125.23 C33.75 90.26, 62.7 55.04, 112.08 0.7 M4.88 130.12 C42.29 85.11, 82.78 39.39, 117.07 1.06 M4.88 130.12 C48.6 79.75, 91.44 31.1, 117.07 1.06 M6.59 134.25 C43.13 92.27, 79.9 52.13, 122.71 0.67 M6.59 134.25 C41.21 93.44, 75.55 54.37, 122.71 0.67 M8.95 137.63 C48.24 91.25, 91.77 42.43, 127.7 1.03 M8.95 137.63 C55.96 82.99, 103.47 28.41, 127.7 1.03 M11.97 140.26 C55.03 90.72, 99.92 36.59, 133.34 0.63 M11.97 140.26 C50.19 95.99, 88.88 52.4, 133.34 0.63 M14.99 142.88 C57.3 96.79, 98.63 47.59, 138.33 0.99 M14.99 142.88 C60.87 86.97, 110.07 31.04, 138.33 0.99 M18.66 144.75 C67.96 88.57, 118.18 29.1, 143.97 0.6 M18.66 144.75 C59 100.66, 98.94 53.94, 143.97 0.6 M22.99 145.86 C59.32 103.88, 100.04 59.33, 148.96 0.96 M22.99 145.86 C54.25 109.61, 87 73.65, 148.96 0.96 M27.32 146.98 C65.31 103.04, 103.06 56.77, 154.6 0.57 M27.32 146.98 C59.41 111.38, 91.33 75.79, 154.6 0.57 M30.34 149.6 C66.09 108.5, 107.83 64.72, 159.59 0.93 M30.34 149.6 C71.75 101.67, 113.32 52.99, 159.59 0.93 M37.3 147.7 C64.15 116.22, 92.66 82.64, 165.23 0.53 M37.3 147.7 C79.09 100.2, 121.12 52.02, 165.23 0.53 M42.29 148.06 C70.51 111.47, 98.91 79.69, 170.22 0.89 M42.29 148.06 C71.07 115.62, 100.43 80.53, 170.22 0.89 M47.93 147.67 C81.08 105.6, 114.35 68.15, 175.86 0.5 M47.93 147.67 C92.69 96.77, 136.12 46.75, 175.86 0.5 M52.92 148.03 C90.44 106.48, 124.22 65.66, 180.85 0.86 M52.92 148.03 C84.81 112.31, 113.26 77.12, 180.85 0.86 M57.9 148.39 C106.41 90.8, 157.67 35.22, 186.49 0.46 M57.9 148.39 C103.2 95.66, 149.65 42.67, 186.49 0.46 M63.55 147.99 C95.52 110.66, 128.79 73.13, 191.48 0.82 M63.55 147.99 C105.39 101.48, 147.09 53.69, 191.48 0.82 M68.53 148.35 C109.37 104.47, 145.66 61.13, 197.12 0.43 M68.53 148.35 C120.17 91.51, 169.45 33.36, 197.12 0.43 M74.18 147.96 C105.32 111.16, 137.95 74.31, 202.11 0.79 M74.18 147.96 C111.25 105.14, 149.15 62.91, 202.11 0.79 M79.16 148.32 C125.05 96.05, 170.95 43.42, 207.75 0.39 M79.16 148.32 C124.51 98.45, 167.13 47.79, 207.75 0.39 M84.81 147.92 C130.35 94.4, 175.55 45.01, 212.74 0.75 M84.81 147.92 C118.28 109.69, 153.61 70.17, 212.74 0.75 M89.79 148.28 C127.42 108.59, 164.7 66.13, 217.72 1.11 M89.79 148.28 C125.99 106.3, 163.13 63.42, 217.72 1.11 M95.44 147.89 C121.65 116.68, 149.6 88.8, 223.37 0.72 M95.44 147.89 C144.99 89.03, 196.33 32.87, 223.37 0.72 M100.42 148.25 C133.8 108.18, 167.67 73.23, 229.01 0.32 M100.42 148.25 C147.37 94.23, 195.18 39.25, 229.01 0.32 M106.07 147.85 C156.82 90.37, 209.98 30.77, 233.34 1.44 M106.07 147.85 C148.77 100.28, 189.01 52.03, 233.34 1.44 M111.05 148.21 C138.08 116.97, 167.22 87.64, 238.33 1.8 M111.05 148.21 C149.32 105.26, 186.68 60.98, 238.33 1.8 M116.7 147.82 C151.15 112.32, 182.03 75.5, 242.66 2.91 M116.7 147.82 C160.56 98.13, 204.9 46.2, 242.66 2.91 M121.68 148.18 C161.85 102, 198.76 55.79, 246.33 4.78 M121.68 148.18 C149.82 113.36, 180.63 77.62, 246.33 4.78 M127.33 147.78 C164.46 104.21, 203.83 61.2, 250.67 5.9 M127.33 147.78 C160.47 108.36, 195.76 70.87, 250.67 5.9 M132.31 148.14 C172.48 101.26, 210.06 57.02, 253.68 8.52 M132.31 148.14 C176.98 96.03, 219.53 47.13, 253.68 8.52 M137.96 147.75 C182.62 95.91, 229.74 45.38, 256.7 11.15 M137.96 147.75 C175.48 104.91, 213.35 60.7, 256.7 11.15 M142.94 148.11 C168.76 117.88, 196.38 90.69, 259.72 13.77 M142.94 148.11 C174.48 110.6, 208.85 73.67, 259.72 13.77 M148.59 147.71 C182.62 108.24, 215.87 69.3, 262.74 16.4 M148.59 147.71 C175.59 119.05, 201.13 89.65, 262.74 16.4 M153.57 148.07 C192.33 103.6, 231.07 55.59, 263.79 21.28 M153.57 148.07 C197.25 99.21, 238.75 50.84, 263.79 21.28 M159.22 147.68 C183.56 124.99, 202.71 97.65, 265.5 25.42 M159.22 147.68 C197.01 104.45, 234.09 60.16, 265.5 25.42 M164.2 148.04 C198.34 108.02, 229.97 72.17, 266.55 30.31 M164.2 148.04 C199.11 109.03, 233.99 68.27, 266.55 30.31 M169.85 147.65 C193.34 119.85, 217.26 91.48, 266.94 35.95 M169.85 147.65 C190 124.37, 211.78 100.1, 266.94 35.95 M174.83 148.01 C204.69 115.52, 230.53 83.36, 266.68 42.35 M174.83 148.01 C208.21 108.1, 243.51 69.05, 266.68 42.35 M179.82 148.37 C203.21 123.61, 224.69 94.99, 266.42 48.74 M179.82 148.37 C201.46 120.73, 226.54 93.75, 266.42 48.74 M185.46 147.97 C207.07 121.65, 234.8 94.74, 266.82 54.39 M185.46 147.97 C217.01 111.06, 248.74 73.98, 266.82 54.39 M190.45 148.33 C214.17 118.93, 240.77 92.04, 266.55 60.79 M190.45 148.33 C218.51 115.43, 247.45 81.62, 266.55 60.79 M196.09 147.94 C213.58 126.45, 231.64 106.81, 266.95 66.43 M196.09 147.94 C214.82 127.27, 235.37 104.86, 266.95 66.43 M201.08 148.3 C225.33 121.3, 245.73 94.35, 266.69 72.83 M201.08 148.3 C226.13 120.12, 250.19 92.02, 266.69 72.83 M206.72 147.9 C217.73 133.79, 230.99 115.42, 267.08 78.47 M206.72 147.9 C226.3 124.47, 246.75 100.64, 267.08 78.47 M211.71 148.26 C229.58 125.93, 250.65 103.97, 266.82 84.87 M211.71 148.26 C223.72 133.98, 236.47 119.19, 266.82 84.87 M217.35 147.87 C236.49 126.86, 252.05 108.95, 267.21 90.51 M217.35 147.87 C232.89 128.87, 249.63 110.89, 267.21 90.51 M222.34 148.23 C236.49 130.7, 252.59 111.32, 266.95 96.91 M222.34 148.23 C234.74 131.63, 248.75 117.11, 266.95 96.91 M227.98 147.83 C238.63 135.94, 252 121.05, 267.35 102.55 M227.98 147.83 C235.39 138.34, 243.33 130.28, 267.35 102.55 M231 150.46 C236.41 142.73, 246.96 131.97, 265.12 111.21 M231 150.46 C242.3 138.1, 254.24 122.96, 265.12 111.21 M237.3 149.31 C243.5 140.93, 248.78 136.06, 264.86 117.61 M237.3 149.31 C245.42 138.86, 255.44 128.51, 264.86 117.61 M244.91 146.65 C251.1 138.12, 260.19 128.32, 266.56 121.74 M244.91 146.65 C250.33 141.29, 256.51 134.7, 266.56 121.74" stroke="#228be6" stroke-width="0.5" fill="none"></path><path d="M37 0 M37 0 C112 -0.16, 185.91 0.07, 228 0 M37 0 C104.1 -0.56, 171.35 -0.36, 228 0 M228 0 C253.79 1.81, 266.48 13.97, 265 37 M228 0 C252.89 1.26, 264 11.76, 265 37 M265 37 C264.23 62.4, 264.69 86.26, 265 111 M265 37 C264.73 65.54, 266.57 92.94, 265 111 M265 111 C265.18 136.61, 252.14 149.43, 228 148 M265 111 C262.9 133.38, 251.88 145.84, 228 148 M228 148 C167.31 146.93, 108.93 146.69, 37 148 M228 148 C154.3 147.13, 78.83 146.95, 37 148 M37 148 C12.95 147.28, -0.55 133.69, 0 111 M37 148 C12.76 146.61, -1.23 134.28, 0 111 M0 111 C-0.85 87.31, -1.51 61.55, 0 37 M0 111 C0.34 89.15, -0.57 67.8, 0 37 M0 37 C-1.85 12.92, 11.75 1.95, 37 0 M0 37 C1.78 13.79, 14.53 1.4, 37 0" stroke="#000000" stroke-width="1" fill="none"></path></g><g transform="translate(2204.7775840829645 556.1666666666667) rotate(0 127.5 17.5)"><text x="127.5" y="25" font-family="Virgil, Segoe UI Emoji" font-size="28px" fill="#000000" text-anchor="middle" style="white-space: pre;" direction="ltr">Verifier</text></g><g transform="translate(812.0275840829643 130.5) rotate(0 95.50000000000003 12.5)"><text x="0" y="18" font-family="Virgil, Segoe UI Emoji" font-size="20px" fill="#000000" text-anchor="start" style="white-space: pre;" direction="ltr">Vampir Witness Map</text></g><g transform="translate(783.8609174162975 212.83333333333337) rotate(0 118.00000000000003 12.5)"><text x="0" y="18" font-family="Virgil, Segoe UI Emoji" font-size="20px" fill="#000000" text-anchor="start" style="white-space: pre;" direction="ltr">Vampir Public Input Map</text></g><g transform="translate(820.027584082964 570) rotate(0 84 12.5)"><text x="0" y="18" font-family="Virgil, Segoe UI Emoji" font-size="20px" fill="#000000" text-anchor="start" style="white-space: pre;" direction="ltr">Vampir Circuit IR</text></g><g transform="translate(2250.027584082964 402.4166666666668) rotate(0 27.5 12.5)"><text x="0" y="18" font-family="Virgil, Segoe UI Emoji" font-size="20px" fill="#000000" text-anchor="start" style="white-space: pre;" direction="ltr">Proof</text></g><g stroke-linecap="round"><g transform="translate(726.3991368752021 159.48846031854566) rotate(0 210.02010508688036 -0.4149108663903416)"><path d="M1.03 -0.32 C71.12 -0.35, 350.18 -0.72, 419.93 -0.89 M0.11 -1.53 C70.1 -1.29, 349.26 0.49, 419.01 0.7" stroke="#000000" stroke-width="1" fill="none"></path></g><g transform="translate(726.3991368752021 159.48846031854566) rotate(0 210.02010508688036 -0.4149108663903416)"><path d="M390.23 10.92 C398.04 7.5, 404.31 6.1, 419.81 1.62 M391.48 11.09 C396.99 8.57, 405.22 5.87, 419.36 -0.04" stroke="#000000" stroke-width="1" fill="none"></path></g><g transform="translate(726.3991368752021 159.48846031854566) rotate(0 210.02010508688036 -0.4149108663903416)"><path d="M390.34 -9.6 C397.99 -7.9, 404.24 -4.18, 419.81 1.62 M391.58 -9.43 C397.25 -6.79, 405.46 -4.32, 419.36 -0.04" stroke="#000000" stroke-width="1" fill="none"></path></g></g><g stroke-linecap="round"><g transform="translate(724.078856001755 243.1931171417349) rotate(0 212.38096350567966 -1.068384855786693)"><path d="M-0.93 1.02 C69.53 0.64, 352.67 -2.74, 423.39 -3.16 M0.79 0.51 C71.57 0.37, 354.84 -1.28, 425.69 -1.91" stroke="#000000" stroke-width="1" fill="none"></path></g><g transform="translate(724.078856001755 243.1931171417349) rotate(0 212.38096350567966 -1.068384855786693)"><path d="M399.27 7.24 C406.72 3.74, 419.46 0.76, 427.54 -0.06 M397.63 9.45 C407.15 4.41, 416.27 1.08, 426.02 -2.65" stroke="#000000" stroke-width="1" fill="none"></path></g><g transform="translate(724.078856001755 243.1931171417349) rotate(0 212.38096350567966 -1.068384855786693)"><path d="M399.13 -13.28 C406.47 -9.5, 419.26 -5.19, 427.54 -0.06 M397.49 -11.07 C407.12 -9.05, 416.3 -5.32, 426.02 -2.65" stroke="#000000" stroke-width="1" fill="none"></path></g></g><g stroke-linecap="round"><g transform="translate(724.3910718879731 610.6165635656205) rotate(0 215.4077928563594 -3.211443669203163)"><path d="M0.83 -0.43 C72.85 -1.27, 359.37 -5.07, 431.01 -5.99 M-0.19 -1.71 C71.82 -2.26, 358.68 -3.99, 430.39 -4.47" stroke="#000000" stroke-width="1" fill="none"></path></g><g transform="translate(724.3910718879731 610.6165635656205) rotate(0 215.4077928563594 -3.211443669203163)"><path d="M401.54 7.02 C408.18 4.08, 414.15 1.72, 431.19 -6.31 M402.66 4.99 C408.53 4.53, 415.12 0.92, 429.88 -4.85" stroke="#000000" stroke-width="1" fill="none"></path></g><g transform="translate(724.3910718879731 610.6165635656205) rotate(0 215.4077928563594 -3.211443669203163)"><path d="M401.41 -13.5 C407.91 -12.15, 413.91 -10.22, 431.19 -6.31 M402.53 -15.53 C408.28 -11.67, 414.9 -10.96, 429.88 -4.85" stroke="#000000" stroke-width="1" fill="none"></path></g></g><g stroke-linecap="round"><g transform="translate(2327.5625708722237 368.40157869891584) rotate(0 3.0704965799103547 62.035090160183444)"><path d="M-0.28 0.07 C0.25 21.07, 3.43 104.31, 4.29 125 M1.78 -0.93 C2.57 19.78, 6.07 102.08, 6.42 123.13" stroke="#000000" stroke-width="1" fill="none"></path></g><g transform="translate(2327.5625708722237 368.40157869891584) rotate(0 3.0704965799103547 62.035090160183444)"><path d="M-4.59 93.41 C0.22 105.36, 3.29 115.58, 7.01 124.64 M-3.74 94.49 C-1.02 106.26, 3.28 117.12, 7.42 122.66" stroke="#000000" stroke-width="1" fill="none"></path></g><g transform="translate(2327.5625708722237 368.40157869891584) rotate(0 3.0704965799103547 62.035090160183444)"><path d="M15.92 92.77 C12.69 104.92, 7.72 115.39, 7.01 124.64 M16.77 93.85 C11.83 105.7, 8.46 116.8, 7.42 122.66" stroke="#000000" stroke-width="1" fill="none"></path></g></g><g stroke-linecap="round"><g transform="translate(2475.5143403197253 581.9500572361635) rotate(0 125.61195630442501 0.19854742223702715)"><path d="M0.88 -1.02 C42.9 -0.99, 209.83 -0.58, 251.34 -0.35 M-0.11 1.06 C41.84 1.34, 208.51 1.64, 250.57 1.2" stroke="#000000" stroke-width="1" fill="none"></path></g><g transform="translate(2475.5143403197253 581.9500572361635) rotate(0 125.61195630442501 0.19854742223702715)"><path d="M220.71 12.14 C229.2 7.14, 237.11 8.04, 249.07 1.13 M221.63 11.38 C232.78 6.71, 243.57 3.73, 250.91 1.69" stroke="#000000" stroke-width="1" fill="none"></path></g><g transform="translate(2475.5143403197253 581.9500572361635) rotate(0 125.61195630442501 0.19854742223702715)"><path d="M220.64 -8.38 C229.06 -8.5, 236.99 -2.72, 249.07 1.13 M221.56 -9.14 C232.72 -5.75, 243.54 -0.67, 250.91 1.69" stroke="#000000" stroke-width="1" fill="none"></path></g></g><g transform="translate(2648.7775840829645 545.25) rotate(0 15 12.5)"><text x="0" y="18" font-family="Virgil, Segoe UI Emoji" font-size="20px" fill="#000000" text-anchor="start" style="white-space: pre;" direction="ltr">0/1</text></g><g stroke-linecap="round"><g transform="translate(14.781823893117632 189.52573084500597) rotate(0 173.9455946494328 -0.8886247896901127)"><path d="M0.63 0.47 C58.51 -0.03, 290.43 -1.74, 348.39 -2.25 M-0.5 -0.33 C57.14 -0.72, 289.51 -0.66, 347.54 -0.86" stroke="#000000" stroke-width="1" fill="none"></path></g><g transform="translate(14.781823893117632 189.52573084500597) rotate(0 173.9455946494328 -0.8886247896901127)"><path d="M320.14 9.75 C329.88 5.55, 340.44 1.63, 348.44 -2.16 M319 10.34 C328.28 5.85, 336.63 3.14, 347.33 -0.05" stroke="#000000" stroke-width="1" fill="none"></path></g><g transform="translate(14.781823893117632 189.52573084500597) rotate(0 173.9455946494328 -0.8886247896901127)"><path d="M320.12 -10.77 C329.99 -6.91, 340.56 -2.77, 348.44 -2.16 M318.97 -10.18 C328.41 -8.38, 336.77 -4.79, 347.33 -0.05" stroke="#000000" stroke-width="1" fill="none"></path></g></g><g transform="translate(72.35225940763905 155.37554112554108) rotate(0 111.5 12.5)"><text x="0" y="18" font-family="Virgil, Segoe UI Emoji" font-size="20px" fill="#000000" text-anchor="start" style="white-space: pre;" direction="ltr">Prover's Initial Inputs</text></g><g stroke-linecap="round"><g transform="translate(21.681680019026942 604.1463279972147) rotate(0 176.1841238157594 -0.03503786984367707)"><path d="M0.26 0.88 C59.32 0.57, 294.84 -0.53, 353.43 -0.95 M-1.06 0.29 C58.01 0.12, 294.37 0.79, 353 0.64" stroke="#000000" stroke-width="1" fill="none"></path></g><g transform="translate(21.681680019026942 604.1463279972147) rotate(0 176.1841238157594 -0.03503786984367707)"><path d="M326.26 12.53 C331.15 7.49, 336.28 7.53, 352.32 0.05 M325.2 10.08 C334.53 7.86, 344.05 2.63, 352.22 1.61" stroke="#000000" stroke-width="1" fill="none"></path></g><g transform="translate(21.681680019026942 604.1463279972147) rotate(0 176.1841238157594 -0.03503786984367707)"><path d="M326.27 -7.99 C331.31 -8.48, 336.44 -3.88, 352.32 0.05 M325.21 -10.44 C334.73 -5.28, 344.25 -3.13, 352.22 1.61" stroke="#000000" stroke-width="1" fill="none"></path></g></g><g transform="translate(68.95832001369973 566.6179653679656) rotate(0 69.5 12.5)"><text x="0" y="18" font-family="Virgil, Segoe UI Emoji" font-size="20px" fill="#000000" text-anchor="start" style="white-space: pre;" direction="ltr">Juvix Function</text></g><g stroke-linecap="round"><g transform="translate(1648.22606842367 422.2375772776594) rotate(0 96.20536780018358 -0.5255761518249216)"><path d="M1.03 -0.1 C32.98 -0.2, 160.47 0.53, 192.29 0.42 M0.12 -1.2 C31.85 -1.13, 159.53 -1.65, 191.36 -1.42" stroke="#000000" stroke-width="1" fill="none"></path></g></g><g stroke-linecap="round" transform="translate(1846.344777758855 402.1500407804752) rotate(0 22.5 24.166666666666686)"><path d="M3.96 11.39 C3.96 11.39, 3.96 11.39, 3.96 11.39 M3.96 11.39 C3.96 11.39, 3.96 11.39, 3.96 11.39 M3.96 19.86 C7.14 14.85, 13.12 9.44, 15.73 3.71 M3.08 19.42 C6.15 14.9, 7.91 12.71, 16.42 2.55 M1.22 27.09 C9.25 17.32, 14.49 9.18, 19.92 2.97 M1.09 26.89 C8.38 18.83, 16.33 10.82, 22.58 2.13 M3.35 29.44 C11.05 22.06, 18.73 9.16, 25.6 1.15 M3.39 30.37 C7.8 24.69, 12.45 18.25, 27.92 3.41 M4.98 32.6 C13.42 22.24, 22.77 14.33, 30.94 3.76 M5.52 34.83 C10.36 28, 18.02 19.84, 32.36 2.54 M6.06 36.16 C14.13 28.09, 24.45 20.14, 36.66 5.12 M7.85 37.46 C16.75 28.09, 25.52 15.53, 35.71 6.32 M9.59 44.29 C19.99 31.5, 30.97 19.29, 38.23 6.66 M7.39 43.63 C17.43 31.95, 27.14 21.29, 38.95 9 M12.52 45.03 C17.07 36.27, 27.08 29.49, 39.57 10.98 M11.74 44.65 C22.85 32.83, 32.43 21.79, 42.04 11.7 M14.77 45.6 C21.8 37.52, 31.39 25.98, 43.95 13.7 M16.27 46.49 C22.56 39.76, 29.75 30.62, 43.88 12.68 M20.74 48.73 C27.69 38.78, 35.29 32.46, 46.96 17.74 M18.71 48.46 C28.12 39.66, 35.42 31.07, 45.43 19.03 M24.28 50.93 C28.02 44.83, 34.27 37.51, 46.67 25.38 M24.19 48.96 C27.59 44.95, 31.53 38.56, 46.93 23.11 M31.6 46.33 C38.93 38.71, 42.36 32.54, 46.68 30.83 M31.22 45.66 C35.57 41.77, 38.55 37.48, 47.05 30.58" stroke="#000000" stroke-width="0.5" fill="none"></path><path d="M14.73 1.15 C18.91 -0.91, 25.78 -0.89, 30.44 0.84 C35.1 2.57, 40.33 7, 42.68 11.51 C45.03 16.03, 45.56 22.84, 44.52 27.95 C43.48 33.06, 40.23 38.73, 36.44 42.19 C32.65 45.65, 26.7 48.72, 21.77 48.69 C16.83 48.66, 10.35 45.53, 6.84 42.03 C3.34 38.52, 1.21 32.79, 0.74 27.67 C0.27 22.55, 0.91 15.87, 4.04 11.3 C7.16 6.73, 16.31 2.09, 19.48 0.25 C22.64 -1.58, 23.17 -0.2, 23.02 0.28 M21.98 -0.49 C26.73 -1.01, 32.64 1.69, 36.22 5.13 C39.81 8.57, 42.4 15.08, 43.5 20.16 C44.59 25.23, 45.09 31.37, 42.8 35.58 C40.51 39.79, 34.38 43.73, 29.76 45.43 C25.14 47.12, 19.46 47.17, 15.07 45.73 C10.67 44.3, 5.91 40.81, 3.37 36.83 C0.83 32.84, -0.75 26.75, -0.19 21.83 C0.37 16.91, 3.22 10.76, 6.73 7.29 C10.24 3.83, 18.22 2.05, 20.88 1.04 C23.54 0.03, 22.55 0.98, 22.7 1.24" stroke="#000000" stroke-width="1" fill="none"></path></g><g stroke-linecap="round"><g transform="translate(1893.0114444255214 415.48337411380857) rotate(0 156.2410418722842 -51.836414526824704)"><path d="M0.41 1.13 C11.99 -0.96, 51.55 4, 69.35 -11.7 C87.14 -27.39, 66.62 -77.95, 107.2 -93.04 C147.77 -108.13, 278.6 -100.74, 312.82 -102.24 M-0.83 0.69 C11.15 -1.84, 53.33 2.46, 71.71 -13.5 C90.1 -29.47, 69.23 -79.96, 109.49 -95.11 C149.76 -110.25, 279.72 -102.75, 313.32 -104.36" stroke="#000000" stroke-width="1" fill="none"></path></g><g transform="translate(1893.0114444255214 415.48337411380857) rotate(0 156.2410418722842 -51.836414526824704)"><path d="M286.99 -95.27 C294.17 -99.11, 302.16 -99.34, 314.72 -104.12 M285.38 -94.58 C295.98 -97.53, 307.9 -101.81, 313.52 -104.42" stroke="#000000" stroke-width="1" fill="none"></path></g><g transform="translate(1893.0114444255214 415.48337411380857) rotate(0 156.2410418722842 -51.836414526824704)"><path d="M287.05 -115.79 C294.37 -113.71, 302.34 -108.03, 314.72 -104.12 M285.45 -115.1 C295.83 -110.1, 307.72 -106.43, 313.52 -104.42" stroke="#000000" stroke-width="1" fill="none"></path></g></g><g stroke-linecap="round"><g transform="translate(2193.011444425522 533.8529811371383) rotate(180 -148.12659350530578 -48.1030205654924)"><path d="M-0.76 0.93 C-12.36 -0.97, -51.56 4.05, -69.56 -10.68 C-87.56 -25.42, -70.78 -73.09, -108.73 -87.48 C-146.68 -101.87, -265.8 -95.45, -297.24 -97.03 M1.05 0.37 C-10.69 -1.92, -51.82 2.05, -70.28 -12.37 C-88.73 -26.78, -71.87 -72.17, -109.71 -86.12 C-147.54 -100.07, -266.32 -94.3, -297.3 -96.06" stroke="#000000" stroke-width="1" fill="none"></path></g><g transform="translate(2193.011444425522 533.8529811371383) rotate(180 -148.12659350530578 -48.1030205654924)"><path d="M-267.5 -105.41 C-276.26 -103.89, -286.19 -101.1, -297.71 -97.27 M-269.21 -105.19 C-277.21 -102.55, -286.16 -99.57, -297.48 -95.74" stroke="#000000" stroke-width="1" fill="none"></path></g><g transform="translate(2193.011444425522 533.8529811371383) rotate(180 -148.12659350530578 -48.1030205654924)"><path d="M-267.63 -84.89 C-276.47 -89.67, -286.35 -93.17, -297.71 -97.27 M-269.33 -84.67 C-277.42 -87.91, -286.34 -90.81, -297.48 -95.74" stroke="#000000" stroke-width="1" fill="none"></path></g></g><g transform="translate(1650.8296262437034 391.6045862350207) rotate(0 32 12.5)"><text x="32" y="18" font-family="Virgil, Segoe UI Emoji" font-size="20px" fill="#000000" text-anchor="middle" style="white-space: pre;" direction="ltr">Circuit</text></g><g stroke-linecap="round"><g transform="translate(1642.5617098351265 530.2288079683168) rotate(0 278.53104679257694 39.52687935636129)"><path d="M-0.47 -0.82 C27.48 0.49, 113.43 -4.25, 167.31 7.97 C221.19 20.19, 257.78 61.04, 322.81 72.48 C387.85 83.93, 518.22 75.61, 557.54 76.64 M1.48 1.36 C29.31 2.82, 112.81 -2.85, 166.29 9.24 C219.77 21.33, 257.15 62.58, 322.35 73.92 C387.56 85.25, 518.32 76.88, 557.53 77.22" stroke="#000000" stroke-width="1" fill="none"></path></g><g transform="translate(1642.5617098351265 530.2288079683168) rotate(0 278.53104679257694 39.52687935636129)"><path d="M528.21 87.91 C536.06 86.34, 544.64 81.69, 555.88 78.34 M529.08 87.75 C540.36 82.94, 551.23 80.04, 556.85 77.46" stroke="#000000" stroke-width="1" fill="none"></path></g><g transform="translate(1642.5617098351265 530.2288079683168) rotate(0 278.53104679257694 39.52687935636129)"><path d="M527.74 67.39 C535.73 71.22, 544.43 71.96, 555.88 78.34 M528.61 67.23 C540.02 70.34, 551.07 75.36, 556.85 77.46" stroke="#000000" stroke-width="1" fill="none"></path></g></g><g stroke-linecap="round"><g transform="translate(2201.6781110921875 224.61922816022349) rotate(180 -276.5072312918393 56.21613972694495)"><path d="M-0.94 0.48 C-27.81 2.62, -109.81 -4.19, -161.58 12.42 C-213.36 29.03, -246.25 83.55, -311.57 100.15 C-376.88 116.75, -513.39 109.81, -553.47 112.02 M0.77 -0.32 C-26.26 1.49, -110.53 -6.38, -162.76 10.53 C-215 27.44, -247.5 84.08, -312.67 101.15 C-377.84 118.22, -513.68 111.35, -553.78 112.95" stroke="#000000" stroke-width="1" fill="none"></path></g><g transform="translate(2201.6781110921875 224.61922816022349) rotate(180 -276.5072312918393 56.21613972694495)"><path d="M-524.8 101.94 C-532.51 104.17, -541.85 106.21, -554.34 113.58 M-525.35 102.15 C-536.53 105.86, -548.02 110.22, -553.25 112.46" stroke="#000000" stroke-width="1" fill="none"></path></g><g transform="translate(2201.6781110921875 224.61922816022349) rotate(180 -276.5072312918393 56.21613972694495)"><path d="M-524.8 122.46 C-532.43 119.15, -541.78 115.66, -554.34 113.58 M-525.34 122.67 C-536.7 118.38, -548.2 114.73, -553.25 112.46" stroke="#000000" stroke-width="1" fill="none"></path></g></g><g transform="translate(1650.890232304309 306.45307108350545) rotate(0 48 12.5)"><text x="48" y="18" font-family="Virgil, Segoe UI Emoji" font-size="20px" fill="#000000" text-anchor="middle" style="white-space: pre;" direction="ltr">ProverKey</text></g><g transform="translate(1653.5720504861274 495.72579835623276) rotate(0 50.5 12.5)"><text x="50.5" y="18" font-family="Virgil, Segoe UI Emoji" font-size="20px" fill="#000000" text-anchor="middle" style="white-space: pre;" direction="ltr">VerifierKey</text></g><g transform="translate(2217.511444425522 60.15004078047525) rotate(0 118.5 22.5)"><text x="118.5" y="32" font-family="Virgil, Segoe UI Emoji" font-size="36px" fill="#000000" text-anchor="middle" style="white-space: pre;" direction="ltr">Proof System</text></g><g transform="translate(2040.0114444255216 199.65004078047525) rotate(0 48 12.5)"><text x="48" y="18" font-family="Virgil, Segoe UI Emoji" font-size="20px" fill="#000000" text-anchor="middle" style="white-space: pre;" direction="ltr">ProverKey</text></g><g transform="translate(2061.0114444255214 276.31670744714194) rotate(0 32 12.5)"><text x="32" y="18" font-family="Virgil, Segoe UI Emoji" font-size="20px" fill="#000000" text-anchor="middle" style="white-space: pre;" direction="ltr">Circuit</text></g><g transform="translate(2062.0114444255214 499.65004078047525) rotate(0 32 12.5)"><text x="32" y="18" font-family="Virgil, Segoe UI Emoji" font-size="20px" fill="#000000" text-anchor="middle" style="white-space: pre;" direction="ltr">Circuit</text></g><g transform="translate(2035.8447777588551 571.316707447142) rotate(0 50.5 12.5)"><text x="50.5" y="18" font-family="Virgil, Segoe UI Emoji" font-size="20px" fill="#000000" text-anchor="middle" style="white-space: pre;" direction="ltr">VerifierKey</text></g><g stroke-linecap="round"><g transform="translate(10.431708868406702 351.06765033211445) rotate(0 173.0072212482569 -0.5641424196042806)"><path d="M0.67 -1.04 C58.24 -1.53, 288.63 -1.81, 346.45 -2.15 M-0.43 1.02 C56.85 0.65, 287.35 -0.15, 345.29 -0.7" stroke="#000000" stroke-width="1" fill="none"></path></g><g transform="translate(10.431708868406702 351.06765033211445) rotate(0 173.0072212482569 -0.5641424196042806)"><path d="M315.42 9.06 C327.65 6.76, 336.98 3.37, 345.97 -0.98 M316.79 9.15 C324.2 8.39, 329.07 5.97, 344.48 -0.74" stroke="#000000" stroke-width="1" fill="none"></path></g><g transform="translate(10.431708868406702 351.06765033211445) rotate(0 173.0072212482569 -0.5641424196042806)"><path d="M315.29 -11.46 C327.7 -5.85, 337.08 -1.32, 345.97 -0.98 M316.67 -11.37 C324.09 -7.58, 328.99 -5.45, 344.48 -0.74" stroke="#000000" stroke-width="1" fill="none"></path></g></g><g transform="translate(27.446404817060852 318.4426093230433) rotate(0 142 12.5)"><text x="0" y="18" font-family="Virgil, Segoe UI Emoji" font-size="20px" fill="#000000" text-anchor="start" style="white-space: pre;" direction="ltr">Target Backend Parameters</text></g><g stroke-linecap="round"><g transform="translate(728.7483999648634 350.2376339259805) rotate(0 206.00453473612583 -1.6831240368480707)"><path d="M0.95 -0.17 C69.61 -0.46, 343.4 -1.28, 412.02 -1.61 M-0.01 -1.31 C68.51 -1.93, 342.48 -2.71, 411.23 -3.2" stroke="#000000" stroke-width="1" fill="none"></path></g><g transform="translate(728.7483999648634 350.2376339259805) rotate(0 206.00453473612583 -1.6831240368480707)"><path d="M382.8 7.69 C393.4 5.43, 401.1 -0.28, 412.13 -1.64 M383.93 6.2 C392.98 4.11, 403.27 0.75, 411.81 -3.38" stroke="#000000" stroke-width="1" fill="none"></path></g><g transform="translate(728.7483999648634 350.2376339259805) rotate(0 206.00453473612583 -1.6831240368480707)"><path d="M382.71 -12.83 C393.35 -8.82, 401.09 -8.24, 412.13 -1.64 M383.83 -14.32 C392.85 -9.2, 403.17 -5.35, 411.81 -3.38" stroke="#000000" stroke-width="1" fill="none"></path></g></g><g transform="translate(777.4366036011675 319.83414017285264) rotate(0 142.00000000000003 12.5)"><text x="0" y="18" font-family="Virgil, Segoe UI Emoji" font-size="20px" fill="#000000" text-anchor="start" style="white-space: pre;" direction="ltr">Target Backend Parameters</text></g></svg>